G75*
%MOIN*%
%OFA0B0*%
%FSLAX25Y25*%
%IPPOS*%
%LPD*%
%AMOC8*
5,1,8,0,0,1.08239X$1,22.5*
%
%ADD10C,0.00000*%
%ADD11C,0.00500*%
%ADD12C,0.00000*%
%ADD13C,0.01600*%
%ADD14C,0.01200*%
%ADD15C,0.01000*%
%ADD16R,0.43307X0.33465*%
%ADD17R,0.15000X0.08189*%
%ADD18R,0.04134X0.04252*%
%ADD19R,0.05118X0.05906*%
%ADD20R,0.05906X0.08268*%
%ADD21C,0.01700*%
%ADD22R,0.07087X0.04724*%
%ADD23R,0.04724X0.05512*%
%ADD24R,0.07098X0.06299*%
%ADD25OC8,0.10050*%
%ADD26OC8,0.04800*%
%ADD27C,0.04800*%
%ADD28C,0.07400*%
%ADD29OC8,0.07400*%
%ADD30C,0.05906*%
%ADD31C,0.04800*%
%ADD32OC8,0.10000*%
%ADD33C,0.04724*%
%ADD34C,0.08858*%
%ADD35C,0.06000*%
%ADD36C,0.02700*%
%ADD37C,0.08189*%
%ADD38C,0.08268*%
%ADD39C,0.08858*%
%ADD40C,0.10630*%
%ADD41C,0.03642*%
%ADD42C,0.00800*%
%ADD43C,0.02400*%
%ADD44C,0.03762*%
D10*
X0099241Y0163309D02*
X0099252Y0164203D01*
X0099285Y0165096D01*
X0099340Y0165988D01*
X0099416Y0166878D01*
X0099515Y0167767D01*
X0099635Y0168652D01*
X0099777Y0169535D01*
X0099941Y0170414D01*
X0100126Y0171288D01*
X0100332Y0172158D01*
X0100560Y0173022D01*
X0100809Y0173880D01*
X0101079Y0174732D01*
X0101370Y0175578D01*
X0101681Y0176415D01*
X0102013Y0177245D01*
X0102365Y0178067D01*
X0102737Y0178879D01*
X0103129Y0179682D01*
X0103541Y0180476D01*
X0103972Y0181259D01*
X0104422Y0182031D01*
X0104891Y0182792D01*
X0105378Y0183541D01*
X0105884Y0184278D01*
X0106408Y0185003D01*
X0106949Y0185714D01*
X0107507Y0186412D01*
X0108083Y0187096D01*
X0108675Y0187765D01*
X0109283Y0188420D01*
X0109907Y0189060D01*
X0110547Y0189684D01*
X0111202Y0190292D01*
X0111871Y0190884D01*
X0112555Y0191460D01*
X0113253Y0192018D01*
X0113964Y0192559D01*
X0114689Y0193083D01*
X0115426Y0193589D01*
X0116175Y0194076D01*
X0116936Y0194545D01*
X0117708Y0194995D01*
X0118491Y0195426D01*
X0119285Y0195838D01*
X0120088Y0196230D01*
X0120900Y0196602D01*
X0121722Y0196954D01*
X0122552Y0197286D01*
X0123389Y0197597D01*
X0124235Y0197888D01*
X0125087Y0198158D01*
X0125945Y0198407D01*
X0126809Y0198635D01*
X0127679Y0198841D01*
X0128553Y0199026D01*
X0129432Y0199190D01*
X0130315Y0199332D01*
X0131200Y0199452D01*
X0132089Y0199551D01*
X0132979Y0199627D01*
X0133871Y0199682D01*
X0134764Y0199715D01*
X0135658Y0199726D01*
X0136552Y0199715D01*
X0137445Y0199682D01*
X0138337Y0199627D01*
X0139227Y0199551D01*
X0140116Y0199452D01*
X0141001Y0199332D01*
X0141884Y0199190D01*
X0142763Y0199026D01*
X0143637Y0198841D01*
X0144507Y0198635D01*
X0145371Y0198407D01*
X0146229Y0198158D01*
X0147081Y0197888D01*
X0147927Y0197597D01*
X0148764Y0197286D01*
X0149594Y0196954D01*
X0150416Y0196602D01*
X0151228Y0196230D01*
X0152031Y0195838D01*
X0152825Y0195426D01*
X0153608Y0194995D01*
X0154380Y0194545D01*
X0155141Y0194076D01*
X0155890Y0193589D01*
X0156627Y0193083D01*
X0157352Y0192559D01*
X0158063Y0192018D01*
X0158761Y0191460D01*
X0159445Y0190884D01*
X0160114Y0190292D01*
X0160769Y0189684D01*
X0161409Y0189060D01*
X0162033Y0188420D01*
X0162641Y0187765D01*
X0163233Y0187096D01*
X0163809Y0186412D01*
X0164367Y0185714D01*
X0164908Y0185003D01*
X0165432Y0184278D01*
X0165938Y0183541D01*
X0166425Y0182792D01*
X0166894Y0182031D01*
X0167344Y0181259D01*
X0167775Y0180476D01*
X0168187Y0179682D01*
X0168579Y0178879D01*
X0168951Y0178067D01*
X0169303Y0177245D01*
X0169635Y0176415D01*
X0169946Y0175578D01*
X0170237Y0174732D01*
X0170507Y0173880D01*
X0170756Y0173022D01*
X0170984Y0172158D01*
X0171190Y0171288D01*
X0171375Y0170414D01*
X0171539Y0169535D01*
X0171681Y0168652D01*
X0171801Y0167767D01*
X0171900Y0166878D01*
X0171976Y0165988D01*
X0172031Y0165096D01*
X0172064Y0164203D01*
X0172075Y0163309D01*
X0172064Y0162415D01*
X0172031Y0161522D01*
X0171976Y0160630D01*
X0171900Y0159740D01*
X0171801Y0158851D01*
X0171681Y0157966D01*
X0171539Y0157083D01*
X0171375Y0156204D01*
X0171190Y0155330D01*
X0170984Y0154460D01*
X0170756Y0153596D01*
X0170507Y0152738D01*
X0170237Y0151886D01*
X0169946Y0151040D01*
X0169635Y0150203D01*
X0169303Y0149373D01*
X0168951Y0148551D01*
X0168579Y0147739D01*
X0168187Y0146936D01*
X0167775Y0146142D01*
X0167344Y0145359D01*
X0166894Y0144587D01*
X0166425Y0143826D01*
X0165938Y0143077D01*
X0165432Y0142340D01*
X0164908Y0141615D01*
X0164367Y0140904D01*
X0163809Y0140206D01*
X0163233Y0139522D01*
X0162641Y0138853D01*
X0162033Y0138198D01*
X0161409Y0137558D01*
X0160769Y0136934D01*
X0160114Y0136326D01*
X0159445Y0135734D01*
X0158761Y0135158D01*
X0158063Y0134600D01*
X0157352Y0134059D01*
X0156627Y0133535D01*
X0155890Y0133029D01*
X0155141Y0132542D01*
X0154380Y0132073D01*
X0153608Y0131623D01*
X0152825Y0131192D01*
X0152031Y0130780D01*
X0151228Y0130388D01*
X0150416Y0130016D01*
X0149594Y0129664D01*
X0148764Y0129332D01*
X0147927Y0129021D01*
X0147081Y0128730D01*
X0146229Y0128460D01*
X0145371Y0128211D01*
X0144507Y0127983D01*
X0143637Y0127777D01*
X0142763Y0127592D01*
X0141884Y0127428D01*
X0141001Y0127286D01*
X0140116Y0127166D01*
X0139227Y0127067D01*
X0138337Y0126991D01*
X0137445Y0126936D01*
X0136552Y0126903D01*
X0135658Y0126892D01*
X0134764Y0126903D01*
X0133871Y0126936D01*
X0132979Y0126991D01*
X0132089Y0127067D01*
X0131200Y0127166D01*
X0130315Y0127286D01*
X0129432Y0127428D01*
X0128553Y0127592D01*
X0127679Y0127777D01*
X0126809Y0127983D01*
X0125945Y0128211D01*
X0125087Y0128460D01*
X0124235Y0128730D01*
X0123389Y0129021D01*
X0122552Y0129332D01*
X0121722Y0129664D01*
X0120900Y0130016D01*
X0120088Y0130388D01*
X0119285Y0130780D01*
X0118491Y0131192D01*
X0117708Y0131623D01*
X0116936Y0132073D01*
X0116175Y0132542D01*
X0115426Y0133029D01*
X0114689Y0133535D01*
X0113964Y0134059D01*
X0113253Y0134600D01*
X0112555Y0135158D01*
X0111871Y0135734D01*
X0111202Y0136326D01*
X0110547Y0136934D01*
X0109907Y0137558D01*
X0109283Y0138198D01*
X0108675Y0138853D01*
X0108083Y0139522D01*
X0107507Y0140206D01*
X0106949Y0140904D01*
X0106408Y0141615D01*
X0105884Y0142340D01*
X0105378Y0143077D01*
X0104891Y0143826D01*
X0104422Y0144587D01*
X0103972Y0145359D01*
X0103541Y0146142D01*
X0103129Y0146936D01*
X0102737Y0147739D01*
X0102365Y0148551D01*
X0102013Y0149373D01*
X0101681Y0150203D01*
X0101370Y0151040D01*
X0101079Y0151886D01*
X0100809Y0152738D01*
X0100560Y0153596D01*
X0100332Y0154460D01*
X0100126Y0155330D01*
X0099941Y0156204D01*
X0099777Y0157083D01*
X0099635Y0157966D01*
X0099515Y0158851D01*
X0099416Y0159740D01*
X0099340Y0160630D01*
X0099285Y0161522D01*
X0099252Y0162415D01*
X0099241Y0163309D01*
D11*
X0116876Y0161508D02*
X0117778Y0160607D01*
X0119581Y0160607D01*
X0120483Y0161508D01*
X0122314Y0161508D02*
X0123216Y0160607D01*
X0125019Y0160607D01*
X0125921Y0161508D01*
X0125921Y0166017D01*
X0127752Y0166017D02*
X0131358Y0166017D01*
X0129555Y0166017D02*
X0129555Y0160607D01*
X0122314Y0161508D02*
X0122314Y0166017D01*
X0120483Y0165115D02*
X0119581Y0166017D01*
X0117778Y0166017D01*
X0116876Y0165115D01*
X0116876Y0161508D01*
X0138627Y0161508D02*
X0139529Y0160607D01*
X0141332Y0160607D01*
X0142234Y0161508D01*
X0142234Y0165115D01*
X0141332Y0166017D01*
X0139529Y0166017D01*
X0138627Y0165115D01*
X0138627Y0161508D01*
X0144065Y0161508D02*
X0144966Y0160607D01*
X0146770Y0160607D01*
X0147672Y0161508D01*
X0147672Y0166017D01*
X0149503Y0166017D02*
X0153109Y0166017D01*
X0151306Y0166017D02*
X0151306Y0160607D01*
X0144065Y0161508D02*
X0144065Y0166017D01*
X0144966Y0261985D02*
X0146770Y0261985D01*
X0147672Y0262886D01*
X0147672Y0267395D01*
X0149503Y0267395D02*
X0153109Y0267395D01*
X0151306Y0267395D02*
X0151306Y0261985D01*
X0144966Y0261985D02*
X0144065Y0262886D01*
X0144065Y0267395D01*
X0142234Y0266493D02*
X0142234Y0262886D01*
X0141332Y0261985D01*
X0139529Y0261985D01*
X0138627Y0262886D01*
X0138627Y0266493D01*
X0139529Y0267395D01*
X0141332Y0267395D01*
X0142234Y0266493D01*
X0131358Y0267395D02*
X0127752Y0267395D01*
X0129555Y0267395D02*
X0129555Y0261985D01*
X0125921Y0262886D02*
X0125921Y0267395D01*
X0122314Y0267395D02*
X0122314Y0262886D01*
X0123216Y0261985D01*
X0125019Y0261985D01*
X0125921Y0262886D01*
X0120483Y0262886D02*
X0119581Y0261985D01*
X0117778Y0261985D01*
X0116876Y0262886D01*
X0116876Y0266493D01*
X0117778Y0267395D01*
X0119581Y0267395D01*
X0120483Y0266493D01*
X0119581Y0064639D02*
X0117778Y0064639D01*
X0116876Y0063737D01*
X0116876Y0060130D01*
X0117778Y0059229D01*
X0119581Y0059229D01*
X0120483Y0060130D01*
X0122314Y0060130D02*
X0123216Y0059229D01*
X0125019Y0059229D01*
X0125921Y0060130D01*
X0125921Y0064639D01*
X0127752Y0064639D02*
X0131358Y0064639D01*
X0129555Y0064639D02*
X0129555Y0059229D01*
X0122314Y0060130D02*
X0122314Y0064639D01*
X0120483Y0063737D02*
X0119581Y0064639D01*
X0138627Y0063737D02*
X0138627Y0060130D01*
X0139529Y0059229D01*
X0141332Y0059229D01*
X0142234Y0060130D01*
X0142234Y0063737D01*
X0141332Y0064639D01*
X0139529Y0064639D01*
X0138627Y0063737D01*
X0144065Y0064639D02*
X0144065Y0060130D01*
X0144966Y0059229D01*
X0146770Y0059229D01*
X0147672Y0060130D01*
X0147672Y0064639D01*
X0149503Y0064639D02*
X0153109Y0064639D01*
X0151306Y0064639D02*
X0151306Y0059229D01*
D12*
X0187596Y0089134D02*
X0187812Y0089281D01*
X0188032Y0089424D01*
X0188255Y0089560D01*
X0188481Y0089692D01*
X0188710Y0089818D01*
X0188943Y0089938D01*
X0189178Y0090053D01*
X0189416Y0090162D01*
X0189656Y0090265D01*
X0189899Y0090362D01*
X0190144Y0090454D01*
X0190391Y0090539D01*
X0190640Y0090619D01*
X0190892Y0090692D01*
X0191144Y0090760D01*
X0191399Y0090821D01*
X0191655Y0090876D01*
X0191912Y0090925D01*
X0192170Y0090968D01*
X0192429Y0091004D01*
X0192689Y0091034D01*
X0192949Y0091058D01*
X0193210Y0091076D01*
X0193472Y0091087D01*
X0193733Y0091092D01*
X0193995Y0091090D01*
X0194256Y0091083D01*
X0194518Y0091069D01*
X0194779Y0091048D01*
X0195039Y0091022D01*
X0195298Y0090989D01*
X0195557Y0090949D01*
X0195815Y0090904D01*
X0196071Y0090852D01*
X0196326Y0090795D01*
X0196580Y0090731D01*
X0196832Y0090660D01*
X0197083Y0090584D01*
X0197331Y0090502D01*
X0197577Y0090414D01*
X0197821Y0090320D01*
X0198063Y0090220D01*
X0198303Y0090114D01*
X0198539Y0090003D01*
X0198773Y0089885D01*
X0199004Y0089763D01*
X0199232Y0089634D01*
X0199457Y0089500D01*
X0199678Y0089361D01*
X0199896Y0089217D01*
X0200111Y0089067D01*
X0200322Y0088912D01*
X0200529Y0088752D01*
X0200732Y0088587D01*
X0200931Y0088417D01*
X0201126Y0088243D01*
X0201317Y0088063D01*
X0201503Y0087880D01*
X0201685Y0087691D01*
X0201862Y0087499D01*
X0202034Y0087302D01*
X0202202Y0087101D01*
X0202365Y0086896D01*
X0202522Y0086688D01*
X0202675Y0086475D01*
X0202822Y0086259D01*
X0202965Y0086039D01*
X0203101Y0085816D01*
X0203233Y0085590D01*
X0203359Y0085361D01*
X0203479Y0085128D01*
X0203594Y0084893D01*
X0203703Y0084655D01*
X0203806Y0084415D01*
X0203903Y0084172D01*
X0203995Y0083927D01*
X0204080Y0083680D01*
X0204160Y0083431D01*
X0204233Y0083179D01*
X0204301Y0082927D01*
X0204362Y0082672D01*
X0204417Y0082416D01*
X0204466Y0082159D01*
X0204509Y0081901D01*
X0204545Y0081642D01*
X0204575Y0081382D01*
X0204599Y0081122D01*
X0204617Y0080861D01*
X0204628Y0080599D01*
X0204633Y0080338D01*
X0204631Y0080076D01*
X0204624Y0079815D01*
X0204610Y0079553D01*
X0204589Y0079292D01*
X0204563Y0079032D01*
X0204530Y0078773D01*
X0204490Y0078514D01*
X0204445Y0078256D01*
X0204393Y0078000D01*
X0204336Y0077745D01*
X0204272Y0077491D01*
X0204201Y0077239D01*
X0204125Y0076988D01*
X0204043Y0076740D01*
X0203955Y0076494D01*
X0203861Y0076250D01*
X0203761Y0076008D01*
X0203655Y0075768D01*
X0203544Y0075532D01*
X0203426Y0075298D01*
X0203304Y0075067D01*
X0203175Y0074839D01*
X0203041Y0074614D01*
X0202902Y0074393D01*
X0202758Y0074175D01*
X0202608Y0073960D01*
X0202453Y0073749D01*
X0202293Y0073542D01*
X0202128Y0073339D01*
X0201958Y0073140D01*
X0201784Y0072945D01*
X0201604Y0072754D01*
X0201421Y0072568D01*
X0201232Y0072386D01*
X0201040Y0072209D01*
X0200843Y0072037D01*
X0200642Y0071869D01*
X0200437Y0071706D01*
X0200229Y0071549D01*
X0200016Y0071396D01*
X0188470Y0144088D02*
X0187245Y0149487D01*
X0188254Y0154035D01*
X0188862Y0158655D01*
X0183295Y0159142D01*
X0177728Y0159629D01*
X0177883Y0163309D01*
X0177728Y0159629D02*
X0177247Y0155976D01*
X0176450Y0152379D01*
X0181847Y0150933D02*
X0182750Y0155006D01*
X0183295Y0159142D01*
X0194429Y0158168D02*
X0193757Y0153065D01*
X0194429Y0158168D02*
X0199996Y0157681D01*
X0205562Y0157194D01*
X0204763Y0151124D02*
X0199260Y0152095D01*
X0198041Y0146594D01*
X0203438Y0145148D01*
X0191316Y0147041D02*
X0188470Y0144088D01*
X0206997Y0163309D02*
X0186802Y0192837D01*
X0200016Y0071396D02*
X0197751Y0069851D01*
X0195449Y0068362D01*
X0193112Y0066929D01*
X0190740Y0065554D01*
X0188335Y0064238D01*
X0185899Y0062980D01*
X0183433Y0061783D01*
X0180938Y0060646D01*
X0178416Y0059570D01*
X0175869Y0058557D01*
X0173297Y0057605D01*
X0170704Y0056717D01*
X0168089Y0055893D01*
X0165455Y0055133D01*
X0162803Y0054437D01*
X0160135Y0053806D01*
X0157452Y0053241D01*
X0154756Y0052741D01*
X0152049Y0052308D01*
X0149332Y0051940D01*
X0146607Y0051640D01*
X0143876Y0051405D01*
X0141139Y0051238D01*
X0138399Y0051137D01*
X0135658Y0051104D01*
X0132917Y0051137D01*
X0130177Y0051238D01*
X0127440Y0051405D01*
X0124709Y0051640D01*
X0121984Y0051940D01*
X0119267Y0052308D01*
X0116560Y0052741D01*
X0113864Y0053241D01*
X0111181Y0053806D01*
X0108513Y0054437D01*
X0105861Y0055133D01*
X0103227Y0055893D01*
X0100612Y0056717D01*
X0098019Y0057605D01*
X0095447Y0058557D01*
X0092900Y0059570D01*
X0090378Y0060646D01*
X0087883Y0061783D01*
X0085417Y0062980D01*
X0082981Y0064238D01*
X0080576Y0065554D01*
X0078204Y0066929D01*
X0075867Y0068362D01*
X0073565Y0069851D01*
X0071300Y0071396D01*
X0071087Y0071549D01*
X0070879Y0071706D01*
X0070674Y0071869D01*
X0070473Y0072037D01*
X0070276Y0072209D01*
X0070084Y0072386D01*
X0069895Y0072568D01*
X0069712Y0072754D01*
X0069532Y0072945D01*
X0069358Y0073140D01*
X0069188Y0073339D01*
X0069023Y0073542D01*
X0068863Y0073749D01*
X0068708Y0073960D01*
X0068558Y0074175D01*
X0068414Y0074393D01*
X0068275Y0074614D01*
X0068141Y0074839D01*
X0068012Y0075067D01*
X0067890Y0075298D01*
X0067772Y0075532D01*
X0067661Y0075768D01*
X0067555Y0076008D01*
X0067455Y0076250D01*
X0067361Y0076494D01*
X0067273Y0076740D01*
X0067191Y0076988D01*
X0067115Y0077239D01*
X0067044Y0077491D01*
X0066980Y0077745D01*
X0066923Y0078000D01*
X0066871Y0078256D01*
X0066826Y0078514D01*
X0066786Y0078773D01*
X0066753Y0079032D01*
X0066727Y0079292D01*
X0066706Y0079553D01*
X0066692Y0079815D01*
X0066685Y0080076D01*
X0066683Y0080338D01*
X0066688Y0080599D01*
X0066699Y0080861D01*
X0066717Y0081122D01*
X0066741Y0081382D01*
X0066771Y0081642D01*
X0066807Y0081901D01*
X0066850Y0082159D01*
X0066899Y0082416D01*
X0066954Y0082672D01*
X0067015Y0082927D01*
X0067083Y0083179D01*
X0067156Y0083431D01*
X0067236Y0083680D01*
X0067321Y0083927D01*
X0067413Y0084172D01*
X0067510Y0084415D01*
X0067613Y0084655D01*
X0067722Y0084893D01*
X0067837Y0085128D01*
X0067957Y0085361D01*
X0068083Y0085590D01*
X0068215Y0085816D01*
X0068351Y0086039D01*
X0068494Y0086259D01*
X0068641Y0086475D01*
X0068794Y0086688D01*
X0068951Y0086896D01*
X0069114Y0087101D01*
X0069282Y0087302D01*
X0069454Y0087499D01*
X0069631Y0087691D01*
X0069813Y0087880D01*
X0069999Y0088063D01*
X0070190Y0088243D01*
X0070385Y0088417D01*
X0070584Y0088587D01*
X0070787Y0088752D01*
X0070994Y0088912D01*
X0071205Y0089067D01*
X0071420Y0089217D01*
X0071638Y0089361D01*
X0071859Y0089500D01*
X0072084Y0089634D01*
X0072312Y0089763D01*
X0072543Y0089885D01*
X0072777Y0090003D01*
X0073013Y0090114D01*
X0073253Y0090220D01*
X0073495Y0090320D01*
X0073739Y0090414D01*
X0073985Y0090502D01*
X0074233Y0090584D01*
X0074484Y0090660D01*
X0074736Y0090731D01*
X0074990Y0090795D01*
X0075245Y0090852D01*
X0075501Y0090904D01*
X0075759Y0090949D01*
X0076018Y0090989D01*
X0076277Y0091022D01*
X0076537Y0091048D01*
X0076798Y0091069D01*
X0077060Y0091083D01*
X0077321Y0091090D01*
X0077583Y0091092D01*
X0077844Y0091087D01*
X0078106Y0091076D01*
X0078367Y0091058D01*
X0078627Y0091034D01*
X0078887Y0091004D01*
X0079146Y0090968D01*
X0079404Y0090925D01*
X0079661Y0090876D01*
X0079917Y0090821D01*
X0080172Y0090760D01*
X0080424Y0090692D01*
X0080676Y0090619D01*
X0080925Y0090539D01*
X0081172Y0090454D01*
X0081417Y0090362D01*
X0081660Y0090265D01*
X0081900Y0090162D01*
X0082138Y0090053D01*
X0082373Y0089938D01*
X0082606Y0089818D01*
X0082835Y0089692D01*
X0083061Y0089560D01*
X0083284Y0089424D01*
X0083504Y0089281D01*
X0083720Y0089134D01*
X0082847Y0144088D02*
X0078674Y0148040D01*
X0077560Y0153065D01*
X0076603Y0159372D01*
X0076888Y0158168D02*
X0071321Y0157681D01*
X0065754Y0157194D01*
X0071321Y0157681D02*
X0072056Y0152095D01*
X0066553Y0151124D01*
X0076888Y0158168D02*
X0082455Y0158655D01*
X0088022Y0159142D01*
X0088414Y0155435D01*
X0088566Y0155006D01*
X0094070Y0155976D01*
X0093589Y0159629D01*
X0094070Y0155976D02*
X0094867Y0152379D01*
X0089469Y0150933D02*
X0088566Y0155006D01*
X0088022Y0159142D02*
X0088414Y0159372D01*
X0082455Y0158655D02*
X0083063Y0154035D01*
X0084071Y0149487D01*
X0089469Y0150933D01*
X0084071Y0149487D02*
X0082847Y0144088D01*
X0064320Y0163309D01*
X0084515Y0192837D01*
X0083720Y0237484D02*
X0083504Y0237337D01*
X0083284Y0237194D01*
X0083061Y0237058D01*
X0082835Y0236926D01*
X0082606Y0236800D01*
X0082373Y0236680D01*
X0082138Y0236565D01*
X0081900Y0236456D01*
X0081660Y0236353D01*
X0081417Y0236256D01*
X0081172Y0236164D01*
X0080925Y0236079D01*
X0080676Y0235999D01*
X0080424Y0235926D01*
X0080172Y0235858D01*
X0079917Y0235797D01*
X0079661Y0235742D01*
X0079404Y0235693D01*
X0079146Y0235650D01*
X0078887Y0235614D01*
X0078627Y0235584D01*
X0078367Y0235560D01*
X0078106Y0235542D01*
X0077844Y0235531D01*
X0077583Y0235526D01*
X0077321Y0235528D01*
X0077060Y0235535D01*
X0076798Y0235549D01*
X0076537Y0235570D01*
X0076277Y0235596D01*
X0076018Y0235629D01*
X0075759Y0235669D01*
X0075501Y0235714D01*
X0075245Y0235766D01*
X0074990Y0235823D01*
X0074736Y0235887D01*
X0074484Y0235958D01*
X0074233Y0236034D01*
X0073985Y0236116D01*
X0073739Y0236204D01*
X0073495Y0236298D01*
X0073253Y0236398D01*
X0073013Y0236504D01*
X0072777Y0236615D01*
X0072543Y0236733D01*
X0072312Y0236855D01*
X0072084Y0236984D01*
X0071859Y0237118D01*
X0071638Y0237257D01*
X0071420Y0237401D01*
X0071205Y0237551D01*
X0070994Y0237706D01*
X0070787Y0237866D01*
X0070584Y0238031D01*
X0070385Y0238201D01*
X0070190Y0238375D01*
X0069999Y0238555D01*
X0069813Y0238738D01*
X0069631Y0238927D01*
X0069454Y0239119D01*
X0069282Y0239316D01*
X0069114Y0239517D01*
X0068951Y0239722D01*
X0068794Y0239930D01*
X0068641Y0240143D01*
X0068494Y0240359D01*
X0068351Y0240579D01*
X0068215Y0240802D01*
X0068083Y0241028D01*
X0067957Y0241257D01*
X0067837Y0241490D01*
X0067722Y0241725D01*
X0067613Y0241963D01*
X0067510Y0242203D01*
X0067413Y0242446D01*
X0067321Y0242691D01*
X0067236Y0242938D01*
X0067156Y0243187D01*
X0067083Y0243439D01*
X0067015Y0243691D01*
X0066954Y0243946D01*
X0066899Y0244202D01*
X0066850Y0244459D01*
X0066807Y0244717D01*
X0066771Y0244976D01*
X0066741Y0245236D01*
X0066717Y0245496D01*
X0066699Y0245757D01*
X0066688Y0246019D01*
X0066683Y0246280D01*
X0066685Y0246542D01*
X0066692Y0246803D01*
X0066706Y0247065D01*
X0066727Y0247326D01*
X0066753Y0247586D01*
X0066786Y0247845D01*
X0066826Y0248104D01*
X0066871Y0248362D01*
X0066923Y0248618D01*
X0066980Y0248873D01*
X0067044Y0249127D01*
X0067115Y0249379D01*
X0067191Y0249630D01*
X0067273Y0249878D01*
X0067361Y0250124D01*
X0067455Y0250368D01*
X0067555Y0250610D01*
X0067661Y0250850D01*
X0067772Y0251086D01*
X0067890Y0251320D01*
X0068012Y0251551D01*
X0068141Y0251779D01*
X0068275Y0252004D01*
X0068414Y0252225D01*
X0068558Y0252443D01*
X0068708Y0252658D01*
X0068863Y0252869D01*
X0069023Y0253076D01*
X0069188Y0253279D01*
X0069358Y0253478D01*
X0069532Y0253673D01*
X0069712Y0253864D01*
X0069895Y0254050D01*
X0070084Y0254232D01*
X0070276Y0254409D01*
X0070473Y0254581D01*
X0070674Y0254749D01*
X0070879Y0254912D01*
X0071087Y0255069D01*
X0071300Y0255222D01*
X0083720Y0089134D02*
X0085548Y0087887D01*
X0087406Y0086685D01*
X0089292Y0085529D01*
X0091206Y0084420D01*
X0093147Y0083357D01*
X0095113Y0082342D01*
X0097103Y0081376D01*
X0099117Y0080458D01*
X0101152Y0079590D01*
X0103207Y0078772D01*
X0105283Y0078005D01*
X0107376Y0077288D01*
X0109486Y0076623D01*
X0111612Y0076009D01*
X0113752Y0075448D01*
X0115905Y0074939D01*
X0118070Y0074483D01*
X0120245Y0074079D01*
X0122430Y0073729D01*
X0124623Y0073433D01*
X0126822Y0073190D01*
X0129026Y0073001D01*
X0131235Y0072866D01*
X0133446Y0072785D01*
X0135658Y0072758D01*
X0137870Y0072785D01*
X0140081Y0072866D01*
X0142290Y0073001D01*
X0144494Y0073190D01*
X0146693Y0073433D01*
X0148886Y0073729D01*
X0151071Y0074079D01*
X0153246Y0074483D01*
X0155411Y0074939D01*
X0157564Y0075448D01*
X0159704Y0076009D01*
X0161830Y0076623D01*
X0163940Y0077288D01*
X0166033Y0078005D01*
X0168109Y0078772D01*
X0170164Y0079590D01*
X0172199Y0080458D01*
X0174213Y0081376D01*
X0176203Y0082342D01*
X0178169Y0083357D01*
X0180110Y0084420D01*
X0182024Y0085529D01*
X0183910Y0086685D01*
X0185768Y0087887D01*
X0187596Y0089134D01*
X0200016Y0255222D02*
X0197751Y0256767D01*
X0195449Y0258256D01*
X0193112Y0259689D01*
X0190740Y0261064D01*
X0188335Y0262380D01*
X0185899Y0263638D01*
X0183433Y0264835D01*
X0180938Y0265972D01*
X0178416Y0267048D01*
X0175869Y0268061D01*
X0173297Y0269013D01*
X0170704Y0269901D01*
X0168089Y0270725D01*
X0165455Y0271485D01*
X0162803Y0272181D01*
X0160135Y0272812D01*
X0157452Y0273377D01*
X0154756Y0273877D01*
X0152049Y0274310D01*
X0149332Y0274678D01*
X0146607Y0274978D01*
X0143876Y0275213D01*
X0141139Y0275380D01*
X0138399Y0275481D01*
X0135658Y0275514D01*
X0132917Y0275481D01*
X0130177Y0275380D01*
X0127440Y0275213D01*
X0124709Y0274978D01*
X0121984Y0274678D01*
X0119267Y0274310D01*
X0116560Y0273877D01*
X0113864Y0273377D01*
X0111181Y0272812D01*
X0108513Y0272181D01*
X0105861Y0271485D01*
X0103227Y0270725D01*
X0100612Y0269901D01*
X0098019Y0269013D01*
X0095447Y0268061D01*
X0092900Y0267048D01*
X0090378Y0265972D01*
X0087883Y0264835D01*
X0085417Y0263638D01*
X0082981Y0262380D01*
X0080576Y0261064D01*
X0078204Y0259689D01*
X0075867Y0258256D01*
X0073565Y0256767D01*
X0071300Y0255222D01*
X0083720Y0237484D02*
X0085548Y0238731D01*
X0087406Y0239933D01*
X0089292Y0241089D01*
X0091206Y0242198D01*
X0093147Y0243261D01*
X0095113Y0244276D01*
X0097103Y0245242D01*
X0099117Y0246160D01*
X0101152Y0247028D01*
X0103207Y0247846D01*
X0105283Y0248613D01*
X0107376Y0249330D01*
X0109486Y0249995D01*
X0111612Y0250609D01*
X0113752Y0251170D01*
X0115905Y0251679D01*
X0118070Y0252135D01*
X0120245Y0252539D01*
X0122430Y0252889D01*
X0124623Y0253185D01*
X0126822Y0253428D01*
X0129026Y0253617D01*
X0131235Y0253752D01*
X0133446Y0253833D01*
X0135658Y0253860D01*
X0137870Y0253833D01*
X0140081Y0253752D01*
X0142290Y0253617D01*
X0144494Y0253428D01*
X0146693Y0253185D01*
X0148886Y0252889D01*
X0151071Y0252539D01*
X0153246Y0252135D01*
X0155411Y0251679D01*
X0157564Y0251170D01*
X0159704Y0250609D01*
X0161830Y0249995D01*
X0163940Y0249330D01*
X0166033Y0248613D01*
X0168109Y0247846D01*
X0170164Y0247028D01*
X0172199Y0246160D01*
X0174213Y0245242D01*
X0176203Y0244276D01*
X0178169Y0243261D01*
X0180110Y0242198D01*
X0182024Y0241089D01*
X0183910Y0239933D01*
X0185768Y0238731D01*
X0187596Y0237484D01*
X0187812Y0237337D01*
X0188032Y0237194D01*
X0188255Y0237058D01*
X0188481Y0236926D01*
X0188710Y0236800D01*
X0188943Y0236680D01*
X0189178Y0236565D01*
X0189416Y0236456D01*
X0189656Y0236353D01*
X0189899Y0236256D01*
X0190144Y0236164D01*
X0190391Y0236079D01*
X0190640Y0235999D01*
X0190892Y0235926D01*
X0191144Y0235858D01*
X0191399Y0235797D01*
X0191655Y0235742D01*
X0191912Y0235693D01*
X0192170Y0235650D01*
X0192429Y0235614D01*
X0192689Y0235584D01*
X0192949Y0235560D01*
X0193210Y0235542D01*
X0193472Y0235531D01*
X0193733Y0235526D01*
X0193995Y0235528D01*
X0194256Y0235535D01*
X0194518Y0235549D01*
X0194779Y0235570D01*
X0195039Y0235596D01*
X0195298Y0235629D01*
X0195557Y0235669D01*
X0195815Y0235714D01*
X0196071Y0235766D01*
X0196326Y0235823D01*
X0196580Y0235887D01*
X0196832Y0235958D01*
X0197083Y0236034D01*
X0197331Y0236116D01*
X0197577Y0236204D01*
X0197821Y0236298D01*
X0198063Y0236398D01*
X0198303Y0236504D01*
X0198539Y0236615D01*
X0198773Y0236733D01*
X0199004Y0236855D01*
X0199232Y0236984D01*
X0199457Y0237118D01*
X0199678Y0237257D01*
X0199896Y0237401D01*
X0200111Y0237551D01*
X0200322Y0237706D01*
X0200529Y0237866D01*
X0200732Y0238031D01*
X0200931Y0238201D01*
X0201126Y0238375D01*
X0201317Y0238555D01*
X0201503Y0238738D01*
X0201685Y0238927D01*
X0201862Y0239119D01*
X0202034Y0239316D01*
X0202202Y0239517D01*
X0202365Y0239722D01*
X0202522Y0239930D01*
X0202675Y0240143D01*
X0202822Y0240359D01*
X0202965Y0240579D01*
X0203101Y0240802D01*
X0203233Y0241028D01*
X0203359Y0241257D01*
X0203479Y0241490D01*
X0203594Y0241725D01*
X0203703Y0241963D01*
X0203806Y0242203D01*
X0203903Y0242446D01*
X0203995Y0242691D01*
X0204080Y0242938D01*
X0204160Y0243187D01*
X0204233Y0243439D01*
X0204301Y0243691D01*
X0204362Y0243946D01*
X0204417Y0244202D01*
X0204466Y0244459D01*
X0204509Y0244717D01*
X0204545Y0244976D01*
X0204575Y0245236D01*
X0204599Y0245496D01*
X0204617Y0245757D01*
X0204628Y0246019D01*
X0204633Y0246280D01*
X0204631Y0246542D01*
X0204624Y0246803D01*
X0204610Y0247065D01*
X0204589Y0247326D01*
X0204563Y0247586D01*
X0204530Y0247845D01*
X0204490Y0248104D01*
X0204445Y0248362D01*
X0204393Y0248618D01*
X0204336Y0248873D01*
X0204272Y0249127D01*
X0204201Y0249379D01*
X0204125Y0249630D01*
X0204043Y0249878D01*
X0203955Y0250124D01*
X0203861Y0250368D01*
X0203761Y0250610D01*
X0203655Y0250850D01*
X0203544Y0251086D01*
X0203426Y0251320D01*
X0203304Y0251551D01*
X0203175Y0251779D01*
X0203041Y0252004D01*
X0202902Y0252225D01*
X0202758Y0252443D01*
X0202608Y0252658D01*
X0202453Y0252869D01*
X0202293Y0253076D01*
X0202128Y0253279D01*
X0201958Y0253478D01*
X0201784Y0253673D01*
X0201604Y0253864D01*
X0201421Y0254050D01*
X0201232Y0254232D01*
X0201040Y0254409D01*
X0200843Y0254581D01*
X0200642Y0254749D01*
X0200437Y0254912D01*
X0200229Y0255069D01*
X0200016Y0255222D01*
X0290320Y0215002D02*
X0290322Y0215163D01*
X0290328Y0215323D01*
X0290338Y0215484D01*
X0290352Y0215644D01*
X0290370Y0215804D01*
X0290391Y0215963D01*
X0290417Y0216122D01*
X0290447Y0216280D01*
X0290480Y0216437D01*
X0290518Y0216594D01*
X0290559Y0216749D01*
X0290604Y0216903D01*
X0290653Y0217056D01*
X0290706Y0217208D01*
X0290762Y0217359D01*
X0290823Y0217508D01*
X0290886Y0217656D01*
X0290954Y0217802D01*
X0291025Y0217946D01*
X0291099Y0218088D01*
X0291177Y0218229D01*
X0291259Y0218367D01*
X0291344Y0218504D01*
X0291432Y0218638D01*
X0291524Y0218770D01*
X0291619Y0218900D01*
X0291717Y0219028D01*
X0291818Y0219153D01*
X0291922Y0219275D01*
X0292029Y0219395D01*
X0292139Y0219512D01*
X0292252Y0219627D01*
X0292368Y0219738D01*
X0292487Y0219847D01*
X0292608Y0219952D01*
X0292732Y0220055D01*
X0292858Y0220155D01*
X0292986Y0220251D01*
X0293117Y0220344D01*
X0293251Y0220434D01*
X0293386Y0220521D01*
X0293524Y0220604D01*
X0293663Y0220684D01*
X0293805Y0220760D01*
X0293948Y0220833D01*
X0294093Y0220902D01*
X0294240Y0220968D01*
X0294388Y0221030D01*
X0294538Y0221088D01*
X0294689Y0221143D01*
X0294842Y0221194D01*
X0294996Y0221241D01*
X0295151Y0221284D01*
X0295307Y0221323D01*
X0295463Y0221359D01*
X0295621Y0221390D01*
X0295779Y0221418D01*
X0295938Y0221442D01*
X0296098Y0221462D01*
X0296258Y0221478D01*
X0296418Y0221490D01*
X0296579Y0221498D01*
X0296740Y0221502D01*
X0296900Y0221502D01*
X0297061Y0221498D01*
X0297222Y0221490D01*
X0297382Y0221478D01*
X0297542Y0221462D01*
X0297702Y0221442D01*
X0297861Y0221418D01*
X0298019Y0221390D01*
X0298177Y0221359D01*
X0298333Y0221323D01*
X0298489Y0221284D01*
X0298644Y0221241D01*
X0298798Y0221194D01*
X0298951Y0221143D01*
X0299102Y0221088D01*
X0299252Y0221030D01*
X0299400Y0220968D01*
X0299547Y0220902D01*
X0299692Y0220833D01*
X0299835Y0220760D01*
X0299977Y0220684D01*
X0300116Y0220604D01*
X0300254Y0220521D01*
X0300389Y0220434D01*
X0300523Y0220344D01*
X0300654Y0220251D01*
X0300782Y0220155D01*
X0300908Y0220055D01*
X0301032Y0219952D01*
X0301153Y0219847D01*
X0301272Y0219738D01*
X0301388Y0219627D01*
X0301501Y0219512D01*
X0301611Y0219395D01*
X0301718Y0219275D01*
X0301822Y0219153D01*
X0301923Y0219028D01*
X0302021Y0218900D01*
X0302116Y0218770D01*
X0302208Y0218638D01*
X0302296Y0218504D01*
X0302381Y0218367D01*
X0302463Y0218229D01*
X0302541Y0218088D01*
X0302615Y0217946D01*
X0302686Y0217802D01*
X0302754Y0217656D01*
X0302817Y0217508D01*
X0302878Y0217359D01*
X0302934Y0217208D01*
X0302987Y0217056D01*
X0303036Y0216903D01*
X0303081Y0216749D01*
X0303122Y0216594D01*
X0303160Y0216437D01*
X0303193Y0216280D01*
X0303223Y0216122D01*
X0303249Y0215963D01*
X0303270Y0215804D01*
X0303288Y0215644D01*
X0303302Y0215484D01*
X0303312Y0215323D01*
X0303318Y0215163D01*
X0303320Y0215002D01*
X0303318Y0214841D01*
X0303312Y0214681D01*
X0303302Y0214520D01*
X0303288Y0214360D01*
X0303270Y0214200D01*
X0303249Y0214041D01*
X0303223Y0213882D01*
X0303193Y0213724D01*
X0303160Y0213567D01*
X0303122Y0213410D01*
X0303081Y0213255D01*
X0303036Y0213101D01*
X0302987Y0212948D01*
X0302934Y0212796D01*
X0302878Y0212645D01*
X0302817Y0212496D01*
X0302754Y0212348D01*
X0302686Y0212202D01*
X0302615Y0212058D01*
X0302541Y0211916D01*
X0302463Y0211775D01*
X0302381Y0211637D01*
X0302296Y0211500D01*
X0302208Y0211366D01*
X0302116Y0211234D01*
X0302021Y0211104D01*
X0301923Y0210976D01*
X0301822Y0210851D01*
X0301718Y0210729D01*
X0301611Y0210609D01*
X0301501Y0210492D01*
X0301388Y0210377D01*
X0301272Y0210266D01*
X0301153Y0210157D01*
X0301032Y0210052D01*
X0300908Y0209949D01*
X0300782Y0209849D01*
X0300654Y0209753D01*
X0300523Y0209660D01*
X0300389Y0209570D01*
X0300254Y0209483D01*
X0300116Y0209400D01*
X0299977Y0209320D01*
X0299835Y0209244D01*
X0299692Y0209171D01*
X0299547Y0209102D01*
X0299400Y0209036D01*
X0299252Y0208974D01*
X0299102Y0208916D01*
X0298951Y0208861D01*
X0298798Y0208810D01*
X0298644Y0208763D01*
X0298489Y0208720D01*
X0298333Y0208681D01*
X0298177Y0208645D01*
X0298019Y0208614D01*
X0297861Y0208586D01*
X0297702Y0208562D01*
X0297542Y0208542D01*
X0297382Y0208526D01*
X0297222Y0208514D01*
X0297061Y0208506D01*
X0296900Y0208502D01*
X0296740Y0208502D01*
X0296579Y0208506D01*
X0296418Y0208514D01*
X0296258Y0208526D01*
X0296098Y0208542D01*
X0295938Y0208562D01*
X0295779Y0208586D01*
X0295621Y0208614D01*
X0295463Y0208645D01*
X0295307Y0208681D01*
X0295151Y0208720D01*
X0294996Y0208763D01*
X0294842Y0208810D01*
X0294689Y0208861D01*
X0294538Y0208916D01*
X0294388Y0208974D01*
X0294240Y0209036D01*
X0294093Y0209102D01*
X0293948Y0209171D01*
X0293805Y0209244D01*
X0293663Y0209320D01*
X0293524Y0209400D01*
X0293386Y0209483D01*
X0293251Y0209570D01*
X0293117Y0209660D01*
X0292986Y0209753D01*
X0292858Y0209849D01*
X0292732Y0209949D01*
X0292608Y0210052D01*
X0292487Y0210157D01*
X0292368Y0210266D01*
X0292252Y0210377D01*
X0292139Y0210492D01*
X0292029Y0210609D01*
X0291922Y0210729D01*
X0291818Y0210851D01*
X0291717Y0210976D01*
X0291619Y0211104D01*
X0291524Y0211234D01*
X0291432Y0211366D01*
X0291344Y0211500D01*
X0291259Y0211637D01*
X0291177Y0211775D01*
X0291099Y0211916D01*
X0291025Y0212058D01*
X0290954Y0212202D01*
X0290886Y0212348D01*
X0290823Y0212496D01*
X0290762Y0212645D01*
X0290706Y0212796D01*
X0290653Y0212948D01*
X0290604Y0213101D01*
X0290559Y0213255D01*
X0290518Y0213410D01*
X0290480Y0213567D01*
X0290447Y0213724D01*
X0290417Y0213882D01*
X0290391Y0214041D01*
X0290370Y0214200D01*
X0290352Y0214360D01*
X0290338Y0214520D01*
X0290328Y0214681D01*
X0290322Y0214841D01*
X0290320Y0215002D01*
X0377820Y0217502D02*
X0377822Y0217663D01*
X0377828Y0217823D01*
X0377838Y0217984D01*
X0377852Y0218144D01*
X0377870Y0218304D01*
X0377891Y0218463D01*
X0377917Y0218622D01*
X0377947Y0218780D01*
X0377980Y0218937D01*
X0378018Y0219094D01*
X0378059Y0219249D01*
X0378104Y0219403D01*
X0378153Y0219556D01*
X0378206Y0219708D01*
X0378262Y0219859D01*
X0378323Y0220008D01*
X0378386Y0220156D01*
X0378454Y0220302D01*
X0378525Y0220446D01*
X0378599Y0220588D01*
X0378677Y0220729D01*
X0378759Y0220867D01*
X0378844Y0221004D01*
X0378932Y0221138D01*
X0379024Y0221270D01*
X0379119Y0221400D01*
X0379217Y0221528D01*
X0379318Y0221653D01*
X0379422Y0221775D01*
X0379529Y0221895D01*
X0379639Y0222012D01*
X0379752Y0222127D01*
X0379868Y0222238D01*
X0379987Y0222347D01*
X0380108Y0222452D01*
X0380232Y0222555D01*
X0380358Y0222655D01*
X0380486Y0222751D01*
X0380617Y0222844D01*
X0380751Y0222934D01*
X0380886Y0223021D01*
X0381024Y0223104D01*
X0381163Y0223184D01*
X0381305Y0223260D01*
X0381448Y0223333D01*
X0381593Y0223402D01*
X0381740Y0223468D01*
X0381888Y0223530D01*
X0382038Y0223588D01*
X0382189Y0223643D01*
X0382342Y0223694D01*
X0382496Y0223741D01*
X0382651Y0223784D01*
X0382807Y0223823D01*
X0382963Y0223859D01*
X0383121Y0223890D01*
X0383279Y0223918D01*
X0383438Y0223942D01*
X0383598Y0223962D01*
X0383758Y0223978D01*
X0383918Y0223990D01*
X0384079Y0223998D01*
X0384240Y0224002D01*
X0384400Y0224002D01*
X0384561Y0223998D01*
X0384722Y0223990D01*
X0384882Y0223978D01*
X0385042Y0223962D01*
X0385202Y0223942D01*
X0385361Y0223918D01*
X0385519Y0223890D01*
X0385677Y0223859D01*
X0385833Y0223823D01*
X0385989Y0223784D01*
X0386144Y0223741D01*
X0386298Y0223694D01*
X0386451Y0223643D01*
X0386602Y0223588D01*
X0386752Y0223530D01*
X0386900Y0223468D01*
X0387047Y0223402D01*
X0387192Y0223333D01*
X0387335Y0223260D01*
X0387477Y0223184D01*
X0387616Y0223104D01*
X0387754Y0223021D01*
X0387889Y0222934D01*
X0388023Y0222844D01*
X0388154Y0222751D01*
X0388282Y0222655D01*
X0388408Y0222555D01*
X0388532Y0222452D01*
X0388653Y0222347D01*
X0388772Y0222238D01*
X0388888Y0222127D01*
X0389001Y0222012D01*
X0389111Y0221895D01*
X0389218Y0221775D01*
X0389322Y0221653D01*
X0389423Y0221528D01*
X0389521Y0221400D01*
X0389616Y0221270D01*
X0389708Y0221138D01*
X0389796Y0221004D01*
X0389881Y0220867D01*
X0389963Y0220729D01*
X0390041Y0220588D01*
X0390115Y0220446D01*
X0390186Y0220302D01*
X0390254Y0220156D01*
X0390317Y0220008D01*
X0390378Y0219859D01*
X0390434Y0219708D01*
X0390487Y0219556D01*
X0390536Y0219403D01*
X0390581Y0219249D01*
X0390622Y0219094D01*
X0390660Y0218937D01*
X0390693Y0218780D01*
X0390723Y0218622D01*
X0390749Y0218463D01*
X0390770Y0218304D01*
X0390788Y0218144D01*
X0390802Y0217984D01*
X0390812Y0217823D01*
X0390818Y0217663D01*
X0390820Y0217502D01*
X0390818Y0217341D01*
X0390812Y0217181D01*
X0390802Y0217020D01*
X0390788Y0216860D01*
X0390770Y0216700D01*
X0390749Y0216541D01*
X0390723Y0216382D01*
X0390693Y0216224D01*
X0390660Y0216067D01*
X0390622Y0215910D01*
X0390581Y0215755D01*
X0390536Y0215601D01*
X0390487Y0215448D01*
X0390434Y0215296D01*
X0390378Y0215145D01*
X0390317Y0214996D01*
X0390254Y0214848D01*
X0390186Y0214702D01*
X0390115Y0214558D01*
X0390041Y0214416D01*
X0389963Y0214275D01*
X0389881Y0214137D01*
X0389796Y0214000D01*
X0389708Y0213866D01*
X0389616Y0213734D01*
X0389521Y0213604D01*
X0389423Y0213476D01*
X0389322Y0213351D01*
X0389218Y0213229D01*
X0389111Y0213109D01*
X0389001Y0212992D01*
X0388888Y0212877D01*
X0388772Y0212766D01*
X0388653Y0212657D01*
X0388532Y0212552D01*
X0388408Y0212449D01*
X0388282Y0212349D01*
X0388154Y0212253D01*
X0388023Y0212160D01*
X0387889Y0212070D01*
X0387754Y0211983D01*
X0387616Y0211900D01*
X0387477Y0211820D01*
X0387335Y0211744D01*
X0387192Y0211671D01*
X0387047Y0211602D01*
X0386900Y0211536D01*
X0386752Y0211474D01*
X0386602Y0211416D01*
X0386451Y0211361D01*
X0386298Y0211310D01*
X0386144Y0211263D01*
X0385989Y0211220D01*
X0385833Y0211181D01*
X0385677Y0211145D01*
X0385519Y0211114D01*
X0385361Y0211086D01*
X0385202Y0211062D01*
X0385042Y0211042D01*
X0384882Y0211026D01*
X0384722Y0211014D01*
X0384561Y0211006D01*
X0384400Y0211002D01*
X0384240Y0211002D01*
X0384079Y0211006D01*
X0383918Y0211014D01*
X0383758Y0211026D01*
X0383598Y0211042D01*
X0383438Y0211062D01*
X0383279Y0211086D01*
X0383121Y0211114D01*
X0382963Y0211145D01*
X0382807Y0211181D01*
X0382651Y0211220D01*
X0382496Y0211263D01*
X0382342Y0211310D01*
X0382189Y0211361D01*
X0382038Y0211416D01*
X0381888Y0211474D01*
X0381740Y0211536D01*
X0381593Y0211602D01*
X0381448Y0211671D01*
X0381305Y0211744D01*
X0381163Y0211820D01*
X0381024Y0211900D01*
X0380886Y0211983D01*
X0380751Y0212070D01*
X0380617Y0212160D01*
X0380486Y0212253D01*
X0380358Y0212349D01*
X0380232Y0212449D01*
X0380108Y0212552D01*
X0379987Y0212657D01*
X0379868Y0212766D01*
X0379752Y0212877D01*
X0379639Y0212992D01*
X0379529Y0213109D01*
X0379422Y0213229D01*
X0379318Y0213351D01*
X0379217Y0213476D01*
X0379119Y0213604D01*
X0379024Y0213734D01*
X0378932Y0213866D01*
X0378844Y0214000D01*
X0378759Y0214137D01*
X0378677Y0214275D01*
X0378599Y0214416D01*
X0378525Y0214558D01*
X0378454Y0214702D01*
X0378386Y0214848D01*
X0378323Y0214996D01*
X0378262Y0215145D01*
X0378206Y0215296D01*
X0378153Y0215448D01*
X0378104Y0215601D01*
X0378059Y0215755D01*
X0378018Y0215910D01*
X0377980Y0216067D01*
X0377947Y0216224D01*
X0377917Y0216382D01*
X0377891Y0216541D01*
X0377870Y0216700D01*
X0377852Y0216860D01*
X0377838Y0217020D01*
X0377828Y0217181D01*
X0377822Y0217341D01*
X0377820Y0217502D01*
X0377820Y0050002D02*
X0377822Y0050163D01*
X0377828Y0050323D01*
X0377838Y0050484D01*
X0377852Y0050644D01*
X0377870Y0050804D01*
X0377891Y0050963D01*
X0377917Y0051122D01*
X0377947Y0051280D01*
X0377980Y0051437D01*
X0378018Y0051594D01*
X0378059Y0051749D01*
X0378104Y0051903D01*
X0378153Y0052056D01*
X0378206Y0052208D01*
X0378262Y0052359D01*
X0378323Y0052508D01*
X0378386Y0052656D01*
X0378454Y0052802D01*
X0378525Y0052946D01*
X0378599Y0053088D01*
X0378677Y0053229D01*
X0378759Y0053367D01*
X0378844Y0053504D01*
X0378932Y0053638D01*
X0379024Y0053770D01*
X0379119Y0053900D01*
X0379217Y0054028D01*
X0379318Y0054153D01*
X0379422Y0054275D01*
X0379529Y0054395D01*
X0379639Y0054512D01*
X0379752Y0054627D01*
X0379868Y0054738D01*
X0379987Y0054847D01*
X0380108Y0054952D01*
X0380232Y0055055D01*
X0380358Y0055155D01*
X0380486Y0055251D01*
X0380617Y0055344D01*
X0380751Y0055434D01*
X0380886Y0055521D01*
X0381024Y0055604D01*
X0381163Y0055684D01*
X0381305Y0055760D01*
X0381448Y0055833D01*
X0381593Y0055902D01*
X0381740Y0055968D01*
X0381888Y0056030D01*
X0382038Y0056088D01*
X0382189Y0056143D01*
X0382342Y0056194D01*
X0382496Y0056241D01*
X0382651Y0056284D01*
X0382807Y0056323D01*
X0382963Y0056359D01*
X0383121Y0056390D01*
X0383279Y0056418D01*
X0383438Y0056442D01*
X0383598Y0056462D01*
X0383758Y0056478D01*
X0383918Y0056490D01*
X0384079Y0056498D01*
X0384240Y0056502D01*
X0384400Y0056502D01*
X0384561Y0056498D01*
X0384722Y0056490D01*
X0384882Y0056478D01*
X0385042Y0056462D01*
X0385202Y0056442D01*
X0385361Y0056418D01*
X0385519Y0056390D01*
X0385677Y0056359D01*
X0385833Y0056323D01*
X0385989Y0056284D01*
X0386144Y0056241D01*
X0386298Y0056194D01*
X0386451Y0056143D01*
X0386602Y0056088D01*
X0386752Y0056030D01*
X0386900Y0055968D01*
X0387047Y0055902D01*
X0387192Y0055833D01*
X0387335Y0055760D01*
X0387477Y0055684D01*
X0387616Y0055604D01*
X0387754Y0055521D01*
X0387889Y0055434D01*
X0388023Y0055344D01*
X0388154Y0055251D01*
X0388282Y0055155D01*
X0388408Y0055055D01*
X0388532Y0054952D01*
X0388653Y0054847D01*
X0388772Y0054738D01*
X0388888Y0054627D01*
X0389001Y0054512D01*
X0389111Y0054395D01*
X0389218Y0054275D01*
X0389322Y0054153D01*
X0389423Y0054028D01*
X0389521Y0053900D01*
X0389616Y0053770D01*
X0389708Y0053638D01*
X0389796Y0053504D01*
X0389881Y0053367D01*
X0389963Y0053229D01*
X0390041Y0053088D01*
X0390115Y0052946D01*
X0390186Y0052802D01*
X0390254Y0052656D01*
X0390317Y0052508D01*
X0390378Y0052359D01*
X0390434Y0052208D01*
X0390487Y0052056D01*
X0390536Y0051903D01*
X0390581Y0051749D01*
X0390622Y0051594D01*
X0390660Y0051437D01*
X0390693Y0051280D01*
X0390723Y0051122D01*
X0390749Y0050963D01*
X0390770Y0050804D01*
X0390788Y0050644D01*
X0390802Y0050484D01*
X0390812Y0050323D01*
X0390818Y0050163D01*
X0390820Y0050002D01*
X0390818Y0049841D01*
X0390812Y0049681D01*
X0390802Y0049520D01*
X0390788Y0049360D01*
X0390770Y0049200D01*
X0390749Y0049041D01*
X0390723Y0048882D01*
X0390693Y0048724D01*
X0390660Y0048567D01*
X0390622Y0048410D01*
X0390581Y0048255D01*
X0390536Y0048101D01*
X0390487Y0047948D01*
X0390434Y0047796D01*
X0390378Y0047645D01*
X0390317Y0047496D01*
X0390254Y0047348D01*
X0390186Y0047202D01*
X0390115Y0047058D01*
X0390041Y0046916D01*
X0389963Y0046775D01*
X0389881Y0046637D01*
X0389796Y0046500D01*
X0389708Y0046366D01*
X0389616Y0046234D01*
X0389521Y0046104D01*
X0389423Y0045976D01*
X0389322Y0045851D01*
X0389218Y0045729D01*
X0389111Y0045609D01*
X0389001Y0045492D01*
X0388888Y0045377D01*
X0388772Y0045266D01*
X0388653Y0045157D01*
X0388532Y0045052D01*
X0388408Y0044949D01*
X0388282Y0044849D01*
X0388154Y0044753D01*
X0388023Y0044660D01*
X0387889Y0044570D01*
X0387754Y0044483D01*
X0387616Y0044400D01*
X0387477Y0044320D01*
X0387335Y0044244D01*
X0387192Y0044171D01*
X0387047Y0044102D01*
X0386900Y0044036D01*
X0386752Y0043974D01*
X0386602Y0043916D01*
X0386451Y0043861D01*
X0386298Y0043810D01*
X0386144Y0043763D01*
X0385989Y0043720D01*
X0385833Y0043681D01*
X0385677Y0043645D01*
X0385519Y0043614D01*
X0385361Y0043586D01*
X0385202Y0043562D01*
X0385042Y0043542D01*
X0384882Y0043526D01*
X0384722Y0043514D01*
X0384561Y0043506D01*
X0384400Y0043502D01*
X0384240Y0043502D01*
X0384079Y0043506D01*
X0383918Y0043514D01*
X0383758Y0043526D01*
X0383598Y0043542D01*
X0383438Y0043562D01*
X0383279Y0043586D01*
X0383121Y0043614D01*
X0382963Y0043645D01*
X0382807Y0043681D01*
X0382651Y0043720D01*
X0382496Y0043763D01*
X0382342Y0043810D01*
X0382189Y0043861D01*
X0382038Y0043916D01*
X0381888Y0043974D01*
X0381740Y0044036D01*
X0381593Y0044102D01*
X0381448Y0044171D01*
X0381305Y0044244D01*
X0381163Y0044320D01*
X0381024Y0044400D01*
X0380886Y0044483D01*
X0380751Y0044570D01*
X0380617Y0044660D01*
X0380486Y0044753D01*
X0380358Y0044849D01*
X0380232Y0044949D01*
X0380108Y0045052D01*
X0379987Y0045157D01*
X0379868Y0045266D01*
X0379752Y0045377D01*
X0379639Y0045492D01*
X0379529Y0045609D01*
X0379422Y0045729D01*
X0379318Y0045851D01*
X0379217Y0045976D01*
X0379119Y0046104D01*
X0379024Y0046234D01*
X0378932Y0046366D01*
X0378844Y0046500D01*
X0378759Y0046637D01*
X0378677Y0046775D01*
X0378599Y0046916D01*
X0378525Y0047058D01*
X0378454Y0047202D01*
X0378386Y0047348D01*
X0378323Y0047496D01*
X0378262Y0047645D01*
X0378206Y0047796D01*
X0378153Y0047948D01*
X0378104Y0048101D01*
X0378059Y0048255D01*
X0378018Y0048410D01*
X0377980Y0048567D01*
X0377947Y0048724D01*
X0377917Y0048882D01*
X0377891Y0049041D01*
X0377870Y0049200D01*
X0377852Y0049360D01*
X0377838Y0049520D01*
X0377828Y0049681D01*
X0377822Y0049841D01*
X0377820Y0050002D01*
X0290320Y0050002D02*
X0290322Y0050163D01*
X0290328Y0050323D01*
X0290338Y0050484D01*
X0290352Y0050644D01*
X0290370Y0050804D01*
X0290391Y0050963D01*
X0290417Y0051122D01*
X0290447Y0051280D01*
X0290480Y0051437D01*
X0290518Y0051594D01*
X0290559Y0051749D01*
X0290604Y0051903D01*
X0290653Y0052056D01*
X0290706Y0052208D01*
X0290762Y0052359D01*
X0290823Y0052508D01*
X0290886Y0052656D01*
X0290954Y0052802D01*
X0291025Y0052946D01*
X0291099Y0053088D01*
X0291177Y0053229D01*
X0291259Y0053367D01*
X0291344Y0053504D01*
X0291432Y0053638D01*
X0291524Y0053770D01*
X0291619Y0053900D01*
X0291717Y0054028D01*
X0291818Y0054153D01*
X0291922Y0054275D01*
X0292029Y0054395D01*
X0292139Y0054512D01*
X0292252Y0054627D01*
X0292368Y0054738D01*
X0292487Y0054847D01*
X0292608Y0054952D01*
X0292732Y0055055D01*
X0292858Y0055155D01*
X0292986Y0055251D01*
X0293117Y0055344D01*
X0293251Y0055434D01*
X0293386Y0055521D01*
X0293524Y0055604D01*
X0293663Y0055684D01*
X0293805Y0055760D01*
X0293948Y0055833D01*
X0294093Y0055902D01*
X0294240Y0055968D01*
X0294388Y0056030D01*
X0294538Y0056088D01*
X0294689Y0056143D01*
X0294842Y0056194D01*
X0294996Y0056241D01*
X0295151Y0056284D01*
X0295307Y0056323D01*
X0295463Y0056359D01*
X0295621Y0056390D01*
X0295779Y0056418D01*
X0295938Y0056442D01*
X0296098Y0056462D01*
X0296258Y0056478D01*
X0296418Y0056490D01*
X0296579Y0056498D01*
X0296740Y0056502D01*
X0296900Y0056502D01*
X0297061Y0056498D01*
X0297222Y0056490D01*
X0297382Y0056478D01*
X0297542Y0056462D01*
X0297702Y0056442D01*
X0297861Y0056418D01*
X0298019Y0056390D01*
X0298177Y0056359D01*
X0298333Y0056323D01*
X0298489Y0056284D01*
X0298644Y0056241D01*
X0298798Y0056194D01*
X0298951Y0056143D01*
X0299102Y0056088D01*
X0299252Y0056030D01*
X0299400Y0055968D01*
X0299547Y0055902D01*
X0299692Y0055833D01*
X0299835Y0055760D01*
X0299977Y0055684D01*
X0300116Y0055604D01*
X0300254Y0055521D01*
X0300389Y0055434D01*
X0300523Y0055344D01*
X0300654Y0055251D01*
X0300782Y0055155D01*
X0300908Y0055055D01*
X0301032Y0054952D01*
X0301153Y0054847D01*
X0301272Y0054738D01*
X0301388Y0054627D01*
X0301501Y0054512D01*
X0301611Y0054395D01*
X0301718Y0054275D01*
X0301822Y0054153D01*
X0301923Y0054028D01*
X0302021Y0053900D01*
X0302116Y0053770D01*
X0302208Y0053638D01*
X0302296Y0053504D01*
X0302381Y0053367D01*
X0302463Y0053229D01*
X0302541Y0053088D01*
X0302615Y0052946D01*
X0302686Y0052802D01*
X0302754Y0052656D01*
X0302817Y0052508D01*
X0302878Y0052359D01*
X0302934Y0052208D01*
X0302987Y0052056D01*
X0303036Y0051903D01*
X0303081Y0051749D01*
X0303122Y0051594D01*
X0303160Y0051437D01*
X0303193Y0051280D01*
X0303223Y0051122D01*
X0303249Y0050963D01*
X0303270Y0050804D01*
X0303288Y0050644D01*
X0303302Y0050484D01*
X0303312Y0050323D01*
X0303318Y0050163D01*
X0303320Y0050002D01*
X0303318Y0049841D01*
X0303312Y0049681D01*
X0303302Y0049520D01*
X0303288Y0049360D01*
X0303270Y0049200D01*
X0303249Y0049041D01*
X0303223Y0048882D01*
X0303193Y0048724D01*
X0303160Y0048567D01*
X0303122Y0048410D01*
X0303081Y0048255D01*
X0303036Y0048101D01*
X0302987Y0047948D01*
X0302934Y0047796D01*
X0302878Y0047645D01*
X0302817Y0047496D01*
X0302754Y0047348D01*
X0302686Y0047202D01*
X0302615Y0047058D01*
X0302541Y0046916D01*
X0302463Y0046775D01*
X0302381Y0046637D01*
X0302296Y0046500D01*
X0302208Y0046366D01*
X0302116Y0046234D01*
X0302021Y0046104D01*
X0301923Y0045976D01*
X0301822Y0045851D01*
X0301718Y0045729D01*
X0301611Y0045609D01*
X0301501Y0045492D01*
X0301388Y0045377D01*
X0301272Y0045266D01*
X0301153Y0045157D01*
X0301032Y0045052D01*
X0300908Y0044949D01*
X0300782Y0044849D01*
X0300654Y0044753D01*
X0300523Y0044660D01*
X0300389Y0044570D01*
X0300254Y0044483D01*
X0300116Y0044400D01*
X0299977Y0044320D01*
X0299835Y0044244D01*
X0299692Y0044171D01*
X0299547Y0044102D01*
X0299400Y0044036D01*
X0299252Y0043974D01*
X0299102Y0043916D01*
X0298951Y0043861D01*
X0298798Y0043810D01*
X0298644Y0043763D01*
X0298489Y0043720D01*
X0298333Y0043681D01*
X0298177Y0043645D01*
X0298019Y0043614D01*
X0297861Y0043586D01*
X0297702Y0043562D01*
X0297542Y0043542D01*
X0297382Y0043526D01*
X0297222Y0043514D01*
X0297061Y0043506D01*
X0296900Y0043502D01*
X0296740Y0043502D01*
X0296579Y0043506D01*
X0296418Y0043514D01*
X0296258Y0043526D01*
X0296098Y0043542D01*
X0295938Y0043562D01*
X0295779Y0043586D01*
X0295621Y0043614D01*
X0295463Y0043645D01*
X0295307Y0043681D01*
X0295151Y0043720D01*
X0294996Y0043763D01*
X0294842Y0043810D01*
X0294689Y0043861D01*
X0294538Y0043916D01*
X0294388Y0043974D01*
X0294240Y0044036D01*
X0294093Y0044102D01*
X0293948Y0044171D01*
X0293805Y0044244D01*
X0293663Y0044320D01*
X0293524Y0044400D01*
X0293386Y0044483D01*
X0293251Y0044570D01*
X0293117Y0044660D01*
X0292986Y0044753D01*
X0292858Y0044849D01*
X0292732Y0044949D01*
X0292608Y0045052D01*
X0292487Y0045157D01*
X0292368Y0045266D01*
X0292252Y0045377D01*
X0292139Y0045492D01*
X0292029Y0045609D01*
X0291922Y0045729D01*
X0291818Y0045851D01*
X0291717Y0045976D01*
X0291619Y0046104D01*
X0291524Y0046234D01*
X0291432Y0046366D01*
X0291344Y0046500D01*
X0291259Y0046637D01*
X0291177Y0046775D01*
X0291099Y0046916D01*
X0291025Y0047058D01*
X0290954Y0047202D01*
X0290886Y0047348D01*
X0290823Y0047496D01*
X0290762Y0047645D01*
X0290706Y0047796D01*
X0290653Y0047948D01*
X0290604Y0048101D01*
X0290559Y0048255D01*
X0290518Y0048410D01*
X0290480Y0048567D01*
X0290447Y0048724D01*
X0290417Y0048882D01*
X0290391Y0049041D01*
X0290370Y0049200D01*
X0290352Y0049360D01*
X0290338Y0049520D01*
X0290328Y0049681D01*
X0290322Y0049841D01*
X0290320Y0050002D01*
D13*
X0399438Y0025514D02*
X0001800Y0025514D01*
X0001800Y0427089D01*
X0399438Y0427089D01*
X0399438Y0238113D01*
X0399438Y0234176D01*
X0399438Y0025514D01*
X0223257Y0163309D02*
X0221170Y0163309D01*
X0191589Y0195601D02*
X0186802Y0192837D01*
X0222146Y0201696D02*
X0230773Y0206677D01*
X0170109Y0133731D02*
X0178669Y0125170D01*
X0181036Y0125170D01*
X0177417Y0121551D01*
X0178055Y0116065D02*
X0176860Y0114870D01*
X0175468Y0114870D01*
X0170318Y0109163D01*
X0159280Y0094719D01*
X0159280Y0105916D02*
X0155146Y0116065D01*
X0147666Y0116065D02*
X0147272Y0096380D01*
X0139792Y0096380D02*
X0133544Y0102628D01*
X0133544Y0102337D01*
X0127587Y0096380D01*
X0133544Y0102628D02*
X0133544Y0124247D01*
X0139288Y0124247D01*
X0139320Y0124245D01*
X0139352Y0124240D01*
X0139383Y0124232D01*
X0139413Y0124220D01*
X0139442Y0124206D01*
X0139469Y0124188D01*
X0139494Y0124168D01*
X0139517Y0124145D01*
X0139537Y0124120D01*
X0139555Y0124093D01*
X0139569Y0124064D01*
X0139581Y0124034D01*
X0139589Y0124003D01*
X0139594Y0123971D01*
X0139596Y0123939D01*
X0139595Y0123939D02*
X0146011Y0125343D01*
X0152294Y0127856D01*
X0159214Y0131764D01*
X0159280Y0131813D02*
X0162283Y0131813D01*
X0165237Y0128859D01*
X0170735Y0123361D01*
X0170735Y0119602D02*
X0165028Y0114452D01*
X0178055Y0116065D02*
X0182902Y0116065D01*
X0058675Y0121511D02*
X0057728Y0123305D01*
X0056823Y0125120D01*
X0055959Y0126956D01*
X0055139Y0128811D01*
X0054362Y0130685D01*
X0053628Y0132576D01*
X0052938Y0134484D01*
X0052293Y0136408D01*
X0051692Y0138345D01*
X0051137Y0140296D01*
X0050627Y0142260D01*
X0050162Y0144235D01*
X0049743Y0146219D01*
X0049743Y0146220D02*
X0046762Y0149200D01*
X0035267Y0149200D01*
X0058675Y0121511D02*
X0061588Y0118598D01*
X0080540Y0118598D01*
X0087219Y0122108D02*
X0088414Y0120912D01*
X0088414Y0114465D01*
X0088414Y0108191D01*
X0097950Y0098656D01*
X0108099Y0094719D01*
X0108099Y0105916D02*
X0112233Y0116065D01*
X0119713Y0116065D02*
X0120107Y0096380D01*
X0097519Y0117932D02*
X0097519Y0120298D01*
X0106079Y0128859D01*
X0101208Y0133731D02*
X0103227Y0135750D01*
X0107548Y0135750D01*
X0101208Y0133731D02*
X0095710Y0128233D01*
X0093900Y0127676D02*
X0093900Y0121551D01*
X0097519Y0117932D02*
X0093900Y0114313D01*
X0093900Y0112128D01*
X0087219Y0122108D02*
X0087219Y0123500D01*
X0081512Y0128650D01*
X0086801Y0133939D02*
X0091951Y0128233D01*
X0093343Y0128232D02*
X0093900Y0127676D01*
X0059170Y0219017D02*
X0050544Y0223997D01*
D14*
X0021485Y0293231D02*
X0021485Y0297168D01*
X0139595Y0305042D02*
X0143532Y0305042D01*
X0143532Y0415278D01*
X0139595Y0415278D01*
X0139595Y0305042D01*
X0257706Y0289294D02*
X0257706Y0245987D01*
X0261643Y0245987D01*
X0261643Y0289294D01*
X0257706Y0289294D01*
X0269517Y0305042D02*
X0269517Y0415278D01*
X0273454Y0415278D01*
X0273454Y0305042D01*
X0269517Y0305042D01*
X0257706Y0238113D02*
X0257706Y0234176D01*
X0391564Y0234176D01*
X0391564Y0238113D01*
X0399438Y0238113D01*
X0399438Y0234176D02*
X0391564Y0234176D01*
X0391564Y0238113D02*
X0257706Y0238113D01*
X0281328Y0226302D02*
X0281328Y0041262D01*
X0285265Y0041262D01*
X0285265Y0226302D01*
X0281328Y0226302D01*
X0379753Y0293231D02*
X0379753Y0297168D01*
D15*
X0198650Y0297168D01*
X0198650Y0293231D01*
X0379753Y0293231D01*
X0261643Y0210554D02*
X0257706Y0210554D01*
X0252818Y0205952D02*
X0247873Y0204152D01*
X0249547Y0199219D01*
X0249831Y0198743D01*
X0254566Y0200801D01*
X0249831Y0198743D02*
X0251005Y0194217D01*
X0252244Y0189156D01*
X0253260Y0184046D01*
X0254053Y0178896D01*
X0254620Y0173717D01*
X0254961Y0168518D01*
X0255074Y0163309D01*
X0254961Y0158101D01*
X0254620Y0152902D01*
X0254053Y0147723D01*
X0253260Y0142573D01*
X0252244Y0137463D01*
X0251005Y0132402D01*
X0249547Y0127400D01*
X0247873Y0122467D01*
X0245984Y0117611D01*
X0243886Y0112842D01*
X0241582Y0108169D01*
X0239076Y0103601D01*
X0236373Y0099147D01*
X0233478Y0094815D01*
X0230397Y0090614D01*
X0227136Y0086550D01*
X0223701Y0082633D01*
X0220098Y0078869D01*
X0223819Y0075149D01*
X0220098Y0078869D02*
X0216335Y0075267D01*
X0219890Y0071387D01*
X0216335Y0075267D02*
X0212417Y0071831D01*
X0215800Y0067800D01*
X0212417Y0071831D02*
X0208354Y0068570D01*
X0211558Y0064395D01*
X0208354Y0068570D02*
X0204153Y0065489D01*
X0207171Y0061179D01*
X0204153Y0065489D02*
X0199821Y0062595D01*
X0197291Y0066566D01*
X0201452Y0069347D01*
X0204605Y0072452D01*
X0206569Y0076419D01*
X0210257Y0075307D01*
X0206569Y0076419D02*
X0207125Y0080809D01*
X0210974Y0080967D01*
X0207125Y0080809D02*
X0206212Y0085140D01*
X0209798Y0086549D01*
X0206212Y0085140D02*
X0203932Y0088934D01*
X0206859Y0091439D01*
X0203932Y0088934D02*
X0200536Y0091771D01*
X0202481Y0095097D01*
X0200536Y0091771D02*
X0196398Y0093341D01*
X0197146Y0097120D01*
X0196398Y0093341D02*
X0191973Y0093468D01*
X0191444Y0097285D01*
X0191973Y0093468D02*
X0187536Y0092167D01*
X0185266Y0095280D01*
X0187536Y0092167D02*
X0183244Y0089228D01*
X0181162Y0092469D01*
X0183244Y0089228D02*
X0178786Y0086547D01*
X0176899Y0089906D01*
X0178786Y0086547D02*
X0174177Y0084134D01*
X0172492Y0087598D01*
X0174177Y0084134D02*
X0169434Y0081997D01*
X0167956Y0085555D01*
X0169434Y0081997D02*
X0164573Y0080144D01*
X0163308Y0083783D01*
X0164573Y0080144D02*
X0159611Y0078582D01*
X0158563Y0082289D01*
X0159611Y0078582D02*
X0154565Y0077315D01*
X0153738Y0081078D01*
X0154565Y0077315D02*
X0149454Y0076348D01*
X0148850Y0080154D01*
X0149454Y0076348D02*
X0144294Y0075686D01*
X0143916Y0079520D01*
X0144294Y0075686D02*
X0139104Y0075328D01*
X0138953Y0079178D01*
X0135658Y0077187D02*
X0135658Y0075328D01*
X0139104Y0075328D01*
X0135658Y0075328D02*
X0132212Y0075328D01*
X0132363Y0079178D01*
X0132212Y0075328D02*
X0127023Y0075686D01*
X0127400Y0079520D01*
X0127023Y0075686D02*
X0121863Y0076348D01*
X0122466Y0080154D01*
X0121863Y0076348D02*
X0116751Y0077315D01*
X0117578Y0081078D01*
X0116751Y0077315D02*
X0111706Y0078582D01*
X0112754Y0082289D01*
X0111706Y0078582D02*
X0106744Y0080144D01*
X0108009Y0083783D01*
X0106744Y0080144D02*
X0101882Y0081997D01*
X0103360Y0085555D01*
X0101882Y0081997D02*
X0097139Y0084134D01*
X0098825Y0087598D01*
X0097139Y0084134D02*
X0092531Y0086547D01*
X0094418Y0089906D01*
X0092531Y0086547D02*
X0088072Y0089228D01*
X0090155Y0092469D01*
X0088072Y0089228D02*
X0083780Y0092167D01*
X0086050Y0095280D01*
X0083780Y0092167D02*
X0079343Y0093468D01*
X0079873Y0097285D01*
X0079343Y0093468D02*
X0074919Y0093341D01*
X0074170Y0097120D01*
X0074919Y0093341D02*
X0070781Y0091771D01*
X0068836Y0095097D01*
X0070781Y0091771D02*
X0067384Y0088934D01*
X0064457Y0091439D01*
X0067384Y0088934D02*
X0065104Y0085140D01*
X0061518Y0086549D01*
X0065104Y0085140D02*
X0064192Y0080809D01*
X0060342Y0080967D01*
X0064192Y0080809D02*
X0064748Y0076419D01*
X0061059Y0075307D01*
X0064748Y0076419D02*
X0066711Y0072452D01*
X0069865Y0069347D01*
X0068760Y0067769D01*
X0069865Y0069347D01*
X0074026Y0066566D01*
X0071496Y0062595D01*
X0068669Y0058157D01*
X0071496Y0062595D02*
X0075950Y0059892D01*
X0078305Y0063970D01*
X0075950Y0059892D02*
X0080518Y0057386D01*
X0082692Y0061563D01*
X0080518Y0057386D02*
X0085191Y0055082D01*
X0087181Y0059349D01*
X0085191Y0055082D02*
X0089960Y0052983D01*
X0091762Y0057334D01*
X0089960Y0052983D02*
X0094816Y0051095D01*
X0096426Y0055520D01*
X0094816Y0051095D02*
X0099749Y0049420D01*
X0101165Y0053911D01*
X0099749Y0049420D02*
X0104751Y0047962D01*
X0105970Y0052511D01*
X0104751Y0047962D02*
X0109812Y0046724D01*
X0110831Y0051321D01*
X0109812Y0046724D02*
X0114922Y0045708D01*
X0115740Y0050345D01*
X0114922Y0045708D02*
X0120071Y0044915D01*
X0120686Y0049583D01*
X0120071Y0044915D02*
X0125250Y0044348D01*
X0125661Y0049038D01*
X0125250Y0044348D02*
X0130449Y0044007D01*
X0135658Y0043893D01*
X0135658Y0048602D01*
X0135658Y0043893D02*
X0135658Y0038631D01*
X0135658Y0043893D02*
X0140867Y0044007D01*
X0140662Y0048711D01*
X0140867Y0044007D02*
X0146066Y0044348D01*
X0145656Y0049038D01*
X0146066Y0044348D02*
X0151245Y0044915D01*
X0150631Y0049583D01*
X0151245Y0044915D02*
X0156395Y0045708D01*
X0155577Y0050345D01*
X0156395Y0045708D02*
X0161505Y0046724D01*
X0160486Y0051321D01*
X0161505Y0046724D02*
X0166565Y0047962D01*
X0165347Y0052511D01*
X0166565Y0047962D02*
X0167927Y0042879D01*
X0162644Y0041586D02*
X0161505Y0046724D01*
X0166565Y0047962D02*
X0171567Y0049420D01*
X0170151Y0053911D01*
X0171567Y0049420D02*
X0176501Y0051095D01*
X0174891Y0055520D01*
X0176501Y0051095D02*
X0181357Y0052983D01*
X0179555Y0057334D01*
X0181357Y0052983D02*
X0186126Y0055082D01*
X0184136Y0059349D01*
X0186126Y0055082D02*
X0188350Y0050312D01*
X0186126Y0055082D02*
X0190799Y0057386D01*
X0188624Y0061563D01*
X0190799Y0057386D02*
X0195366Y0059892D01*
X0193012Y0063970D01*
X0195366Y0059892D02*
X0199821Y0062595D01*
X0202648Y0058157D01*
X0197997Y0055335D02*
X0195366Y0059892D01*
X0190799Y0057386D02*
X0193228Y0052718D01*
X0183371Y0048122D02*
X0181357Y0052983D01*
X0176501Y0051095D02*
X0178301Y0046150D01*
X0173150Y0044402D02*
X0171567Y0049420D01*
X0156395Y0045708D02*
X0157308Y0040525D01*
X0151932Y0039698D02*
X0151245Y0044915D01*
X0146066Y0044348D02*
X0146525Y0039106D01*
X0141097Y0038750D02*
X0140867Y0044007D01*
X0130449Y0044007D02*
X0130220Y0038750D01*
X0130449Y0044007D02*
X0130655Y0048711D01*
X0125250Y0044348D02*
X0124792Y0039106D01*
X0119384Y0039698D02*
X0120071Y0044915D01*
X0114922Y0045708D02*
X0114008Y0040525D01*
X0108673Y0041586D02*
X0109812Y0046724D01*
X0104751Y0047962D02*
X0103389Y0042879D01*
X0098167Y0044402D02*
X0099749Y0049420D01*
X0094816Y0051095D02*
X0093016Y0046150D01*
X0087946Y0048122D02*
X0089960Y0052983D01*
X0085191Y0055082D02*
X0082967Y0050312D01*
X0078088Y0052718D02*
X0080518Y0057386D01*
X0075950Y0059892D02*
X0073319Y0055335D01*
X0071496Y0062595D02*
X0067164Y0065489D01*
X0064146Y0061179D01*
X0067164Y0065489D02*
X0062962Y0068570D01*
X0059759Y0064395D01*
X0062962Y0068570D02*
X0058899Y0071831D01*
X0054982Y0075267D01*
X0051218Y0078869D01*
X0047497Y0075149D01*
X0051218Y0078869D02*
X0047615Y0082633D01*
X0043736Y0079078D01*
X0047615Y0082633D02*
X0044180Y0086550D01*
X0040149Y0083168D01*
X0044180Y0086550D02*
X0040919Y0090614D01*
X0037838Y0094815D01*
X0034944Y0099147D01*
X0032241Y0103601D01*
X0029735Y0108169D01*
X0027430Y0112842D01*
X0025332Y0117611D01*
X0023444Y0122467D01*
X0021769Y0127400D01*
X0020311Y0132402D01*
X0019073Y0137463D01*
X0018056Y0142573D01*
X0017264Y0147723D01*
X0016697Y0152902D01*
X0016356Y0158101D01*
X0016242Y0163309D01*
X0016356Y0168518D01*
X0016697Y0173717D01*
X0017264Y0178896D01*
X0018056Y0184046D01*
X0019073Y0189156D01*
X0020311Y0194217D01*
X0021769Y0199219D01*
X0023444Y0204152D01*
X0025332Y0209008D01*
X0027430Y0213777D01*
X0040544Y0206677D01*
X0027430Y0213777D02*
X0029735Y0218450D01*
X0032241Y0223018D01*
X0034944Y0227472D01*
X0037838Y0231804D01*
X0040919Y0236005D01*
X0044180Y0240069D01*
X0047615Y0243986D01*
X0051218Y0247749D01*
X0054982Y0251352D01*
X0058899Y0254788D01*
X0062962Y0258049D01*
X0067164Y0261129D01*
X0071496Y0264024D01*
X0074026Y0260053D01*
X0069865Y0257272D01*
X0066711Y0254167D01*
X0064748Y0250200D01*
X0064192Y0245809D01*
X0065104Y0241479D01*
X0067384Y0237685D01*
X0070781Y0234847D01*
X0068836Y0231522D01*
X0070781Y0234847D02*
X0074919Y0233278D01*
X0074170Y0229499D01*
X0074919Y0233278D02*
X0079343Y0233151D01*
X0079873Y0229334D01*
X0079343Y0233151D02*
X0083780Y0234452D01*
X0086050Y0231339D01*
X0083780Y0234452D02*
X0088072Y0237391D01*
X0090155Y0234150D01*
X0088072Y0237391D02*
X0092531Y0240072D01*
X0094418Y0236713D01*
X0092531Y0240072D02*
X0097139Y0242485D01*
X0098825Y0239021D01*
X0097139Y0242485D02*
X0101882Y0244622D01*
X0103360Y0241064D01*
X0101882Y0244622D02*
X0106744Y0246475D01*
X0108009Y0242836D01*
X0106744Y0246475D02*
X0111706Y0248037D01*
X0112754Y0244330D01*
X0111706Y0248037D02*
X0116751Y0249304D01*
X0117578Y0245541D01*
X0116751Y0249304D02*
X0121863Y0250270D01*
X0122466Y0246465D01*
X0121863Y0250270D02*
X0127023Y0250933D01*
X0127400Y0247099D01*
X0127023Y0250933D02*
X0132212Y0251290D01*
X0132363Y0247441D01*
X0135658Y0249431D02*
X0135658Y0251290D01*
X0139104Y0251290D01*
X0144294Y0250933D01*
X0143916Y0247099D01*
X0144294Y0250933D02*
X0149454Y0250270D01*
X0148850Y0246465D01*
X0149454Y0250270D02*
X0154565Y0249304D01*
X0153738Y0245541D01*
X0154565Y0249304D02*
X0159611Y0248037D01*
X0158563Y0244330D01*
X0159611Y0248037D02*
X0164573Y0246475D01*
X0163308Y0242836D01*
X0164573Y0246475D02*
X0169434Y0244622D01*
X0167956Y0241064D01*
X0169434Y0244622D02*
X0174177Y0242485D01*
X0172492Y0239021D01*
X0174177Y0242485D02*
X0178786Y0240072D01*
X0176899Y0236713D01*
X0178786Y0240072D02*
X0183244Y0237391D01*
X0181162Y0234150D01*
X0183244Y0237391D02*
X0187536Y0234452D01*
X0185266Y0231339D01*
X0187536Y0234452D02*
X0191973Y0233151D01*
X0191444Y0229334D01*
X0191973Y0233151D02*
X0196398Y0233278D01*
X0197146Y0229499D01*
X0196398Y0233278D02*
X0200536Y0234847D01*
X0202481Y0231522D01*
X0200536Y0234847D02*
X0203932Y0237685D01*
X0206212Y0241479D01*
X0209798Y0240070D01*
X0206212Y0241479D02*
X0207125Y0245809D01*
X0210974Y0245652D01*
X0207125Y0245809D02*
X0206569Y0250200D01*
X0210257Y0251312D01*
X0206569Y0250200D02*
X0204605Y0254167D01*
X0201452Y0257272D01*
X0202557Y0258850D01*
X0201452Y0257272D01*
X0197291Y0260053D01*
X0199821Y0264024D01*
X0204153Y0261129D01*
X0208354Y0258049D01*
X0212417Y0254788D01*
X0216335Y0251352D01*
X0220098Y0247749D01*
X0223701Y0243986D01*
X0227136Y0240069D01*
X0230397Y0236005D01*
X0234572Y0239209D01*
X0230397Y0236005D02*
X0233478Y0231804D01*
X0236373Y0227472D01*
X0239076Y0223018D01*
X0241582Y0218450D01*
X0243886Y0213777D01*
X0245984Y0209008D01*
X0247873Y0204152D01*
X0245984Y0209008D02*
X0250846Y0211022D01*
X0248655Y0216001D02*
X0243886Y0213777D01*
X0241582Y0218450D02*
X0246249Y0220880D01*
X0243633Y0225649D02*
X0239076Y0223018D01*
X0236373Y0227472D02*
X0240811Y0230299D01*
X0237789Y0234822D02*
X0233478Y0231804D01*
X0220773Y0223997D01*
X0227136Y0240069D02*
X0231167Y0243451D01*
X0227581Y0247541D02*
X0223701Y0243986D01*
X0220098Y0247749D02*
X0223819Y0251470D01*
X0219890Y0255232D02*
X0216335Y0251352D01*
X0212417Y0254788D02*
X0215800Y0258819D01*
X0211558Y0262223D02*
X0208354Y0258049D01*
X0204153Y0261129D02*
X0207171Y0265440D01*
X0202648Y0268462D02*
X0199821Y0264024D01*
X0195366Y0266727D01*
X0193012Y0262649D01*
X0195366Y0266727D02*
X0190799Y0269233D01*
X0188624Y0265056D01*
X0190799Y0269233D02*
X0193228Y0273900D01*
X0190799Y0269233D02*
X0186126Y0271537D01*
X0184136Y0267270D01*
X0186126Y0271537D02*
X0181357Y0273636D01*
X0179555Y0269285D01*
X0181357Y0273636D02*
X0183371Y0278497D01*
X0181357Y0273636D02*
X0176501Y0275524D01*
X0174891Y0271099D01*
X0176501Y0275524D02*
X0171567Y0277199D01*
X0170151Y0272708D01*
X0171567Y0277199D02*
X0166565Y0278657D01*
X0165347Y0274108D01*
X0166565Y0278657D02*
X0167927Y0283739D01*
X0166565Y0278657D02*
X0161505Y0279895D01*
X0160486Y0275298D01*
X0161505Y0279895D02*
X0156395Y0280911D01*
X0155577Y0276274D01*
X0156395Y0280911D02*
X0151245Y0281704D01*
X0150631Y0277036D01*
X0151245Y0281704D02*
X0146066Y0282271D01*
X0145656Y0277580D01*
X0146066Y0282271D02*
X0140867Y0282612D01*
X0140662Y0277908D01*
X0140867Y0282612D02*
X0135658Y0282726D01*
X0135658Y0278017D01*
X0135658Y0282726D02*
X0135658Y0287988D01*
X0141097Y0287869D02*
X0140867Y0282612D01*
X0135658Y0282726D02*
X0130449Y0282612D01*
X0130655Y0277908D01*
X0130449Y0282612D02*
X0125250Y0282271D01*
X0125661Y0277580D01*
X0125250Y0282271D02*
X0120071Y0281704D01*
X0120686Y0277036D01*
X0120071Y0281704D02*
X0114922Y0280911D01*
X0115740Y0276274D01*
X0114922Y0280911D02*
X0114008Y0286094D01*
X0114922Y0280911D02*
X0109812Y0279895D01*
X0110831Y0275298D01*
X0109812Y0279895D02*
X0108673Y0285032D01*
X0109812Y0279895D02*
X0104751Y0278657D01*
X0105970Y0274108D01*
X0104751Y0278657D02*
X0099749Y0277199D01*
X0101165Y0272708D01*
X0099749Y0277199D02*
X0094816Y0275524D01*
X0096426Y0271099D01*
X0094816Y0275524D02*
X0093016Y0280469D01*
X0094816Y0275524D02*
X0089960Y0273636D01*
X0091762Y0269285D01*
X0089960Y0273636D02*
X0087946Y0278497D01*
X0089960Y0273636D02*
X0085191Y0271537D01*
X0087181Y0267270D01*
X0085191Y0271537D02*
X0082967Y0276306D01*
X0085191Y0271537D02*
X0080518Y0269233D01*
X0082692Y0265056D01*
X0080518Y0269233D02*
X0078088Y0273900D01*
X0080518Y0269233D02*
X0075950Y0266727D01*
X0078305Y0262649D01*
X0075950Y0266727D02*
X0073319Y0271284D01*
X0075950Y0266727D02*
X0071496Y0264024D01*
X0068669Y0268462D01*
X0064146Y0265440D02*
X0067164Y0261129D01*
X0062962Y0258049D02*
X0059759Y0262223D01*
X0055517Y0258819D02*
X0058899Y0254788D01*
X0061059Y0251312D02*
X0064748Y0250200D01*
X0064192Y0245809D02*
X0060342Y0245652D01*
X0061518Y0240070D02*
X0065104Y0241479D01*
X0067384Y0237685D02*
X0064457Y0235180D01*
X0051218Y0247749D02*
X0047497Y0251470D01*
X0043736Y0247541D02*
X0047615Y0243986D01*
X0044180Y0240069D02*
X0040149Y0243451D01*
X0036744Y0239209D02*
X0040919Y0236005D01*
X0037838Y0231804D02*
X0033528Y0234822D01*
X0030506Y0230299D02*
X0034944Y0227472D01*
X0032241Y0223018D02*
X0027684Y0225649D01*
X0025067Y0220880D02*
X0029735Y0218450D01*
X0027430Y0213777D02*
X0022661Y0216001D01*
X0020470Y0211022D02*
X0025332Y0209008D01*
X0023444Y0204152D02*
X0018499Y0205952D01*
X0016750Y0200801D02*
X0021769Y0199219D01*
X0020311Y0194217D02*
X0015228Y0195579D01*
X0013935Y0190295D02*
X0019073Y0189156D01*
X0018056Y0184046D02*
X0012874Y0184960D01*
X0012047Y0179583D02*
X0017264Y0178896D01*
X0016697Y0173717D02*
X0011454Y0174176D01*
X0011099Y0168748D02*
X0016356Y0168518D01*
X0013611Y0163309D02*
X0010980Y0163309D01*
X0011099Y0157871D02*
X0016356Y0158101D01*
X0016697Y0152902D02*
X0011454Y0152443D01*
X0012047Y0147036D02*
X0017264Y0147723D01*
X0018056Y0142573D02*
X0012874Y0141659D01*
X0013935Y0136324D02*
X0019073Y0137463D01*
X0020311Y0132402D02*
X0015228Y0131040D01*
X0016750Y0125818D02*
X0021769Y0127400D01*
X0023444Y0122467D02*
X0018499Y0120667D01*
X0020470Y0115597D02*
X0025332Y0117611D01*
X0027430Y0112842D02*
X0022661Y0110618D01*
X0025067Y0105739D02*
X0029735Y0108169D01*
X0032241Y0103601D02*
X0027684Y0100970D01*
X0030506Y0096320D02*
X0034944Y0099147D01*
X0037838Y0094815D02*
X0033528Y0091797D01*
X0036744Y0087410D02*
X0040919Y0090614D01*
X0054982Y0075267D02*
X0051427Y0071387D01*
X0055517Y0067800D02*
X0058899Y0071831D01*
X0091951Y0128233D02*
X0093343Y0128232D01*
X0095710Y0128233D01*
X0107548Y0135744D02*
X0107548Y0135750D01*
X0107548Y0135744D02*
X0107578Y0135715D01*
X0093589Y0159629D02*
X0093428Y0163309D01*
X0093589Y0166990D01*
X0094070Y0170643D01*
X0094867Y0174239D01*
X0095975Y0177753D01*
X0097385Y0181157D01*
X0099086Y0184425D01*
X0101065Y0187532D01*
X0103308Y0190455D01*
X0105797Y0193171D01*
X0108513Y0195660D01*
X0111436Y0197902D01*
X0114543Y0199882D01*
X0117811Y0201583D01*
X0121215Y0202993D01*
X0124728Y0204101D01*
X0123282Y0209499D02*
X0119303Y0208244D01*
X0115449Y0206648D01*
X0111749Y0204721D01*
X0108231Y0202480D01*
X0104921Y0199941D01*
X0101845Y0197122D01*
X0099027Y0194047D01*
X0096488Y0190737D01*
X0094246Y0187219D01*
X0092320Y0183518D01*
X0090724Y0179664D01*
X0089469Y0175686D01*
X0088566Y0171613D01*
X0088022Y0167477D01*
X0087840Y0163309D01*
X0088414Y0159372D01*
X0082455Y0158655D02*
X0082252Y0163309D01*
X0082455Y0167964D01*
X0083063Y0172583D01*
X0084071Y0177132D01*
X0085472Y0181576D01*
X0087255Y0185880D01*
X0089407Y0190013D01*
X0091910Y0193942D01*
X0094746Y0197639D01*
X0097894Y0201074D01*
X0101329Y0204221D01*
X0105025Y0207058D01*
X0108955Y0209561D01*
X0113088Y0211712D01*
X0117392Y0213495D01*
X0121836Y0214896D01*
X0120389Y0220294D02*
X0115481Y0218747D01*
X0113570Y0223998D01*
X0111658Y0229249D01*
X0117497Y0231090D02*
X0118943Y0225692D01*
X0120389Y0220294D01*
X0115481Y0218747D02*
X0110726Y0216777D01*
X0108364Y0221842D01*
X0106003Y0226906D01*
X0100573Y0224080D02*
X0103367Y0219240D01*
X0106161Y0214401D01*
X0110726Y0216777D01*
X0106161Y0214401D02*
X0101820Y0211635D01*
X0098615Y0216213D01*
X0095410Y0220790D01*
X0090553Y0217064D02*
X0094145Y0212783D01*
X0089991Y0208977D01*
X0086040Y0212928D01*
X0089991Y0208977D02*
X0093943Y0205025D01*
X0097737Y0208502D01*
X0101820Y0211635D01*
X0093943Y0205025D02*
X0090466Y0201231D01*
X0087332Y0197148D01*
X0084567Y0192807D01*
X0084515Y0192837D01*
X0079728Y0195601D01*
X0082755Y0200353D01*
X0078177Y0203558D01*
X0082755Y0200353D02*
X0086185Y0204823D01*
X0081904Y0208415D01*
X0074888Y0198395D02*
X0079728Y0195601D01*
X0084515Y0192837D02*
X0082191Y0188242D01*
X0077126Y0190603D01*
X0072062Y0192965D01*
X0069719Y0187309D02*
X0074970Y0185398D01*
X0080221Y0183487D01*
X0078674Y0178578D01*
X0077560Y0173554D01*
X0072056Y0174524D01*
X0073276Y0180025D01*
X0067878Y0181471D01*
X0066553Y0175495D02*
X0072056Y0174524D01*
X0077560Y0173554D02*
X0076888Y0168451D01*
X0076663Y0163309D01*
X0076603Y0159372D01*
X0071075Y0163309D02*
X0071321Y0168938D01*
X0065754Y0169425D01*
X0065487Y0163309D02*
X0064320Y0163309D01*
X0065487Y0163309D02*
X0071075Y0163309D01*
X0050146Y0163309D02*
X0048060Y0163309D01*
X0054982Y0251352D02*
X0051427Y0255232D01*
X0021485Y0293231D02*
X0088414Y0293231D01*
X0088414Y0297168D01*
X0021485Y0297168D01*
X0098167Y0282217D02*
X0099749Y0277199D01*
X0104751Y0278657D02*
X0103389Y0283739D01*
X0119384Y0286921D02*
X0120071Y0281704D01*
X0125250Y0282271D02*
X0124792Y0287513D01*
X0130220Y0287869D02*
X0130449Y0282612D01*
X0146066Y0282271D02*
X0146525Y0287513D01*
X0151932Y0286921D02*
X0151245Y0281704D01*
X0156395Y0280911D02*
X0157308Y0286094D01*
X0162644Y0285032D02*
X0161505Y0279895D01*
X0171567Y0277199D02*
X0173150Y0282217D01*
X0178301Y0280469D02*
X0176501Y0275524D01*
X0186126Y0271537D02*
X0188350Y0276306D01*
X0197997Y0271284D02*
X0195366Y0266727D01*
X0203932Y0237685D02*
X0206859Y0235180D01*
X0185277Y0212928D02*
X0181325Y0208977D01*
X0185132Y0204823D01*
X0189413Y0208415D01*
X0193139Y0203558D02*
X0188562Y0200353D01*
X0183984Y0197148D01*
X0180851Y0201231D01*
X0177374Y0205025D01*
X0173579Y0208502D01*
X0169496Y0211635D01*
X0165156Y0214401D01*
X0167950Y0219240D01*
X0170744Y0224080D01*
X0167950Y0219240D02*
X0162952Y0221842D01*
X0163217Y0222365D01*
X0165314Y0226906D01*
X0167950Y0219240D02*
X0172702Y0216213D01*
X0175907Y0220790D01*
X0180763Y0217064D02*
X0177171Y0212783D01*
X0173579Y0208502D01*
X0177374Y0205025D02*
X0181325Y0208977D01*
X0173423Y0201074D02*
X0169987Y0204221D01*
X0166291Y0207058D01*
X0162362Y0209561D01*
X0158229Y0211712D01*
X0153924Y0213495D01*
X0149481Y0214896D01*
X0150927Y0220294D02*
X0155836Y0218747D01*
X0157747Y0223998D01*
X0159658Y0229249D01*
X0157747Y0223998D02*
X0152374Y0225692D01*
X0153820Y0231090D01*
X0155836Y0218747D02*
X0160591Y0216777D01*
X0165156Y0214401D01*
X0159568Y0204721D02*
X0155867Y0206648D01*
X0152013Y0208244D01*
X0148035Y0209499D01*
X0146588Y0204101D02*
X0150102Y0202993D01*
X0153506Y0201583D01*
X0156773Y0199882D01*
X0159881Y0197902D01*
X0162803Y0195660D01*
X0165520Y0193171D01*
X0168009Y0190455D01*
X0170251Y0187532D01*
X0172231Y0184425D01*
X0173932Y0181157D01*
X0175342Y0177753D01*
X0175342Y0174239D01*
X0176450Y0174239D01*
X0176450Y0170643D01*
X0177247Y0170643D01*
X0177247Y0166990D01*
X0177728Y0166990D01*
X0177728Y0163309D01*
X0177889Y0163309D01*
X0182902Y0163309D01*
X0183295Y0163309D01*
X0183295Y0167477D01*
X0182750Y0167477D01*
X0182750Y0171613D01*
X0181847Y0171613D01*
X0181847Y0175686D01*
X0180593Y0175686D01*
X0180593Y0179664D01*
X0178997Y0183518D01*
X0177070Y0187219D01*
X0174829Y0190737D01*
X0172289Y0194047D01*
X0169471Y0197122D01*
X0166395Y0199941D01*
X0163086Y0202480D01*
X0159568Y0204721D01*
X0173423Y0201074D02*
X0176570Y0197639D01*
X0179406Y0193942D01*
X0181910Y0190013D01*
X0184061Y0185880D01*
X0185844Y0181576D01*
X0185844Y0177132D01*
X0187245Y0177132D01*
X0187245Y0172583D01*
X0188254Y0172583D01*
X0188254Y0167964D01*
X0188862Y0167964D01*
X0188862Y0163309D01*
X0189065Y0163309D01*
X0194653Y0163309D01*
X0194429Y0163309D01*
X0194429Y0168451D01*
X0193757Y0168451D01*
X0193757Y0173554D01*
X0198041Y0174524D02*
X0198041Y0180025D01*
X0203438Y0180025D01*
X0203438Y0181471D01*
X0201598Y0187309D02*
X0196347Y0185398D01*
X0191095Y0183487D01*
X0189126Y0188242D01*
X0186802Y0192837D01*
X0186749Y0192807D01*
X0186802Y0192837D02*
X0183984Y0197148D01*
X0191589Y0195601D02*
X0196428Y0198395D01*
X0199255Y0192965D02*
X0194190Y0190603D01*
X0189126Y0188242D01*
X0191095Y0183487D02*
X0192643Y0178578D01*
X0198041Y0174524D02*
X0199260Y0174524D01*
X0204763Y0174524D01*
X0204763Y0175495D01*
X0199260Y0174524D02*
X0199260Y0169425D01*
X0199996Y0169425D01*
X0199996Y0168938D01*
X0199996Y0168451D01*
X0194429Y0168451D01*
X0199996Y0169425D02*
X0205562Y0169425D01*
X0200241Y0163309D02*
X0200241Y0157681D01*
X0199996Y0157681D01*
X0189065Y0159372D02*
X0189065Y0163309D01*
X0189065Y0159372D02*
X0182902Y0159372D01*
X0182902Y0163309D01*
X0183295Y0163309D02*
X0183477Y0163309D01*
X0177889Y0163309D02*
X0177883Y0163309D01*
X0159280Y0131813D02*
X0159264Y0131813D01*
X0159214Y0131764D01*
X0170735Y0123361D02*
X0170735Y0120994D01*
X0170735Y0119602D01*
X0261642Y0210553D02*
X0262770Y0207483D01*
X0263822Y0204387D01*
X0264798Y0201266D01*
X0265697Y0198122D01*
X0266519Y0194956D01*
X0267263Y0191771D01*
X0267929Y0188570D01*
X0268515Y0185352D01*
X0269023Y0182122D01*
X0269451Y0178879D01*
X0269800Y0175628D01*
X0270069Y0172368D01*
X0270257Y0169104D01*
X0270366Y0165835D01*
X0270394Y0162565D01*
X0270342Y0159295D01*
X0270210Y0156027D01*
X0269998Y0152764D01*
X0269706Y0149507D01*
X0269334Y0146257D01*
X0268882Y0143018D01*
X0268351Y0139792D01*
X0267741Y0136579D01*
X0267052Y0133382D01*
X0266285Y0130202D01*
X0265441Y0127043D01*
X0264519Y0123905D01*
X0263520Y0120791D01*
X0262446Y0117702D01*
X0261295Y0114641D01*
X0260071Y0111609D01*
X0258772Y0108607D01*
X0257400Y0105639D01*
X0255955Y0102705D01*
X0254439Y0099807D01*
X0252852Y0096948D01*
X0251196Y0094128D01*
X0249471Y0091349D01*
X0247678Y0088614D01*
X0245819Y0085924D01*
X0243894Y0083280D01*
X0241905Y0080684D01*
X0239853Y0078138D01*
X0237739Y0075642D01*
X0235564Y0073200D01*
X0233330Y0070811D01*
X0231039Y0068478D01*
X0228690Y0066202D01*
X0226287Y0063984D01*
X0223830Y0061826D01*
X0221321Y0059729D01*
X0218761Y0057694D01*
X0216151Y0055722D01*
X0213495Y0053815D01*
X0210792Y0051974D01*
X0208045Y0050199D01*
X0205255Y0048493D01*
X0202424Y0046855D01*
X0199554Y0045288D01*
X0196646Y0043791D01*
X0193703Y0042366D01*
X0190725Y0041014D01*
X0187715Y0039735D01*
X0184675Y0038530D01*
X0181606Y0037401D01*
X0178510Y0036346D01*
X0175389Y0035369D01*
X0172245Y0034468D01*
X0169081Y0033644D01*
X0165896Y0032899D01*
X0162695Y0032231D01*
X0159478Y0031643D01*
X0156247Y0031133D01*
X0153006Y0030703D01*
X0149754Y0030353D01*
X0146495Y0030082D01*
X0143230Y0029892D01*
X0139962Y0029782D01*
X0136691Y0029752D01*
X0133421Y0029802D01*
X0130154Y0029932D01*
X0126890Y0030143D01*
X0123633Y0030433D01*
X0120383Y0030803D01*
X0117144Y0031253D01*
X0113917Y0031783D01*
X0110704Y0032391D01*
X0107506Y0033078D01*
X0104327Y0033843D01*
X0101167Y0034686D01*
X0098029Y0035606D01*
X0094914Y0036603D01*
X0091825Y0037676D01*
X0088763Y0038824D01*
X0085730Y0040047D01*
X0082728Y0041345D01*
X0079758Y0042715D01*
X0076824Y0044158D01*
X0073925Y0045673D01*
X0071065Y0047258D01*
X0068244Y0048913D01*
X0065465Y0050636D01*
X0062728Y0052428D01*
X0060037Y0054285D01*
X0057392Y0056209D01*
X0054795Y0058196D01*
X0052248Y0060247D01*
X0049751Y0062360D01*
X0047307Y0064533D01*
X0044918Y0066765D01*
X0042583Y0069056D01*
X0040306Y0071403D01*
X0038087Y0073805D01*
X0035927Y0076261D01*
X0033829Y0078769D01*
X0031792Y0081328D01*
X0029819Y0083936D01*
X0027911Y0086592D01*
X0026068Y0089294D01*
X0024292Y0092040D01*
X0022584Y0094829D01*
X0020945Y0097658D01*
X0019376Y0100528D01*
X0017877Y0103435D01*
X0016451Y0106377D01*
X0015097Y0109354D01*
X0013816Y0112364D01*
X0012610Y0115403D01*
X0011479Y0118472D01*
X0010423Y0121567D01*
X0009444Y0124687D01*
X0008541Y0127831D01*
X0007716Y0130995D01*
X0006968Y0134179D01*
X0006299Y0137380D01*
X0005709Y0140597D01*
X0005198Y0143827D01*
X0004766Y0147068D01*
X0004414Y0150320D01*
X0004142Y0153579D01*
X0003949Y0156843D01*
X0003837Y0160112D01*
X0003805Y0163382D01*
X0003854Y0166652D01*
X0003982Y0169920D01*
X0004191Y0173183D01*
X0004480Y0176441D01*
X0004848Y0179691D01*
X0005296Y0182930D01*
X0005824Y0186158D01*
X0006430Y0189371D01*
X0007116Y0192569D01*
X0007879Y0195749D01*
X0008720Y0198909D01*
X0009639Y0202048D01*
X0010634Y0205163D01*
X0011705Y0208253D01*
X0012852Y0211316D01*
X0014073Y0214349D01*
X0015369Y0217352D01*
X0016738Y0220322D01*
X0018179Y0223258D01*
X0019692Y0226157D01*
X0021276Y0229018D01*
X0022929Y0231840D01*
X0024651Y0234620D01*
X0026441Y0237357D01*
X0028297Y0240050D01*
X0030219Y0242696D01*
X0032206Y0245294D01*
X0034255Y0247842D01*
X0036366Y0250340D01*
X0038538Y0252785D01*
X0040769Y0255176D01*
X0043058Y0257512D01*
X0045404Y0259790D01*
X0047805Y0262011D01*
X0050260Y0264171D01*
X0052767Y0266271D01*
X0055325Y0268309D01*
X0057932Y0270284D01*
X0060586Y0272194D01*
X0063287Y0274038D01*
X0066032Y0275815D01*
X0068820Y0277525D01*
X0071649Y0279166D01*
X0074518Y0280736D01*
X0077424Y0282236D01*
X0080366Y0283664D01*
X0083342Y0285020D01*
X0086351Y0286302D01*
X0089390Y0287510D01*
X0092457Y0288643D01*
X0095552Y0289700D01*
X0098672Y0290682D01*
X0101815Y0291586D01*
X0104979Y0292413D01*
X0108162Y0293162D01*
X0111363Y0293833D01*
X0114579Y0294425D01*
X0117809Y0294938D01*
X0121050Y0295371D01*
X0124302Y0295725D01*
X0127560Y0295999D01*
X0130825Y0296193D01*
X0134093Y0296307D01*
X0137363Y0296341D01*
X0140633Y0296294D01*
X0143901Y0296167D01*
X0147165Y0295960D01*
X0150423Y0295674D01*
X0153673Y0295307D01*
X0156912Y0294860D01*
X0160140Y0294335D01*
X0163354Y0293730D01*
X0166552Y0293046D01*
X0169733Y0292285D01*
X0172893Y0291445D01*
X0176033Y0290529D01*
X0179148Y0289535D01*
X0182239Y0288465D01*
X0185302Y0287320D01*
X0188336Y0286100D01*
X0191340Y0284806D01*
X0194311Y0283439D01*
X0197247Y0281999D01*
X0200147Y0280488D01*
X0203009Y0278906D01*
X0205832Y0277254D01*
X0208613Y0275534D01*
X0211351Y0273745D01*
X0214044Y0271890D01*
X0216692Y0269970D01*
X0219291Y0267985D01*
X0221840Y0265937D01*
X0224339Y0263827D01*
X0226785Y0261657D01*
X0229178Y0259427D01*
X0231514Y0257139D01*
X0233794Y0254794D01*
X0236016Y0252395D01*
X0238178Y0249941D01*
X0240280Y0247435D01*
X0242319Y0244879D01*
X0244295Y0242273D01*
X0246206Y0239619D01*
X0248052Y0236919D01*
X0249831Y0234175D01*
X0249831Y0234176D02*
X0245894Y0234176D01*
X0246671Y0232484D02*
X0249870Y0234576D01*
X0256088Y0195579D02*
X0251005Y0194217D01*
X0252244Y0189156D02*
X0257381Y0190295D01*
X0258442Y0184960D02*
X0253260Y0184046D01*
X0254053Y0178896D02*
X0259270Y0179583D01*
X0259862Y0174176D02*
X0254620Y0173717D01*
X0254961Y0168518D02*
X0260218Y0168748D01*
X0260337Y0163309D02*
X0257706Y0163309D01*
X0257645Y0157983D02*
X0260218Y0157871D01*
X0257645Y0157983D02*
X0254961Y0158101D01*
X0254620Y0152902D02*
X0259862Y0152443D01*
X0259270Y0147036D02*
X0254053Y0147723D01*
X0253260Y0142573D02*
X0258442Y0141659D01*
X0257381Y0136324D02*
X0252244Y0137463D01*
X0251005Y0132402D02*
X0256088Y0131040D01*
X0254566Y0125818D02*
X0249547Y0127400D01*
X0247873Y0122467D02*
X0252818Y0120667D01*
X0250846Y0115597D02*
X0245984Y0117611D01*
X0243886Y0112842D02*
X0248655Y0110618D01*
X0246249Y0105739D02*
X0241582Y0108169D01*
X0239076Y0103601D02*
X0243633Y0100970D01*
X0240811Y0096320D02*
X0236373Y0099147D01*
X0233478Y0094815D02*
X0237789Y0091797D01*
X0234572Y0087410D02*
X0230397Y0090614D01*
X0227136Y0086550D02*
X0231167Y0083168D01*
X0227581Y0079078D02*
X0223701Y0082633D01*
X0257706Y0210554D02*
X0258810Y0207570D01*
X0259841Y0204561D01*
X0260798Y0201527D01*
X0261680Y0198471D01*
X0262488Y0195394D01*
X0263220Y0192298D01*
X0263876Y0189186D01*
X0264455Y0186058D01*
X0264958Y0182917D01*
X0265384Y0179764D01*
X0265733Y0176602D01*
X0266004Y0173433D01*
X0266198Y0170257D01*
X0266314Y0167078D01*
X0266352Y0163898D01*
X0266312Y0160717D01*
X0266195Y0157538D01*
X0266000Y0154363D01*
X0265727Y0151193D01*
X0265377Y0148032D01*
X0264949Y0144879D01*
X0264445Y0141738D01*
X0263863Y0138611D01*
X0263206Y0135498D01*
X0262473Y0132403D01*
X0261664Y0129326D01*
X0260780Y0126271D01*
X0259821Y0123237D01*
X0258789Y0120228D01*
X0257683Y0117246D01*
X0256505Y0114291D01*
X0255255Y0111366D01*
X0253933Y0108472D01*
X0252542Y0105611D01*
X0251080Y0102786D01*
X0249550Y0099997D01*
X0247952Y0097246D01*
X0246288Y0094535D01*
X0244558Y0091866D01*
X0242762Y0089240D01*
X0240903Y0086658D01*
X0238982Y0084123D01*
X0236999Y0081635D01*
X0234956Y0079197D01*
X0232854Y0076810D01*
X0230694Y0074474D01*
X0228477Y0072193D01*
X0226206Y0069966D01*
X0223880Y0067795D01*
X0221502Y0065682D01*
X0219074Y0063627D01*
X0216595Y0061633D01*
X0214069Y0059700D01*
X0211496Y0057829D01*
X0208878Y0056022D01*
X0206217Y0054279D01*
X0203514Y0052602D01*
X0200770Y0050992D01*
X0197989Y0049449D01*
X0195170Y0047974D01*
X0192316Y0046569D01*
X0189428Y0045235D01*
X0186509Y0043971D01*
X0183559Y0042779D01*
X0180582Y0041660D01*
X0177577Y0040614D01*
X0174549Y0039641D01*
X0171497Y0038743D01*
X0168424Y0037920D01*
X0165332Y0037172D01*
X0162223Y0036501D01*
X0159098Y0035905D01*
X0155959Y0035386D01*
X0152809Y0034944D01*
X0149649Y0034579D01*
X0146481Y0034292D01*
X0143307Y0034082D01*
X0140128Y0033950D01*
X0136948Y0033896D01*
X0133767Y0033919D01*
X0130587Y0034020D01*
X0127411Y0034199D01*
X0124240Y0034456D01*
X0121077Y0034790D01*
X0117922Y0035202D01*
X0114779Y0035690D01*
X0111649Y0036255D01*
X0108533Y0036897D01*
X0105434Y0037615D01*
X0102353Y0038408D01*
X0099293Y0039276D01*
X0096255Y0040219D01*
X0093241Y0041236D01*
X0090252Y0042327D01*
X0087291Y0043490D01*
X0084360Y0044725D01*
X0081459Y0046032D01*
X0078592Y0047409D01*
X0075759Y0048856D01*
X0072962Y0050372D01*
X0070203Y0051955D01*
X0067484Y0053606D01*
X0064806Y0055323D01*
X0062171Y0057105D01*
X0059580Y0058950D01*
X0057035Y0060859D01*
X0054537Y0062829D01*
X0052089Y0064860D01*
X0049690Y0066950D01*
X0047344Y0069098D01*
X0045051Y0071303D01*
X0042812Y0073563D01*
X0040630Y0075877D01*
X0038505Y0078244D01*
X0036438Y0080663D01*
X0034431Y0083131D01*
X0032485Y0085647D01*
X0030601Y0088211D01*
X0028781Y0090819D01*
X0027024Y0093472D01*
X0025334Y0096166D01*
X0023709Y0098901D01*
X0022152Y0101675D01*
X0020664Y0104487D01*
X0019244Y0107334D01*
X0017895Y0110214D01*
X0016616Y0113127D01*
X0015409Y0116070D01*
X0014275Y0119042D01*
X0013213Y0122041D01*
X0012226Y0125065D01*
X0011312Y0128112D01*
X0010473Y0131181D01*
X0009710Y0134269D01*
X0009022Y0137375D01*
X0008411Y0140497D01*
X0007876Y0143632D01*
X0007418Y0146780D01*
X0007037Y0149939D01*
X0006733Y0153105D01*
X0006507Y0156278D01*
X0006359Y0159456D01*
X0006288Y0162636D01*
X0006296Y0165817D01*
X0006381Y0168997D01*
X0006544Y0172174D01*
X0006784Y0175346D01*
X0007102Y0178511D01*
X0007498Y0181668D01*
X0007970Y0184814D01*
X0008519Y0187947D01*
X0009145Y0191066D01*
X0009847Y0194169D01*
X0010625Y0197253D01*
X0011477Y0200318D01*
X0012405Y0203361D01*
X0013406Y0206380D01*
X0014482Y0209374D01*
X0015630Y0212341D01*
X0016850Y0215278D01*
X0018142Y0218185D01*
X0019505Y0221060D01*
X0020937Y0223900D01*
X0022439Y0226705D01*
X0024008Y0229472D01*
X0025645Y0232199D01*
X0027348Y0234886D01*
X0029117Y0237530D01*
X0030949Y0240131D01*
X0032845Y0242685D01*
X0034802Y0245193D01*
X0036820Y0247652D01*
X0038898Y0250061D01*
X0041034Y0252418D01*
X0043227Y0254722D01*
X0045476Y0256972D01*
X0047779Y0259166D01*
X0050135Y0261304D01*
X0052543Y0263383D01*
X0055001Y0265402D01*
X0057508Y0267361D01*
X0060061Y0269258D01*
X0062661Y0271092D01*
X0065304Y0272861D01*
X0067990Y0274566D01*
X0070717Y0276204D01*
X0073483Y0277775D01*
X0076287Y0279278D01*
X0079126Y0280712D01*
X0082000Y0282076D01*
X0084906Y0283370D01*
X0087843Y0284591D01*
X0090810Y0285741D01*
X0093803Y0286818D01*
X0096822Y0287821D01*
X0099864Y0288750D01*
X0102928Y0289604D01*
X0106013Y0290383D01*
X0109115Y0291087D01*
X0112234Y0291714D01*
X0115367Y0292265D01*
X0118512Y0292739D01*
X0121668Y0293136D01*
X0124833Y0293456D01*
X0128005Y0293698D01*
X0131182Y0293863D01*
X0134362Y0293949D01*
X0137543Y0293958D01*
X0140724Y0293889D01*
X0143901Y0293743D01*
X0147074Y0293518D01*
X0150241Y0293216D01*
X0153400Y0292837D01*
X0156548Y0292381D01*
X0159684Y0291847D01*
X0162806Y0291237D01*
X0165912Y0290551D01*
X0169001Y0289790D01*
X0172070Y0288952D01*
X0175117Y0288040D01*
X0178142Y0287054D01*
X0181141Y0285994D01*
X0184114Y0284861D01*
X0187058Y0283656D01*
X0189971Y0282379D01*
X0192852Y0281031D01*
X0195700Y0279613D01*
X0198512Y0278126D01*
X0201287Y0276570D01*
X0204023Y0274947D01*
X0206718Y0273258D01*
X0209372Y0271503D01*
X0211981Y0269684D01*
X0214546Y0267801D01*
X0217063Y0265856D01*
X0219532Y0263851D01*
X0221951Y0261785D01*
X0224320Y0259661D01*
X0226635Y0257480D01*
X0228896Y0255242D01*
X0231102Y0252951D01*
X0233252Y0250605D01*
X0235343Y0248208D01*
X0237375Y0245761D01*
X0239346Y0243264D01*
X0241256Y0240720D01*
X0243103Y0238130D01*
X0244886Y0235496D01*
X0246605Y0232818D01*
X0138953Y0247441D02*
X0139104Y0251290D01*
X0135658Y0251290D02*
X0132212Y0251290D01*
X0107698Y0135592D02*
X0108378Y0134922D01*
X0109075Y0134269D01*
X0109787Y0133632D01*
X0110515Y0133014D01*
X0111257Y0132413D01*
X0112013Y0131830D01*
X0112784Y0131266D01*
X0113568Y0130720D01*
X0114365Y0130194D01*
X0115174Y0129687D01*
X0115996Y0129200D01*
X0116829Y0128734D01*
X0117673Y0128287D01*
X0118528Y0127861D01*
X0119392Y0127456D01*
X0120267Y0127072D01*
X0121150Y0126709D01*
X0122042Y0126368D01*
X0122942Y0126049D01*
X0123850Y0125752D01*
X0124764Y0125476D01*
X0125685Y0125223D01*
X0126612Y0124992D01*
X0127544Y0124784D01*
X0128481Y0124599D01*
X0129422Y0124436D01*
X0130366Y0124296D01*
X0131314Y0124179D01*
X0132264Y0124086D01*
X0133217Y0124015D01*
X0134171Y0123967D01*
X0135125Y0123943D01*
X0136080Y0123941D01*
X0137035Y0123963D01*
X0137989Y0124008D01*
X0138941Y0124076D01*
X0139892Y0124167D01*
X0140840Y0124282D01*
X0141785Y0124419D01*
X0142727Y0124579D01*
X0143664Y0124762D01*
X0144597Y0124967D01*
X0145524Y0125195D01*
X0146445Y0125446D01*
X0147361Y0125719D01*
X0148269Y0126013D01*
X0149170Y0126330D01*
X0150063Y0126669D01*
X0150947Y0127029D01*
X0151823Y0127411D01*
X0152689Y0127813D01*
X0153545Y0128237D01*
X0154390Y0128681D01*
X0155224Y0129145D01*
X0156047Y0129630D01*
X0156858Y0130134D01*
X0157657Y0130658D01*
X0158442Y0131202D01*
X0159214Y0131764D01*
D16*
G36*
X0190465Y0219955D02*
X0212118Y0182451D01*
X0183139Y0165719D01*
X0161486Y0203223D01*
X0190465Y0219955D01*
G37*
G36*
X0059199Y0182451D02*
X0080852Y0219955D01*
X0109831Y0203223D01*
X0088178Y0165719D01*
X0059199Y0182451D01*
G37*
D17*
G36*
X0044992Y0199382D02*
X0032002Y0206881D01*
X0036096Y0213972D01*
X0049086Y0206473D01*
X0044992Y0199382D01*
G37*
G36*
X0054992Y0216702D02*
X0042002Y0224201D01*
X0046096Y0231292D01*
X0059086Y0223793D01*
X0054992Y0216702D01*
G37*
G36*
X0212231Y0223793D02*
X0225221Y0231292D01*
X0229315Y0224201D01*
X0216325Y0216702D01*
X0212231Y0223793D01*
G37*
G36*
X0222231Y0206473D02*
X0235221Y0213972D01*
X0239315Y0206881D01*
X0226325Y0199382D01*
X0222231Y0206473D01*
G37*
D18*
G36*
X0173073Y0133690D02*
X0170150Y0130767D01*
X0167145Y0133772D01*
X0170068Y0136695D01*
X0173073Y0133690D01*
G37*
G36*
X0168201Y0128818D02*
X0165278Y0125895D01*
X0162273Y0128900D01*
X0165196Y0131823D01*
X0168201Y0128818D01*
G37*
G36*
X0106038Y0125895D02*
X0103115Y0128818D01*
X0106120Y0131823D01*
X0109043Y0128900D01*
X0106038Y0125895D01*
G37*
G36*
X0101167Y0130767D02*
X0098244Y0133690D01*
X0101249Y0136695D01*
X0104172Y0133772D01*
X0101167Y0130767D01*
G37*
D19*
G36*
X0082904Y0134217D02*
X0086523Y0137836D01*
X0090698Y0133661D01*
X0087079Y0130042D01*
X0082904Y0134217D01*
G37*
G36*
X0077615Y0128928D02*
X0081234Y0132547D01*
X0085409Y0128372D01*
X0081790Y0124753D01*
X0077615Y0128928D01*
G37*
X0112233Y0116065D03*
X0119713Y0116065D03*
X0120107Y0096380D03*
X0127587Y0096380D03*
X0139792Y0096380D03*
X0147272Y0096380D03*
X0147666Y0116065D03*
X0155146Y0116065D03*
G36*
X0164750Y0110555D02*
X0161131Y0114174D01*
X0165306Y0118349D01*
X0168925Y0114730D01*
X0164750Y0110555D01*
G37*
G36*
X0170040Y0105266D02*
X0166421Y0108885D01*
X0170596Y0113060D01*
X0174215Y0109441D01*
X0170040Y0105266D01*
G37*
D20*
X0206997Y0163309D03*
X0221170Y0163309D03*
X0064320Y0163309D03*
X0050146Y0163309D03*
D21*
X0035196Y0146488D02*
X0034346Y0145638D01*
X0032097Y0147333D01*
X0031705Y0150121D01*
X0033400Y0152370D01*
X0036188Y0152762D01*
X0038437Y0151067D01*
X0038829Y0148279D01*
X0037134Y0146030D01*
X0034346Y0145638D01*
X0034692Y0146974D01*
X0033286Y0148033D01*
X0033041Y0149775D01*
X0034100Y0151181D01*
X0035842Y0151426D01*
X0037248Y0150367D01*
X0037493Y0148625D01*
X0036434Y0147219D01*
X0034692Y0146974D01*
X0035037Y0148310D01*
X0034475Y0148734D01*
X0034377Y0149430D01*
X0034801Y0149992D01*
X0035497Y0150090D01*
X0036059Y0149666D01*
X0036157Y0148970D01*
X0035733Y0148408D01*
X0035037Y0148310D01*
X0039804Y0129164D02*
X0038954Y0128314D01*
X0036444Y0129593D01*
X0035574Y0132270D01*
X0036853Y0134780D01*
X0039530Y0135650D01*
X0042040Y0134371D01*
X0042910Y0131694D01*
X0041631Y0129184D01*
X0038954Y0128314D01*
X0039062Y0129690D01*
X0037493Y0130489D01*
X0036950Y0132162D01*
X0037749Y0133731D01*
X0039422Y0134274D01*
X0040991Y0133475D01*
X0041534Y0131802D01*
X0040735Y0130233D01*
X0039062Y0129690D01*
X0039170Y0131065D01*
X0038543Y0131385D01*
X0038325Y0132054D01*
X0038645Y0132681D01*
X0039314Y0132899D01*
X0039941Y0132579D01*
X0040159Y0131910D01*
X0039839Y0131283D01*
X0039170Y0131065D01*
X0045650Y0112902D02*
X0046500Y0112052D01*
X0043806Y0112876D01*
X0042484Y0115362D01*
X0043308Y0118056D01*
X0045794Y0119378D01*
X0048488Y0118554D01*
X0049810Y0116068D01*
X0048986Y0113374D01*
X0046500Y0112052D01*
X0046367Y0113426D01*
X0044684Y0113941D01*
X0043858Y0115495D01*
X0044373Y0117178D01*
X0045927Y0118004D01*
X0047610Y0117489D01*
X0048436Y0115935D01*
X0047921Y0114252D01*
X0046367Y0113426D01*
X0046235Y0114800D01*
X0045562Y0115006D01*
X0045232Y0115627D01*
X0045438Y0116300D01*
X0046059Y0116630D01*
X0046732Y0116424D01*
X0047062Y0115803D01*
X0046856Y0115130D01*
X0046235Y0114800D01*
D22*
G36*
X0093344Y0117097D02*
X0098354Y0122107D01*
X0101694Y0118767D01*
X0096684Y0113757D01*
X0093344Y0117097D01*
G37*
G36*
X0181871Y0120995D02*
X0176861Y0126005D01*
X0180201Y0129345D01*
X0185211Y0124335D01*
X0181871Y0120995D01*
G37*
D23*
G36*
X0176582Y0111252D02*
X0173242Y0114592D01*
X0177138Y0118488D01*
X0180478Y0115148D01*
X0176582Y0111252D01*
G37*
G36*
X0170457Y0117376D02*
X0167117Y0120716D01*
X0171013Y0124612D01*
X0174353Y0121272D01*
X0170457Y0117376D01*
G37*
G36*
X0089725Y0128510D02*
X0093065Y0131850D01*
X0096961Y0127954D01*
X0093621Y0124614D01*
X0089725Y0128510D01*
G37*
G36*
X0083601Y0122386D02*
X0086941Y0125726D01*
X0090837Y0121830D01*
X0087497Y0118490D01*
X0083601Y0122386D01*
G37*
D24*
X0108099Y0105916D03*
X0108099Y0094719D03*
X0159280Y0094719D03*
X0159280Y0105916D03*
D25*
X0234083Y0182994D03*
X0037233Y0182994D03*
D26*
X0289320Y0147502D03*
X0299320Y0147502D03*
X0311820Y0147502D03*
X0311820Y0137502D03*
X0311820Y0127502D03*
X0311820Y0117502D03*
X0311820Y0107502D03*
X0311820Y0097502D03*
X0311820Y0087502D03*
X0311820Y0077502D03*
X0311820Y0067502D03*
X0299320Y0077502D03*
X0299320Y0087502D03*
X0299320Y0097502D03*
X0289320Y0097502D03*
X0289320Y0087502D03*
X0289320Y0077502D03*
X0289320Y0112502D03*
X0299320Y0112502D03*
X0299320Y0130002D03*
X0289320Y0130002D03*
X0311820Y0157502D03*
X0366820Y0175002D03*
X0376820Y0175002D03*
X0369320Y0190002D03*
X0369320Y0200002D03*
X0366820Y0115002D03*
X0376820Y0115002D03*
X0366820Y0097502D03*
X0366820Y0087502D03*
X0366820Y0077502D03*
X0366820Y0067502D03*
D27*
X0356720Y0067502D02*
X0351920Y0067502D01*
X0351920Y0077502D02*
X0356720Y0077502D01*
X0356720Y0087502D02*
X0351920Y0087502D01*
X0351920Y0097502D02*
X0356720Y0097502D01*
X0356720Y0107502D02*
X0351920Y0107502D01*
X0351920Y0117502D02*
X0356720Y0117502D01*
X0356720Y0127502D02*
X0351920Y0127502D01*
X0351920Y0137502D02*
X0356720Y0137502D01*
X0356720Y0147502D02*
X0351920Y0147502D01*
X0351920Y0157502D02*
X0356720Y0157502D01*
X0356720Y0167502D02*
X0351920Y0167502D01*
X0351920Y0177502D02*
X0356720Y0177502D01*
X0356720Y0187502D02*
X0351920Y0187502D01*
X0351920Y0197502D02*
X0356720Y0197502D01*
X0326720Y0197502D02*
X0321920Y0197502D01*
X0321920Y0187502D02*
X0326720Y0187502D01*
X0326720Y0177502D02*
X0321920Y0177502D01*
X0321920Y0167502D02*
X0326720Y0167502D01*
X0326720Y0157502D02*
X0321920Y0157502D01*
X0321920Y0147502D02*
X0326720Y0147502D01*
X0326720Y0137502D02*
X0321920Y0137502D01*
X0321920Y0127502D02*
X0326720Y0127502D01*
X0326720Y0117502D02*
X0321920Y0117502D01*
X0321920Y0107502D02*
X0326720Y0107502D01*
X0326720Y0097502D02*
X0321920Y0097502D01*
X0321920Y0087502D02*
X0326720Y0087502D01*
X0326720Y0077502D02*
X0321920Y0077502D01*
X0321920Y0067502D02*
X0326720Y0067502D01*
D28*
X0389320Y0117502D03*
X0389320Y0127502D03*
X0389320Y0137502D03*
X0389320Y0147502D03*
X0389320Y0157502D03*
X0389320Y0167502D03*
X0389320Y0190002D03*
X0381820Y0195002D03*
X0389320Y0200002D03*
X0322520Y0225002D03*
X0311120Y0225002D03*
D29*
X0336820Y0225002D03*
X0336820Y0215002D03*
X0346820Y0215002D03*
X0346820Y0225002D03*
X0356820Y0225002D03*
X0356820Y0215002D03*
X0366820Y0215002D03*
X0366820Y0225002D03*
D30*
X0361820Y0050002D03*
X0361820Y0040002D03*
X0351820Y0040002D03*
X0341820Y0040002D03*
X0331820Y0040002D03*
X0331820Y0050002D03*
X0341820Y0050002D03*
X0351820Y0050002D03*
X0321820Y0050002D03*
X0321820Y0040002D03*
D31*
X0371820Y0135502D03*
X0371820Y0154502D03*
D32*
X0339320Y0172502D03*
X0339320Y0091502D03*
D33*
X0384457Y0090402D02*
X0389182Y0090402D01*
X0389182Y0082502D02*
X0384457Y0082502D01*
X0384457Y0074602D02*
X0389182Y0074602D01*
D34*
X0386820Y0066352D03*
X0386820Y0098652D03*
D35*
X0310720Y0166702D02*
X0310720Y0172702D01*
X0292920Y0172702D02*
X0292920Y0166702D01*
X0292920Y0192302D02*
X0292920Y0198302D01*
X0310720Y0198302D02*
X0310720Y0192302D01*
D36*
X0302820Y0180002D03*
X0328820Y0210002D03*
X0328820Y0227002D03*
X0333820Y0167002D03*
X0336820Y0155002D03*
X0336820Y0151002D03*
X0330820Y0133002D03*
X0333820Y0127002D03*
X0334820Y0117002D03*
X0334820Y0105002D03*
X0339820Y0100002D03*
X0342820Y0105002D03*
X0347820Y0111002D03*
X0360820Y0120002D03*
X0371820Y0116002D03*
X0368820Y0108002D03*
X0363820Y0101002D03*
X0380820Y0094002D03*
X0385820Y0108002D03*
X0382820Y0111002D03*
X0346820Y0134002D03*
X0378820Y0167002D03*
X0392820Y0173002D03*
X0331820Y0086002D03*
X0335820Y0080002D03*
X0339820Y0076002D03*
X0344820Y0073002D03*
X0338820Y0061002D03*
X0331820Y0067002D03*
X0347820Y0058002D03*
X0353820Y0058002D03*
X0374820Y0064002D03*
X0378820Y0061002D03*
X0375820Y0054002D03*
X0387820Y0059002D03*
X0312820Y0058002D03*
X0310820Y0055002D03*
X0301820Y0065002D03*
X0314820Y0083002D03*
X0295820Y0091002D03*
X0295820Y0101002D03*
X0300820Y0107002D03*
X0292820Y0109002D03*
X0302820Y0133002D03*
X0295820Y0142002D03*
X0259270Y0147036D03*
X0254053Y0147723D03*
X0254620Y0152902D03*
X0254961Y0158101D03*
X0260218Y0157871D03*
X0259862Y0152443D03*
X0258442Y0141659D03*
X0253260Y0142573D03*
X0252244Y0137463D03*
X0257381Y0136324D03*
X0256088Y0131040D03*
X0251005Y0132402D03*
X0249547Y0127400D03*
X0247873Y0122467D03*
X0245984Y0117611D03*
X0243886Y0112842D03*
X0241582Y0108169D03*
X0239076Y0103601D03*
X0236373Y0099147D03*
X0233478Y0094815D03*
X0230397Y0090614D03*
X0227136Y0086550D03*
X0223701Y0082633D03*
X0220098Y0078869D03*
X0216335Y0075267D03*
X0212417Y0071831D03*
X0210257Y0075307D03*
X0206569Y0076419D03*
X0207125Y0080809D03*
X0210974Y0080967D03*
X0206212Y0085140D03*
X0209798Y0086549D03*
X0206859Y0091439D03*
X0203932Y0088934D03*
X0200536Y0091771D03*
X0202481Y0095097D03*
X0197146Y0097120D03*
X0196398Y0093341D03*
X0191973Y0093468D03*
X0191444Y0097285D03*
X0187536Y0092167D03*
X0185266Y0095280D03*
X0181162Y0092469D03*
X0183244Y0089228D03*
X0178786Y0086547D03*
X0176899Y0089906D03*
X0172492Y0087598D03*
X0174177Y0084134D03*
X0169434Y0081997D03*
X0167956Y0085555D03*
X0163308Y0083783D03*
X0164573Y0080144D03*
X0159611Y0078582D03*
X0158563Y0082289D03*
X0153738Y0081078D03*
X0154565Y0077315D03*
X0149454Y0076348D03*
X0148850Y0080154D03*
X0143916Y0079520D03*
X0144294Y0075686D03*
X0139104Y0075328D03*
X0138953Y0079178D03*
X0135658Y0077187D03*
X0132363Y0079178D03*
X0132212Y0075328D03*
X0127023Y0075686D03*
X0127400Y0079520D03*
X0122466Y0080154D03*
X0121863Y0076348D03*
X0116751Y0077315D03*
X0117578Y0081078D03*
X0112754Y0082289D03*
X0111706Y0078582D03*
X0106744Y0080144D03*
X0108009Y0083783D03*
X0103360Y0085555D03*
X0101882Y0081997D03*
X0097139Y0084134D03*
X0098825Y0087598D03*
X0094418Y0089906D03*
X0092531Y0086547D03*
X0088072Y0089228D03*
X0090155Y0092469D03*
X0086050Y0095280D03*
X0083780Y0092167D03*
X0079343Y0093468D03*
X0079873Y0097285D03*
X0074170Y0097120D03*
X0074919Y0093341D03*
X0070781Y0091771D03*
X0068836Y0095097D03*
X0064457Y0091439D03*
X0067384Y0088934D03*
X0065104Y0085140D03*
X0061518Y0086549D03*
X0060342Y0080967D03*
X0064192Y0080809D03*
X0064748Y0076419D03*
X0061059Y0075307D03*
X0058899Y0071831D03*
X0062962Y0068570D03*
X0067164Y0065489D03*
X0069865Y0069347D03*
X0066711Y0072452D03*
X0074026Y0066566D03*
X0071496Y0062595D03*
X0075950Y0059892D03*
X0078305Y0063970D03*
X0082692Y0061563D03*
X0080518Y0057386D03*
X0085191Y0055082D03*
X0087181Y0059349D03*
X0091762Y0057334D03*
X0089960Y0052983D03*
X0087946Y0048122D03*
X0082967Y0050312D03*
X0078088Y0052718D03*
X0073319Y0055335D03*
X0068669Y0058157D03*
X0064146Y0061179D03*
X0059759Y0064395D03*
X0055517Y0067800D03*
X0051427Y0071387D03*
X0054982Y0075267D03*
X0051218Y0078869D03*
X0047615Y0082633D03*
X0044180Y0086550D03*
X0040919Y0090614D03*
X0037838Y0094815D03*
X0034944Y0099147D03*
X0032241Y0103601D03*
X0029735Y0108169D03*
X0027430Y0112842D03*
X0025332Y0117611D03*
X0023444Y0122467D03*
X0021769Y0127400D03*
X0020311Y0132402D03*
X0015228Y0131040D03*
X0016750Y0125818D03*
X0018499Y0120667D03*
X0020470Y0115597D03*
X0022661Y0110618D03*
X0025067Y0105739D03*
X0027684Y0100970D03*
X0030506Y0096320D03*
X0033528Y0091797D03*
X0036744Y0087410D03*
X0040149Y0083168D03*
X0043736Y0079078D03*
X0047497Y0075149D03*
X0080540Y0118598D03*
X0088414Y0114465D03*
X0093900Y0112128D03*
X0093900Y0121551D03*
X0084071Y0149487D03*
X0083063Y0154035D03*
X0082455Y0158655D03*
X0088022Y0159142D03*
X0087840Y0163309D03*
X0088022Y0167477D03*
X0088566Y0171613D03*
X0089469Y0175686D03*
X0090724Y0179664D03*
X0092320Y0183518D03*
X0094246Y0187219D03*
X0096488Y0190737D03*
X0099027Y0194047D03*
X0101845Y0197122D03*
X0104921Y0199941D03*
X0108231Y0202480D03*
X0111749Y0204721D03*
X0115449Y0206648D03*
X0119303Y0208244D03*
X0123282Y0209499D03*
X0124728Y0204101D03*
X0121215Y0202993D03*
X0117811Y0201583D03*
X0114543Y0199882D03*
X0111436Y0197902D03*
X0108513Y0195660D03*
X0105797Y0193171D03*
X0103308Y0190455D03*
X0101065Y0187532D03*
X0099086Y0184425D03*
X0097385Y0181157D03*
X0095975Y0177753D03*
X0094867Y0174239D03*
X0094070Y0170643D03*
X0093589Y0166990D03*
X0093428Y0163309D03*
X0093589Y0159629D03*
X0094070Y0155976D03*
X0094867Y0152379D03*
X0089469Y0150933D03*
X0088566Y0155006D03*
X0082252Y0163309D03*
X0082455Y0167964D03*
X0083063Y0172583D03*
X0084071Y0177132D03*
X0085472Y0181576D03*
X0087255Y0185880D03*
X0089407Y0190013D03*
X0091910Y0193942D03*
X0094746Y0197639D03*
X0097894Y0201074D03*
X0101329Y0204221D03*
X0105025Y0207058D03*
X0108955Y0209561D03*
X0113088Y0211712D03*
X0117392Y0213495D03*
X0121836Y0214896D03*
X0120389Y0220294D03*
X0115481Y0218747D03*
X0110726Y0216777D03*
X0108364Y0221842D03*
X0106003Y0226906D03*
X0100573Y0224080D03*
X0103367Y0219240D03*
X0098615Y0216213D03*
X0095410Y0220790D03*
X0090553Y0217064D03*
X0094145Y0212783D03*
X0097737Y0208502D03*
X0093943Y0205025D03*
X0090466Y0201231D03*
X0087332Y0197148D03*
X0084567Y0192807D03*
X0082191Y0188242D03*
X0080221Y0183487D03*
X0078674Y0178578D03*
X0077560Y0173554D03*
X0076888Y0168451D03*
X0076663Y0163309D03*
X0071075Y0163309D03*
X0071321Y0168938D03*
X0065754Y0169425D03*
X0065487Y0163309D03*
X0065754Y0157194D03*
X0071321Y0157681D03*
X0076888Y0158168D03*
X0077560Y0153065D03*
X0078674Y0148040D03*
X0073276Y0146594D03*
X0067878Y0145148D03*
X0066553Y0151124D03*
X0072056Y0152095D03*
X0072056Y0174524D03*
X0066553Y0175495D03*
X0073276Y0180025D03*
X0067878Y0181471D03*
X0069719Y0187309D03*
X0074970Y0185398D03*
X0077126Y0190603D03*
X0072062Y0192965D03*
X0074888Y0198395D03*
X0079728Y0195601D03*
X0082755Y0200353D03*
X0078177Y0203558D03*
X0081904Y0208415D03*
X0086185Y0204823D03*
X0089991Y0208977D03*
X0086040Y0212928D03*
X0101820Y0211635D03*
X0106161Y0214401D03*
X0113570Y0223998D03*
X0111658Y0229249D03*
X0117497Y0231090D03*
X0118943Y0225692D03*
X0112754Y0244330D03*
X0111706Y0248037D03*
X0116751Y0249304D03*
X0117578Y0245541D03*
X0122466Y0246465D03*
X0121863Y0250270D03*
X0127023Y0250933D03*
X0127400Y0247099D03*
X0132363Y0247441D03*
X0135658Y0249431D03*
X0138953Y0247441D03*
X0139104Y0251290D03*
X0132212Y0251290D03*
X0144294Y0250933D03*
X0143916Y0247099D03*
X0148850Y0246465D03*
X0149454Y0250270D03*
X0154565Y0249304D03*
X0153738Y0245541D03*
X0158563Y0244330D03*
X0159611Y0248037D03*
X0163308Y0242836D03*
X0164573Y0246475D03*
X0169434Y0244622D03*
X0167956Y0241064D03*
X0172492Y0239021D03*
X0174177Y0242485D03*
X0178786Y0240072D03*
X0176899Y0236713D03*
X0181162Y0234150D03*
X0183244Y0237391D03*
X0187536Y0234452D03*
X0185266Y0231339D03*
X0191444Y0229334D03*
X0191973Y0233151D03*
X0196398Y0233278D03*
X0197146Y0229499D03*
X0202481Y0231522D03*
X0200536Y0234847D03*
X0203932Y0237685D03*
X0206859Y0235180D03*
X0209798Y0240070D03*
X0206212Y0241479D03*
X0207125Y0245809D03*
X0210974Y0245652D03*
X0210257Y0251312D03*
X0206569Y0250200D03*
X0204605Y0254167D03*
X0201452Y0257272D03*
X0204153Y0261129D03*
X0208354Y0258049D03*
X0212417Y0254788D03*
X0216335Y0251352D03*
X0220098Y0247749D03*
X0223701Y0243986D03*
X0227136Y0240069D03*
X0230397Y0236005D03*
X0233478Y0231804D03*
X0236373Y0227472D03*
X0240811Y0230299D03*
X0243633Y0225649D03*
X0239076Y0223018D03*
X0241582Y0218450D03*
X0243886Y0213777D03*
X0245984Y0209008D03*
X0247873Y0204152D03*
X0249547Y0199219D03*
X0251005Y0194217D03*
X0252244Y0189156D03*
X0257381Y0190295D03*
X0256088Y0195579D03*
X0254566Y0200801D03*
X0252818Y0205952D03*
X0250846Y0211022D03*
X0248655Y0216001D03*
X0246249Y0220880D03*
X0237789Y0234822D03*
X0234572Y0239209D03*
X0231167Y0243451D03*
X0227581Y0247541D03*
X0223819Y0251470D03*
X0219890Y0255232D03*
X0215800Y0258819D03*
X0211558Y0262223D03*
X0207171Y0265440D03*
X0202648Y0268462D03*
X0199821Y0264024D03*
X0197291Y0260053D03*
X0193012Y0262649D03*
X0195366Y0266727D03*
X0190799Y0269233D03*
X0188624Y0265056D03*
X0184136Y0267270D03*
X0186126Y0271537D03*
X0181357Y0273636D03*
X0179555Y0269285D03*
X0174891Y0271099D03*
X0176501Y0275524D03*
X0178301Y0280469D03*
X0183371Y0278497D03*
X0188350Y0276306D03*
X0193228Y0273900D03*
X0197997Y0271284D03*
X0173150Y0282217D03*
X0171567Y0277199D03*
X0170151Y0272708D03*
X0165347Y0274108D03*
X0166565Y0278657D03*
X0161505Y0279895D03*
X0160486Y0275298D03*
X0156395Y0280911D03*
X0155577Y0276274D03*
X0150631Y0277036D03*
X0151245Y0281704D03*
X0146066Y0282271D03*
X0145656Y0277580D03*
X0140662Y0277908D03*
X0140867Y0282612D03*
X0135658Y0282726D03*
X0135658Y0278017D03*
X0130655Y0277908D03*
X0130449Y0282612D03*
X0125250Y0282271D03*
X0125661Y0277580D03*
X0120686Y0277036D03*
X0120071Y0281704D03*
X0114922Y0280911D03*
X0115740Y0276274D03*
X0110831Y0275298D03*
X0109812Y0279895D03*
X0104751Y0278657D03*
X0105970Y0274108D03*
X0101165Y0272708D03*
X0099749Y0277199D03*
X0094816Y0275524D03*
X0096426Y0271099D03*
X0091762Y0269285D03*
X0089960Y0273636D03*
X0085191Y0271537D03*
X0087181Y0267270D03*
X0082692Y0265056D03*
X0080518Y0269233D03*
X0075950Y0266727D03*
X0078305Y0262649D03*
X0074026Y0260053D03*
X0071496Y0264024D03*
X0067164Y0261129D03*
X0069865Y0257272D03*
X0066711Y0254167D03*
X0064748Y0250200D03*
X0061059Y0251312D03*
X0058899Y0254788D03*
X0062962Y0258049D03*
X0059759Y0262223D03*
X0055517Y0258819D03*
X0051427Y0255232D03*
X0054982Y0251352D03*
X0051218Y0247749D03*
X0047615Y0243986D03*
X0044180Y0240069D03*
X0040919Y0236005D03*
X0037838Y0231804D03*
X0034944Y0227472D03*
X0030506Y0230299D03*
X0033528Y0234822D03*
X0036744Y0239209D03*
X0040149Y0243451D03*
X0043736Y0247541D03*
X0047497Y0251470D03*
X0060342Y0245652D03*
X0064192Y0245809D03*
X0065104Y0241479D03*
X0061518Y0240070D03*
X0064457Y0235180D03*
X0067384Y0237685D03*
X0070781Y0234847D03*
X0068836Y0231522D03*
X0074170Y0229499D03*
X0074919Y0233278D03*
X0079343Y0233151D03*
X0079873Y0229334D03*
X0083780Y0234452D03*
X0086050Y0231339D03*
X0090155Y0234150D03*
X0088072Y0237391D03*
X0092531Y0240072D03*
X0094418Y0236713D03*
X0098825Y0239021D03*
X0097139Y0242485D03*
X0101882Y0244622D03*
X0103360Y0241064D03*
X0108009Y0242836D03*
X0106744Y0246475D03*
X0087946Y0278497D03*
X0082967Y0276306D03*
X0078088Y0273900D03*
X0073319Y0271284D03*
X0068669Y0268462D03*
X0064146Y0265440D03*
X0093016Y0280469D03*
X0098167Y0282217D03*
X0103389Y0283739D03*
X0108673Y0285032D03*
X0114008Y0286094D03*
X0119384Y0286921D03*
X0124792Y0287513D03*
X0130220Y0287869D03*
X0135658Y0287988D03*
X0141097Y0287869D03*
X0146525Y0287513D03*
X0151932Y0286921D03*
X0157308Y0286094D03*
X0162644Y0285032D03*
X0167927Y0283739D03*
X0153820Y0231090D03*
X0152374Y0225692D03*
X0150927Y0220294D03*
X0149481Y0214896D03*
X0153924Y0213495D03*
X0158229Y0211712D03*
X0162362Y0209561D03*
X0166291Y0207058D03*
X0169987Y0204221D03*
X0173423Y0201074D03*
X0176570Y0197639D03*
X0179406Y0193942D03*
X0181910Y0190013D03*
X0184061Y0185880D03*
X0185844Y0181576D03*
X0187245Y0177132D03*
X0188254Y0172583D03*
X0188862Y0167964D03*
X0189065Y0163309D03*
X0194653Y0163309D03*
X0194429Y0168451D03*
X0193757Y0173554D03*
X0192643Y0178578D03*
X0191095Y0183487D03*
X0189126Y0188242D03*
X0186749Y0192807D03*
X0183984Y0197148D03*
X0180851Y0201231D03*
X0177374Y0205025D03*
X0173579Y0208502D03*
X0169496Y0211635D03*
X0165156Y0214401D03*
X0160591Y0216777D03*
X0155836Y0218747D03*
X0157747Y0223998D03*
X0159658Y0229249D03*
X0165314Y0226906D03*
X0162952Y0221842D03*
X0167950Y0219240D03*
X0170744Y0224080D03*
X0175907Y0220790D03*
X0172702Y0216213D03*
X0177171Y0212783D03*
X0180763Y0217064D03*
X0185277Y0212928D03*
X0181325Y0208977D03*
X0185132Y0204823D03*
X0189413Y0208415D03*
X0193139Y0203558D03*
X0188562Y0200353D03*
X0191589Y0195601D03*
X0196428Y0198395D03*
X0199255Y0192965D03*
X0194190Y0190603D03*
X0196347Y0185398D03*
X0201598Y0187309D03*
X0203438Y0181471D03*
X0198041Y0180025D03*
X0199260Y0174524D03*
X0204763Y0175495D03*
X0205562Y0169425D03*
X0205830Y0163309D03*
X0200241Y0163309D03*
X0199996Y0168938D03*
X0199996Y0157681D03*
X0194429Y0158168D03*
X0193757Y0153065D03*
X0192643Y0148040D03*
X0198041Y0146594D03*
X0203438Y0145148D03*
X0204763Y0151124D03*
X0199260Y0152095D03*
X0205562Y0157194D03*
X0188862Y0158655D03*
X0188254Y0154035D03*
X0187245Y0149487D03*
X0181847Y0150933D03*
X0182750Y0155006D03*
X0183295Y0159142D03*
X0183477Y0163309D03*
X0183295Y0167477D03*
X0182750Y0171613D03*
X0181847Y0175686D03*
X0180593Y0179664D03*
X0178997Y0183518D03*
X0177070Y0187219D03*
X0174829Y0190737D03*
X0172289Y0194047D03*
X0169471Y0197122D03*
X0166395Y0199941D03*
X0163086Y0202480D03*
X0159568Y0204721D03*
X0155867Y0206648D03*
X0152013Y0208244D03*
X0148035Y0209499D03*
X0146588Y0204101D03*
X0150102Y0202993D03*
X0153506Y0201583D03*
X0156773Y0199882D03*
X0159881Y0197902D03*
X0162803Y0195660D03*
X0165520Y0193171D03*
X0168009Y0190455D03*
X0170251Y0187532D03*
X0172231Y0184425D03*
X0173932Y0181157D03*
X0175342Y0177753D03*
X0176450Y0174239D03*
X0177247Y0170643D03*
X0177728Y0166990D03*
X0177889Y0163309D03*
X0177728Y0159629D03*
X0177247Y0155976D03*
X0176450Y0152379D03*
X0177417Y0121551D03*
X0182902Y0116065D03*
X0223819Y0075149D03*
X0227581Y0079078D03*
X0231167Y0083168D03*
X0234572Y0087410D03*
X0237789Y0091797D03*
X0240811Y0096320D03*
X0243633Y0100970D03*
X0246249Y0105739D03*
X0248655Y0110618D03*
X0250846Y0115597D03*
X0252818Y0120667D03*
X0254566Y0125818D03*
X0255074Y0163309D03*
X0254961Y0168518D03*
X0254620Y0173717D03*
X0254053Y0178896D03*
X0253260Y0184046D03*
X0258442Y0184960D03*
X0259270Y0179583D03*
X0259862Y0174176D03*
X0260218Y0168748D03*
X0260337Y0163309D03*
X0222146Y0201696D03*
X0219890Y0071387D03*
X0215800Y0067800D03*
X0211558Y0064395D03*
X0208354Y0068570D03*
X0204153Y0065489D03*
X0201452Y0069347D03*
X0204605Y0072452D03*
X0197291Y0066566D03*
X0199821Y0062595D03*
X0195366Y0059892D03*
X0193012Y0063970D03*
X0188624Y0061563D03*
X0190799Y0057386D03*
X0186126Y0055082D03*
X0184136Y0059349D03*
X0179555Y0057334D03*
X0181357Y0052983D03*
X0176501Y0051095D03*
X0174891Y0055520D03*
X0170151Y0053911D03*
X0171567Y0049420D03*
X0166565Y0047962D03*
X0165347Y0052511D03*
X0160486Y0051321D03*
X0161505Y0046724D03*
X0156395Y0045708D03*
X0155577Y0050345D03*
X0150631Y0049583D03*
X0151245Y0044915D03*
X0146066Y0044348D03*
X0145656Y0049038D03*
X0140662Y0048711D03*
X0140867Y0044007D03*
X0135658Y0043893D03*
X0135658Y0048602D03*
X0130655Y0048711D03*
X0130449Y0044007D03*
X0125250Y0044348D03*
X0125661Y0049038D03*
X0120686Y0049583D03*
X0120071Y0044915D03*
X0114922Y0045708D03*
X0115740Y0050345D03*
X0110831Y0051321D03*
X0109812Y0046724D03*
X0104751Y0047962D03*
X0105970Y0052511D03*
X0101165Y0053911D03*
X0099749Y0049420D03*
X0094816Y0051095D03*
X0096426Y0055520D03*
X0093016Y0046150D03*
X0098167Y0044402D03*
X0103389Y0042879D03*
X0108673Y0041586D03*
X0114008Y0040525D03*
X0119384Y0039698D03*
X0124792Y0039106D03*
X0130220Y0038750D03*
X0135658Y0038631D03*
X0141097Y0038750D03*
X0146525Y0039106D03*
X0151932Y0039698D03*
X0157308Y0040525D03*
X0162644Y0041586D03*
X0167927Y0042879D03*
X0173150Y0044402D03*
X0178301Y0046150D03*
X0183371Y0048122D03*
X0188350Y0050312D03*
X0193228Y0052718D03*
X0197997Y0055335D03*
X0202648Y0058157D03*
X0207171Y0061179D03*
X0059170Y0219017D03*
X0032241Y0223018D03*
X0029735Y0218450D03*
X0027430Y0213777D03*
X0025332Y0209008D03*
X0023444Y0204152D03*
X0021769Y0199219D03*
X0020311Y0194217D03*
X0019073Y0189156D03*
X0013935Y0190295D03*
X0015228Y0195579D03*
X0016750Y0200801D03*
X0018499Y0205952D03*
X0020470Y0211022D03*
X0022661Y0216001D03*
X0025067Y0220880D03*
X0027684Y0225649D03*
X0012874Y0184960D03*
X0018056Y0184046D03*
X0017264Y0178896D03*
X0016697Y0173717D03*
X0016356Y0168518D03*
X0016242Y0163309D03*
X0010980Y0163309D03*
X0011099Y0168748D03*
X0011454Y0174176D03*
X0012047Y0179583D03*
X0011099Y0157871D03*
X0016356Y0158101D03*
X0016697Y0152902D03*
X0017264Y0147723D03*
X0018056Y0142573D03*
X0019073Y0137463D03*
X0013935Y0136324D03*
X0012874Y0141659D03*
X0012047Y0147036D03*
X0011454Y0152443D03*
D37*
X0040544Y0206677D02*
X0026906Y0214551D01*
X0220773Y0223997D02*
X0234411Y0231871D01*
D38*
X0223257Y0163309D02*
X0255074Y0163309D01*
X0257706Y0163309D01*
X0048060Y0163309D02*
X0016242Y0163309D01*
X0013611Y0163309D01*
D39*
X0065013Y0237603D02*
X0065228Y0237303D01*
X0065450Y0237009D01*
X0065680Y0236720D01*
X0065916Y0236437D01*
X0066159Y0236160D01*
X0066408Y0235889D01*
X0066665Y0235623D01*
X0066927Y0235365D01*
X0067196Y0235112D01*
X0067470Y0234866D01*
X0067751Y0234627D01*
X0068037Y0234394D01*
X0068329Y0234169D01*
X0068626Y0233951D01*
X0068928Y0233740D01*
X0069235Y0233536D01*
X0069547Y0233340D01*
X0069864Y0233151D01*
X0070186Y0232970D01*
X0070511Y0232797D01*
X0070841Y0232632D01*
X0071174Y0232475D01*
X0071511Y0232326D01*
X0071852Y0232185D01*
X0072196Y0232052D01*
X0072543Y0231928D01*
X0072893Y0231812D01*
X0073246Y0231705D01*
X0073601Y0231606D01*
X0073959Y0231516D01*
X0074318Y0231435D01*
X0074679Y0231362D01*
X0075043Y0231298D01*
X0075407Y0231243D01*
X0075773Y0231196D01*
X0076140Y0231159D01*
X0076507Y0231130D01*
X0076875Y0231110D01*
X0077244Y0231099D01*
X0077612Y0231097D01*
X0077981Y0231104D01*
X0078349Y0231120D01*
X0078717Y0231145D01*
X0079084Y0231178D01*
X0079451Y0231221D01*
X0079816Y0231272D01*
X0080179Y0231332D01*
X0080542Y0231401D01*
X0080902Y0231479D01*
X0081260Y0231565D01*
X0081617Y0231660D01*
X0081970Y0231764D01*
X0082322Y0231876D01*
X0082670Y0231996D01*
X0083015Y0232125D01*
X0083358Y0232262D01*
X0083696Y0232408D01*
X0084032Y0232561D01*
X0084363Y0232723D01*
X0084690Y0232892D01*
X0085014Y0233070D01*
X0085332Y0233255D01*
X0085646Y0233448D01*
X0085956Y0233648D01*
X0086260Y0233856D01*
X0065013Y0237603D02*
X0064805Y0237907D01*
X0064605Y0238217D01*
X0064412Y0238531D01*
X0064227Y0238849D01*
X0064049Y0239173D01*
X0063880Y0239500D01*
X0063718Y0239831D01*
X0063565Y0240167D01*
X0063419Y0240505D01*
X0063282Y0240848D01*
X0063153Y0241193D01*
X0063033Y0241541D01*
X0062921Y0241893D01*
X0062817Y0242246D01*
X0062722Y0242603D01*
X0062636Y0242961D01*
X0062558Y0243321D01*
X0062489Y0243684D01*
X0062429Y0244047D01*
X0062378Y0244412D01*
X0062335Y0244779D01*
X0062302Y0245146D01*
X0062277Y0245514D01*
X0062261Y0245882D01*
X0062254Y0246251D01*
X0062256Y0246619D01*
X0062267Y0246988D01*
X0062287Y0247356D01*
X0062316Y0247723D01*
X0062353Y0248090D01*
X0062400Y0248456D01*
X0062455Y0248820D01*
X0062519Y0249184D01*
X0062592Y0249545D01*
X0062673Y0249904D01*
X0062763Y0250262D01*
X0062862Y0250617D01*
X0062969Y0250970D01*
X0063085Y0251320D01*
X0063209Y0251667D01*
X0063342Y0252011D01*
X0063483Y0252352D01*
X0063632Y0252689D01*
X0063789Y0253022D01*
X0063954Y0253352D01*
X0064127Y0253677D01*
X0064308Y0253999D01*
X0064497Y0254316D01*
X0064693Y0254628D01*
X0064897Y0254935D01*
X0065108Y0255237D01*
X0065326Y0255534D01*
X0065551Y0255826D01*
X0065784Y0256112D01*
X0066023Y0256393D01*
X0066269Y0256667D01*
X0066522Y0256936D01*
X0066780Y0257198D01*
X0067046Y0257455D01*
X0067317Y0257704D01*
X0067594Y0257947D01*
X0067877Y0258183D01*
X0068166Y0258413D01*
X0068460Y0258635D01*
X0068760Y0258850D01*
X0086260Y0092762D02*
X0087999Y0091576D01*
X0089766Y0090433D01*
X0091560Y0089334D01*
X0093380Y0088278D01*
X0095226Y0087268D01*
X0097096Y0086303D01*
X0098989Y0085383D01*
X0100904Y0084511D01*
X0102839Y0083685D01*
X0104795Y0082907D01*
X0106768Y0082177D01*
X0108759Y0081496D01*
X0110766Y0080863D01*
X0112788Y0080279D01*
X0114823Y0079745D01*
X0116871Y0079261D01*
X0118930Y0078827D01*
X0120999Y0078444D01*
X0123077Y0078111D01*
X0125162Y0077829D01*
X0127254Y0077598D01*
X0129351Y0077418D01*
X0131451Y0077290D01*
X0133554Y0077213D01*
X0135658Y0077187D01*
X0137762Y0077213D01*
X0139865Y0077290D01*
X0141965Y0077418D01*
X0144062Y0077598D01*
X0146154Y0077829D01*
X0148239Y0078111D01*
X0150317Y0078444D01*
X0152386Y0078827D01*
X0154445Y0079261D01*
X0156493Y0079745D01*
X0158528Y0080279D01*
X0160550Y0080863D01*
X0162557Y0081496D01*
X0164548Y0082177D01*
X0166521Y0082907D01*
X0168477Y0083685D01*
X0170412Y0084511D01*
X0172327Y0085383D01*
X0174220Y0086303D01*
X0176090Y0087268D01*
X0177936Y0088278D01*
X0179756Y0089334D01*
X0181550Y0090433D01*
X0183317Y0091576D01*
X0185056Y0092762D01*
X0206303Y0089015D02*
X0206511Y0088711D01*
X0206711Y0088401D01*
X0206904Y0088087D01*
X0207089Y0087769D01*
X0207267Y0087445D01*
X0207436Y0087118D01*
X0207598Y0086787D01*
X0207751Y0086451D01*
X0207897Y0086113D01*
X0208034Y0085770D01*
X0208163Y0085425D01*
X0208283Y0085077D01*
X0208395Y0084725D01*
X0208499Y0084372D01*
X0208594Y0084015D01*
X0208680Y0083657D01*
X0208758Y0083297D01*
X0208827Y0082934D01*
X0208887Y0082571D01*
X0208938Y0082206D01*
X0208981Y0081839D01*
X0209014Y0081472D01*
X0209039Y0081104D01*
X0209055Y0080736D01*
X0209062Y0080367D01*
X0209060Y0079999D01*
X0209049Y0079630D01*
X0209029Y0079262D01*
X0209000Y0078895D01*
X0208963Y0078528D01*
X0208916Y0078162D01*
X0208861Y0077798D01*
X0208797Y0077434D01*
X0208724Y0077073D01*
X0208643Y0076714D01*
X0208553Y0076356D01*
X0208454Y0076001D01*
X0208347Y0075648D01*
X0208231Y0075298D01*
X0208107Y0074951D01*
X0207974Y0074607D01*
X0207833Y0074266D01*
X0207684Y0073929D01*
X0207527Y0073596D01*
X0207362Y0073266D01*
X0207189Y0072941D01*
X0207008Y0072619D01*
X0206819Y0072302D01*
X0206623Y0071990D01*
X0206419Y0071683D01*
X0206208Y0071381D01*
X0205990Y0071084D01*
X0205765Y0070792D01*
X0205532Y0070506D01*
X0205293Y0070225D01*
X0205047Y0069951D01*
X0204794Y0069682D01*
X0204536Y0069420D01*
X0204270Y0069163D01*
X0203999Y0068914D01*
X0203722Y0068671D01*
X0203439Y0068435D01*
X0203150Y0068205D01*
X0202856Y0067983D01*
X0202556Y0067768D01*
X0206303Y0089015D02*
X0206088Y0089315D01*
X0205866Y0089609D01*
X0205636Y0089898D01*
X0205400Y0090181D01*
X0205157Y0090458D01*
X0204908Y0090729D01*
X0204651Y0090995D01*
X0204389Y0091253D01*
X0204120Y0091506D01*
X0203846Y0091752D01*
X0203565Y0091991D01*
X0203279Y0092224D01*
X0202987Y0092449D01*
X0202690Y0092667D01*
X0202388Y0092878D01*
X0202081Y0093082D01*
X0201769Y0093278D01*
X0201452Y0093467D01*
X0201130Y0093648D01*
X0200805Y0093821D01*
X0200475Y0093986D01*
X0200142Y0094143D01*
X0199805Y0094292D01*
X0199464Y0094433D01*
X0199120Y0094566D01*
X0198773Y0094690D01*
X0198423Y0094806D01*
X0198070Y0094913D01*
X0197715Y0095012D01*
X0197357Y0095102D01*
X0196998Y0095183D01*
X0196637Y0095256D01*
X0196273Y0095320D01*
X0195909Y0095375D01*
X0195543Y0095422D01*
X0195176Y0095459D01*
X0194809Y0095488D01*
X0194441Y0095508D01*
X0194072Y0095519D01*
X0193704Y0095521D01*
X0193335Y0095514D01*
X0192967Y0095498D01*
X0192599Y0095473D01*
X0192232Y0095440D01*
X0191865Y0095397D01*
X0191500Y0095346D01*
X0191137Y0095286D01*
X0190774Y0095217D01*
X0190414Y0095139D01*
X0190056Y0095053D01*
X0189699Y0094958D01*
X0189346Y0094854D01*
X0188994Y0094742D01*
X0188646Y0094622D01*
X0188301Y0094493D01*
X0187958Y0094356D01*
X0187620Y0094210D01*
X0187284Y0094057D01*
X0186953Y0093895D01*
X0186626Y0093726D01*
X0186302Y0093548D01*
X0185984Y0093363D01*
X0185670Y0093170D01*
X0185360Y0092970D01*
X0185056Y0092762D01*
X0202557Y0258850D02*
X0200202Y0260456D01*
X0197809Y0262004D01*
X0195380Y0263493D01*
X0192914Y0264922D01*
X0190414Y0266291D01*
X0187882Y0267598D01*
X0185318Y0268843D01*
X0182725Y0270024D01*
X0180104Y0271143D01*
X0177456Y0272196D01*
X0174783Y0273185D01*
X0172087Y0274108D01*
X0169369Y0274965D01*
X0166631Y0275755D01*
X0163874Y0276478D01*
X0161101Y0277134D01*
X0158312Y0277722D01*
X0155510Y0278241D01*
X0152696Y0278692D01*
X0149872Y0279074D01*
X0147039Y0279386D01*
X0144200Y0279630D01*
X0141356Y0279804D01*
X0138508Y0279908D01*
X0135658Y0279943D01*
X0132808Y0279908D01*
X0129960Y0279804D01*
X0127116Y0279630D01*
X0124277Y0279386D01*
X0121444Y0279074D01*
X0118620Y0278692D01*
X0115806Y0278241D01*
X0113004Y0277722D01*
X0110215Y0277134D01*
X0107442Y0276478D01*
X0104685Y0275755D01*
X0101947Y0274965D01*
X0099229Y0274108D01*
X0096533Y0273185D01*
X0093860Y0272196D01*
X0091212Y0271143D01*
X0088591Y0270024D01*
X0085998Y0268843D01*
X0083434Y0267598D01*
X0080902Y0266291D01*
X0078402Y0264922D01*
X0075936Y0263493D01*
X0073507Y0262004D01*
X0071114Y0260456D01*
X0068759Y0258850D01*
X0068759Y0067768D02*
X0071114Y0066162D01*
X0073507Y0064614D01*
X0075936Y0063125D01*
X0078402Y0061696D01*
X0080902Y0060327D01*
X0083434Y0059020D01*
X0085998Y0057775D01*
X0088591Y0056594D01*
X0091212Y0055475D01*
X0093860Y0054422D01*
X0096533Y0053433D01*
X0099229Y0052510D01*
X0101947Y0051653D01*
X0104685Y0050863D01*
X0107442Y0050140D01*
X0110215Y0049484D01*
X0113004Y0048896D01*
X0115806Y0048377D01*
X0118620Y0047926D01*
X0121444Y0047544D01*
X0124277Y0047232D01*
X0127116Y0046988D01*
X0129960Y0046814D01*
X0132808Y0046710D01*
X0135658Y0046675D01*
X0138508Y0046710D01*
X0141356Y0046814D01*
X0144200Y0046988D01*
X0147039Y0047232D01*
X0149872Y0047544D01*
X0152696Y0047926D01*
X0155510Y0048377D01*
X0158312Y0048896D01*
X0161101Y0049484D01*
X0163874Y0050140D01*
X0166631Y0050863D01*
X0169369Y0051653D01*
X0172087Y0052510D01*
X0174783Y0053433D01*
X0177456Y0054422D01*
X0180104Y0055475D01*
X0182725Y0056594D01*
X0185318Y0057775D01*
X0187882Y0059020D01*
X0190414Y0060327D01*
X0192914Y0061696D01*
X0195380Y0063125D01*
X0197809Y0064614D01*
X0200202Y0066162D01*
X0202557Y0067768D01*
X0185056Y0233856D02*
X0183317Y0235042D01*
X0181550Y0236185D01*
X0179756Y0237284D01*
X0177936Y0238340D01*
X0176090Y0239350D01*
X0174220Y0240315D01*
X0172327Y0241235D01*
X0170412Y0242107D01*
X0168477Y0242933D01*
X0166521Y0243711D01*
X0164548Y0244441D01*
X0162557Y0245122D01*
X0160550Y0245755D01*
X0158528Y0246339D01*
X0156493Y0246873D01*
X0154445Y0247357D01*
X0152386Y0247791D01*
X0150317Y0248174D01*
X0148239Y0248507D01*
X0146154Y0248789D01*
X0144062Y0249020D01*
X0141965Y0249200D01*
X0139865Y0249328D01*
X0137762Y0249405D01*
X0135658Y0249431D01*
X0133554Y0249405D01*
X0131451Y0249328D01*
X0129351Y0249200D01*
X0127254Y0249020D01*
X0125162Y0248789D01*
X0123077Y0248507D01*
X0120999Y0248174D01*
X0118930Y0247791D01*
X0116871Y0247357D01*
X0114823Y0246873D01*
X0112788Y0246339D01*
X0110766Y0245755D01*
X0108759Y0245122D01*
X0106768Y0244441D01*
X0104795Y0243711D01*
X0102839Y0242933D01*
X0100904Y0242107D01*
X0098989Y0241235D01*
X0097096Y0240315D01*
X0095226Y0239350D01*
X0093380Y0238340D01*
X0091560Y0237284D01*
X0089766Y0236185D01*
X0087999Y0235042D01*
X0086260Y0233856D01*
X0185056Y0233856D02*
X0185360Y0233648D01*
X0185670Y0233448D01*
X0185984Y0233255D01*
X0186302Y0233070D01*
X0186626Y0232892D01*
X0186953Y0232723D01*
X0187284Y0232561D01*
X0187620Y0232408D01*
X0187958Y0232262D01*
X0188301Y0232125D01*
X0188646Y0231996D01*
X0188994Y0231876D01*
X0189346Y0231764D01*
X0189699Y0231660D01*
X0190056Y0231565D01*
X0190414Y0231479D01*
X0190774Y0231401D01*
X0191137Y0231332D01*
X0191500Y0231272D01*
X0191865Y0231221D01*
X0192232Y0231178D01*
X0192599Y0231145D01*
X0192967Y0231120D01*
X0193335Y0231104D01*
X0193704Y0231097D01*
X0194072Y0231099D01*
X0194441Y0231110D01*
X0194809Y0231130D01*
X0195176Y0231159D01*
X0195543Y0231196D01*
X0195909Y0231243D01*
X0196273Y0231298D01*
X0196637Y0231362D01*
X0196998Y0231435D01*
X0197357Y0231516D01*
X0197715Y0231606D01*
X0198070Y0231705D01*
X0198423Y0231812D01*
X0198773Y0231928D01*
X0199120Y0232052D01*
X0199464Y0232185D01*
X0199805Y0232326D01*
X0200142Y0232475D01*
X0200475Y0232632D01*
X0200805Y0232797D01*
X0201130Y0232970D01*
X0201452Y0233151D01*
X0201769Y0233340D01*
X0202081Y0233536D01*
X0202388Y0233740D01*
X0202690Y0233951D01*
X0202987Y0234169D01*
X0203279Y0234394D01*
X0203565Y0234627D01*
X0203846Y0234866D01*
X0204120Y0235112D01*
X0204389Y0235365D01*
X0204651Y0235623D01*
X0204908Y0235889D01*
X0205157Y0236160D01*
X0205400Y0236437D01*
X0205636Y0236720D01*
X0205866Y0237009D01*
X0206088Y0237303D01*
X0206303Y0237603D01*
X0206511Y0237907D01*
X0206711Y0238217D01*
X0206904Y0238531D01*
X0207089Y0238849D01*
X0207267Y0239173D01*
X0207436Y0239500D01*
X0207598Y0239831D01*
X0207751Y0240167D01*
X0207897Y0240505D01*
X0208034Y0240848D01*
X0208163Y0241193D01*
X0208283Y0241541D01*
X0208395Y0241893D01*
X0208499Y0242246D01*
X0208594Y0242603D01*
X0208680Y0242961D01*
X0208758Y0243321D01*
X0208827Y0243684D01*
X0208887Y0244047D01*
X0208938Y0244412D01*
X0208981Y0244779D01*
X0209014Y0245146D01*
X0209039Y0245514D01*
X0209055Y0245882D01*
X0209062Y0246251D01*
X0209060Y0246619D01*
X0209049Y0246988D01*
X0209029Y0247356D01*
X0209000Y0247723D01*
X0208963Y0248090D01*
X0208916Y0248456D01*
X0208861Y0248820D01*
X0208797Y0249184D01*
X0208724Y0249545D01*
X0208643Y0249904D01*
X0208553Y0250262D01*
X0208454Y0250617D01*
X0208347Y0250970D01*
X0208231Y0251320D01*
X0208107Y0251667D01*
X0207974Y0252011D01*
X0207833Y0252352D01*
X0207684Y0252689D01*
X0207527Y0253022D01*
X0207362Y0253352D01*
X0207189Y0253677D01*
X0207008Y0253999D01*
X0206819Y0254316D01*
X0206623Y0254628D01*
X0206419Y0254935D01*
X0206208Y0255237D01*
X0205990Y0255534D01*
X0205765Y0255826D01*
X0205532Y0256112D01*
X0205293Y0256393D01*
X0205047Y0256667D01*
X0204794Y0256936D01*
X0204536Y0257198D01*
X0204270Y0257455D01*
X0203999Y0257704D01*
X0203722Y0257947D01*
X0203439Y0258183D01*
X0203150Y0258413D01*
X0202856Y0258635D01*
X0202556Y0258850D01*
X0086260Y0092762D02*
X0085956Y0092970D01*
X0085646Y0093170D01*
X0085332Y0093363D01*
X0085014Y0093548D01*
X0084690Y0093726D01*
X0084363Y0093895D01*
X0084032Y0094057D01*
X0083696Y0094210D01*
X0083358Y0094356D01*
X0083015Y0094493D01*
X0082670Y0094622D01*
X0082322Y0094742D01*
X0081970Y0094854D01*
X0081617Y0094958D01*
X0081260Y0095053D01*
X0080902Y0095139D01*
X0080542Y0095217D01*
X0080179Y0095286D01*
X0079816Y0095346D01*
X0079451Y0095397D01*
X0079084Y0095440D01*
X0078717Y0095473D01*
X0078349Y0095498D01*
X0077981Y0095514D01*
X0077612Y0095521D01*
X0077244Y0095519D01*
X0076875Y0095508D01*
X0076507Y0095488D01*
X0076140Y0095459D01*
X0075773Y0095422D01*
X0075407Y0095375D01*
X0075043Y0095320D01*
X0074679Y0095256D01*
X0074318Y0095183D01*
X0073959Y0095102D01*
X0073601Y0095012D01*
X0073246Y0094913D01*
X0072893Y0094806D01*
X0072543Y0094690D01*
X0072196Y0094566D01*
X0071852Y0094433D01*
X0071511Y0094292D01*
X0071174Y0094143D01*
X0070841Y0093986D01*
X0070511Y0093821D01*
X0070186Y0093648D01*
X0069864Y0093467D01*
X0069547Y0093278D01*
X0069235Y0093082D01*
X0068928Y0092878D01*
X0068626Y0092667D01*
X0068329Y0092449D01*
X0068037Y0092224D01*
X0067751Y0091991D01*
X0067470Y0091752D01*
X0067196Y0091506D01*
X0066927Y0091253D01*
X0066665Y0090995D01*
X0066408Y0090729D01*
X0066159Y0090458D01*
X0065916Y0090181D01*
X0065680Y0089898D01*
X0065450Y0089609D01*
X0065228Y0089315D01*
X0065013Y0089015D01*
X0064805Y0088711D01*
X0064605Y0088401D01*
X0064412Y0088087D01*
X0064227Y0087769D01*
X0064049Y0087445D01*
X0063880Y0087118D01*
X0063718Y0086787D01*
X0063565Y0086451D01*
X0063419Y0086113D01*
X0063282Y0085770D01*
X0063153Y0085425D01*
X0063033Y0085077D01*
X0062921Y0084725D01*
X0062817Y0084372D01*
X0062722Y0084015D01*
X0062636Y0083657D01*
X0062558Y0083297D01*
X0062489Y0082934D01*
X0062429Y0082571D01*
X0062378Y0082206D01*
X0062335Y0081839D01*
X0062302Y0081472D01*
X0062277Y0081104D01*
X0062261Y0080736D01*
X0062254Y0080367D01*
X0062256Y0079999D01*
X0062267Y0079630D01*
X0062287Y0079262D01*
X0062316Y0078895D01*
X0062353Y0078528D01*
X0062400Y0078162D01*
X0062455Y0077798D01*
X0062519Y0077434D01*
X0062592Y0077073D01*
X0062673Y0076714D01*
X0062763Y0076356D01*
X0062862Y0076001D01*
X0062969Y0075648D01*
X0063085Y0075298D01*
X0063209Y0074951D01*
X0063342Y0074607D01*
X0063483Y0074266D01*
X0063632Y0073929D01*
X0063789Y0073596D01*
X0063954Y0073266D01*
X0064127Y0072941D01*
X0064308Y0072619D01*
X0064497Y0072302D01*
X0064693Y0071990D01*
X0064897Y0071683D01*
X0065108Y0071381D01*
X0065326Y0071084D01*
X0065551Y0070792D01*
X0065784Y0070506D01*
X0066023Y0070225D01*
X0066269Y0069951D01*
X0066522Y0069682D01*
X0066780Y0069420D01*
X0067046Y0069163D01*
X0067317Y0068914D01*
X0067594Y0068671D01*
X0067877Y0068435D01*
X0068166Y0068205D01*
X0068460Y0067983D01*
X0068760Y0067768D01*
D40*
X0013611Y0163309D02*
X0013647Y0166281D01*
X0013756Y0169251D01*
X0013937Y0172218D01*
X0014190Y0175179D01*
X0014515Y0178134D01*
X0014912Y0181079D01*
X0015380Y0184014D01*
X0015920Y0186937D01*
X0016531Y0189846D01*
X0017212Y0192739D01*
X0017964Y0195614D01*
X0018786Y0198471D01*
X0019677Y0201306D01*
X0020636Y0204119D01*
X0021664Y0206908D01*
X0022760Y0209671D01*
X0023922Y0212406D01*
X0025151Y0215113D01*
X0026445Y0217788D01*
X0027804Y0220432D01*
X0029227Y0223041D01*
X0030713Y0225615D01*
X0032261Y0228152D01*
X0033871Y0230651D01*
X0035541Y0233109D01*
X0037270Y0235526D01*
X0039058Y0237901D01*
X0040903Y0240231D01*
X0042804Y0242516D01*
X0044761Y0244753D01*
X0046771Y0246943D01*
X0048834Y0249082D01*
X0050948Y0251171D01*
X0053113Y0253208D01*
X0055327Y0255191D01*
X0057588Y0257120D01*
X0059895Y0258993D01*
X0062248Y0260810D01*
X0064644Y0262569D01*
X0067082Y0264268D01*
X0069561Y0265908D01*
X0072079Y0267487D01*
X0074635Y0269005D01*
X0077226Y0270459D01*
X0079853Y0271851D01*
X0082513Y0273177D01*
X0085204Y0274439D01*
X0087925Y0275634D01*
X0090674Y0276764D01*
X0093450Y0277825D01*
X0096251Y0278819D01*
X0099076Y0279744D01*
X0101922Y0280601D01*
X0104788Y0281387D01*
X0107673Y0282104D01*
X0110574Y0282750D01*
X0113490Y0283326D01*
X0116419Y0283830D01*
X0119359Y0284263D01*
X0122310Y0284624D01*
X0125268Y0284913D01*
X0128232Y0285130D01*
X0131201Y0285275D01*
X0134172Y0285347D01*
X0137144Y0285347D01*
X0140115Y0285275D01*
X0143084Y0285130D01*
X0146048Y0284913D01*
X0149006Y0284624D01*
X0151957Y0284263D01*
X0154897Y0283830D01*
X0157826Y0283326D01*
X0160742Y0282750D01*
X0163643Y0282104D01*
X0166528Y0281387D01*
X0169394Y0280601D01*
X0172240Y0279744D01*
X0175065Y0278819D01*
X0177866Y0277825D01*
X0180642Y0276764D01*
X0183391Y0275634D01*
X0186112Y0274439D01*
X0188803Y0273177D01*
X0191463Y0271851D01*
X0194090Y0270459D01*
X0196682Y0269005D01*
X0199237Y0267487D01*
X0201755Y0265908D01*
X0204234Y0264268D01*
X0206672Y0262569D01*
X0209068Y0260810D01*
X0211421Y0258993D01*
X0213728Y0257120D01*
X0215989Y0255191D01*
X0218203Y0253208D01*
X0220368Y0251171D01*
X0222482Y0249082D01*
X0224545Y0246943D01*
X0226555Y0244753D01*
X0228512Y0242516D01*
X0230413Y0240231D01*
X0232258Y0237901D01*
X0234046Y0235526D01*
X0235775Y0233109D01*
X0237445Y0230651D01*
X0239055Y0228152D01*
X0240603Y0225615D01*
X0242089Y0223041D01*
X0243512Y0220432D01*
X0244871Y0217788D01*
X0246165Y0215113D01*
X0247394Y0212406D01*
X0248556Y0209671D01*
X0249652Y0206908D01*
X0250680Y0204119D01*
X0251639Y0201306D01*
X0252530Y0198471D01*
X0253352Y0195614D01*
X0254104Y0192739D01*
X0254785Y0189846D01*
X0255396Y0186937D01*
X0255936Y0184014D01*
X0256404Y0181079D01*
X0256801Y0178134D01*
X0257126Y0175179D01*
X0257379Y0172218D01*
X0257560Y0169251D01*
X0257669Y0166281D01*
X0257705Y0163309D01*
X0257669Y0160337D01*
X0257560Y0157367D01*
X0257379Y0154400D01*
X0257126Y0151439D01*
X0256801Y0148484D01*
X0256404Y0145539D01*
X0255936Y0142604D01*
X0255396Y0139681D01*
X0254785Y0136772D01*
X0254104Y0133879D01*
X0253352Y0131004D01*
X0252530Y0128147D01*
X0251639Y0125312D01*
X0250680Y0122499D01*
X0249652Y0119710D01*
X0248556Y0116947D01*
X0247394Y0114212D01*
X0246165Y0111505D01*
X0244871Y0108830D01*
X0243512Y0106186D01*
X0242089Y0103577D01*
X0240603Y0101003D01*
X0239055Y0098466D01*
X0237445Y0095967D01*
X0235775Y0093509D01*
X0234046Y0091092D01*
X0232258Y0088717D01*
X0230413Y0086387D01*
X0228512Y0084102D01*
X0226555Y0081865D01*
X0224545Y0079675D01*
X0222482Y0077536D01*
X0220368Y0075447D01*
X0218203Y0073410D01*
X0215989Y0071427D01*
X0213728Y0069498D01*
X0211421Y0067625D01*
X0209068Y0065808D01*
X0206672Y0064049D01*
X0204234Y0062350D01*
X0201755Y0060710D01*
X0199237Y0059131D01*
X0196682Y0057613D01*
X0194090Y0056159D01*
X0191463Y0054767D01*
X0188803Y0053441D01*
X0186112Y0052179D01*
X0183391Y0050984D01*
X0180642Y0049854D01*
X0177866Y0048793D01*
X0175065Y0047799D01*
X0172240Y0046874D01*
X0169394Y0046017D01*
X0166528Y0045231D01*
X0163643Y0044514D01*
X0160742Y0043868D01*
X0157826Y0043292D01*
X0154897Y0042788D01*
X0151957Y0042355D01*
X0149006Y0041994D01*
X0146048Y0041705D01*
X0143084Y0041488D01*
X0140115Y0041343D01*
X0137144Y0041271D01*
X0134172Y0041271D01*
X0131201Y0041343D01*
X0128232Y0041488D01*
X0125268Y0041705D01*
X0122310Y0041994D01*
X0119359Y0042355D01*
X0116419Y0042788D01*
X0113490Y0043292D01*
X0110574Y0043868D01*
X0107673Y0044514D01*
X0104788Y0045231D01*
X0101922Y0046017D01*
X0099076Y0046874D01*
X0096251Y0047799D01*
X0093450Y0048793D01*
X0090674Y0049854D01*
X0087925Y0050984D01*
X0085204Y0052179D01*
X0082513Y0053441D01*
X0079853Y0054767D01*
X0077226Y0056159D01*
X0074635Y0057613D01*
X0072079Y0059131D01*
X0069561Y0060710D01*
X0067082Y0062350D01*
X0064644Y0064049D01*
X0062248Y0065808D01*
X0059895Y0067625D01*
X0057588Y0069498D01*
X0055327Y0071427D01*
X0053113Y0073410D01*
X0050948Y0075447D01*
X0048834Y0077536D01*
X0046771Y0079675D01*
X0044761Y0081865D01*
X0042804Y0084102D01*
X0040903Y0086387D01*
X0039058Y0088717D01*
X0037270Y0091092D01*
X0035541Y0093509D01*
X0033871Y0095967D01*
X0032261Y0098466D01*
X0030713Y0101003D01*
X0029227Y0103577D01*
X0027804Y0106186D01*
X0026445Y0108830D01*
X0025151Y0111505D01*
X0023922Y0114212D01*
X0022760Y0116947D01*
X0021664Y0119710D01*
X0020636Y0122499D01*
X0019677Y0125312D01*
X0018786Y0128147D01*
X0017964Y0131004D01*
X0017212Y0133879D01*
X0016531Y0136772D01*
X0015920Y0139681D01*
X0015380Y0142604D01*
X0014912Y0145539D01*
X0014515Y0148484D01*
X0014190Y0151439D01*
X0013937Y0154400D01*
X0013756Y0157367D01*
X0013647Y0160337D01*
X0013611Y0163309D01*
D41*
X0121264Y0234456D02*
X0126959Y0202161D01*
X0126017Y0201938D01*
X0125080Y0201692D01*
X0124150Y0201423D01*
X0123226Y0201132D01*
X0122310Y0200819D01*
X0121402Y0200483D01*
X0120502Y0200125D01*
X0119611Y0199746D01*
X0118730Y0199345D01*
X0117858Y0198923D01*
X0116998Y0198479D01*
X0116148Y0198015D01*
X0115310Y0197530D01*
X0114483Y0197025D01*
X0113670Y0196500D01*
X0112869Y0195956D01*
X0112082Y0195392D01*
X0111309Y0194809D01*
X0110550Y0194208D01*
X0109806Y0193588D01*
X0109077Y0192950D01*
X0108364Y0192295D01*
X0107667Y0191623D01*
X0106987Y0190934D01*
X0106324Y0190228D01*
X0105678Y0189507D01*
X0105049Y0188770D01*
X0104439Y0188018D01*
X0103848Y0187252D01*
X0103275Y0186471D01*
X0102721Y0185677D01*
X0102187Y0184869D01*
X0101672Y0184049D01*
X0101178Y0183216D01*
X0100704Y0182372D01*
X0100251Y0181516D01*
X0099819Y0180649D01*
X0099407Y0179773D01*
X0099018Y0178886D01*
X0098650Y0177991D01*
X0098304Y0177086D01*
X0097980Y0176174D01*
X0097678Y0175254D01*
X0097399Y0174327D01*
X0097142Y0173393D01*
X0096908Y0172453D01*
X0096697Y0171508D01*
X0096510Y0170558D01*
X0096345Y0169604D01*
X0096203Y0168646D01*
X0096085Y0167685D01*
X0095991Y0166721D01*
X0095919Y0165756D01*
X0095872Y0164789D01*
X0095847Y0163821D01*
X0095847Y0162852D01*
X0095870Y0161884D01*
X0095916Y0160917D01*
X0095986Y0159951D01*
X0096079Y0158987D01*
X0096196Y0158026D01*
X0096336Y0157068D01*
X0096500Y0156114D01*
X0096686Y0155164D01*
X0096896Y0154218D01*
X0097128Y0153278D01*
X0097384Y0152344D01*
X0097662Y0151417D01*
X0066846Y0140201D01*
X0066845Y0140201D01*
X0066306Y0141874D01*
X0065807Y0143560D01*
X0065350Y0145257D01*
X0064933Y0146964D01*
X0064558Y0148682D01*
X0064225Y0150408D01*
X0063933Y0152141D01*
X0063684Y0153881D01*
X0063477Y0155627D01*
X0063312Y0157377D01*
X0063189Y0159130D01*
X0063109Y0160886D01*
X0063072Y0162644D01*
X0063077Y0164402D01*
X0063125Y0166159D01*
X0063215Y0167914D01*
X0063348Y0169667D01*
X0063523Y0171416D01*
X0063741Y0173160D01*
X0064000Y0174899D01*
X0064302Y0176631D01*
X0064645Y0178355D01*
X0065031Y0180070D01*
X0065457Y0181775D01*
X0065925Y0183469D01*
X0066433Y0185152D01*
X0066983Y0186822D01*
X0067572Y0188478D01*
X0068201Y0190119D01*
X0068870Y0191745D01*
X0069579Y0193353D01*
X0070325Y0194945D01*
X0071111Y0196517D01*
X0071934Y0198071D01*
X0072794Y0199603D01*
X0073691Y0201115D01*
X0074625Y0202604D01*
X0075594Y0204071D01*
X0076599Y0205513D01*
X0077638Y0206931D01*
X0078712Y0208323D01*
X0079818Y0209689D01*
X0080958Y0211027D01*
X0082129Y0212338D01*
X0083332Y0213620D01*
X0084566Y0214872D01*
X0085829Y0216094D01*
X0087122Y0217285D01*
X0088443Y0218444D01*
X0089792Y0219572D01*
X0091168Y0220666D01*
X0092570Y0221726D01*
X0093997Y0222752D01*
X0095448Y0223744D01*
X0096924Y0224700D01*
X0098421Y0225620D01*
X0099941Y0226503D01*
X0101482Y0227349D01*
X0103043Y0228158D01*
X0104622Y0228929D01*
X0106220Y0229661D01*
X0107836Y0230354D01*
X0109467Y0231008D01*
X0111114Y0231623D01*
X0112776Y0232197D01*
X0114450Y0232731D01*
X0116138Y0233224D01*
X0117836Y0233676D01*
X0119545Y0234087D01*
X0121264Y0234457D01*
X0121865Y0231049D01*
X0120207Y0230690D01*
X0118559Y0230291D01*
X0116921Y0229851D01*
X0115295Y0229372D01*
X0113681Y0228852D01*
X0112079Y0228294D01*
X0110493Y0227696D01*
X0108921Y0227059D01*
X0107365Y0226384D01*
X0105826Y0225671D01*
X0104306Y0224921D01*
X0102804Y0224133D01*
X0101322Y0223309D01*
X0099861Y0222449D01*
X0098421Y0221553D01*
X0097003Y0220622D01*
X0095609Y0219657D01*
X0094239Y0218657D01*
X0092894Y0217625D01*
X0091574Y0216559D01*
X0090282Y0215462D01*
X0089016Y0214333D01*
X0087778Y0213174D01*
X0086570Y0211984D01*
X0085391Y0210766D01*
X0084242Y0209518D01*
X0083124Y0208243D01*
X0082037Y0206941D01*
X0080983Y0205613D01*
X0079962Y0204259D01*
X0078974Y0202881D01*
X0078021Y0201478D01*
X0077102Y0200053D01*
X0076218Y0198606D01*
X0075370Y0197137D01*
X0074559Y0195648D01*
X0073784Y0194140D01*
X0073046Y0192613D01*
X0072346Y0191068D01*
X0071684Y0189507D01*
X0071061Y0187930D01*
X0070477Y0186338D01*
X0069931Y0184732D01*
X0069426Y0183114D01*
X0068960Y0181483D01*
X0068534Y0179841D01*
X0068149Y0178190D01*
X0067804Y0176530D01*
X0067500Y0174861D01*
X0067237Y0173186D01*
X0067016Y0171505D01*
X0066835Y0169819D01*
X0066696Y0168129D01*
X0066599Y0166436D01*
X0066543Y0164741D01*
X0066529Y0163045D01*
X0066556Y0161349D01*
X0066625Y0159655D01*
X0066735Y0157963D01*
X0066887Y0156274D01*
X0067080Y0154589D01*
X0067315Y0152910D01*
X0067590Y0151236D01*
X0067907Y0149570D01*
X0068264Y0147913D01*
X0068662Y0146264D01*
X0069100Y0144626D01*
X0069579Y0142999D01*
X0070097Y0141384D01*
X0073348Y0142568D01*
X0072859Y0144100D01*
X0072408Y0145643D01*
X0071994Y0147198D01*
X0071619Y0148762D01*
X0071282Y0150334D01*
X0070983Y0151915D01*
X0070723Y0153502D01*
X0070503Y0155095D01*
X0070321Y0156693D01*
X0070179Y0158295D01*
X0070076Y0159900D01*
X0070012Y0161507D01*
X0069987Y0163115D01*
X0070002Y0164723D01*
X0070057Y0166331D01*
X0070150Y0167936D01*
X0070283Y0169539D01*
X0070455Y0171138D01*
X0070667Y0172732D01*
X0070917Y0174321D01*
X0071206Y0175903D01*
X0071534Y0177478D01*
X0071900Y0179044D01*
X0072304Y0180600D01*
X0072747Y0182147D01*
X0073227Y0183682D01*
X0073745Y0185204D01*
X0074299Y0186714D01*
X0074891Y0188209D01*
X0075519Y0189690D01*
X0076183Y0191155D01*
X0076883Y0192603D01*
X0077618Y0194034D01*
X0078387Y0195446D01*
X0079192Y0196838D01*
X0080030Y0198211D01*
X0080901Y0199563D01*
X0081805Y0200893D01*
X0082742Y0202200D01*
X0083710Y0203485D01*
X0084709Y0204745D01*
X0085739Y0205980D01*
X0086799Y0207190D01*
X0087889Y0208373D01*
X0089006Y0209529D01*
X0090152Y0210658D01*
X0091325Y0211758D01*
X0092525Y0212829D01*
X0093751Y0213870D01*
X0095001Y0214882D01*
X0096277Y0215862D01*
X0097575Y0216810D01*
X0098897Y0217727D01*
X0100241Y0218611D01*
X0101605Y0219461D01*
X0102991Y0220279D01*
X0104396Y0221061D01*
X0105819Y0221810D01*
X0107261Y0222523D01*
X0108719Y0223200D01*
X0110194Y0223842D01*
X0111684Y0224448D01*
X0113188Y0225016D01*
X0114706Y0225548D01*
X0116237Y0226043D01*
X0117779Y0226499D01*
X0119332Y0226918D01*
X0120894Y0227299D01*
X0122466Y0227641D01*
X0123067Y0224233D01*
X0121581Y0223907D01*
X0120104Y0223545D01*
X0118636Y0223147D01*
X0117179Y0222713D01*
X0115732Y0222244D01*
X0114298Y0221739D01*
X0112876Y0221199D01*
X0111467Y0220625D01*
X0110074Y0220017D01*
X0108695Y0219374D01*
X0107333Y0218699D01*
X0105987Y0217990D01*
X0104660Y0217248D01*
X0103350Y0216474D01*
X0102060Y0215669D01*
X0100791Y0214832D01*
X0099542Y0213964D01*
X0098314Y0213066D01*
X0097109Y0212138D01*
X0095927Y0211182D01*
X0094769Y0210196D01*
X0093635Y0209183D01*
X0092526Y0208142D01*
X0091443Y0207074D01*
X0090386Y0205980D01*
X0089357Y0204861D01*
X0088355Y0203717D01*
X0087382Y0202548D01*
X0086437Y0201356D01*
X0085522Y0200142D01*
X0084636Y0198905D01*
X0083781Y0197648D01*
X0082957Y0196369D01*
X0082165Y0195071D01*
X0081405Y0193754D01*
X0080677Y0192419D01*
X0079982Y0191066D01*
X0079320Y0189697D01*
X0078691Y0188312D01*
X0078097Y0186912D01*
X0077538Y0185498D01*
X0077013Y0184071D01*
X0076523Y0182631D01*
X0076068Y0181180D01*
X0075649Y0179718D01*
X0075266Y0178246D01*
X0074919Y0176765D01*
X0074608Y0175277D01*
X0074334Y0173781D01*
X0074096Y0172279D01*
X0073895Y0170771D01*
X0073731Y0169259D01*
X0073604Y0167744D01*
X0073514Y0166226D01*
X0073462Y0164706D01*
X0073446Y0163185D01*
X0073468Y0161664D01*
X0073527Y0160145D01*
X0073622Y0158627D01*
X0073755Y0157112D01*
X0073925Y0155601D01*
X0074132Y0154094D01*
X0074376Y0152593D01*
X0074656Y0151098D01*
X0074973Y0149610D01*
X0075326Y0148131D01*
X0075715Y0146661D01*
X0076140Y0145201D01*
X0076600Y0143751D01*
X0079852Y0144935D01*
X0079420Y0146302D01*
X0079022Y0147679D01*
X0078658Y0149065D01*
X0078327Y0150459D01*
X0078031Y0151862D01*
X0077769Y0153271D01*
X0077541Y0154686D01*
X0077348Y0156106D01*
X0077190Y0157531D01*
X0077066Y0158959D01*
X0076978Y0160389D01*
X0076924Y0161822D01*
X0076905Y0163255D01*
X0076921Y0164688D01*
X0076972Y0166121D01*
X0077058Y0167551D01*
X0077179Y0168979D01*
X0077335Y0170404D01*
X0077525Y0171825D01*
X0077750Y0173240D01*
X0078010Y0174650D01*
X0078304Y0176053D01*
X0078632Y0177448D01*
X0078994Y0178835D01*
X0079389Y0180213D01*
X0079818Y0181580D01*
X0080281Y0182937D01*
X0080776Y0184282D01*
X0081304Y0185615D01*
X0081864Y0186934D01*
X0082456Y0188239D01*
X0083080Y0189530D01*
X0083736Y0190804D01*
X0084422Y0192063D01*
X0085139Y0193304D01*
X0085885Y0194527D01*
X0086662Y0195732D01*
X0087467Y0196918D01*
X0088301Y0198083D01*
X0089164Y0199228D01*
X0090054Y0200352D01*
X0090971Y0201453D01*
X0091915Y0202532D01*
X0092884Y0203587D01*
X0093880Y0204619D01*
X0094900Y0205626D01*
X0095944Y0206607D01*
X0097012Y0207563D01*
X0098103Y0208493D01*
X0099217Y0209395D01*
X0100352Y0210271D01*
X0101508Y0211118D01*
X0102684Y0211937D01*
X0103880Y0212727D01*
X0105095Y0213487D01*
X0106328Y0214218D01*
X0107579Y0214918D01*
X0108846Y0215588D01*
X0110129Y0216226D01*
X0111428Y0216833D01*
X0112741Y0217408D01*
X0114067Y0217951D01*
X0115407Y0218461D01*
X0116758Y0218939D01*
X0118121Y0219384D01*
X0119494Y0219795D01*
X0120877Y0220172D01*
X0122268Y0220516D01*
X0123668Y0220825D01*
X0124268Y0217417D01*
X0122955Y0217124D01*
X0121649Y0216799D01*
X0120351Y0216442D01*
X0119063Y0216054D01*
X0117784Y0215634D01*
X0116516Y0215184D01*
X0115259Y0214703D01*
X0114014Y0214191D01*
X0112782Y0213649D01*
X0111564Y0213077D01*
X0110360Y0212476D01*
X0109171Y0211846D01*
X0107997Y0211187D01*
X0106840Y0210500D01*
X0105700Y0209784D01*
X0104578Y0209041D01*
X0103474Y0208272D01*
X0102389Y0207475D01*
X0101324Y0206652D01*
X0100280Y0205804D01*
X0099256Y0204930D01*
X0098254Y0204032D01*
X0097274Y0203109D01*
X0096316Y0202163D01*
X0095382Y0201194D01*
X0094472Y0200203D01*
X0093587Y0199190D01*
X0092726Y0198155D01*
X0091891Y0197100D01*
X0091081Y0196025D01*
X0090298Y0194930D01*
X0089542Y0193817D01*
X0088813Y0192686D01*
X0088112Y0191537D01*
X0087439Y0190371D01*
X0086795Y0189190D01*
X0086179Y0187993D01*
X0085593Y0186781D01*
X0085037Y0185556D01*
X0084510Y0184317D01*
X0084014Y0183066D01*
X0083549Y0181803D01*
X0083114Y0180530D01*
X0082710Y0179246D01*
X0082338Y0177953D01*
X0081998Y0176651D01*
X0081689Y0175341D01*
X0081412Y0174024D01*
X0081167Y0172700D01*
X0080955Y0171371D01*
X0080775Y0170037D01*
X0080627Y0168700D01*
X0080513Y0167359D01*
X0080430Y0166016D01*
X0080381Y0164671D01*
X0080364Y0163325D01*
X0080380Y0161979D01*
X0080429Y0160634D01*
X0080510Y0159291D01*
X0080624Y0157950D01*
X0080771Y0156612D01*
X0080950Y0155278D01*
X0081162Y0153949D01*
X0081406Y0152626D01*
X0081682Y0151308D01*
X0081990Y0149998D01*
X0082330Y0148696D01*
X0082701Y0147403D01*
X0083104Y0146118D01*
X0086356Y0147302D01*
X0085982Y0148504D01*
X0085638Y0149714D01*
X0085322Y0150932D01*
X0085037Y0152157D01*
X0084781Y0153390D01*
X0084555Y0154627D01*
X0084360Y0155870D01*
X0084194Y0157118D01*
X0084059Y0158369D01*
X0083954Y0159623D01*
X0083880Y0160879D01*
X0083836Y0162137D01*
X0083823Y0163395D01*
X0083840Y0164653D01*
X0083888Y0165911D01*
X0083967Y0167166D01*
X0084076Y0168420D01*
X0084215Y0169671D01*
X0084384Y0170918D01*
X0084584Y0172160D01*
X0084814Y0173397D01*
X0085074Y0174628D01*
X0085364Y0175853D01*
X0085683Y0177070D01*
X0086032Y0178279D01*
X0086410Y0179479D01*
X0086817Y0180670D01*
X0087253Y0181850D01*
X0087717Y0183020D01*
X0088209Y0184178D01*
X0088730Y0185323D01*
X0089278Y0186456D01*
X0089854Y0187575D01*
X0090456Y0188680D01*
X0091085Y0189769D01*
X0091741Y0190844D01*
X0092422Y0191902D01*
X0093129Y0192943D01*
X0093861Y0193966D01*
X0094617Y0194972D01*
X0095398Y0195959D01*
X0096202Y0196926D01*
X0097030Y0197874D01*
X0097880Y0198802D01*
X0098753Y0199708D01*
X0099648Y0200593D01*
X0100563Y0201456D01*
X0101500Y0202297D01*
X0102456Y0203115D01*
X0103432Y0203909D01*
X0104427Y0204679D01*
X0105441Y0205425D01*
X0106472Y0206146D01*
X0107520Y0206842D01*
X0108585Y0207512D01*
X0109666Y0208156D01*
X0110762Y0208774D01*
X0111873Y0209365D01*
X0112998Y0209929D01*
X0114137Y0210465D01*
X0115288Y0210974D01*
X0116451Y0211454D01*
X0117625Y0211906D01*
X0118810Y0212330D01*
X0120005Y0212724D01*
X0121209Y0213089D01*
X0122422Y0213426D01*
X0123642Y0213732D01*
X0124870Y0214009D01*
X0125471Y0210600D01*
X0124329Y0210340D01*
X0123194Y0210052D01*
X0122067Y0209736D01*
X0120947Y0209394D01*
X0119836Y0209024D01*
X0118734Y0208628D01*
X0117642Y0208205D01*
X0116561Y0207756D01*
X0115491Y0207281D01*
X0114433Y0206780D01*
X0113387Y0206254D01*
X0112354Y0205702D01*
X0111335Y0205126D01*
X0110330Y0204525D01*
X0109340Y0203900D01*
X0108366Y0203251D01*
X0107407Y0202579D01*
X0106465Y0201884D01*
X0105540Y0201166D01*
X0104632Y0200426D01*
X0103743Y0199664D01*
X0102873Y0198881D01*
X0102021Y0198077D01*
X0101190Y0197253D01*
X0100379Y0196409D01*
X0099588Y0195545D01*
X0098818Y0194663D01*
X0098070Y0193762D01*
X0097344Y0192844D01*
X0096641Y0191908D01*
X0095960Y0190955D01*
X0095303Y0189986D01*
X0094669Y0189002D01*
X0094059Y0188002D01*
X0093474Y0186988D01*
X0092913Y0185960D01*
X0092377Y0184919D01*
X0091867Y0183865D01*
X0091382Y0182800D01*
X0090923Y0181722D01*
X0090491Y0180634D01*
X0090085Y0179536D01*
X0089705Y0178429D01*
X0089353Y0177312D01*
X0089028Y0176187D01*
X0088730Y0175055D01*
X0088459Y0173916D01*
X0088216Y0172770D01*
X0088001Y0171620D01*
X0087814Y0170464D01*
X0087655Y0169304D01*
X0087524Y0168140D01*
X0087421Y0166974D01*
X0087346Y0165806D01*
X0087300Y0164636D01*
X0087282Y0163465D01*
X0087293Y0162294D01*
X0087331Y0161124D01*
X0087398Y0159955D01*
X0087494Y0158788D01*
X0087617Y0157624D01*
X0087769Y0156463D01*
X0087949Y0155306D01*
X0088156Y0154153D01*
X0088392Y0153007D01*
X0088655Y0151866D01*
X0088946Y0150732D01*
X0089264Y0149605D01*
X0089609Y0148486D01*
X0092862Y0149670D01*
X0092541Y0150721D01*
X0092246Y0151780D01*
X0091977Y0152846D01*
X0091734Y0153918D01*
X0091517Y0154996D01*
X0091327Y0156078D01*
X0091163Y0157165D01*
X0091026Y0158256D01*
X0090916Y0159350D01*
X0090832Y0160446D01*
X0090776Y0161544D01*
X0090746Y0162643D01*
X0090743Y0163742D01*
X0090767Y0164841D01*
X0090818Y0165939D01*
X0090896Y0167036D01*
X0091000Y0168130D01*
X0091132Y0169221D01*
X0091290Y0170309D01*
X0091474Y0171393D01*
X0091685Y0172472D01*
X0091923Y0173545D01*
X0092186Y0174612D01*
X0092476Y0175673D01*
X0092792Y0176726D01*
X0093133Y0177771D01*
X0093499Y0178807D01*
X0093891Y0179834D01*
X0094308Y0180851D01*
X0094750Y0181858D01*
X0095216Y0182853D01*
X0095706Y0183837D01*
X0096221Y0184809D01*
X0096759Y0185767D01*
X0097320Y0186713D01*
X0097904Y0187644D01*
X0098511Y0188561D01*
X0099140Y0189462D01*
X0099791Y0190348D01*
X0100463Y0191217D01*
X0101157Y0192070D01*
X0101871Y0192906D01*
X0102606Y0193724D01*
X0103360Y0194524D01*
X0104133Y0195305D01*
X0104926Y0196067D01*
X0105737Y0196809D01*
X0106565Y0197531D01*
X0107412Y0198233D01*
X0108275Y0198914D01*
X0109154Y0199573D01*
X0110050Y0200211D01*
X0110960Y0200826D01*
X0111886Y0201420D01*
X0112826Y0201990D01*
X0113779Y0202537D01*
X0114746Y0203061D01*
X0115725Y0203561D01*
X0116716Y0204036D01*
X0117718Y0204488D01*
X0118731Y0204914D01*
X0119754Y0205316D01*
X0120787Y0205693D01*
X0121829Y0206044D01*
X0122879Y0206370D01*
X0123936Y0206670D01*
X0125001Y0206943D01*
X0126072Y0207191D01*
X0126673Y0203782D01*
X0125689Y0203551D01*
X0124712Y0203296D01*
X0123740Y0203017D01*
X0122776Y0202715D01*
X0121819Y0202389D01*
X0120871Y0202040D01*
X0119931Y0201668D01*
X0119001Y0201274D01*
X0118081Y0200856D01*
X0117171Y0200417D01*
X0116272Y0199955D01*
X0115385Y0199472D01*
X0114509Y0198967D01*
X0113647Y0198441D01*
X0112797Y0197894D01*
X0111961Y0197327D01*
X0111139Y0196739D01*
X0110331Y0196131D01*
X0109539Y0195504D01*
X0108762Y0194858D01*
X0108001Y0194193D01*
X0107256Y0193510D01*
X0106529Y0192809D01*
X0105818Y0192090D01*
X0105126Y0191354D01*
X0104451Y0190602D01*
X0103795Y0189833D01*
X0103158Y0189049D01*
X0102541Y0188249D01*
X0101943Y0187435D01*
X0101365Y0186606D01*
X0100807Y0185763D01*
X0100270Y0184907D01*
X0099754Y0184038D01*
X0099260Y0183157D01*
X0098787Y0182264D01*
X0098336Y0181360D01*
X0097907Y0180445D01*
X0097501Y0179519D01*
X0097117Y0178585D01*
X0096756Y0177641D01*
X0096418Y0176688D01*
X0096104Y0175728D01*
X0095813Y0174760D01*
X0095546Y0173786D01*
X0095302Y0172805D01*
X0095083Y0171819D01*
X0094887Y0170827D01*
X0094716Y0169831D01*
X0094569Y0168831D01*
X0094447Y0167828D01*
X0094349Y0166823D01*
X0094276Y0165815D01*
X0094227Y0164805D01*
X0094203Y0163795D01*
X0094203Y0162785D01*
X0094228Y0161775D01*
X0094278Y0160765D01*
X0094352Y0159758D01*
X0094451Y0158752D01*
X0094575Y0157749D01*
X0094722Y0156749D01*
X0094894Y0155754D01*
X0095091Y0154762D01*
X0095311Y0153776D01*
X0095555Y0152796D01*
X0095823Y0151821D01*
X0096115Y0150854D01*
X0204470Y0140201D02*
X0173654Y0151417D01*
X0173932Y0152344D01*
X0174188Y0153278D01*
X0174420Y0154218D01*
X0174630Y0155164D01*
X0174816Y0156114D01*
X0174980Y0157068D01*
X0175120Y0158026D01*
X0175237Y0158987D01*
X0175330Y0159951D01*
X0175400Y0160917D01*
X0175446Y0161884D01*
X0175469Y0162852D01*
X0175469Y0163821D01*
X0175444Y0164789D01*
X0175397Y0165756D01*
X0175325Y0166721D01*
X0175231Y0167685D01*
X0175113Y0168646D01*
X0174971Y0169604D01*
X0174806Y0170558D01*
X0174619Y0171508D01*
X0174408Y0172453D01*
X0174174Y0173393D01*
X0173917Y0174327D01*
X0173638Y0175254D01*
X0173336Y0176174D01*
X0173012Y0177086D01*
X0172666Y0177991D01*
X0172298Y0178886D01*
X0171909Y0179773D01*
X0171497Y0180649D01*
X0171065Y0181516D01*
X0170612Y0182372D01*
X0170138Y0183216D01*
X0169644Y0184049D01*
X0169129Y0184869D01*
X0168595Y0185677D01*
X0168041Y0186471D01*
X0167468Y0187252D01*
X0166877Y0188018D01*
X0166267Y0188770D01*
X0165638Y0189507D01*
X0164992Y0190228D01*
X0164329Y0190934D01*
X0163649Y0191623D01*
X0162952Y0192295D01*
X0162239Y0192950D01*
X0161510Y0193588D01*
X0160766Y0194208D01*
X0160007Y0194809D01*
X0159234Y0195392D01*
X0158447Y0195956D01*
X0157646Y0196500D01*
X0156833Y0197025D01*
X0156006Y0197530D01*
X0155168Y0198015D01*
X0154318Y0198479D01*
X0153458Y0198923D01*
X0152586Y0199345D01*
X0151705Y0199746D01*
X0150814Y0200125D01*
X0149914Y0200483D01*
X0149006Y0200819D01*
X0148090Y0201132D01*
X0147166Y0201423D01*
X0146236Y0201692D01*
X0145299Y0201938D01*
X0144357Y0202161D01*
X0150052Y0234456D01*
X0150052Y0234457D01*
X0151771Y0234087D01*
X0153480Y0233676D01*
X0155178Y0233224D01*
X0156866Y0232731D01*
X0158540Y0232197D01*
X0160202Y0231623D01*
X0161849Y0231008D01*
X0163480Y0230354D01*
X0165096Y0229661D01*
X0166694Y0228929D01*
X0168273Y0228158D01*
X0169834Y0227349D01*
X0171375Y0226503D01*
X0172895Y0225620D01*
X0174392Y0224700D01*
X0175868Y0223744D01*
X0177319Y0222752D01*
X0178746Y0221726D01*
X0180148Y0220666D01*
X0181524Y0219572D01*
X0182873Y0218444D01*
X0184194Y0217285D01*
X0185487Y0216094D01*
X0186750Y0214872D01*
X0187984Y0213620D01*
X0189187Y0212338D01*
X0190358Y0211027D01*
X0191498Y0209689D01*
X0192604Y0208323D01*
X0193678Y0206931D01*
X0194717Y0205513D01*
X0195722Y0204071D01*
X0196691Y0202604D01*
X0197625Y0201115D01*
X0198522Y0199603D01*
X0199382Y0198071D01*
X0200205Y0196517D01*
X0200991Y0194945D01*
X0201737Y0193353D01*
X0202446Y0191745D01*
X0203115Y0190119D01*
X0203744Y0188478D01*
X0204333Y0186822D01*
X0204883Y0185152D01*
X0205391Y0183469D01*
X0205859Y0181775D01*
X0206285Y0180070D01*
X0206671Y0178355D01*
X0207014Y0176631D01*
X0207316Y0174899D01*
X0207575Y0173160D01*
X0207793Y0171416D01*
X0207968Y0169667D01*
X0208101Y0167914D01*
X0208191Y0166159D01*
X0208239Y0164402D01*
X0208244Y0162644D01*
X0208207Y0160886D01*
X0208127Y0159130D01*
X0208004Y0157377D01*
X0207839Y0155627D01*
X0207632Y0153881D01*
X0207383Y0152141D01*
X0207091Y0150408D01*
X0206758Y0148682D01*
X0206383Y0146964D01*
X0205966Y0145257D01*
X0205509Y0143560D01*
X0205010Y0141874D01*
X0204471Y0140201D01*
X0201219Y0141384D01*
X0201737Y0142999D01*
X0202216Y0144626D01*
X0202654Y0146264D01*
X0203052Y0147913D01*
X0203409Y0149570D01*
X0203726Y0151236D01*
X0204001Y0152910D01*
X0204236Y0154589D01*
X0204429Y0156274D01*
X0204581Y0157963D01*
X0204691Y0159655D01*
X0204760Y0161349D01*
X0204787Y0163045D01*
X0204773Y0164741D01*
X0204717Y0166436D01*
X0204620Y0168129D01*
X0204481Y0169819D01*
X0204300Y0171505D01*
X0204079Y0173186D01*
X0203816Y0174861D01*
X0203512Y0176530D01*
X0203167Y0178190D01*
X0202782Y0179841D01*
X0202356Y0181483D01*
X0201890Y0183114D01*
X0201385Y0184732D01*
X0200839Y0186338D01*
X0200255Y0187930D01*
X0199632Y0189507D01*
X0198970Y0191068D01*
X0198270Y0192613D01*
X0197532Y0194140D01*
X0196757Y0195648D01*
X0195946Y0197137D01*
X0195098Y0198606D01*
X0194214Y0200053D01*
X0193295Y0201478D01*
X0192342Y0202881D01*
X0191354Y0204259D01*
X0190333Y0205613D01*
X0189279Y0206941D01*
X0188192Y0208243D01*
X0187074Y0209518D01*
X0185925Y0210766D01*
X0184746Y0211984D01*
X0183538Y0213174D01*
X0182300Y0214333D01*
X0181034Y0215462D01*
X0179742Y0216559D01*
X0178422Y0217625D01*
X0177077Y0218657D01*
X0175707Y0219657D01*
X0174313Y0220622D01*
X0172895Y0221553D01*
X0171455Y0222449D01*
X0169994Y0223309D01*
X0168512Y0224133D01*
X0167010Y0224921D01*
X0165490Y0225671D01*
X0163951Y0226384D01*
X0162395Y0227059D01*
X0160823Y0227696D01*
X0159237Y0228294D01*
X0157635Y0228852D01*
X0156021Y0229372D01*
X0154395Y0229851D01*
X0152757Y0230291D01*
X0151109Y0230690D01*
X0149451Y0231049D01*
X0148850Y0227641D01*
X0150422Y0227299D01*
X0151984Y0226918D01*
X0153537Y0226499D01*
X0155079Y0226043D01*
X0156610Y0225548D01*
X0158128Y0225016D01*
X0159632Y0224448D01*
X0161122Y0223842D01*
X0162597Y0223200D01*
X0164055Y0222523D01*
X0165497Y0221810D01*
X0166920Y0221061D01*
X0168325Y0220279D01*
X0169711Y0219461D01*
X0171075Y0218611D01*
X0172419Y0217727D01*
X0173741Y0216810D01*
X0175039Y0215862D01*
X0176315Y0214882D01*
X0177565Y0213870D01*
X0178791Y0212829D01*
X0179991Y0211758D01*
X0181164Y0210658D01*
X0182310Y0209529D01*
X0183427Y0208373D01*
X0184517Y0207190D01*
X0185577Y0205980D01*
X0186607Y0204745D01*
X0187606Y0203485D01*
X0188574Y0202200D01*
X0189511Y0200893D01*
X0190415Y0199563D01*
X0191286Y0198211D01*
X0192124Y0196838D01*
X0192929Y0195446D01*
X0193698Y0194034D01*
X0194433Y0192603D01*
X0195133Y0191155D01*
X0195797Y0189690D01*
X0196425Y0188209D01*
X0197017Y0186714D01*
X0197571Y0185204D01*
X0198089Y0183682D01*
X0198569Y0182147D01*
X0199012Y0180600D01*
X0199416Y0179044D01*
X0199782Y0177478D01*
X0200110Y0175903D01*
X0200399Y0174321D01*
X0200649Y0172732D01*
X0200861Y0171138D01*
X0201033Y0169539D01*
X0201166Y0167936D01*
X0201259Y0166331D01*
X0201314Y0164723D01*
X0201329Y0163115D01*
X0201304Y0161507D01*
X0201240Y0159900D01*
X0201137Y0158295D01*
X0200995Y0156693D01*
X0200813Y0155095D01*
X0200593Y0153502D01*
X0200333Y0151915D01*
X0200034Y0150334D01*
X0199697Y0148762D01*
X0199322Y0147198D01*
X0198908Y0145643D01*
X0198457Y0144100D01*
X0197968Y0142568D01*
X0194716Y0143751D01*
X0195176Y0145201D01*
X0195601Y0146661D01*
X0195990Y0148131D01*
X0196343Y0149610D01*
X0196660Y0151098D01*
X0196940Y0152593D01*
X0197184Y0154094D01*
X0197391Y0155601D01*
X0197561Y0157112D01*
X0197694Y0158627D01*
X0197789Y0160145D01*
X0197848Y0161664D01*
X0197870Y0163185D01*
X0197854Y0164706D01*
X0197802Y0166226D01*
X0197712Y0167744D01*
X0197585Y0169259D01*
X0197421Y0170771D01*
X0197220Y0172279D01*
X0196982Y0173781D01*
X0196708Y0175277D01*
X0196397Y0176765D01*
X0196050Y0178246D01*
X0195667Y0179718D01*
X0195248Y0181180D01*
X0194793Y0182631D01*
X0194303Y0184071D01*
X0193778Y0185498D01*
X0193219Y0186912D01*
X0192625Y0188312D01*
X0191996Y0189697D01*
X0191334Y0191066D01*
X0190639Y0192419D01*
X0189911Y0193754D01*
X0189151Y0195071D01*
X0188359Y0196369D01*
X0187535Y0197648D01*
X0186680Y0198905D01*
X0185794Y0200142D01*
X0184879Y0201356D01*
X0183934Y0202548D01*
X0182961Y0203717D01*
X0181959Y0204861D01*
X0180930Y0205980D01*
X0179873Y0207074D01*
X0178790Y0208142D01*
X0177681Y0209183D01*
X0176547Y0210196D01*
X0175389Y0211182D01*
X0174207Y0212138D01*
X0173002Y0213066D01*
X0171774Y0213964D01*
X0170525Y0214832D01*
X0169256Y0215669D01*
X0167966Y0216474D01*
X0166656Y0217248D01*
X0165329Y0217990D01*
X0163983Y0218699D01*
X0162621Y0219374D01*
X0161242Y0220017D01*
X0159849Y0220625D01*
X0158440Y0221199D01*
X0157018Y0221739D01*
X0155584Y0222244D01*
X0154137Y0222713D01*
X0152680Y0223147D01*
X0151212Y0223545D01*
X0149735Y0223907D01*
X0148249Y0224233D01*
X0147648Y0220825D01*
X0149048Y0220516D01*
X0150439Y0220172D01*
X0151822Y0219795D01*
X0153195Y0219384D01*
X0154558Y0218939D01*
X0155909Y0218461D01*
X0157249Y0217951D01*
X0158575Y0217408D01*
X0159888Y0216833D01*
X0161187Y0216226D01*
X0162470Y0215588D01*
X0163737Y0214918D01*
X0164988Y0214218D01*
X0166221Y0213487D01*
X0167436Y0212727D01*
X0168632Y0211937D01*
X0169808Y0211118D01*
X0170964Y0210271D01*
X0172099Y0209395D01*
X0173213Y0208493D01*
X0174304Y0207563D01*
X0175372Y0206607D01*
X0176416Y0205626D01*
X0177436Y0204619D01*
X0178432Y0203587D01*
X0179401Y0202532D01*
X0180345Y0201453D01*
X0181262Y0200352D01*
X0182152Y0199228D01*
X0183015Y0198083D01*
X0183849Y0196918D01*
X0184654Y0195732D01*
X0185431Y0194527D01*
X0186177Y0193304D01*
X0186894Y0192063D01*
X0187580Y0190804D01*
X0188236Y0189530D01*
X0188860Y0188239D01*
X0189452Y0186934D01*
X0190012Y0185615D01*
X0190540Y0184282D01*
X0191035Y0182937D01*
X0191498Y0181580D01*
X0191927Y0180213D01*
X0192322Y0178835D01*
X0192684Y0177448D01*
X0193012Y0176053D01*
X0193306Y0174650D01*
X0193566Y0173240D01*
X0193791Y0171825D01*
X0193981Y0170404D01*
X0194137Y0168979D01*
X0194258Y0167551D01*
X0194344Y0166121D01*
X0194395Y0164688D01*
X0194411Y0163255D01*
X0194392Y0161822D01*
X0194338Y0160389D01*
X0194250Y0158959D01*
X0194126Y0157531D01*
X0193968Y0156106D01*
X0193775Y0154686D01*
X0193547Y0153271D01*
X0193285Y0151862D01*
X0192989Y0150459D01*
X0192658Y0149065D01*
X0192294Y0147679D01*
X0191896Y0146302D01*
X0191464Y0144935D01*
X0188212Y0146118D01*
X0188615Y0147403D01*
X0188986Y0148696D01*
X0189326Y0149998D01*
X0189634Y0151308D01*
X0189910Y0152626D01*
X0190154Y0153949D01*
X0190366Y0155278D01*
X0190545Y0156612D01*
X0190692Y0157950D01*
X0190806Y0159291D01*
X0190887Y0160634D01*
X0190936Y0161979D01*
X0190952Y0163325D01*
X0190935Y0164671D01*
X0190886Y0166016D01*
X0190803Y0167359D01*
X0190689Y0168700D01*
X0190541Y0170037D01*
X0190361Y0171371D01*
X0190149Y0172700D01*
X0189904Y0174024D01*
X0189627Y0175341D01*
X0189318Y0176651D01*
X0188978Y0177953D01*
X0188606Y0179246D01*
X0188202Y0180530D01*
X0187767Y0181803D01*
X0187302Y0183066D01*
X0186806Y0184317D01*
X0186279Y0185556D01*
X0185723Y0186781D01*
X0185137Y0187993D01*
X0184521Y0189190D01*
X0183877Y0190371D01*
X0183204Y0191537D01*
X0182503Y0192686D01*
X0181774Y0193817D01*
X0181018Y0194930D01*
X0180235Y0196025D01*
X0179425Y0197100D01*
X0178590Y0198155D01*
X0177729Y0199190D01*
X0176844Y0200203D01*
X0175934Y0201194D01*
X0175000Y0202163D01*
X0174042Y0203109D01*
X0173062Y0204032D01*
X0172060Y0204930D01*
X0171036Y0205804D01*
X0169992Y0206652D01*
X0168927Y0207475D01*
X0167842Y0208272D01*
X0166738Y0209041D01*
X0165616Y0209784D01*
X0164476Y0210500D01*
X0163319Y0211187D01*
X0162145Y0211846D01*
X0160956Y0212476D01*
X0159752Y0213077D01*
X0158534Y0213649D01*
X0157302Y0214191D01*
X0156057Y0214703D01*
X0154800Y0215184D01*
X0153532Y0215634D01*
X0152253Y0216054D01*
X0150965Y0216442D01*
X0149667Y0216799D01*
X0148361Y0217124D01*
X0147048Y0217417D01*
X0146446Y0214009D01*
X0147674Y0213732D01*
X0148894Y0213426D01*
X0150107Y0213089D01*
X0151311Y0212724D01*
X0152506Y0212330D01*
X0153691Y0211906D01*
X0154865Y0211454D01*
X0156028Y0210974D01*
X0157179Y0210465D01*
X0158318Y0209929D01*
X0159443Y0209365D01*
X0160554Y0208774D01*
X0161650Y0208156D01*
X0162731Y0207512D01*
X0163796Y0206842D01*
X0164844Y0206146D01*
X0165875Y0205425D01*
X0166889Y0204679D01*
X0167884Y0203909D01*
X0168860Y0203115D01*
X0169816Y0202297D01*
X0170753Y0201456D01*
X0171668Y0200593D01*
X0172563Y0199708D01*
X0173436Y0198802D01*
X0174286Y0197874D01*
X0175114Y0196926D01*
X0175918Y0195959D01*
X0176699Y0194972D01*
X0177455Y0193966D01*
X0178187Y0192943D01*
X0178894Y0191902D01*
X0179575Y0190844D01*
X0180231Y0189769D01*
X0180860Y0188680D01*
X0181462Y0187575D01*
X0182038Y0186456D01*
X0182586Y0185323D01*
X0183107Y0184178D01*
X0183599Y0183020D01*
X0184063Y0181850D01*
X0184499Y0180670D01*
X0184906Y0179479D01*
X0185284Y0178279D01*
X0185633Y0177070D01*
X0185952Y0175853D01*
X0186242Y0174628D01*
X0186502Y0173397D01*
X0186732Y0172160D01*
X0186932Y0170918D01*
X0187101Y0169671D01*
X0187240Y0168420D01*
X0187349Y0167166D01*
X0187428Y0165911D01*
X0187476Y0164653D01*
X0187493Y0163395D01*
X0187480Y0162137D01*
X0187436Y0160879D01*
X0187362Y0159623D01*
X0187257Y0158369D01*
X0187122Y0157118D01*
X0186956Y0155870D01*
X0186761Y0154627D01*
X0186535Y0153390D01*
X0186279Y0152157D01*
X0185994Y0150932D01*
X0185678Y0149714D01*
X0185334Y0148504D01*
X0184960Y0147302D01*
X0181707Y0148486D01*
X0182052Y0149605D01*
X0182370Y0150732D01*
X0182661Y0151866D01*
X0182924Y0153007D01*
X0183160Y0154153D01*
X0183367Y0155306D01*
X0183547Y0156463D01*
X0183699Y0157624D01*
X0183822Y0158788D01*
X0183918Y0159955D01*
X0183985Y0161124D01*
X0184023Y0162294D01*
X0184034Y0163465D01*
X0184016Y0164636D01*
X0183970Y0165806D01*
X0183895Y0166974D01*
X0183792Y0168140D01*
X0183661Y0169304D01*
X0183502Y0170464D01*
X0183315Y0171620D01*
X0183100Y0172770D01*
X0182857Y0173916D01*
X0182586Y0175055D01*
X0182288Y0176187D01*
X0181963Y0177312D01*
X0181611Y0178429D01*
X0181231Y0179536D01*
X0180825Y0180634D01*
X0180393Y0181722D01*
X0179934Y0182800D01*
X0179449Y0183865D01*
X0178939Y0184919D01*
X0178403Y0185960D01*
X0177842Y0186988D01*
X0177257Y0188002D01*
X0176647Y0189002D01*
X0176013Y0189986D01*
X0175356Y0190955D01*
X0174675Y0191908D01*
X0173972Y0192844D01*
X0173246Y0193762D01*
X0172498Y0194663D01*
X0171728Y0195545D01*
X0170937Y0196409D01*
X0170126Y0197253D01*
X0169295Y0198077D01*
X0168443Y0198881D01*
X0167573Y0199664D01*
X0166684Y0200426D01*
X0165776Y0201166D01*
X0164851Y0201884D01*
X0163909Y0202579D01*
X0162950Y0203251D01*
X0161976Y0203900D01*
X0160986Y0204525D01*
X0159981Y0205126D01*
X0158962Y0205702D01*
X0157929Y0206254D01*
X0156883Y0206780D01*
X0155825Y0207281D01*
X0154755Y0207756D01*
X0153674Y0208205D01*
X0152582Y0208628D01*
X0151480Y0209024D01*
X0150369Y0209394D01*
X0149249Y0209736D01*
X0148122Y0210052D01*
X0146987Y0210340D01*
X0145845Y0210600D01*
X0145244Y0207191D01*
X0146315Y0206943D01*
X0147380Y0206670D01*
X0148437Y0206370D01*
X0149487Y0206044D01*
X0150529Y0205693D01*
X0151562Y0205316D01*
X0152585Y0204914D01*
X0153598Y0204488D01*
X0154600Y0204036D01*
X0155591Y0203561D01*
X0156570Y0203061D01*
X0157537Y0202537D01*
X0158490Y0201990D01*
X0159430Y0201420D01*
X0160356Y0200826D01*
X0161266Y0200211D01*
X0162162Y0199573D01*
X0163041Y0198914D01*
X0163904Y0198233D01*
X0164751Y0197531D01*
X0165579Y0196809D01*
X0166390Y0196067D01*
X0167183Y0195305D01*
X0167956Y0194524D01*
X0168710Y0193724D01*
X0169445Y0192906D01*
X0170159Y0192070D01*
X0170853Y0191217D01*
X0171525Y0190348D01*
X0172176Y0189462D01*
X0172805Y0188561D01*
X0173412Y0187644D01*
X0173996Y0186713D01*
X0174557Y0185767D01*
X0175095Y0184809D01*
X0175610Y0183837D01*
X0176100Y0182853D01*
X0176566Y0181858D01*
X0177008Y0180851D01*
X0177425Y0179834D01*
X0177817Y0178807D01*
X0178183Y0177771D01*
X0178524Y0176726D01*
X0178840Y0175673D01*
X0179130Y0174612D01*
X0179393Y0173545D01*
X0179631Y0172472D01*
X0179842Y0171393D01*
X0180026Y0170309D01*
X0180184Y0169221D01*
X0180316Y0168130D01*
X0180420Y0167036D01*
X0180498Y0165939D01*
X0180549Y0164841D01*
X0180573Y0163742D01*
X0180570Y0162643D01*
X0180540Y0161544D01*
X0180484Y0160446D01*
X0180400Y0159350D01*
X0180290Y0158256D01*
X0180153Y0157165D01*
X0179989Y0156078D01*
X0179799Y0154996D01*
X0179582Y0153918D01*
X0179339Y0152846D01*
X0179070Y0151780D01*
X0178775Y0150721D01*
X0178454Y0149670D01*
X0175201Y0150854D01*
X0175493Y0151821D01*
X0175761Y0152796D01*
X0176005Y0153776D01*
X0176225Y0154762D01*
X0176422Y0155754D01*
X0176594Y0156749D01*
X0176741Y0157749D01*
X0176865Y0158752D01*
X0176964Y0159758D01*
X0177038Y0160765D01*
X0177088Y0161775D01*
X0177113Y0162785D01*
X0177113Y0163795D01*
X0177089Y0164805D01*
X0177040Y0165815D01*
X0176967Y0166823D01*
X0176869Y0167828D01*
X0176747Y0168831D01*
X0176600Y0169831D01*
X0176429Y0170827D01*
X0176233Y0171819D01*
X0176014Y0172805D01*
X0175770Y0173786D01*
X0175503Y0174760D01*
X0175212Y0175728D01*
X0174898Y0176688D01*
X0174560Y0177641D01*
X0174199Y0178585D01*
X0173815Y0179519D01*
X0173409Y0180445D01*
X0172980Y0181360D01*
X0172529Y0182264D01*
X0172056Y0183157D01*
X0171562Y0184038D01*
X0171046Y0184907D01*
X0170509Y0185763D01*
X0169951Y0186606D01*
X0169373Y0187435D01*
X0168775Y0188249D01*
X0168158Y0189049D01*
X0167521Y0189833D01*
X0166865Y0190602D01*
X0166190Y0191354D01*
X0165498Y0192090D01*
X0164787Y0192809D01*
X0164060Y0193510D01*
X0163315Y0194193D01*
X0162554Y0194858D01*
X0161777Y0195504D01*
X0160985Y0196131D01*
X0160177Y0196739D01*
X0159355Y0197327D01*
X0158519Y0197894D01*
X0157669Y0198441D01*
X0156807Y0198967D01*
X0155931Y0199472D01*
X0155044Y0199955D01*
X0154145Y0200417D01*
X0153235Y0200856D01*
X0152315Y0201274D01*
X0151385Y0201668D01*
X0150445Y0202040D01*
X0149497Y0202389D01*
X0148540Y0202715D01*
X0147576Y0203017D01*
X0146604Y0203296D01*
X0145627Y0203551D01*
X0144643Y0203782D01*
D42*
X0193757Y0153065D02*
X0191316Y0147041D01*
X0206997Y0163309D01*
X0289320Y0147502D02*
X0303820Y0162002D01*
X0329820Y0162002D01*
X0336820Y0155002D01*
X0336820Y0151002D02*
X0347820Y0162002D01*
X0360820Y0162002D01*
X0360820Y0179002D01*
X0357820Y0182002D01*
X0351820Y0182002D01*
X0349820Y0184002D01*
X0327820Y0184002D01*
X0324320Y0187502D01*
X0327820Y0182002D02*
X0308820Y0182002D01*
X0296820Y0170002D01*
X0293820Y0170002D01*
X0292920Y0169702D01*
X0292820Y0170002D01*
X0292820Y0195002D01*
X0292920Y0195302D01*
X0309820Y0196002D02*
X0310720Y0195302D01*
X0309820Y0196002D02*
X0332820Y0219002D01*
X0336820Y0215002D01*
X0332820Y0219002D02*
X0326820Y0225002D01*
X0322520Y0225002D01*
X0328820Y0227002D02*
X0331820Y0230002D01*
X0383820Y0230002D01*
X0394820Y0219002D01*
X0394820Y0195002D01*
X0381820Y0195002D01*
X0389320Y0190002D02*
X0369320Y0190002D01*
X0361820Y0190002D01*
X0361820Y0217002D01*
X0358820Y0220002D01*
X0341820Y0220002D01*
X0336820Y0225002D01*
X0328820Y0210002D02*
X0351820Y0210002D01*
X0356820Y0215002D01*
X0354320Y0197502D02*
X0349820Y0193002D01*
X0321820Y0193002D01*
X0316820Y0188002D01*
X0310820Y0188002D01*
X0302820Y0180002D01*
X0308820Y0157002D02*
X0299320Y0147502D01*
X0295820Y0142002D02*
X0338820Y0142002D01*
X0346820Y0134002D01*
X0346820Y0130002D02*
X0354320Y0137502D01*
X0357820Y0131002D02*
X0354320Y0127502D01*
X0353820Y0127002D01*
X0344820Y0127002D01*
X0334820Y0117002D01*
X0333820Y0114002D02*
X0331820Y0116002D01*
X0331820Y0127002D01*
X0333820Y0127002D01*
X0330820Y0133002D02*
X0302820Y0133002D01*
X0299820Y0130002D02*
X0299320Y0130002D01*
X0299820Y0130002D02*
X0301820Y0128002D01*
X0311820Y0128002D01*
X0311820Y0127502D01*
X0311820Y0117502D01*
X0311820Y0117002D01*
X0303820Y0117002D01*
X0299320Y0112502D01*
X0294820Y0111002D02*
X0294820Y0126002D01*
X0293820Y0126002D01*
X0289820Y0130002D01*
X0289320Y0130002D01*
X0289320Y0112502D02*
X0289820Y0112002D01*
X0289820Y0108002D01*
X0293820Y0104002D01*
X0303820Y0104002D01*
X0303820Y0086002D01*
X0300820Y0083002D01*
X0294820Y0083002D01*
X0289320Y0077502D01*
X0299320Y0087502D02*
X0298820Y0088002D01*
X0298820Y0092002D01*
X0294820Y0096002D01*
X0293820Y0096002D01*
X0293820Y0099002D01*
X0295820Y0101002D01*
X0300820Y0107002D02*
X0303820Y0107002D01*
X0307820Y0103002D01*
X0327820Y0103002D01*
X0332820Y0108002D01*
X0353820Y0108002D01*
X0354320Y0107502D01*
X0357820Y0103002D02*
X0344820Y0103002D01*
X0342820Y0105002D01*
X0340820Y0103002D02*
X0350820Y0093002D01*
X0379820Y0093002D01*
X0380820Y0094002D01*
X0386820Y0090402D02*
X0386820Y0090002D01*
X0379820Y0083002D01*
X0314820Y0083002D01*
X0311820Y0087502D02*
X0311820Y0077502D01*
X0303820Y0073002D02*
X0299320Y0077502D01*
X0303820Y0073002D02*
X0344820Y0073002D01*
X0339820Y0076002D02*
X0335820Y0080002D01*
X0331820Y0086002D02*
X0331820Y0094002D01*
X0332820Y0094002D01*
X0338820Y0100002D01*
X0339820Y0100002D01*
X0340820Y0103002D02*
X0337820Y0103002D01*
X0335820Y0105002D01*
X0334820Y0105002D01*
X0337820Y0103002D02*
X0327820Y0093002D01*
X0315820Y0093002D01*
X0311820Y0097002D01*
X0311820Y0097502D01*
X0311820Y0088002D02*
X0311820Y0087502D01*
X0311820Y0088002D02*
X0323820Y0088002D01*
X0324320Y0087502D01*
X0324320Y0107502D02*
X0327820Y0111002D01*
X0347820Y0111002D01*
X0349820Y0113002D02*
X0348820Y0114002D01*
X0333820Y0114002D01*
X0324320Y0127502D02*
X0326820Y0130002D01*
X0346820Y0130002D01*
X0357820Y0131002D02*
X0372820Y0131002D01*
X0377820Y0136002D01*
X0361820Y0152002D01*
X0350820Y0152002D01*
X0346820Y0148002D01*
X0324820Y0148002D01*
X0324320Y0147502D01*
X0323820Y0148002D01*
X0311820Y0148002D01*
X0311820Y0147502D01*
X0311820Y0138002D02*
X0311820Y0137502D01*
X0311820Y0138002D02*
X0323820Y0138002D01*
X0324320Y0137502D01*
X0323820Y0128002D02*
X0311820Y0128002D01*
X0323820Y0128002D02*
X0324320Y0127502D01*
X0349820Y0113002D02*
X0356820Y0113002D01*
X0358820Y0111002D01*
X0382820Y0111002D01*
X0385820Y0108002D02*
X0368820Y0108002D01*
X0371820Y0116002D02*
X0374820Y0119002D01*
X0380820Y0119002D01*
X0387820Y0112002D01*
X0390820Y0112002D01*
X0394820Y0116002D01*
X0394820Y0137002D01*
X0389820Y0137002D01*
X0389320Y0137502D01*
X0389320Y0147502D02*
X0377820Y0136002D01*
X0371820Y0136002D02*
X0371820Y0135502D01*
X0371820Y0136002D02*
X0365820Y0136002D01*
X0354320Y0147502D01*
X0354820Y0157002D02*
X0354320Y0157502D01*
X0354820Y0157002D02*
X0369820Y0157002D01*
X0371820Y0155002D01*
X0371820Y0154502D01*
X0374820Y0167002D02*
X0378820Y0167002D01*
X0388820Y0167002D01*
X0389320Y0167502D01*
X0388820Y0167002D02*
X0388820Y0158002D01*
X0389320Y0157502D01*
X0392820Y0173002D02*
X0379820Y0186002D01*
X0355820Y0186002D01*
X0354320Y0187502D01*
X0351820Y0180002D02*
X0354320Y0177502D01*
X0351820Y0180002D02*
X0329820Y0180002D01*
X0327820Y0182002D01*
X0324320Y0177502D02*
X0323820Y0177002D01*
X0333820Y0167002D01*
X0311820Y0157502D02*
X0311820Y0157002D01*
X0308820Y0157002D01*
X0294820Y0111002D02*
X0292820Y0109002D01*
X0289320Y0097502D02*
X0295820Y0091002D01*
X0300820Y0068002D02*
X0298820Y0066002D01*
X0298820Y0061002D01*
X0334820Y0061002D01*
X0337820Y0064002D01*
X0349820Y0064002D01*
X0350820Y0063002D01*
X0373820Y0063002D01*
X0374820Y0064002D01*
X0372820Y0068002D02*
X0366820Y0068002D01*
X0366820Y0067502D01*
X0372820Y0068002D02*
X0386820Y0082002D01*
X0386820Y0082502D01*
X0392820Y0081002D02*
X0392820Y0105002D01*
X0359820Y0105002D01*
X0357820Y0103002D01*
X0357820Y0101002D02*
X0354320Y0097502D01*
X0357820Y0101002D02*
X0363820Y0101002D01*
X0360820Y0120002D02*
X0367820Y0127002D01*
X0388820Y0127002D01*
X0389320Y0127502D01*
X0374820Y0167002D02*
X0366820Y0175002D01*
X0369320Y0200002D02*
X0389320Y0200002D01*
X0392820Y0081002D02*
X0386820Y0075002D01*
X0386820Y0074602D01*
X0378820Y0061002D02*
X0338820Y0061002D01*
X0343820Y0058002D02*
X0312820Y0058002D01*
X0310820Y0055002D02*
X0326820Y0055002D01*
X0331820Y0050002D01*
X0326820Y0045002D02*
X0321820Y0040002D01*
X0326820Y0045002D02*
X0356820Y0045002D01*
X0356820Y0051002D01*
X0352820Y0055002D01*
X0350820Y0055002D01*
X0347820Y0058002D01*
X0343820Y0058002D02*
X0351820Y0050002D01*
X0353820Y0058002D02*
X0380820Y0058002D01*
X0381820Y0059002D01*
X0387820Y0059002D01*
X0375820Y0054002D02*
X0361820Y0040002D01*
X0354320Y0067502D02*
X0363820Y0077002D01*
X0366820Y0077002D01*
X0366820Y0077502D01*
X0331820Y0067002D02*
X0327820Y0063002D01*
X0303820Y0063002D01*
X0301820Y0065002D01*
X0300820Y0068002D02*
X0311820Y0068002D01*
X0311820Y0067502D01*
D43*
X0159214Y0131764D02*
X0158440Y0131200D01*
X0157652Y0130655D01*
X0156851Y0130130D01*
X0156037Y0129624D01*
X0155212Y0129138D01*
X0154375Y0128673D01*
X0153526Y0128227D01*
X0152668Y0127803D01*
X0151799Y0127400D01*
X0150920Y0127018D01*
X0150033Y0126657D01*
X0149137Y0126318D01*
X0148233Y0126001D01*
X0147322Y0125706D01*
X0146403Y0125434D01*
X0145479Y0125184D01*
X0144548Y0124956D01*
X0143613Y0124751D01*
X0142672Y0124569D01*
X0141728Y0124410D01*
X0140780Y0124274D01*
X0139828Y0124160D01*
X0138875Y0124071D01*
X0137919Y0124004D01*
X0136962Y0123961D01*
X0136004Y0123941D01*
X0135047Y0123944D01*
X0134089Y0123970D01*
X0133132Y0124020D01*
X0132177Y0124093D01*
X0131224Y0124189D01*
X0130274Y0124309D01*
X0129327Y0124451D01*
X0128383Y0124617D01*
X0127444Y0124805D01*
X0126510Y0125017D01*
X0125581Y0125251D01*
X0124658Y0125507D01*
X0123741Y0125786D01*
X0122832Y0126087D01*
X0121930Y0126410D01*
X0121037Y0126755D01*
X0120152Y0127121D01*
X0119276Y0127509D01*
X0118410Y0127918D01*
X0117554Y0128348D01*
X0116709Y0128799D01*
X0115875Y0129270D01*
X0115052Y0129762D01*
X0114242Y0130273D01*
X0113445Y0130804D01*
X0112661Y0131354D01*
X0111890Y0131923D01*
X0111134Y0132510D01*
X0110392Y0133116D01*
X0109665Y0133740D01*
X0108953Y0134381D01*
X0108257Y0135039D01*
X0107577Y0135714D01*
D44*
X0104162Y0301105D03*
X0104162Y0308979D03*
X0096288Y0308979D03*
X0088414Y0308979D03*
X0080540Y0308979D03*
X0072666Y0308979D03*
X0064792Y0308979D03*
X0056918Y0308979D03*
X0049044Y0308979D03*
X0041170Y0308979D03*
X0033296Y0308979D03*
X0025422Y0308979D03*
X0017548Y0308979D03*
X0017548Y0301105D03*
X0025422Y0301105D03*
X0033296Y0301105D03*
X0041170Y0301105D03*
X0049044Y0301105D03*
X0056918Y0301105D03*
X0064792Y0301105D03*
X0072666Y0301105D03*
X0080540Y0301105D03*
X0088414Y0301105D03*
X0096288Y0301105D03*
X0112036Y0301105D03*
X0112036Y0308979D03*
X0119910Y0308979D03*
X0127784Y0308979D03*
X0135658Y0308979D03*
X0135658Y0301105D03*
X0127784Y0301105D03*
X0119910Y0301105D03*
X0119910Y0320790D03*
X0119910Y0328664D03*
X0112036Y0328664D03*
X0112036Y0336538D03*
X0104162Y0336538D03*
X0104162Y0344412D03*
X0096288Y0344412D03*
X0096288Y0352286D03*
X0088414Y0352286D03*
X0080540Y0352286D03*
X0072666Y0352286D03*
X0064792Y0352286D03*
X0056918Y0352286D03*
X0049044Y0352286D03*
X0041170Y0352286D03*
X0033296Y0352286D03*
X0025422Y0352286D03*
X0017548Y0352286D03*
X0017548Y0344412D03*
X0025422Y0344412D03*
X0033296Y0344412D03*
X0041170Y0344412D03*
X0049044Y0344412D03*
X0056918Y0344412D03*
X0064792Y0344412D03*
X0072666Y0344412D03*
X0080540Y0344412D03*
X0088414Y0344412D03*
X0088414Y0336538D03*
X0080540Y0336538D03*
X0072666Y0336538D03*
X0064792Y0336538D03*
X0056918Y0336538D03*
X0049044Y0336538D03*
X0041170Y0336538D03*
X0033296Y0336538D03*
X0025422Y0336538D03*
X0017548Y0336538D03*
X0017548Y0328664D03*
X0025422Y0328664D03*
X0033296Y0328664D03*
X0041170Y0328664D03*
X0049044Y0328664D03*
X0056918Y0328664D03*
X0064792Y0328664D03*
X0072666Y0328664D03*
X0080540Y0328664D03*
X0088414Y0328664D03*
X0096288Y0328664D03*
X0096288Y0336538D03*
X0104162Y0328664D03*
X0104162Y0320790D03*
X0096288Y0320790D03*
X0088414Y0320790D03*
X0080540Y0320790D03*
X0072666Y0320790D03*
X0064792Y0320790D03*
X0056918Y0320790D03*
X0049044Y0320790D03*
X0041170Y0320790D03*
X0033296Y0320790D03*
X0025422Y0320790D03*
X0017548Y0320790D03*
X0017548Y0368034D03*
X0017548Y0375908D03*
X0017548Y0383782D03*
X0017548Y0391656D03*
X0017548Y0399530D03*
X0025422Y0399530D03*
X0033296Y0399530D03*
X0041170Y0399530D03*
X0049044Y0399530D03*
X0049044Y0391656D03*
X0041170Y0391656D03*
X0033296Y0391656D03*
X0025422Y0391656D03*
X0025422Y0383782D03*
X0033296Y0383782D03*
X0041170Y0383782D03*
X0049044Y0383782D03*
X0056918Y0383782D03*
X0056918Y0391656D03*
X0056918Y0399530D03*
X0064792Y0399530D03*
X0064792Y0391656D03*
X0064792Y0383782D03*
X0064792Y0375908D03*
X0056918Y0375908D03*
X0049044Y0375908D03*
X0041170Y0375908D03*
X0033296Y0375908D03*
X0025422Y0375908D03*
X0025422Y0368034D03*
X0033296Y0368034D03*
X0041170Y0368034D03*
X0049044Y0368034D03*
X0056918Y0368034D03*
X0064792Y0368034D03*
X0072666Y0368034D03*
X0072666Y0375908D03*
X0072666Y0383782D03*
X0072666Y0391656D03*
X0072666Y0399530D03*
X0080540Y0399530D03*
X0080540Y0391656D03*
X0080540Y0383782D03*
X0080540Y0375908D03*
X0080540Y0368034D03*
X0088414Y0368034D03*
X0088414Y0375908D03*
X0088414Y0383782D03*
X0088414Y0391656D03*
X0088414Y0399530D03*
X0096288Y0399530D03*
X0096288Y0391656D03*
X0096288Y0383782D03*
X0096288Y0375908D03*
X0096288Y0368034D03*
X0104162Y0368034D03*
X0104162Y0375908D03*
X0104162Y0383782D03*
X0104162Y0391656D03*
X0104162Y0399530D03*
X0112036Y0399530D03*
X0112036Y0391656D03*
X0112036Y0383782D03*
X0112036Y0375908D03*
X0112036Y0368034D03*
X0119910Y0368034D03*
X0119910Y0375908D03*
X0119910Y0383782D03*
X0119910Y0391656D03*
X0119910Y0399530D03*
X0127784Y0399530D03*
X0127784Y0391656D03*
X0127784Y0383782D03*
X0127784Y0375908D03*
X0127784Y0368034D03*
X0135658Y0368034D03*
X0135658Y0375908D03*
X0135658Y0383782D03*
X0135658Y0391656D03*
X0135658Y0399530D03*
X0135658Y0411341D03*
X0127784Y0411341D03*
X0119910Y0411341D03*
X0112036Y0411341D03*
X0104162Y0411341D03*
X0096288Y0411341D03*
X0088414Y0411341D03*
X0080540Y0411341D03*
X0072666Y0411341D03*
X0064792Y0411341D03*
X0056918Y0411341D03*
X0049044Y0411341D03*
X0041170Y0411341D03*
X0033296Y0411341D03*
X0025422Y0411341D03*
X0025422Y0419215D03*
X0017548Y0419215D03*
X0017548Y0411341D03*
X0033296Y0419215D03*
X0041170Y0419215D03*
X0049044Y0419215D03*
X0056918Y0419215D03*
X0064792Y0419215D03*
X0072666Y0419215D03*
X0080540Y0419215D03*
X0088414Y0419215D03*
X0096288Y0419215D03*
X0104162Y0419215D03*
X0112036Y0419215D03*
X0119910Y0419215D03*
X0127784Y0419215D03*
X0135658Y0419215D03*
X0147469Y0419215D03*
X0147469Y0411341D03*
X0155343Y0411341D03*
X0155343Y0419215D03*
X0163217Y0419215D03*
X0163217Y0411341D03*
X0171091Y0411341D03*
X0171091Y0419215D03*
X0178965Y0419215D03*
X0178965Y0411341D03*
X0186839Y0411341D03*
X0186839Y0419215D03*
X0194713Y0419215D03*
X0194713Y0411341D03*
X0202587Y0411341D03*
X0202587Y0419215D03*
X0210461Y0419215D03*
X0210461Y0411341D03*
X0218335Y0411341D03*
X0218335Y0419215D03*
X0226209Y0419215D03*
X0226209Y0411341D03*
X0234083Y0411341D03*
X0234083Y0419215D03*
X0241957Y0419215D03*
X0249831Y0419215D03*
X0249831Y0411341D03*
X0241957Y0411341D03*
X0241957Y0399530D03*
X0249831Y0399530D03*
X0249831Y0391656D03*
X0241957Y0391656D03*
X0234083Y0391656D03*
X0226209Y0391656D03*
X0218335Y0391656D03*
X0210461Y0391656D03*
X0202587Y0391656D03*
X0194713Y0391656D03*
X0186839Y0391656D03*
X0178965Y0391656D03*
X0171091Y0391656D03*
X0163217Y0391656D03*
X0155343Y0391656D03*
X0147469Y0391656D03*
X0147469Y0399530D03*
X0155343Y0399530D03*
X0163217Y0399530D03*
X0171091Y0399530D03*
X0178965Y0399530D03*
X0186839Y0399530D03*
X0194713Y0399530D03*
X0202587Y0399530D03*
X0210461Y0399530D03*
X0218335Y0399530D03*
X0226209Y0399530D03*
X0234083Y0399530D03*
X0234083Y0383782D03*
X0226209Y0383782D03*
X0218335Y0383782D03*
X0210461Y0383782D03*
X0202587Y0383782D03*
X0194713Y0383782D03*
X0186839Y0383782D03*
X0178965Y0383782D03*
X0171091Y0383782D03*
X0163217Y0383782D03*
X0155343Y0383782D03*
X0147469Y0383782D03*
X0147469Y0375908D03*
X0147469Y0368034D03*
X0155343Y0368034D03*
X0155343Y0375908D03*
X0163217Y0375908D03*
X0163217Y0368034D03*
X0171091Y0368034D03*
X0171091Y0375908D03*
X0178965Y0375908D03*
X0178965Y0368034D03*
X0186839Y0368034D03*
X0186839Y0375908D03*
X0194713Y0375908D03*
X0194713Y0368034D03*
X0202587Y0368034D03*
X0202587Y0375908D03*
X0210461Y0375908D03*
X0210461Y0368034D03*
X0218335Y0368034D03*
X0218335Y0375908D03*
X0226209Y0375908D03*
X0226209Y0368034D03*
X0234083Y0368034D03*
X0234083Y0375908D03*
X0241957Y0375908D03*
X0249831Y0375908D03*
X0249831Y0383782D03*
X0241957Y0383782D03*
X0257706Y0383782D03*
X0265580Y0383782D03*
X0265580Y0391656D03*
X0265580Y0399530D03*
X0257706Y0399530D03*
X0257706Y0391656D03*
X0257706Y0375908D03*
X0265580Y0375908D03*
X0265580Y0368034D03*
X0257706Y0368034D03*
X0249831Y0368034D03*
X0241957Y0368034D03*
X0241957Y0352286D03*
X0249831Y0352286D03*
X0249831Y0344412D03*
X0241957Y0344412D03*
X0234083Y0344412D03*
X0226209Y0344412D03*
X0218335Y0344412D03*
X0210461Y0344412D03*
X0202587Y0344412D03*
X0194713Y0344412D03*
X0186839Y0344412D03*
X0178965Y0344412D03*
X0171091Y0344412D03*
X0163217Y0344412D03*
X0155343Y0344412D03*
X0147469Y0344412D03*
X0147469Y0352286D03*
X0155343Y0352286D03*
X0163217Y0352286D03*
X0171091Y0352286D03*
X0178965Y0352286D03*
X0186839Y0352286D03*
X0194713Y0352286D03*
X0202587Y0352286D03*
X0210461Y0352286D03*
X0218335Y0352286D03*
X0226209Y0352286D03*
X0234083Y0352286D03*
X0234083Y0336538D03*
X0226209Y0336538D03*
X0218335Y0336538D03*
X0210461Y0336538D03*
X0202587Y0336538D03*
X0194713Y0336538D03*
X0186839Y0336538D03*
X0178965Y0336538D03*
X0171091Y0336538D03*
X0163217Y0336538D03*
X0155343Y0336538D03*
X0147469Y0336538D03*
X0147469Y0328664D03*
X0147469Y0320790D03*
X0155343Y0320790D03*
X0155343Y0328664D03*
X0163217Y0328664D03*
X0163217Y0320790D03*
X0171091Y0320790D03*
X0171091Y0328664D03*
X0178965Y0328664D03*
X0178965Y0320790D03*
X0186839Y0320790D03*
X0186839Y0328664D03*
X0194713Y0328664D03*
X0194713Y0320790D03*
X0202587Y0320790D03*
X0202587Y0328664D03*
X0210461Y0328664D03*
X0210461Y0320790D03*
X0218335Y0320790D03*
X0218335Y0328664D03*
X0226209Y0328664D03*
X0226209Y0320790D03*
X0234083Y0320790D03*
X0234083Y0328664D03*
X0241957Y0328664D03*
X0249831Y0328664D03*
X0249831Y0336538D03*
X0241957Y0336538D03*
X0257706Y0336538D03*
X0265580Y0336538D03*
X0265580Y0344412D03*
X0265580Y0352286D03*
X0257706Y0352286D03*
X0257706Y0344412D03*
X0257706Y0328664D03*
X0265580Y0328664D03*
X0265580Y0320790D03*
X0257706Y0320790D03*
X0249831Y0320790D03*
X0241957Y0320790D03*
X0241957Y0308979D03*
X0249831Y0308979D03*
X0249831Y0301105D03*
X0241957Y0301105D03*
X0234083Y0301105D03*
X0226209Y0301105D03*
X0218335Y0301105D03*
X0210461Y0301105D03*
X0202587Y0301105D03*
X0194713Y0301105D03*
X0186839Y0301105D03*
X0178965Y0301105D03*
X0171091Y0301105D03*
X0163217Y0301105D03*
X0155343Y0301105D03*
X0147469Y0301105D03*
X0147469Y0308979D03*
X0155343Y0308979D03*
X0163217Y0308979D03*
X0171091Y0308979D03*
X0178965Y0308979D03*
X0186839Y0308979D03*
X0194713Y0308979D03*
X0202587Y0308979D03*
X0210461Y0308979D03*
X0218335Y0308979D03*
X0226209Y0308979D03*
X0234083Y0308979D03*
X0257706Y0308979D03*
X0265580Y0308979D03*
X0265580Y0301105D03*
X0257706Y0301105D03*
X0269517Y0289294D03*
X0277391Y0289294D03*
X0277391Y0281420D03*
X0277391Y0273546D03*
X0277391Y0265672D03*
X0277391Y0257798D03*
X0277391Y0249924D03*
X0277391Y0242050D03*
X0269517Y0242050D03*
X0269517Y0249924D03*
X0269517Y0257798D03*
X0269517Y0265672D03*
X0269517Y0273546D03*
X0269517Y0281420D03*
X0289202Y0281420D03*
X0297076Y0281420D03*
X0304950Y0281420D03*
X0312824Y0281420D03*
X0320698Y0281420D03*
X0320698Y0289294D03*
X0312824Y0289294D03*
X0304950Y0289294D03*
X0297076Y0289294D03*
X0289202Y0289294D03*
X0293139Y0301105D03*
X0301013Y0301105D03*
X0308887Y0301105D03*
X0316761Y0301105D03*
X0324635Y0301105D03*
X0332509Y0301105D03*
X0340383Y0301105D03*
X0348257Y0301105D03*
X0356131Y0301105D03*
X0364005Y0301105D03*
X0364005Y0308979D03*
X0371879Y0308979D03*
X0379753Y0308979D03*
X0387627Y0308979D03*
X0395501Y0308979D03*
X0395501Y0301105D03*
X0387627Y0301105D03*
X0379753Y0301105D03*
X0371879Y0301105D03*
X0367942Y0289294D03*
X0360068Y0289294D03*
X0352194Y0289294D03*
X0344320Y0289294D03*
X0344320Y0281420D03*
X0352194Y0281420D03*
X0360068Y0281420D03*
X0367942Y0281420D03*
X0367942Y0273546D03*
X0360068Y0273546D03*
X0352194Y0273546D03*
X0344320Y0273546D03*
X0336446Y0273546D03*
X0336446Y0281420D03*
X0336446Y0289294D03*
X0320698Y0273546D03*
X0320698Y0265672D03*
X0320698Y0257798D03*
X0320698Y0249924D03*
X0312824Y0249924D03*
X0312824Y0257798D03*
X0312824Y0265672D03*
X0312824Y0273546D03*
X0304950Y0273546D03*
X0304950Y0265672D03*
X0304950Y0257798D03*
X0304950Y0249924D03*
X0304950Y0242050D03*
X0312824Y0242050D03*
X0320698Y0242050D03*
X0336446Y0242050D03*
X0336446Y0249924D03*
X0336446Y0257798D03*
X0336446Y0265672D03*
X0344320Y0265672D03*
X0352194Y0265672D03*
X0352194Y0257798D03*
X0344320Y0257798D03*
X0344320Y0249924D03*
X0352194Y0249924D03*
X0360068Y0249924D03*
X0360068Y0257798D03*
X0360068Y0265672D03*
X0367942Y0265672D03*
X0367942Y0257798D03*
X0367942Y0249924D03*
X0367942Y0242050D03*
X0360068Y0242050D03*
X0352194Y0242050D03*
X0344320Y0242050D03*
X0379753Y0242050D03*
X0379753Y0249924D03*
X0379753Y0257798D03*
X0379753Y0265672D03*
X0379753Y0273546D03*
X0379753Y0281420D03*
X0379753Y0289294D03*
X0387627Y0289294D03*
X0387627Y0281420D03*
X0387627Y0273546D03*
X0387627Y0265672D03*
X0387627Y0257798D03*
X0387627Y0249924D03*
X0387627Y0242050D03*
X0356131Y0308979D03*
X0348257Y0308979D03*
X0340383Y0308979D03*
X0332509Y0308979D03*
X0324635Y0308979D03*
X0316761Y0308979D03*
X0308887Y0308979D03*
X0301013Y0308979D03*
X0293139Y0308979D03*
X0285265Y0308979D03*
X0285265Y0301105D03*
X0277391Y0301105D03*
X0277391Y0308979D03*
X0277391Y0320790D03*
X0285265Y0320790D03*
X0293139Y0320790D03*
X0301013Y0320790D03*
X0308887Y0320790D03*
X0316761Y0320790D03*
X0324635Y0320790D03*
X0332509Y0320790D03*
X0340383Y0320790D03*
X0348257Y0320790D03*
X0356131Y0320790D03*
X0364005Y0320790D03*
X0371879Y0320790D03*
X0379753Y0320790D03*
X0387627Y0320790D03*
X0387627Y0328664D03*
X0395501Y0328664D03*
X0395501Y0336538D03*
X0395501Y0344412D03*
X0395501Y0352286D03*
X0387627Y0352286D03*
X0387627Y0344412D03*
X0387627Y0336538D03*
X0379753Y0336538D03*
X0379753Y0344412D03*
X0379753Y0352286D03*
X0371879Y0352286D03*
X0371879Y0344412D03*
X0371879Y0336538D03*
X0371879Y0328664D03*
X0379753Y0328664D03*
X0364005Y0328664D03*
X0364005Y0336538D03*
X0364005Y0344412D03*
X0364005Y0352286D03*
X0356131Y0352286D03*
X0348257Y0352286D03*
X0348257Y0344412D03*
X0356131Y0344412D03*
X0356131Y0336538D03*
X0348257Y0336538D03*
X0348257Y0328664D03*
X0356131Y0328664D03*
X0340383Y0328664D03*
X0340383Y0336538D03*
X0340383Y0344412D03*
X0340383Y0352286D03*
X0332509Y0352286D03*
X0332509Y0344412D03*
X0332509Y0336538D03*
X0332509Y0328664D03*
X0324635Y0328664D03*
X0324635Y0336538D03*
X0324635Y0344412D03*
X0324635Y0352286D03*
X0316761Y0352286D03*
X0316761Y0344412D03*
X0316761Y0336538D03*
X0316761Y0328664D03*
X0308887Y0328664D03*
X0308887Y0336538D03*
X0308887Y0344412D03*
X0308887Y0352286D03*
X0301013Y0352286D03*
X0301013Y0344412D03*
X0301013Y0336538D03*
X0301013Y0328664D03*
X0293139Y0328664D03*
X0293139Y0336538D03*
X0293139Y0344412D03*
X0293139Y0352286D03*
X0285265Y0352286D03*
X0285265Y0344412D03*
X0285265Y0336538D03*
X0285265Y0328664D03*
X0277391Y0328664D03*
X0277391Y0336538D03*
X0277391Y0344412D03*
X0277391Y0352286D03*
X0277391Y0368034D03*
X0285265Y0368034D03*
X0293139Y0368034D03*
X0301013Y0368034D03*
X0308887Y0368034D03*
X0316761Y0368034D03*
X0324635Y0368034D03*
X0332509Y0368034D03*
X0340383Y0368034D03*
X0348257Y0368034D03*
X0356131Y0368034D03*
X0364005Y0368034D03*
X0371879Y0368034D03*
X0379753Y0368034D03*
X0387627Y0368034D03*
X0395501Y0368034D03*
X0395501Y0375908D03*
X0395501Y0383782D03*
X0395501Y0391656D03*
X0395501Y0399530D03*
X0387627Y0399530D03*
X0387627Y0391656D03*
X0387627Y0383782D03*
X0387627Y0375908D03*
X0379753Y0375908D03*
X0379753Y0383782D03*
X0379753Y0391656D03*
X0379753Y0399530D03*
X0371879Y0399530D03*
X0371879Y0391656D03*
X0371879Y0383782D03*
X0371879Y0375908D03*
X0364005Y0375908D03*
X0364005Y0383782D03*
X0364005Y0391656D03*
X0364005Y0399530D03*
X0356131Y0399530D03*
X0348257Y0399530D03*
X0348257Y0391656D03*
X0356131Y0391656D03*
X0356131Y0383782D03*
X0348257Y0383782D03*
X0348257Y0375908D03*
X0356131Y0375908D03*
X0340383Y0375908D03*
X0340383Y0383782D03*
X0340383Y0391656D03*
X0340383Y0399530D03*
X0332509Y0399530D03*
X0332509Y0391656D03*
X0332509Y0383782D03*
X0332509Y0375908D03*
X0324635Y0375908D03*
X0324635Y0383782D03*
X0324635Y0391656D03*
X0324635Y0399530D03*
X0316761Y0399530D03*
X0316761Y0391656D03*
X0316761Y0383782D03*
X0316761Y0375908D03*
X0308887Y0375908D03*
X0308887Y0383782D03*
X0308887Y0391656D03*
X0308887Y0399530D03*
X0301013Y0399530D03*
X0301013Y0391656D03*
X0301013Y0383782D03*
X0301013Y0375908D03*
X0293139Y0375908D03*
X0293139Y0383782D03*
X0293139Y0391656D03*
X0293139Y0399530D03*
X0285265Y0399530D03*
X0285265Y0391656D03*
X0285265Y0383782D03*
X0285265Y0375908D03*
X0277391Y0375908D03*
X0277391Y0383782D03*
X0277391Y0391656D03*
X0277391Y0399530D03*
X0277391Y0411341D03*
X0285265Y0411341D03*
X0293139Y0411341D03*
X0301013Y0411341D03*
X0308887Y0411341D03*
X0316761Y0411341D03*
X0324635Y0411341D03*
X0332509Y0411341D03*
X0340383Y0411341D03*
X0348257Y0411341D03*
X0356131Y0411341D03*
X0364005Y0411341D03*
X0371879Y0411341D03*
X0379753Y0411341D03*
X0387627Y0411341D03*
X0395501Y0411341D03*
X0395501Y0419215D03*
X0387627Y0419215D03*
X0379753Y0419215D03*
X0371879Y0419215D03*
X0364005Y0419215D03*
X0356131Y0419215D03*
X0348257Y0419215D03*
X0340383Y0419215D03*
X0332509Y0419215D03*
X0324635Y0419215D03*
X0316761Y0419215D03*
X0308887Y0419215D03*
X0301013Y0419215D03*
X0293139Y0419215D03*
X0285265Y0419215D03*
X0277391Y0419215D03*
X0265580Y0419215D03*
X0265580Y0411341D03*
X0257706Y0411341D03*
X0257706Y0419215D03*
X0135658Y0352286D03*
X0127784Y0352286D03*
X0119910Y0352286D03*
X0112036Y0352286D03*
X0104162Y0352286D03*
X0112036Y0344412D03*
X0119910Y0344412D03*
X0119910Y0336538D03*
X0127784Y0336538D03*
X0127784Y0344412D03*
X0135658Y0344412D03*
X0135658Y0336538D03*
X0135658Y0328664D03*
X0127784Y0328664D03*
X0127784Y0320790D03*
X0135658Y0320790D03*
X0112036Y0320790D03*
X0289202Y0273546D03*
X0297076Y0273546D03*
X0297076Y0265672D03*
X0297076Y0257798D03*
X0297076Y0249924D03*
X0297076Y0242050D03*
X0289202Y0242050D03*
X0289202Y0249924D03*
X0289202Y0257798D03*
X0289202Y0265672D03*
X0395501Y0320790D03*
M02*
