G75*
%MOIN*%
%OFA0B0*%
%FSLAX25Y25*%
%IPPOS*%
%LPD*%
%AMOC8*
5,1,8,0,0,1.08239X$1,22.5*
%
%ADD10C,0.00000*%
%ADD11C,0.00500*%
%ADD12C,0.00000*%
%ADD13C,0.39370*%
%ADD14C,0.01600*%
%ADD15C,0.01200*%
%ADD16C,0.01000*%
%ADD17R,0.05718X0.06506*%
%ADD18C,0.01820*%
%ADD19OC8,0.10650*%
%ADD20OC8,0.05400*%
%ADD21C,0.05400*%
%ADD22C,0.13600*%
%ADD23C,0.08000*%
%ADD24OC8,0.08000*%
%ADD25C,0.06506*%
%ADD26C,0.05400*%
%ADD27OC8,0.10600*%
%ADD28C,0.05324*%
%ADD29C,0.09458*%
%ADD30C,0.06600*%
%ADD31C,0.04362*%
D10*
X0099241Y0163309D02*
X0099252Y0164203D01*
X0099285Y0165096D01*
X0099340Y0165988D01*
X0099416Y0166878D01*
X0099515Y0167767D01*
X0099635Y0168652D01*
X0099777Y0169535D01*
X0099941Y0170414D01*
X0100126Y0171288D01*
X0100332Y0172158D01*
X0100560Y0173022D01*
X0100809Y0173880D01*
X0101079Y0174732D01*
X0101370Y0175578D01*
X0101681Y0176415D01*
X0102013Y0177245D01*
X0102365Y0178067D01*
X0102737Y0178879D01*
X0103129Y0179682D01*
X0103541Y0180476D01*
X0103972Y0181259D01*
X0104422Y0182031D01*
X0104891Y0182792D01*
X0105378Y0183541D01*
X0105884Y0184278D01*
X0106408Y0185003D01*
X0106949Y0185714D01*
X0107507Y0186412D01*
X0108083Y0187096D01*
X0108675Y0187765D01*
X0109283Y0188420D01*
X0109907Y0189060D01*
X0110547Y0189684D01*
X0111202Y0190292D01*
X0111871Y0190884D01*
X0112555Y0191460D01*
X0113253Y0192018D01*
X0113964Y0192559D01*
X0114689Y0193083D01*
X0115426Y0193589D01*
X0116175Y0194076D01*
X0116936Y0194545D01*
X0117708Y0194995D01*
X0118491Y0195426D01*
X0119285Y0195838D01*
X0120088Y0196230D01*
X0120900Y0196602D01*
X0121722Y0196954D01*
X0122552Y0197286D01*
X0123389Y0197597D01*
X0124235Y0197888D01*
X0125087Y0198158D01*
X0125945Y0198407D01*
X0126809Y0198635D01*
X0127679Y0198841D01*
X0128553Y0199026D01*
X0129432Y0199190D01*
X0130315Y0199332D01*
X0131200Y0199452D01*
X0132089Y0199551D01*
X0132979Y0199627D01*
X0133871Y0199682D01*
X0134764Y0199715D01*
X0135658Y0199726D01*
X0136552Y0199715D01*
X0137445Y0199682D01*
X0138337Y0199627D01*
X0139227Y0199551D01*
X0140116Y0199452D01*
X0141001Y0199332D01*
X0141884Y0199190D01*
X0142763Y0199026D01*
X0143637Y0198841D01*
X0144507Y0198635D01*
X0145371Y0198407D01*
X0146229Y0198158D01*
X0147081Y0197888D01*
X0147927Y0197597D01*
X0148764Y0197286D01*
X0149594Y0196954D01*
X0150416Y0196602D01*
X0151228Y0196230D01*
X0152031Y0195838D01*
X0152825Y0195426D01*
X0153608Y0194995D01*
X0154380Y0194545D01*
X0155141Y0194076D01*
X0155890Y0193589D01*
X0156627Y0193083D01*
X0157352Y0192559D01*
X0158063Y0192018D01*
X0158761Y0191460D01*
X0159445Y0190884D01*
X0160114Y0190292D01*
X0160769Y0189684D01*
X0161409Y0189060D01*
X0162033Y0188420D01*
X0162641Y0187765D01*
X0163233Y0187096D01*
X0163809Y0186412D01*
X0164367Y0185714D01*
X0164908Y0185003D01*
X0165432Y0184278D01*
X0165938Y0183541D01*
X0166425Y0182792D01*
X0166894Y0182031D01*
X0167344Y0181259D01*
X0167775Y0180476D01*
X0168187Y0179682D01*
X0168579Y0178879D01*
X0168951Y0178067D01*
X0169303Y0177245D01*
X0169635Y0176415D01*
X0169946Y0175578D01*
X0170237Y0174732D01*
X0170507Y0173880D01*
X0170756Y0173022D01*
X0170984Y0172158D01*
X0171190Y0171288D01*
X0171375Y0170414D01*
X0171539Y0169535D01*
X0171681Y0168652D01*
X0171801Y0167767D01*
X0171900Y0166878D01*
X0171976Y0165988D01*
X0172031Y0165096D01*
X0172064Y0164203D01*
X0172075Y0163309D01*
X0172064Y0162415D01*
X0172031Y0161522D01*
X0171976Y0160630D01*
X0171900Y0159740D01*
X0171801Y0158851D01*
X0171681Y0157966D01*
X0171539Y0157083D01*
X0171375Y0156204D01*
X0171190Y0155330D01*
X0170984Y0154460D01*
X0170756Y0153596D01*
X0170507Y0152738D01*
X0170237Y0151886D01*
X0169946Y0151040D01*
X0169635Y0150203D01*
X0169303Y0149373D01*
X0168951Y0148551D01*
X0168579Y0147739D01*
X0168187Y0146936D01*
X0167775Y0146142D01*
X0167344Y0145359D01*
X0166894Y0144587D01*
X0166425Y0143826D01*
X0165938Y0143077D01*
X0165432Y0142340D01*
X0164908Y0141615D01*
X0164367Y0140904D01*
X0163809Y0140206D01*
X0163233Y0139522D01*
X0162641Y0138853D01*
X0162033Y0138198D01*
X0161409Y0137558D01*
X0160769Y0136934D01*
X0160114Y0136326D01*
X0159445Y0135734D01*
X0158761Y0135158D01*
X0158063Y0134600D01*
X0157352Y0134059D01*
X0156627Y0133535D01*
X0155890Y0133029D01*
X0155141Y0132542D01*
X0154380Y0132073D01*
X0153608Y0131623D01*
X0152825Y0131192D01*
X0152031Y0130780D01*
X0151228Y0130388D01*
X0150416Y0130016D01*
X0149594Y0129664D01*
X0148764Y0129332D01*
X0147927Y0129021D01*
X0147081Y0128730D01*
X0146229Y0128460D01*
X0145371Y0128211D01*
X0144507Y0127983D01*
X0143637Y0127777D01*
X0142763Y0127592D01*
X0141884Y0127428D01*
X0141001Y0127286D01*
X0140116Y0127166D01*
X0139227Y0127067D01*
X0138337Y0126991D01*
X0137445Y0126936D01*
X0136552Y0126903D01*
X0135658Y0126892D01*
X0134764Y0126903D01*
X0133871Y0126936D01*
X0132979Y0126991D01*
X0132089Y0127067D01*
X0131200Y0127166D01*
X0130315Y0127286D01*
X0129432Y0127428D01*
X0128553Y0127592D01*
X0127679Y0127777D01*
X0126809Y0127983D01*
X0125945Y0128211D01*
X0125087Y0128460D01*
X0124235Y0128730D01*
X0123389Y0129021D01*
X0122552Y0129332D01*
X0121722Y0129664D01*
X0120900Y0130016D01*
X0120088Y0130388D01*
X0119285Y0130780D01*
X0118491Y0131192D01*
X0117708Y0131623D01*
X0116936Y0132073D01*
X0116175Y0132542D01*
X0115426Y0133029D01*
X0114689Y0133535D01*
X0113964Y0134059D01*
X0113253Y0134600D01*
X0112555Y0135158D01*
X0111871Y0135734D01*
X0111202Y0136326D01*
X0110547Y0136934D01*
X0109907Y0137558D01*
X0109283Y0138198D01*
X0108675Y0138853D01*
X0108083Y0139522D01*
X0107507Y0140206D01*
X0106949Y0140904D01*
X0106408Y0141615D01*
X0105884Y0142340D01*
X0105378Y0143077D01*
X0104891Y0143826D01*
X0104422Y0144587D01*
X0103972Y0145359D01*
X0103541Y0146142D01*
X0103129Y0146936D01*
X0102737Y0147739D01*
X0102365Y0148551D01*
X0102013Y0149373D01*
X0101681Y0150203D01*
X0101370Y0151040D01*
X0101079Y0151886D01*
X0100809Y0152738D01*
X0100560Y0153596D01*
X0100332Y0154460D01*
X0100126Y0155330D01*
X0099941Y0156204D01*
X0099777Y0157083D01*
X0099635Y0157966D01*
X0099515Y0158851D01*
X0099416Y0159740D01*
X0099340Y0160630D01*
X0099285Y0161522D01*
X0099252Y0162415D01*
X0099241Y0163309D01*
D11*
X0116876Y0161508D02*
X0117778Y0160607D01*
X0119581Y0160607D01*
X0120483Y0161508D01*
X0122314Y0161508D02*
X0123216Y0160607D01*
X0125019Y0160607D01*
X0125921Y0161508D01*
X0125921Y0166017D01*
X0127752Y0166017D02*
X0131358Y0166017D01*
X0129555Y0166017D02*
X0129555Y0160607D01*
X0122314Y0161508D02*
X0122314Y0166017D01*
X0120483Y0165115D02*
X0119581Y0166017D01*
X0117778Y0166017D01*
X0116876Y0165115D01*
X0116876Y0161508D01*
X0138627Y0161508D02*
X0139529Y0160607D01*
X0141332Y0160607D01*
X0142234Y0161508D01*
X0142234Y0165115D01*
X0141332Y0166017D01*
X0139529Y0166017D01*
X0138627Y0165115D01*
X0138627Y0161508D01*
X0144065Y0161508D02*
X0144966Y0160607D01*
X0146770Y0160607D01*
X0147672Y0161508D01*
X0147672Y0166017D01*
X0149503Y0166017D02*
X0153109Y0166017D01*
X0151306Y0166017D02*
X0151306Y0160607D01*
X0144065Y0161508D02*
X0144065Y0166017D01*
X0144966Y0261985D02*
X0146770Y0261985D01*
X0147672Y0262886D01*
X0147672Y0267395D01*
X0149503Y0267395D02*
X0153109Y0267395D01*
X0151306Y0267395D02*
X0151306Y0261985D01*
X0144966Y0261985D02*
X0144065Y0262886D01*
X0144065Y0267395D01*
X0142234Y0266493D02*
X0142234Y0262886D01*
X0141332Y0261985D01*
X0139529Y0261985D01*
X0138627Y0262886D01*
X0138627Y0266493D01*
X0139529Y0267395D01*
X0141332Y0267395D01*
X0142234Y0266493D01*
X0131358Y0267395D02*
X0127752Y0267395D01*
X0129555Y0267395D02*
X0129555Y0261985D01*
X0125921Y0262886D02*
X0125921Y0267395D01*
X0122314Y0267395D02*
X0122314Y0262886D01*
X0123216Y0261985D01*
X0125019Y0261985D01*
X0125921Y0262886D01*
X0120483Y0262886D02*
X0119581Y0261985D01*
X0117778Y0261985D01*
X0116876Y0262886D01*
X0116876Y0266493D01*
X0117778Y0267395D01*
X0119581Y0267395D01*
X0120483Y0266493D01*
X0119581Y0064639D02*
X0117778Y0064639D01*
X0116876Y0063737D01*
X0116876Y0060130D01*
X0117778Y0059229D01*
X0119581Y0059229D01*
X0120483Y0060130D01*
X0122314Y0060130D02*
X0123216Y0059229D01*
X0125019Y0059229D01*
X0125921Y0060130D01*
X0125921Y0064639D01*
X0127752Y0064639D02*
X0131358Y0064639D01*
X0129555Y0064639D02*
X0129555Y0059229D01*
X0122314Y0060130D02*
X0122314Y0064639D01*
X0120483Y0063737D02*
X0119581Y0064639D01*
X0138627Y0063737D02*
X0138627Y0060130D01*
X0139529Y0059229D01*
X0141332Y0059229D01*
X0142234Y0060130D01*
X0142234Y0063737D01*
X0141332Y0064639D01*
X0139529Y0064639D01*
X0138627Y0063737D01*
X0144065Y0064639D02*
X0144065Y0060130D01*
X0144966Y0059229D01*
X0146770Y0059229D01*
X0147672Y0060130D01*
X0147672Y0064639D01*
X0149503Y0064639D02*
X0153109Y0064639D01*
X0151306Y0064639D02*
X0151306Y0059229D01*
D12*
X0187596Y0089134D02*
X0187812Y0089281D01*
X0188032Y0089424D01*
X0188255Y0089560D01*
X0188481Y0089692D01*
X0188710Y0089818D01*
X0188943Y0089938D01*
X0189178Y0090053D01*
X0189416Y0090162D01*
X0189656Y0090265D01*
X0189899Y0090362D01*
X0190144Y0090454D01*
X0190391Y0090539D01*
X0190640Y0090619D01*
X0190892Y0090692D01*
X0191144Y0090760D01*
X0191399Y0090821D01*
X0191655Y0090876D01*
X0191912Y0090925D01*
X0192170Y0090968D01*
X0192429Y0091004D01*
X0192689Y0091034D01*
X0192949Y0091058D01*
X0193210Y0091076D01*
X0193472Y0091087D01*
X0193733Y0091092D01*
X0193995Y0091090D01*
X0194256Y0091083D01*
X0194518Y0091069D01*
X0194779Y0091048D01*
X0195039Y0091022D01*
X0195298Y0090989D01*
X0195557Y0090949D01*
X0195815Y0090904D01*
X0196071Y0090852D01*
X0196326Y0090795D01*
X0196580Y0090731D01*
X0196832Y0090660D01*
X0197083Y0090584D01*
X0197331Y0090502D01*
X0197577Y0090414D01*
X0197821Y0090320D01*
X0198063Y0090220D01*
X0198303Y0090114D01*
X0198539Y0090003D01*
X0198773Y0089885D01*
X0199004Y0089763D01*
X0199232Y0089634D01*
X0199457Y0089500D01*
X0199678Y0089361D01*
X0199896Y0089217D01*
X0200111Y0089067D01*
X0200322Y0088912D01*
X0200529Y0088752D01*
X0200732Y0088587D01*
X0200931Y0088417D01*
X0201126Y0088243D01*
X0201317Y0088063D01*
X0201503Y0087880D01*
X0201685Y0087691D01*
X0201862Y0087499D01*
X0202034Y0087302D01*
X0202202Y0087101D01*
X0202365Y0086896D01*
X0202522Y0086688D01*
X0202675Y0086475D01*
X0202822Y0086259D01*
X0202965Y0086039D01*
X0203101Y0085816D01*
X0203233Y0085590D01*
X0203359Y0085361D01*
X0203479Y0085128D01*
X0203594Y0084893D01*
X0203703Y0084655D01*
X0203806Y0084415D01*
X0203903Y0084172D01*
X0203995Y0083927D01*
X0204080Y0083680D01*
X0204160Y0083431D01*
X0204233Y0083179D01*
X0204301Y0082927D01*
X0204362Y0082672D01*
X0204417Y0082416D01*
X0204466Y0082159D01*
X0204509Y0081901D01*
X0204545Y0081642D01*
X0204575Y0081382D01*
X0204599Y0081122D01*
X0204617Y0080861D01*
X0204628Y0080599D01*
X0204633Y0080338D01*
X0204631Y0080076D01*
X0204624Y0079815D01*
X0204610Y0079553D01*
X0204589Y0079292D01*
X0204563Y0079032D01*
X0204530Y0078773D01*
X0204490Y0078514D01*
X0204445Y0078256D01*
X0204393Y0078000D01*
X0204336Y0077745D01*
X0204272Y0077491D01*
X0204201Y0077239D01*
X0204125Y0076988D01*
X0204043Y0076740D01*
X0203955Y0076494D01*
X0203861Y0076250D01*
X0203761Y0076008D01*
X0203655Y0075768D01*
X0203544Y0075532D01*
X0203426Y0075298D01*
X0203304Y0075067D01*
X0203175Y0074839D01*
X0203041Y0074614D01*
X0202902Y0074393D01*
X0202758Y0074175D01*
X0202608Y0073960D01*
X0202453Y0073749D01*
X0202293Y0073542D01*
X0202128Y0073339D01*
X0201958Y0073140D01*
X0201784Y0072945D01*
X0201604Y0072754D01*
X0201421Y0072568D01*
X0201232Y0072386D01*
X0201040Y0072209D01*
X0200843Y0072037D01*
X0200642Y0071869D01*
X0200437Y0071706D01*
X0200229Y0071549D01*
X0200016Y0071396D01*
X0197751Y0069851D01*
X0195449Y0068362D01*
X0193112Y0066929D01*
X0190740Y0065554D01*
X0188335Y0064238D01*
X0185899Y0062980D01*
X0183433Y0061783D01*
X0180938Y0060646D01*
X0178416Y0059570D01*
X0175869Y0058557D01*
X0173297Y0057605D01*
X0170704Y0056717D01*
X0168089Y0055893D01*
X0165455Y0055133D01*
X0162803Y0054437D01*
X0160135Y0053806D01*
X0157452Y0053241D01*
X0154756Y0052741D01*
X0152049Y0052308D01*
X0149332Y0051940D01*
X0146607Y0051640D01*
X0143876Y0051405D01*
X0141139Y0051238D01*
X0138399Y0051137D01*
X0135658Y0051104D01*
X0132917Y0051137D01*
X0130177Y0051238D01*
X0127440Y0051405D01*
X0124709Y0051640D01*
X0121984Y0051940D01*
X0119267Y0052308D01*
X0116560Y0052741D01*
X0113864Y0053241D01*
X0111181Y0053806D01*
X0108513Y0054437D01*
X0105861Y0055133D01*
X0103227Y0055893D01*
X0100612Y0056717D01*
X0098019Y0057605D01*
X0095447Y0058557D01*
X0092900Y0059570D01*
X0090378Y0060646D01*
X0087883Y0061783D01*
X0085417Y0062980D01*
X0082981Y0064238D01*
X0080576Y0065554D01*
X0078204Y0066929D01*
X0075867Y0068362D01*
X0073565Y0069851D01*
X0071300Y0071396D01*
X0071087Y0071549D01*
X0070879Y0071706D01*
X0070674Y0071869D01*
X0070473Y0072037D01*
X0070276Y0072209D01*
X0070084Y0072386D01*
X0069895Y0072568D01*
X0069712Y0072754D01*
X0069532Y0072945D01*
X0069358Y0073140D01*
X0069188Y0073339D01*
X0069023Y0073542D01*
X0068863Y0073749D01*
X0068708Y0073960D01*
X0068558Y0074175D01*
X0068414Y0074393D01*
X0068275Y0074614D01*
X0068141Y0074839D01*
X0068012Y0075067D01*
X0067890Y0075298D01*
X0067772Y0075532D01*
X0067661Y0075768D01*
X0067555Y0076008D01*
X0067455Y0076250D01*
X0067361Y0076494D01*
X0067273Y0076740D01*
X0067191Y0076988D01*
X0067115Y0077239D01*
X0067044Y0077491D01*
X0066980Y0077745D01*
X0066923Y0078000D01*
X0066871Y0078256D01*
X0066826Y0078514D01*
X0066786Y0078773D01*
X0066753Y0079032D01*
X0066727Y0079292D01*
X0066706Y0079553D01*
X0066692Y0079815D01*
X0066685Y0080076D01*
X0066683Y0080338D01*
X0066688Y0080599D01*
X0066699Y0080861D01*
X0066717Y0081122D01*
X0066741Y0081382D01*
X0066771Y0081642D01*
X0066807Y0081901D01*
X0066850Y0082159D01*
X0066899Y0082416D01*
X0066954Y0082672D01*
X0067015Y0082927D01*
X0067083Y0083179D01*
X0067156Y0083431D01*
X0067236Y0083680D01*
X0067321Y0083927D01*
X0067413Y0084172D01*
X0067510Y0084415D01*
X0067613Y0084655D01*
X0067722Y0084893D01*
X0067837Y0085128D01*
X0067957Y0085361D01*
X0068083Y0085590D01*
X0068215Y0085816D01*
X0068351Y0086039D01*
X0068494Y0086259D01*
X0068641Y0086475D01*
X0068794Y0086688D01*
X0068951Y0086896D01*
X0069114Y0087101D01*
X0069282Y0087302D01*
X0069454Y0087499D01*
X0069631Y0087691D01*
X0069813Y0087880D01*
X0069999Y0088063D01*
X0070190Y0088243D01*
X0070385Y0088417D01*
X0070584Y0088587D01*
X0070787Y0088752D01*
X0070994Y0088912D01*
X0071205Y0089067D01*
X0071420Y0089217D01*
X0071638Y0089361D01*
X0071859Y0089500D01*
X0072084Y0089634D01*
X0072312Y0089763D01*
X0072543Y0089885D01*
X0072777Y0090003D01*
X0073013Y0090114D01*
X0073253Y0090220D01*
X0073495Y0090320D01*
X0073739Y0090414D01*
X0073985Y0090502D01*
X0074233Y0090584D01*
X0074484Y0090660D01*
X0074736Y0090731D01*
X0074990Y0090795D01*
X0075245Y0090852D01*
X0075501Y0090904D01*
X0075759Y0090949D01*
X0076018Y0090989D01*
X0076277Y0091022D01*
X0076537Y0091048D01*
X0076798Y0091069D01*
X0077060Y0091083D01*
X0077321Y0091090D01*
X0077583Y0091092D01*
X0077844Y0091087D01*
X0078106Y0091076D01*
X0078367Y0091058D01*
X0078627Y0091034D01*
X0078887Y0091004D01*
X0079146Y0090968D01*
X0079404Y0090925D01*
X0079661Y0090876D01*
X0079917Y0090821D01*
X0080172Y0090760D01*
X0080424Y0090692D01*
X0080676Y0090619D01*
X0080925Y0090539D01*
X0081172Y0090454D01*
X0081417Y0090362D01*
X0081660Y0090265D01*
X0081900Y0090162D01*
X0082138Y0090053D01*
X0082373Y0089938D01*
X0082606Y0089818D01*
X0082835Y0089692D01*
X0083061Y0089560D01*
X0083284Y0089424D01*
X0083504Y0089281D01*
X0083720Y0089134D01*
X0085548Y0087887D01*
X0087406Y0086685D01*
X0089292Y0085529D01*
X0091206Y0084420D01*
X0093147Y0083357D01*
X0095113Y0082342D01*
X0097103Y0081376D01*
X0099117Y0080458D01*
X0101152Y0079590D01*
X0103207Y0078772D01*
X0105283Y0078005D01*
X0107376Y0077288D01*
X0109486Y0076623D01*
X0111612Y0076009D01*
X0113752Y0075448D01*
X0115905Y0074939D01*
X0118070Y0074483D01*
X0120245Y0074079D01*
X0122430Y0073729D01*
X0124623Y0073433D01*
X0126822Y0073190D01*
X0129026Y0073001D01*
X0131235Y0072866D01*
X0133446Y0072785D01*
X0135658Y0072758D01*
X0137870Y0072785D01*
X0140081Y0072866D01*
X0142290Y0073001D01*
X0144494Y0073190D01*
X0146693Y0073433D01*
X0148886Y0073729D01*
X0151071Y0074079D01*
X0153246Y0074483D01*
X0155411Y0074939D01*
X0157564Y0075448D01*
X0159704Y0076009D01*
X0161830Y0076623D01*
X0163940Y0077288D01*
X0166033Y0078005D01*
X0168109Y0078772D01*
X0170164Y0079590D01*
X0172199Y0080458D01*
X0174213Y0081376D01*
X0176203Y0082342D01*
X0178169Y0083357D01*
X0180110Y0084420D01*
X0182024Y0085529D01*
X0183910Y0086685D01*
X0185768Y0087887D01*
X0187596Y0089134D01*
X0200016Y0255222D02*
X0197751Y0256767D01*
X0195449Y0258256D01*
X0193112Y0259689D01*
X0190740Y0261064D01*
X0188335Y0262380D01*
X0185899Y0263638D01*
X0183433Y0264835D01*
X0180938Y0265972D01*
X0178416Y0267048D01*
X0175869Y0268061D01*
X0173297Y0269013D01*
X0170704Y0269901D01*
X0168089Y0270725D01*
X0165455Y0271485D01*
X0162803Y0272181D01*
X0160135Y0272812D01*
X0157452Y0273377D01*
X0154756Y0273877D01*
X0152049Y0274310D01*
X0149332Y0274678D01*
X0146607Y0274978D01*
X0143876Y0275213D01*
X0141139Y0275380D01*
X0138399Y0275481D01*
X0135658Y0275514D01*
X0132917Y0275481D01*
X0130177Y0275380D01*
X0127440Y0275213D01*
X0124709Y0274978D01*
X0121984Y0274678D01*
X0119267Y0274310D01*
X0116560Y0273877D01*
X0113864Y0273377D01*
X0111181Y0272812D01*
X0108513Y0272181D01*
X0105861Y0271485D01*
X0103227Y0270725D01*
X0100612Y0269901D01*
X0098019Y0269013D01*
X0095447Y0268061D01*
X0092900Y0267048D01*
X0090378Y0265972D01*
X0087883Y0264835D01*
X0085417Y0263638D01*
X0082981Y0262380D01*
X0080576Y0261064D01*
X0078204Y0259689D01*
X0075867Y0258256D01*
X0073565Y0256767D01*
X0071300Y0255222D01*
X0071087Y0255069D01*
X0070879Y0254912D01*
X0070674Y0254749D01*
X0070473Y0254581D01*
X0070276Y0254409D01*
X0070084Y0254232D01*
X0069895Y0254050D01*
X0069712Y0253864D01*
X0069532Y0253673D01*
X0069358Y0253478D01*
X0069188Y0253279D01*
X0069023Y0253076D01*
X0068863Y0252869D01*
X0068708Y0252658D01*
X0068558Y0252443D01*
X0068414Y0252225D01*
X0068275Y0252004D01*
X0068141Y0251779D01*
X0068012Y0251551D01*
X0067890Y0251320D01*
X0067772Y0251086D01*
X0067661Y0250850D01*
X0067555Y0250610D01*
X0067455Y0250368D01*
X0067361Y0250124D01*
X0067273Y0249878D01*
X0067191Y0249630D01*
X0067115Y0249379D01*
X0067044Y0249127D01*
X0066980Y0248873D01*
X0066923Y0248618D01*
X0066871Y0248362D01*
X0066826Y0248104D01*
X0066786Y0247845D01*
X0066753Y0247586D01*
X0066727Y0247326D01*
X0066706Y0247065D01*
X0066692Y0246803D01*
X0066685Y0246542D01*
X0066683Y0246280D01*
X0066688Y0246019D01*
X0066699Y0245757D01*
X0066717Y0245496D01*
X0066741Y0245236D01*
X0066771Y0244976D01*
X0066807Y0244717D01*
X0066850Y0244459D01*
X0066899Y0244202D01*
X0066954Y0243946D01*
X0067015Y0243691D01*
X0067083Y0243439D01*
X0067156Y0243187D01*
X0067236Y0242938D01*
X0067321Y0242691D01*
X0067413Y0242446D01*
X0067510Y0242203D01*
X0067613Y0241963D01*
X0067722Y0241725D01*
X0067837Y0241490D01*
X0067957Y0241257D01*
X0068083Y0241028D01*
X0068215Y0240802D01*
X0068351Y0240579D01*
X0068494Y0240359D01*
X0068641Y0240143D01*
X0068794Y0239930D01*
X0068951Y0239722D01*
X0069114Y0239517D01*
X0069282Y0239316D01*
X0069454Y0239119D01*
X0069631Y0238927D01*
X0069813Y0238738D01*
X0069999Y0238555D01*
X0070190Y0238375D01*
X0070385Y0238201D01*
X0070584Y0238031D01*
X0070787Y0237866D01*
X0070994Y0237706D01*
X0071205Y0237551D01*
X0071420Y0237401D01*
X0071638Y0237257D01*
X0071859Y0237118D01*
X0072084Y0236984D01*
X0072312Y0236855D01*
X0072543Y0236733D01*
X0072777Y0236615D01*
X0073013Y0236504D01*
X0073253Y0236398D01*
X0073495Y0236298D01*
X0073739Y0236204D01*
X0073985Y0236116D01*
X0074233Y0236034D01*
X0074484Y0235958D01*
X0074736Y0235887D01*
X0074990Y0235823D01*
X0075245Y0235766D01*
X0075501Y0235714D01*
X0075759Y0235669D01*
X0076018Y0235629D01*
X0076277Y0235596D01*
X0076537Y0235570D01*
X0076798Y0235549D01*
X0077060Y0235535D01*
X0077321Y0235528D01*
X0077583Y0235526D01*
X0077844Y0235531D01*
X0078106Y0235542D01*
X0078367Y0235560D01*
X0078627Y0235584D01*
X0078887Y0235614D01*
X0079146Y0235650D01*
X0079404Y0235693D01*
X0079661Y0235742D01*
X0079917Y0235797D01*
X0080172Y0235858D01*
X0080424Y0235926D01*
X0080676Y0235999D01*
X0080925Y0236079D01*
X0081172Y0236164D01*
X0081417Y0236256D01*
X0081660Y0236353D01*
X0081900Y0236456D01*
X0082138Y0236565D01*
X0082373Y0236680D01*
X0082606Y0236800D01*
X0082835Y0236926D01*
X0083061Y0237058D01*
X0083284Y0237194D01*
X0083504Y0237337D01*
X0083720Y0237484D01*
X0085548Y0238731D01*
X0087406Y0239933D01*
X0089292Y0241089D01*
X0091206Y0242198D01*
X0093147Y0243261D01*
X0095113Y0244276D01*
X0097103Y0245242D01*
X0099117Y0246160D01*
X0101152Y0247028D01*
X0103207Y0247846D01*
X0105283Y0248613D01*
X0107376Y0249330D01*
X0109486Y0249995D01*
X0111612Y0250609D01*
X0113752Y0251170D01*
X0115905Y0251679D01*
X0118070Y0252135D01*
X0120245Y0252539D01*
X0122430Y0252889D01*
X0124623Y0253185D01*
X0126822Y0253428D01*
X0129026Y0253617D01*
X0131235Y0253752D01*
X0133446Y0253833D01*
X0135658Y0253860D01*
X0137870Y0253833D01*
X0140081Y0253752D01*
X0142290Y0253617D01*
X0144494Y0253428D01*
X0146693Y0253185D01*
X0148886Y0252889D01*
X0151071Y0252539D01*
X0153246Y0252135D01*
X0155411Y0251679D01*
X0157564Y0251170D01*
X0159704Y0250609D01*
X0161830Y0249995D01*
X0163940Y0249330D01*
X0166033Y0248613D01*
X0168109Y0247846D01*
X0170164Y0247028D01*
X0172199Y0246160D01*
X0174213Y0245242D01*
X0176203Y0244276D01*
X0178169Y0243261D01*
X0180110Y0242198D01*
X0182024Y0241089D01*
X0183910Y0239933D01*
X0185768Y0238731D01*
X0187596Y0237484D01*
X0187812Y0237337D01*
X0188032Y0237194D01*
X0188255Y0237058D01*
X0188481Y0236926D01*
X0188710Y0236800D01*
X0188943Y0236680D01*
X0189178Y0236565D01*
X0189416Y0236456D01*
X0189656Y0236353D01*
X0189899Y0236256D01*
X0190144Y0236164D01*
X0190391Y0236079D01*
X0190640Y0235999D01*
X0190892Y0235926D01*
X0191144Y0235858D01*
X0191399Y0235797D01*
X0191655Y0235742D01*
X0191912Y0235693D01*
X0192170Y0235650D01*
X0192429Y0235614D01*
X0192689Y0235584D01*
X0192949Y0235560D01*
X0193210Y0235542D01*
X0193472Y0235531D01*
X0193733Y0235526D01*
X0193995Y0235528D01*
X0194256Y0235535D01*
X0194518Y0235549D01*
X0194779Y0235570D01*
X0195039Y0235596D01*
X0195298Y0235629D01*
X0195557Y0235669D01*
X0195815Y0235714D01*
X0196071Y0235766D01*
X0196326Y0235823D01*
X0196580Y0235887D01*
X0196832Y0235958D01*
X0197083Y0236034D01*
X0197331Y0236116D01*
X0197577Y0236204D01*
X0197821Y0236298D01*
X0198063Y0236398D01*
X0198303Y0236504D01*
X0198539Y0236615D01*
X0198773Y0236733D01*
X0199004Y0236855D01*
X0199232Y0236984D01*
X0199457Y0237118D01*
X0199678Y0237257D01*
X0199896Y0237401D01*
X0200111Y0237551D01*
X0200322Y0237706D01*
X0200529Y0237866D01*
X0200732Y0238031D01*
X0200931Y0238201D01*
X0201126Y0238375D01*
X0201317Y0238555D01*
X0201503Y0238738D01*
X0201685Y0238927D01*
X0201862Y0239119D01*
X0202034Y0239316D01*
X0202202Y0239517D01*
X0202365Y0239722D01*
X0202522Y0239930D01*
X0202675Y0240143D01*
X0202822Y0240359D01*
X0202965Y0240579D01*
X0203101Y0240802D01*
X0203233Y0241028D01*
X0203359Y0241257D01*
X0203479Y0241490D01*
X0203594Y0241725D01*
X0203703Y0241963D01*
X0203806Y0242203D01*
X0203903Y0242446D01*
X0203995Y0242691D01*
X0204080Y0242938D01*
X0204160Y0243187D01*
X0204233Y0243439D01*
X0204301Y0243691D01*
X0204362Y0243946D01*
X0204417Y0244202D01*
X0204466Y0244459D01*
X0204509Y0244717D01*
X0204545Y0244976D01*
X0204575Y0245236D01*
X0204599Y0245496D01*
X0204617Y0245757D01*
X0204628Y0246019D01*
X0204633Y0246280D01*
X0204631Y0246542D01*
X0204624Y0246803D01*
X0204610Y0247065D01*
X0204589Y0247326D01*
X0204563Y0247586D01*
X0204530Y0247845D01*
X0204490Y0248104D01*
X0204445Y0248362D01*
X0204393Y0248618D01*
X0204336Y0248873D01*
X0204272Y0249127D01*
X0204201Y0249379D01*
X0204125Y0249630D01*
X0204043Y0249878D01*
X0203955Y0250124D01*
X0203861Y0250368D01*
X0203761Y0250610D01*
X0203655Y0250850D01*
X0203544Y0251086D01*
X0203426Y0251320D01*
X0203304Y0251551D01*
X0203175Y0251779D01*
X0203041Y0252004D01*
X0202902Y0252225D01*
X0202758Y0252443D01*
X0202608Y0252658D01*
X0202453Y0252869D01*
X0202293Y0253076D01*
X0202128Y0253279D01*
X0201958Y0253478D01*
X0201784Y0253673D01*
X0201604Y0253864D01*
X0201421Y0254050D01*
X0201232Y0254232D01*
X0201040Y0254409D01*
X0200843Y0254581D01*
X0200642Y0254749D01*
X0200437Y0254912D01*
X0200229Y0255069D01*
X0200016Y0255222D01*
X0290320Y0215002D02*
X0290322Y0215163D01*
X0290328Y0215323D01*
X0290338Y0215484D01*
X0290352Y0215644D01*
X0290370Y0215804D01*
X0290391Y0215963D01*
X0290417Y0216122D01*
X0290447Y0216280D01*
X0290480Y0216437D01*
X0290518Y0216594D01*
X0290559Y0216749D01*
X0290604Y0216903D01*
X0290653Y0217056D01*
X0290706Y0217208D01*
X0290762Y0217359D01*
X0290823Y0217508D01*
X0290886Y0217656D01*
X0290954Y0217802D01*
X0291025Y0217946D01*
X0291099Y0218088D01*
X0291177Y0218229D01*
X0291259Y0218367D01*
X0291344Y0218504D01*
X0291432Y0218638D01*
X0291524Y0218770D01*
X0291619Y0218900D01*
X0291717Y0219028D01*
X0291818Y0219153D01*
X0291922Y0219275D01*
X0292029Y0219395D01*
X0292139Y0219512D01*
X0292252Y0219627D01*
X0292368Y0219738D01*
X0292487Y0219847D01*
X0292608Y0219952D01*
X0292732Y0220055D01*
X0292858Y0220155D01*
X0292986Y0220251D01*
X0293117Y0220344D01*
X0293251Y0220434D01*
X0293386Y0220521D01*
X0293524Y0220604D01*
X0293663Y0220684D01*
X0293805Y0220760D01*
X0293948Y0220833D01*
X0294093Y0220902D01*
X0294240Y0220968D01*
X0294388Y0221030D01*
X0294538Y0221088D01*
X0294689Y0221143D01*
X0294842Y0221194D01*
X0294996Y0221241D01*
X0295151Y0221284D01*
X0295307Y0221323D01*
X0295463Y0221359D01*
X0295621Y0221390D01*
X0295779Y0221418D01*
X0295938Y0221442D01*
X0296098Y0221462D01*
X0296258Y0221478D01*
X0296418Y0221490D01*
X0296579Y0221498D01*
X0296740Y0221502D01*
X0296900Y0221502D01*
X0297061Y0221498D01*
X0297222Y0221490D01*
X0297382Y0221478D01*
X0297542Y0221462D01*
X0297702Y0221442D01*
X0297861Y0221418D01*
X0298019Y0221390D01*
X0298177Y0221359D01*
X0298333Y0221323D01*
X0298489Y0221284D01*
X0298644Y0221241D01*
X0298798Y0221194D01*
X0298951Y0221143D01*
X0299102Y0221088D01*
X0299252Y0221030D01*
X0299400Y0220968D01*
X0299547Y0220902D01*
X0299692Y0220833D01*
X0299835Y0220760D01*
X0299977Y0220684D01*
X0300116Y0220604D01*
X0300254Y0220521D01*
X0300389Y0220434D01*
X0300523Y0220344D01*
X0300654Y0220251D01*
X0300782Y0220155D01*
X0300908Y0220055D01*
X0301032Y0219952D01*
X0301153Y0219847D01*
X0301272Y0219738D01*
X0301388Y0219627D01*
X0301501Y0219512D01*
X0301611Y0219395D01*
X0301718Y0219275D01*
X0301822Y0219153D01*
X0301923Y0219028D01*
X0302021Y0218900D01*
X0302116Y0218770D01*
X0302208Y0218638D01*
X0302296Y0218504D01*
X0302381Y0218367D01*
X0302463Y0218229D01*
X0302541Y0218088D01*
X0302615Y0217946D01*
X0302686Y0217802D01*
X0302754Y0217656D01*
X0302817Y0217508D01*
X0302878Y0217359D01*
X0302934Y0217208D01*
X0302987Y0217056D01*
X0303036Y0216903D01*
X0303081Y0216749D01*
X0303122Y0216594D01*
X0303160Y0216437D01*
X0303193Y0216280D01*
X0303223Y0216122D01*
X0303249Y0215963D01*
X0303270Y0215804D01*
X0303288Y0215644D01*
X0303302Y0215484D01*
X0303312Y0215323D01*
X0303318Y0215163D01*
X0303320Y0215002D01*
X0303318Y0214841D01*
X0303312Y0214681D01*
X0303302Y0214520D01*
X0303288Y0214360D01*
X0303270Y0214200D01*
X0303249Y0214041D01*
X0303223Y0213882D01*
X0303193Y0213724D01*
X0303160Y0213567D01*
X0303122Y0213410D01*
X0303081Y0213255D01*
X0303036Y0213101D01*
X0302987Y0212948D01*
X0302934Y0212796D01*
X0302878Y0212645D01*
X0302817Y0212496D01*
X0302754Y0212348D01*
X0302686Y0212202D01*
X0302615Y0212058D01*
X0302541Y0211916D01*
X0302463Y0211775D01*
X0302381Y0211637D01*
X0302296Y0211500D01*
X0302208Y0211366D01*
X0302116Y0211234D01*
X0302021Y0211104D01*
X0301923Y0210976D01*
X0301822Y0210851D01*
X0301718Y0210729D01*
X0301611Y0210609D01*
X0301501Y0210492D01*
X0301388Y0210377D01*
X0301272Y0210266D01*
X0301153Y0210157D01*
X0301032Y0210052D01*
X0300908Y0209949D01*
X0300782Y0209849D01*
X0300654Y0209753D01*
X0300523Y0209660D01*
X0300389Y0209570D01*
X0300254Y0209483D01*
X0300116Y0209400D01*
X0299977Y0209320D01*
X0299835Y0209244D01*
X0299692Y0209171D01*
X0299547Y0209102D01*
X0299400Y0209036D01*
X0299252Y0208974D01*
X0299102Y0208916D01*
X0298951Y0208861D01*
X0298798Y0208810D01*
X0298644Y0208763D01*
X0298489Y0208720D01*
X0298333Y0208681D01*
X0298177Y0208645D01*
X0298019Y0208614D01*
X0297861Y0208586D01*
X0297702Y0208562D01*
X0297542Y0208542D01*
X0297382Y0208526D01*
X0297222Y0208514D01*
X0297061Y0208506D01*
X0296900Y0208502D01*
X0296740Y0208502D01*
X0296579Y0208506D01*
X0296418Y0208514D01*
X0296258Y0208526D01*
X0296098Y0208542D01*
X0295938Y0208562D01*
X0295779Y0208586D01*
X0295621Y0208614D01*
X0295463Y0208645D01*
X0295307Y0208681D01*
X0295151Y0208720D01*
X0294996Y0208763D01*
X0294842Y0208810D01*
X0294689Y0208861D01*
X0294538Y0208916D01*
X0294388Y0208974D01*
X0294240Y0209036D01*
X0294093Y0209102D01*
X0293948Y0209171D01*
X0293805Y0209244D01*
X0293663Y0209320D01*
X0293524Y0209400D01*
X0293386Y0209483D01*
X0293251Y0209570D01*
X0293117Y0209660D01*
X0292986Y0209753D01*
X0292858Y0209849D01*
X0292732Y0209949D01*
X0292608Y0210052D01*
X0292487Y0210157D01*
X0292368Y0210266D01*
X0292252Y0210377D01*
X0292139Y0210492D01*
X0292029Y0210609D01*
X0291922Y0210729D01*
X0291818Y0210851D01*
X0291717Y0210976D01*
X0291619Y0211104D01*
X0291524Y0211234D01*
X0291432Y0211366D01*
X0291344Y0211500D01*
X0291259Y0211637D01*
X0291177Y0211775D01*
X0291099Y0211916D01*
X0291025Y0212058D01*
X0290954Y0212202D01*
X0290886Y0212348D01*
X0290823Y0212496D01*
X0290762Y0212645D01*
X0290706Y0212796D01*
X0290653Y0212948D01*
X0290604Y0213101D01*
X0290559Y0213255D01*
X0290518Y0213410D01*
X0290480Y0213567D01*
X0290447Y0213724D01*
X0290417Y0213882D01*
X0290391Y0214041D01*
X0290370Y0214200D01*
X0290352Y0214360D01*
X0290338Y0214520D01*
X0290328Y0214681D01*
X0290322Y0214841D01*
X0290320Y0215002D01*
X0377820Y0217502D02*
X0377822Y0217663D01*
X0377828Y0217823D01*
X0377838Y0217984D01*
X0377852Y0218144D01*
X0377870Y0218304D01*
X0377891Y0218463D01*
X0377917Y0218622D01*
X0377947Y0218780D01*
X0377980Y0218937D01*
X0378018Y0219094D01*
X0378059Y0219249D01*
X0378104Y0219403D01*
X0378153Y0219556D01*
X0378206Y0219708D01*
X0378262Y0219859D01*
X0378323Y0220008D01*
X0378386Y0220156D01*
X0378454Y0220302D01*
X0378525Y0220446D01*
X0378599Y0220588D01*
X0378677Y0220729D01*
X0378759Y0220867D01*
X0378844Y0221004D01*
X0378932Y0221138D01*
X0379024Y0221270D01*
X0379119Y0221400D01*
X0379217Y0221528D01*
X0379318Y0221653D01*
X0379422Y0221775D01*
X0379529Y0221895D01*
X0379639Y0222012D01*
X0379752Y0222127D01*
X0379868Y0222238D01*
X0379987Y0222347D01*
X0380108Y0222452D01*
X0380232Y0222555D01*
X0380358Y0222655D01*
X0380486Y0222751D01*
X0380617Y0222844D01*
X0380751Y0222934D01*
X0380886Y0223021D01*
X0381024Y0223104D01*
X0381163Y0223184D01*
X0381305Y0223260D01*
X0381448Y0223333D01*
X0381593Y0223402D01*
X0381740Y0223468D01*
X0381888Y0223530D01*
X0382038Y0223588D01*
X0382189Y0223643D01*
X0382342Y0223694D01*
X0382496Y0223741D01*
X0382651Y0223784D01*
X0382807Y0223823D01*
X0382963Y0223859D01*
X0383121Y0223890D01*
X0383279Y0223918D01*
X0383438Y0223942D01*
X0383598Y0223962D01*
X0383758Y0223978D01*
X0383918Y0223990D01*
X0384079Y0223998D01*
X0384240Y0224002D01*
X0384400Y0224002D01*
X0384561Y0223998D01*
X0384722Y0223990D01*
X0384882Y0223978D01*
X0385042Y0223962D01*
X0385202Y0223942D01*
X0385361Y0223918D01*
X0385519Y0223890D01*
X0385677Y0223859D01*
X0385833Y0223823D01*
X0385989Y0223784D01*
X0386144Y0223741D01*
X0386298Y0223694D01*
X0386451Y0223643D01*
X0386602Y0223588D01*
X0386752Y0223530D01*
X0386900Y0223468D01*
X0387047Y0223402D01*
X0387192Y0223333D01*
X0387335Y0223260D01*
X0387477Y0223184D01*
X0387616Y0223104D01*
X0387754Y0223021D01*
X0387889Y0222934D01*
X0388023Y0222844D01*
X0388154Y0222751D01*
X0388282Y0222655D01*
X0388408Y0222555D01*
X0388532Y0222452D01*
X0388653Y0222347D01*
X0388772Y0222238D01*
X0388888Y0222127D01*
X0389001Y0222012D01*
X0389111Y0221895D01*
X0389218Y0221775D01*
X0389322Y0221653D01*
X0389423Y0221528D01*
X0389521Y0221400D01*
X0389616Y0221270D01*
X0389708Y0221138D01*
X0389796Y0221004D01*
X0389881Y0220867D01*
X0389963Y0220729D01*
X0390041Y0220588D01*
X0390115Y0220446D01*
X0390186Y0220302D01*
X0390254Y0220156D01*
X0390317Y0220008D01*
X0390378Y0219859D01*
X0390434Y0219708D01*
X0390487Y0219556D01*
X0390536Y0219403D01*
X0390581Y0219249D01*
X0390622Y0219094D01*
X0390660Y0218937D01*
X0390693Y0218780D01*
X0390723Y0218622D01*
X0390749Y0218463D01*
X0390770Y0218304D01*
X0390788Y0218144D01*
X0390802Y0217984D01*
X0390812Y0217823D01*
X0390818Y0217663D01*
X0390820Y0217502D01*
X0390818Y0217341D01*
X0390812Y0217181D01*
X0390802Y0217020D01*
X0390788Y0216860D01*
X0390770Y0216700D01*
X0390749Y0216541D01*
X0390723Y0216382D01*
X0390693Y0216224D01*
X0390660Y0216067D01*
X0390622Y0215910D01*
X0390581Y0215755D01*
X0390536Y0215601D01*
X0390487Y0215448D01*
X0390434Y0215296D01*
X0390378Y0215145D01*
X0390317Y0214996D01*
X0390254Y0214848D01*
X0390186Y0214702D01*
X0390115Y0214558D01*
X0390041Y0214416D01*
X0389963Y0214275D01*
X0389881Y0214137D01*
X0389796Y0214000D01*
X0389708Y0213866D01*
X0389616Y0213734D01*
X0389521Y0213604D01*
X0389423Y0213476D01*
X0389322Y0213351D01*
X0389218Y0213229D01*
X0389111Y0213109D01*
X0389001Y0212992D01*
X0388888Y0212877D01*
X0388772Y0212766D01*
X0388653Y0212657D01*
X0388532Y0212552D01*
X0388408Y0212449D01*
X0388282Y0212349D01*
X0388154Y0212253D01*
X0388023Y0212160D01*
X0387889Y0212070D01*
X0387754Y0211983D01*
X0387616Y0211900D01*
X0387477Y0211820D01*
X0387335Y0211744D01*
X0387192Y0211671D01*
X0387047Y0211602D01*
X0386900Y0211536D01*
X0386752Y0211474D01*
X0386602Y0211416D01*
X0386451Y0211361D01*
X0386298Y0211310D01*
X0386144Y0211263D01*
X0385989Y0211220D01*
X0385833Y0211181D01*
X0385677Y0211145D01*
X0385519Y0211114D01*
X0385361Y0211086D01*
X0385202Y0211062D01*
X0385042Y0211042D01*
X0384882Y0211026D01*
X0384722Y0211014D01*
X0384561Y0211006D01*
X0384400Y0211002D01*
X0384240Y0211002D01*
X0384079Y0211006D01*
X0383918Y0211014D01*
X0383758Y0211026D01*
X0383598Y0211042D01*
X0383438Y0211062D01*
X0383279Y0211086D01*
X0383121Y0211114D01*
X0382963Y0211145D01*
X0382807Y0211181D01*
X0382651Y0211220D01*
X0382496Y0211263D01*
X0382342Y0211310D01*
X0382189Y0211361D01*
X0382038Y0211416D01*
X0381888Y0211474D01*
X0381740Y0211536D01*
X0381593Y0211602D01*
X0381448Y0211671D01*
X0381305Y0211744D01*
X0381163Y0211820D01*
X0381024Y0211900D01*
X0380886Y0211983D01*
X0380751Y0212070D01*
X0380617Y0212160D01*
X0380486Y0212253D01*
X0380358Y0212349D01*
X0380232Y0212449D01*
X0380108Y0212552D01*
X0379987Y0212657D01*
X0379868Y0212766D01*
X0379752Y0212877D01*
X0379639Y0212992D01*
X0379529Y0213109D01*
X0379422Y0213229D01*
X0379318Y0213351D01*
X0379217Y0213476D01*
X0379119Y0213604D01*
X0379024Y0213734D01*
X0378932Y0213866D01*
X0378844Y0214000D01*
X0378759Y0214137D01*
X0378677Y0214275D01*
X0378599Y0214416D01*
X0378525Y0214558D01*
X0378454Y0214702D01*
X0378386Y0214848D01*
X0378323Y0214996D01*
X0378262Y0215145D01*
X0378206Y0215296D01*
X0378153Y0215448D01*
X0378104Y0215601D01*
X0378059Y0215755D01*
X0378018Y0215910D01*
X0377980Y0216067D01*
X0377947Y0216224D01*
X0377917Y0216382D01*
X0377891Y0216541D01*
X0377870Y0216700D01*
X0377852Y0216860D01*
X0377838Y0217020D01*
X0377828Y0217181D01*
X0377822Y0217341D01*
X0377820Y0217502D01*
X0377820Y0050002D02*
X0377822Y0050163D01*
X0377828Y0050323D01*
X0377838Y0050484D01*
X0377852Y0050644D01*
X0377870Y0050804D01*
X0377891Y0050963D01*
X0377917Y0051122D01*
X0377947Y0051280D01*
X0377980Y0051437D01*
X0378018Y0051594D01*
X0378059Y0051749D01*
X0378104Y0051903D01*
X0378153Y0052056D01*
X0378206Y0052208D01*
X0378262Y0052359D01*
X0378323Y0052508D01*
X0378386Y0052656D01*
X0378454Y0052802D01*
X0378525Y0052946D01*
X0378599Y0053088D01*
X0378677Y0053229D01*
X0378759Y0053367D01*
X0378844Y0053504D01*
X0378932Y0053638D01*
X0379024Y0053770D01*
X0379119Y0053900D01*
X0379217Y0054028D01*
X0379318Y0054153D01*
X0379422Y0054275D01*
X0379529Y0054395D01*
X0379639Y0054512D01*
X0379752Y0054627D01*
X0379868Y0054738D01*
X0379987Y0054847D01*
X0380108Y0054952D01*
X0380232Y0055055D01*
X0380358Y0055155D01*
X0380486Y0055251D01*
X0380617Y0055344D01*
X0380751Y0055434D01*
X0380886Y0055521D01*
X0381024Y0055604D01*
X0381163Y0055684D01*
X0381305Y0055760D01*
X0381448Y0055833D01*
X0381593Y0055902D01*
X0381740Y0055968D01*
X0381888Y0056030D01*
X0382038Y0056088D01*
X0382189Y0056143D01*
X0382342Y0056194D01*
X0382496Y0056241D01*
X0382651Y0056284D01*
X0382807Y0056323D01*
X0382963Y0056359D01*
X0383121Y0056390D01*
X0383279Y0056418D01*
X0383438Y0056442D01*
X0383598Y0056462D01*
X0383758Y0056478D01*
X0383918Y0056490D01*
X0384079Y0056498D01*
X0384240Y0056502D01*
X0384400Y0056502D01*
X0384561Y0056498D01*
X0384722Y0056490D01*
X0384882Y0056478D01*
X0385042Y0056462D01*
X0385202Y0056442D01*
X0385361Y0056418D01*
X0385519Y0056390D01*
X0385677Y0056359D01*
X0385833Y0056323D01*
X0385989Y0056284D01*
X0386144Y0056241D01*
X0386298Y0056194D01*
X0386451Y0056143D01*
X0386602Y0056088D01*
X0386752Y0056030D01*
X0386900Y0055968D01*
X0387047Y0055902D01*
X0387192Y0055833D01*
X0387335Y0055760D01*
X0387477Y0055684D01*
X0387616Y0055604D01*
X0387754Y0055521D01*
X0387889Y0055434D01*
X0388023Y0055344D01*
X0388154Y0055251D01*
X0388282Y0055155D01*
X0388408Y0055055D01*
X0388532Y0054952D01*
X0388653Y0054847D01*
X0388772Y0054738D01*
X0388888Y0054627D01*
X0389001Y0054512D01*
X0389111Y0054395D01*
X0389218Y0054275D01*
X0389322Y0054153D01*
X0389423Y0054028D01*
X0389521Y0053900D01*
X0389616Y0053770D01*
X0389708Y0053638D01*
X0389796Y0053504D01*
X0389881Y0053367D01*
X0389963Y0053229D01*
X0390041Y0053088D01*
X0390115Y0052946D01*
X0390186Y0052802D01*
X0390254Y0052656D01*
X0390317Y0052508D01*
X0390378Y0052359D01*
X0390434Y0052208D01*
X0390487Y0052056D01*
X0390536Y0051903D01*
X0390581Y0051749D01*
X0390622Y0051594D01*
X0390660Y0051437D01*
X0390693Y0051280D01*
X0390723Y0051122D01*
X0390749Y0050963D01*
X0390770Y0050804D01*
X0390788Y0050644D01*
X0390802Y0050484D01*
X0390812Y0050323D01*
X0390818Y0050163D01*
X0390820Y0050002D01*
X0390818Y0049841D01*
X0390812Y0049681D01*
X0390802Y0049520D01*
X0390788Y0049360D01*
X0390770Y0049200D01*
X0390749Y0049041D01*
X0390723Y0048882D01*
X0390693Y0048724D01*
X0390660Y0048567D01*
X0390622Y0048410D01*
X0390581Y0048255D01*
X0390536Y0048101D01*
X0390487Y0047948D01*
X0390434Y0047796D01*
X0390378Y0047645D01*
X0390317Y0047496D01*
X0390254Y0047348D01*
X0390186Y0047202D01*
X0390115Y0047058D01*
X0390041Y0046916D01*
X0389963Y0046775D01*
X0389881Y0046637D01*
X0389796Y0046500D01*
X0389708Y0046366D01*
X0389616Y0046234D01*
X0389521Y0046104D01*
X0389423Y0045976D01*
X0389322Y0045851D01*
X0389218Y0045729D01*
X0389111Y0045609D01*
X0389001Y0045492D01*
X0388888Y0045377D01*
X0388772Y0045266D01*
X0388653Y0045157D01*
X0388532Y0045052D01*
X0388408Y0044949D01*
X0388282Y0044849D01*
X0388154Y0044753D01*
X0388023Y0044660D01*
X0387889Y0044570D01*
X0387754Y0044483D01*
X0387616Y0044400D01*
X0387477Y0044320D01*
X0387335Y0044244D01*
X0387192Y0044171D01*
X0387047Y0044102D01*
X0386900Y0044036D01*
X0386752Y0043974D01*
X0386602Y0043916D01*
X0386451Y0043861D01*
X0386298Y0043810D01*
X0386144Y0043763D01*
X0385989Y0043720D01*
X0385833Y0043681D01*
X0385677Y0043645D01*
X0385519Y0043614D01*
X0385361Y0043586D01*
X0385202Y0043562D01*
X0385042Y0043542D01*
X0384882Y0043526D01*
X0384722Y0043514D01*
X0384561Y0043506D01*
X0384400Y0043502D01*
X0384240Y0043502D01*
X0384079Y0043506D01*
X0383918Y0043514D01*
X0383758Y0043526D01*
X0383598Y0043542D01*
X0383438Y0043562D01*
X0383279Y0043586D01*
X0383121Y0043614D01*
X0382963Y0043645D01*
X0382807Y0043681D01*
X0382651Y0043720D01*
X0382496Y0043763D01*
X0382342Y0043810D01*
X0382189Y0043861D01*
X0382038Y0043916D01*
X0381888Y0043974D01*
X0381740Y0044036D01*
X0381593Y0044102D01*
X0381448Y0044171D01*
X0381305Y0044244D01*
X0381163Y0044320D01*
X0381024Y0044400D01*
X0380886Y0044483D01*
X0380751Y0044570D01*
X0380617Y0044660D01*
X0380486Y0044753D01*
X0380358Y0044849D01*
X0380232Y0044949D01*
X0380108Y0045052D01*
X0379987Y0045157D01*
X0379868Y0045266D01*
X0379752Y0045377D01*
X0379639Y0045492D01*
X0379529Y0045609D01*
X0379422Y0045729D01*
X0379318Y0045851D01*
X0379217Y0045976D01*
X0379119Y0046104D01*
X0379024Y0046234D01*
X0378932Y0046366D01*
X0378844Y0046500D01*
X0378759Y0046637D01*
X0378677Y0046775D01*
X0378599Y0046916D01*
X0378525Y0047058D01*
X0378454Y0047202D01*
X0378386Y0047348D01*
X0378323Y0047496D01*
X0378262Y0047645D01*
X0378206Y0047796D01*
X0378153Y0047948D01*
X0378104Y0048101D01*
X0378059Y0048255D01*
X0378018Y0048410D01*
X0377980Y0048567D01*
X0377947Y0048724D01*
X0377917Y0048882D01*
X0377891Y0049041D01*
X0377870Y0049200D01*
X0377852Y0049360D01*
X0377838Y0049520D01*
X0377828Y0049681D01*
X0377822Y0049841D01*
X0377820Y0050002D01*
X0290320Y0050002D02*
X0290322Y0050163D01*
X0290328Y0050323D01*
X0290338Y0050484D01*
X0290352Y0050644D01*
X0290370Y0050804D01*
X0290391Y0050963D01*
X0290417Y0051122D01*
X0290447Y0051280D01*
X0290480Y0051437D01*
X0290518Y0051594D01*
X0290559Y0051749D01*
X0290604Y0051903D01*
X0290653Y0052056D01*
X0290706Y0052208D01*
X0290762Y0052359D01*
X0290823Y0052508D01*
X0290886Y0052656D01*
X0290954Y0052802D01*
X0291025Y0052946D01*
X0291099Y0053088D01*
X0291177Y0053229D01*
X0291259Y0053367D01*
X0291344Y0053504D01*
X0291432Y0053638D01*
X0291524Y0053770D01*
X0291619Y0053900D01*
X0291717Y0054028D01*
X0291818Y0054153D01*
X0291922Y0054275D01*
X0292029Y0054395D01*
X0292139Y0054512D01*
X0292252Y0054627D01*
X0292368Y0054738D01*
X0292487Y0054847D01*
X0292608Y0054952D01*
X0292732Y0055055D01*
X0292858Y0055155D01*
X0292986Y0055251D01*
X0293117Y0055344D01*
X0293251Y0055434D01*
X0293386Y0055521D01*
X0293524Y0055604D01*
X0293663Y0055684D01*
X0293805Y0055760D01*
X0293948Y0055833D01*
X0294093Y0055902D01*
X0294240Y0055968D01*
X0294388Y0056030D01*
X0294538Y0056088D01*
X0294689Y0056143D01*
X0294842Y0056194D01*
X0294996Y0056241D01*
X0295151Y0056284D01*
X0295307Y0056323D01*
X0295463Y0056359D01*
X0295621Y0056390D01*
X0295779Y0056418D01*
X0295938Y0056442D01*
X0296098Y0056462D01*
X0296258Y0056478D01*
X0296418Y0056490D01*
X0296579Y0056498D01*
X0296740Y0056502D01*
X0296900Y0056502D01*
X0297061Y0056498D01*
X0297222Y0056490D01*
X0297382Y0056478D01*
X0297542Y0056462D01*
X0297702Y0056442D01*
X0297861Y0056418D01*
X0298019Y0056390D01*
X0298177Y0056359D01*
X0298333Y0056323D01*
X0298489Y0056284D01*
X0298644Y0056241D01*
X0298798Y0056194D01*
X0298951Y0056143D01*
X0299102Y0056088D01*
X0299252Y0056030D01*
X0299400Y0055968D01*
X0299547Y0055902D01*
X0299692Y0055833D01*
X0299835Y0055760D01*
X0299977Y0055684D01*
X0300116Y0055604D01*
X0300254Y0055521D01*
X0300389Y0055434D01*
X0300523Y0055344D01*
X0300654Y0055251D01*
X0300782Y0055155D01*
X0300908Y0055055D01*
X0301032Y0054952D01*
X0301153Y0054847D01*
X0301272Y0054738D01*
X0301388Y0054627D01*
X0301501Y0054512D01*
X0301611Y0054395D01*
X0301718Y0054275D01*
X0301822Y0054153D01*
X0301923Y0054028D01*
X0302021Y0053900D01*
X0302116Y0053770D01*
X0302208Y0053638D01*
X0302296Y0053504D01*
X0302381Y0053367D01*
X0302463Y0053229D01*
X0302541Y0053088D01*
X0302615Y0052946D01*
X0302686Y0052802D01*
X0302754Y0052656D01*
X0302817Y0052508D01*
X0302878Y0052359D01*
X0302934Y0052208D01*
X0302987Y0052056D01*
X0303036Y0051903D01*
X0303081Y0051749D01*
X0303122Y0051594D01*
X0303160Y0051437D01*
X0303193Y0051280D01*
X0303223Y0051122D01*
X0303249Y0050963D01*
X0303270Y0050804D01*
X0303288Y0050644D01*
X0303302Y0050484D01*
X0303312Y0050323D01*
X0303318Y0050163D01*
X0303320Y0050002D01*
X0303318Y0049841D01*
X0303312Y0049681D01*
X0303302Y0049520D01*
X0303288Y0049360D01*
X0303270Y0049200D01*
X0303249Y0049041D01*
X0303223Y0048882D01*
X0303193Y0048724D01*
X0303160Y0048567D01*
X0303122Y0048410D01*
X0303081Y0048255D01*
X0303036Y0048101D01*
X0302987Y0047948D01*
X0302934Y0047796D01*
X0302878Y0047645D01*
X0302817Y0047496D01*
X0302754Y0047348D01*
X0302686Y0047202D01*
X0302615Y0047058D01*
X0302541Y0046916D01*
X0302463Y0046775D01*
X0302381Y0046637D01*
X0302296Y0046500D01*
X0302208Y0046366D01*
X0302116Y0046234D01*
X0302021Y0046104D01*
X0301923Y0045976D01*
X0301822Y0045851D01*
X0301718Y0045729D01*
X0301611Y0045609D01*
X0301501Y0045492D01*
X0301388Y0045377D01*
X0301272Y0045266D01*
X0301153Y0045157D01*
X0301032Y0045052D01*
X0300908Y0044949D01*
X0300782Y0044849D01*
X0300654Y0044753D01*
X0300523Y0044660D01*
X0300389Y0044570D01*
X0300254Y0044483D01*
X0300116Y0044400D01*
X0299977Y0044320D01*
X0299835Y0044244D01*
X0299692Y0044171D01*
X0299547Y0044102D01*
X0299400Y0044036D01*
X0299252Y0043974D01*
X0299102Y0043916D01*
X0298951Y0043861D01*
X0298798Y0043810D01*
X0298644Y0043763D01*
X0298489Y0043720D01*
X0298333Y0043681D01*
X0298177Y0043645D01*
X0298019Y0043614D01*
X0297861Y0043586D01*
X0297702Y0043562D01*
X0297542Y0043542D01*
X0297382Y0043526D01*
X0297222Y0043514D01*
X0297061Y0043506D01*
X0296900Y0043502D01*
X0296740Y0043502D01*
X0296579Y0043506D01*
X0296418Y0043514D01*
X0296258Y0043526D01*
X0296098Y0043542D01*
X0295938Y0043562D01*
X0295779Y0043586D01*
X0295621Y0043614D01*
X0295463Y0043645D01*
X0295307Y0043681D01*
X0295151Y0043720D01*
X0294996Y0043763D01*
X0294842Y0043810D01*
X0294689Y0043861D01*
X0294538Y0043916D01*
X0294388Y0043974D01*
X0294240Y0044036D01*
X0294093Y0044102D01*
X0293948Y0044171D01*
X0293805Y0044244D01*
X0293663Y0044320D01*
X0293524Y0044400D01*
X0293386Y0044483D01*
X0293251Y0044570D01*
X0293117Y0044660D01*
X0292986Y0044753D01*
X0292858Y0044849D01*
X0292732Y0044949D01*
X0292608Y0045052D01*
X0292487Y0045157D01*
X0292368Y0045266D01*
X0292252Y0045377D01*
X0292139Y0045492D01*
X0292029Y0045609D01*
X0291922Y0045729D01*
X0291818Y0045851D01*
X0291717Y0045976D01*
X0291619Y0046104D01*
X0291524Y0046234D01*
X0291432Y0046366D01*
X0291344Y0046500D01*
X0291259Y0046637D01*
X0291177Y0046775D01*
X0291099Y0046916D01*
X0291025Y0047058D01*
X0290954Y0047202D01*
X0290886Y0047348D01*
X0290823Y0047496D01*
X0290762Y0047645D01*
X0290706Y0047796D01*
X0290653Y0047948D01*
X0290604Y0048101D01*
X0290559Y0048255D01*
X0290518Y0048410D01*
X0290480Y0048567D01*
X0290447Y0048724D01*
X0290417Y0048882D01*
X0290391Y0049041D01*
X0290370Y0049200D01*
X0290352Y0049360D01*
X0290338Y0049520D01*
X0290328Y0049681D01*
X0290322Y0049841D01*
X0290320Y0050002D01*
D13*
X0193806Y0080265D02*
X0191760Y0078869D01*
X0189680Y0077524D01*
X0187568Y0076229D01*
X0185425Y0074987D01*
X0183252Y0073798D01*
X0181051Y0072661D01*
X0178823Y0071579D01*
X0176569Y0070552D01*
X0174290Y0069580D01*
X0171989Y0068664D01*
X0169665Y0067805D01*
X0167322Y0067003D01*
X0164959Y0066258D01*
X0162580Y0065571D01*
X0160184Y0064942D01*
X0157773Y0064373D01*
X0155349Y0063862D01*
X0152913Y0063410D01*
X0150468Y0063019D01*
X0148013Y0062687D01*
X0145551Y0062415D01*
X0143083Y0062203D01*
X0140610Y0062052D01*
X0138135Y0061961D01*
X0135658Y0061931D01*
X0133181Y0061961D01*
X0130706Y0062052D01*
X0128233Y0062203D01*
X0125765Y0062415D01*
X0123303Y0062687D01*
X0120848Y0063019D01*
X0118403Y0063410D01*
X0115967Y0063862D01*
X0113543Y0064373D01*
X0111132Y0064942D01*
X0108736Y0065571D01*
X0106357Y0066258D01*
X0103994Y0067003D01*
X0101651Y0067805D01*
X0099327Y0068664D01*
X0097026Y0069580D01*
X0094747Y0070552D01*
X0092493Y0071579D01*
X0090265Y0072661D01*
X0088064Y0073798D01*
X0085891Y0074987D01*
X0083748Y0076229D01*
X0081636Y0077524D01*
X0079556Y0078869D01*
X0077510Y0080265D01*
X0077510Y0246353D02*
X0079556Y0247749D01*
X0081636Y0249094D01*
X0083748Y0250389D01*
X0085891Y0251631D01*
X0088064Y0252820D01*
X0090265Y0253957D01*
X0092493Y0255039D01*
X0094747Y0256066D01*
X0097026Y0257038D01*
X0099327Y0257954D01*
X0101651Y0258813D01*
X0103994Y0259615D01*
X0106357Y0260360D01*
X0108736Y0261047D01*
X0111132Y0261676D01*
X0113543Y0262245D01*
X0115967Y0262756D01*
X0118403Y0263208D01*
X0120848Y0263599D01*
X0123303Y0263931D01*
X0125765Y0264203D01*
X0128233Y0264415D01*
X0130706Y0264566D01*
X0133181Y0264657D01*
X0135658Y0264687D01*
X0138135Y0264657D01*
X0140610Y0264566D01*
X0143083Y0264415D01*
X0145551Y0264203D01*
X0148013Y0263931D01*
X0150468Y0263599D01*
X0152913Y0263208D01*
X0155349Y0262756D01*
X0157773Y0262245D01*
X0160184Y0261676D01*
X0162580Y0261047D01*
X0164959Y0260360D01*
X0167322Y0259615D01*
X0169665Y0258813D01*
X0171989Y0257954D01*
X0174290Y0257038D01*
X0176569Y0256066D01*
X0178823Y0255039D01*
X0181051Y0253957D01*
X0183252Y0252820D01*
X0185425Y0251631D01*
X0187568Y0250389D01*
X0189680Y0249094D01*
X0191760Y0247749D01*
X0193806Y0246353D01*
D14*
X0001800Y0025514D02*
X0399438Y0025514D01*
X0399438Y0234176D01*
X0399438Y0238113D01*
X0399438Y0427089D01*
X0001800Y0427089D01*
X0001800Y0025514D01*
D15*
X0257706Y0234176D02*
X0257706Y0238113D01*
X0391564Y0238113D01*
X0391564Y0234176D01*
X0399438Y0234176D01*
X0399438Y0238113D02*
X0391564Y0238113D01*
X0391564Y0234176D02*
X0257706Y0234176D01*
X0257706Y0245987D02*
X0261643Y0245987D01*
X0261643Y0289294D01*
X0257706Y0289294D01*
X0257706Y0245987D01*
X0281328Y0226302D02*
X0281328Y0041262D01*
X0285265Y0041262D01*
X0285265Y0226302D01*
X0281328Y0226302D01*
X0273454Y0305042D02*
X0269517Y0305042D01*
X0269517Y0415278D01*
X0273454Y0415278D01*
X0273454Y0305042D01*
X0379753Y0297168D02*
X0379753Y0293231D01*
X0143532Y0305042D02*
X0139595Y0305042D01*
X0139595Y0415278D01*
X0143532Y0415278D01*
X0143532Y0305042D01*
X0021485Y0297168D02*
X0021485Y0293231D01*
D16*
X0088414Y0293231D01*
X0088414Y0297168D01*
X0021485Y0297168D01*
X0246605Y0232818D02*
X0244886Y0235496D01*
X0243103Y0238130D01*
X0241256Y0240720D01*
X0239346Y0243264D01*
X0237375Y0245761D01*
X0235343Y0248208D01*
X0233252Y0250605D01*
X0231102Y0252951D01*
X0228896Y0255242D01*
X0226635Y0257480D01*
X0224320Y0259661D01*
X0221951Y0261785D01*
X0219532Y0263851D01*
X0217063Y0265856D01*
X0214546Y0267801D01*
X0211981Y0269684D01*
X0209372Y0271503D01*
X0206718Y0273258D01*
X0204023Y0274947D01*
X0201287Y0276570D01*
X0198512Y0278126D01*
X0195700Y0279613D01*
X0192852Y0281031D01*
X0189971Y0282379D01*
X0187058Y0283656D01*
X0184114Y0284861D01*
X0181141Y0285994D01*
X0178142Y0287054D01*
X0175117Y0288040D01*
X0172070Y0288952D01*
X0169001Y0289790D01*
X0165912Y0290551D01*
X0162806Y0291237D01*
X0159684Y0291847D01*
X0156548Y0292381D01*
X0153400Y0292837D01*
X0150241Y0293216D01*
X0147074Y0293518D01*
X0143901Y0293743D01*
X0140724Y0293889D01*
X0137543Y0293958D01*
X0134362Y0293949D01*
X0131182Y0293863D01*
X0128005Y0293698D01*
X0124833Y0293456D01*
X0121668Y0293136D01*
X0118512Y0292739D01*
X0115367Y0292265D01*
X0112234Y0291714D01*
X0109115Y0291087D01*
X0106013Y0290383D01*
X0102928Y0289604D01*
X0099864Y0288750D01*
X0096822Y0287821D01*
X0093803Y0286818D01*
X0090810Y0285741D01*
X0087843Y0284591D01*
X0084906Y0283370D01*
X0082000Y0282076D01*
X0079126Y0280712D01*
X0076287Y0279278D01*
X0073483Y0277775D01*
X0070717Y0276204D01*
X0067990Y0274566D01*
X0065304Y0272861D01*
X0062661Y0271092D01*
X0060061Y0269258D01*
X0057508Y0267361D01*
X0055001Y0265402D01*
X0052543Y0263383D01*
X0050135Y0261304D01*
X0047779Y0259166D01*
X0045476Y0256972D01*
X0043227Y0254722D01*
X0041034Y0252418D01*
X0038898Y0250061D01*
X0036820Y0247652D01*
X0034802Y0245193D01*
X0032845Y0242685D01*
X0030949Y0240131D01*
X0029117Y0237530D01*
X0027348Y0234886D01*
X0025645Y0232199D01*
X0024008Y0229472D01*
X0022439Y0226705D01*
X0020937Y0223900D01*
X0019505Y0221060D01*
X0018142Y0218185D01*
X0016850Y0215278D01*
X0015630Y0212341D01*
X0014482Y0209374D01*
X0013406Y0206380D01*
X0012405Y0203361D01*
X0011477Y0200318D01*
X0010625Y0197253D01*
X0009847Y0194169D01*
X0009145Y0191066D01*
X0008519Y0187947D01*
X0007970Y0184814D01*
X0007498Y0181668D01*
X0007102Y0178511D01*
X0006784Y0175346D01*
X0006544Y0172174D01*
X0006381Y0168997D01*
X0006296Y0165817D01*
X0006288Y0162636D01*
X0006359Y0159456D01*
X0006507Y0156278D01*
X0006733Y0153105D01*
X0007037Y0149939D01*
X0007418Y0146780D01*
X0007876Y0143632D01*
X0008411Y0140497D01*
X0009022Y0137375D01*
X0009710Y0134269D01*
X0010473Y0131181D01*
X0011312Y0128112D01*
X0012226Y0125065D01*
X0013213Y0122041D01*
X0014275Y0119042D01*
X0015409Y0116070D01*
X0016616Y0113127D01*
X0017895Y0110214D01*
X0019244Y0107334D01*
X0020664Y0104487D01*
X0022152Y0101675D01*
X0023709Y0098901D01*
X0025334Y0096166D01*
X0027024Y0093472D01*
X0028781Y0090819D01*
X0030601Y0088211D01*
X0032485Y0085647D01*
X0034431Y0083131D01*
X0036438Y0080663D01*
X0038505Y0078244D01*
X0040630Y0075877D01*
X0042812Y0073563D01*
X0045051Y0071303D01*
X0047344Y0069098D01*
X0049690Y0066950D01*
X0052089Y0064860D01*
X0054537Y0062829D01*
X0057035Y0060859D01*
X0059580Y0058950D01*
X0062171Y0057105D01*
X0064806Y0055323D01*
X0067484Y0053606D01*
X0070203Y0051955D01*
X0072962Y0050372D01*
X0075759Y0048856D01*
X0078592Y0047409D01*
X0081459Y0046032D01*
X0084360Y0044725D01*
X0087291Y0043490D01*
X0090252Y0042327D01*
X0093241Y0041236D01*
X0096255Y0040219D01*
X0099293Y0039276D01*
X0102353Y0038408D01*
X0105434Y0037615D01*
X0108533Y0036897D01*
X0111649Y0036255D01*
X0114779Y0035690D01*
X0117922Y0035202D01*
X0121077Y0034790D01*
X0124240Y0034456D01*
X0127411Y0034199D01*
X0130587Y0034020D01*
X0133767Y0033919D01*
X0136948Y0033896D01*
X0140128Y0033950D01*
X0143307Y0034082D01*
X0146481Y0034292D01*
X0149649Y0034579D01*
X0152809Y0034944D01*
X0155959Y0035386D01*
X0159098Y0035905D01*
X0162223Y0036501D01*
X0165332Y0037172D01*
X0168424Y0037920D01*
X0171497Y0038743D01*
X0174549Y0039641D01*
X0177577Y0040614D01*
X0180582Y0041660D01*
X0183559Y0042779D01*
X0186509Y0043971D01*
X0189428Y0045235D01*
X0192316Y0046569D01*
X0195170Y0047974D01*
X0197989Y0049449D01*
X0200770Y0050992D01*
X0203514Y0052602D01*
X0206217Y0054279D01*
X0208878Y0056022D01*
X0211496Y0057829D01*
X0214069Y0059700D01*
X0216595Y0061633D01*
X0219074Y0063627D01*
X0221502Y0065682D01*
X0223880Y0067795D01*
X0226206Y0069966D01*
X0228477Y0072193D01*
X0230694Y0074474D01*
X0232854Y0076810D01*
X0234956Y0079197D01*
X0236999Y0081635D01*
X0238982Y0084123D01*
X0240903Y0086658D01*
X0242762Y0089240D01*
X0244558Y0091866D01*
X0246288Y0094535D01*
X0247952Y0097246D01*
X0249550Y0099997D01*
X0251080Y0102786D01*
X0252542Y0105611D01*
X0253933Y0108472D01*
X0255255Y0111366D01*
X0256505Y0114291D01*
X0257683Y0117246D01*
X0258789Y0120228D01*
X0259821Y0123237D01*
X0260780Y0126271D01*
X0261664Y0129326D01*
X0262473Y0132403D01*
X0263206Y0135498D01*
X0263863Y0138611D01*
X0264445Y0141738D01*
X0264949Y0144879D01*
X0265377Y0148032D01*
X0265727Y0151193D01*
X0266000Y0154363D01*
X0266195Y0157538D01*
X0266312Y0160717D01*
X0266352Y0163898D01*
X0266314Y0167078D01*
X0266198Y0170257D01*
X0266004Y0173433D01*
X0265733Y0176602D01*
X0265384Y0179764D01*
X0264958Y0182917D01*
X0264455Y0186058D01*
X0263876Y0189186D01*
X0263220Y0192298D01*
X0262488Y0195394D01*
X0261680Y0198471D01*
X0260798Y0201527D01*
X0259841Y0204561D01*
X0258810Y0207570D01*
X0257706Y0210554D01*
X0261643Y0210554D01*
X0249831Y0234176D02*
X0245894Y0234176D01*
X0246671Y0232484D02*
X0249870Y0234576D01*
X0198650Y0293231D02*
X0379753Y0293231D01*
X0379753Y0297168D02*
X0198650Y0297168D01*
X0198650Y0293231D01*
X0249831Y0234175D02*
X0248052Y0236919D01*
X0246206Y0239619D01*
X0244295Y0242273D01*
X0242319Y0244879D01*
X0240280Y0247435D01*
X0238178Y0249941D01*
X0236016Y0252395D01*
X0233794Y0254794D01*
X0231514Y0257139D01*
X0229178Y0259427D01*
X0226785Y0261657D01*
X0224339Y0263827D01*
X0221840Y0265937D01*
X0219291Y0267985D01*
X0216692Y0269970D01*
X0214044Y0271890D01*
X0211351Y0273745D01*
X0208613Y0275534D01*
X0205832Y0277254D01*
X0203009Y0278906D01*
X0200147Y0280488D01*
X0197247Y0281999D01*
X0194311Y0283439D01*
X0191340Y0284806D01*
X0188336Y0286100D01*
X0185302Y0287320D01*
X0182239Y0288465D01*
X0179148Y0289535D01*
X0176033Y0290529D01*
X0172893Y0291445D01*
X0169733Y0292285D01*
X0166552Y0293046D01*
X0163354Y0293730D01*
X0160140Y0294335D01*
X0156912Y0294860D01*
X0153673Y0295307D01*
X0150423Y0295674D01*
X0147165Y0295960D01*
X0143901Y0296167D01*
X0140633Y0296294D01*
X0137363Y0296341D01*
X0134093Y0296307D01*
X0130825Y0296193D01*
X0127560Y0295999D01*
X0124302Y0295725D01*
X0121050Y0295371D01*
X0117809Y0294938D01*
X0114579Y0294425D01*
X0111363Y0293833D01*
X0108162Y0293162D01*
X0104979Y0292413D01*
X0101815Y0291586D01*
X0098672Y0290682D01*
X0095552Y0289700D01*
X0092457Y0288643D01*
X0089390Y0287510D01*
X0086351Y0286302D01*
X0083342Y0285020D01*
X0080366Y0283664D01*
X0077424Y0282236D01*
X0074518Y0280736D01*
X0071649Y0279166D01*
X0068820Y0277525D01*
X0066032Y0275815D01*
X0063287Y0274038D01*
X0060586Y0272194D01*
X0057932Y0270284D01*
X0055325Y0268309D01*
X0052767Y0266271D01*
X0050260Y0264171D01*
X0047805Y0262011D01*
X0045404Y0259790D01*
X0043058Y0257512D01*
X0040769Y0255176D01*
X0038538Y0252785D01*
X0036366Y0250340D01*
X0034255Y0247842D01*
X0032206Y0245294D01*
X0030219Y0242696D01*
X0028297Y0240050D01*
X0026441Y0237357D01*
X0024651Y0234620D01*
X0022929Y0231840D01*
X0021276Y0229018D01*
X0019692Y0226157D01*
X0018179Y0223258D01*
X0016738Y0220322D01*
X0015369Y0217352D01*
X0014073Y0214349D01*
X0012852Y0211316D01*
X0011705Y0208253D01*
X0010634Y0205163D01*
X0009639Y0202048D01*
X0008720Y0198909D01*
X0007879Y0195749D01*
X0007116Y0192569D01*
X0006430Y0189371D01*
X0005824Y0186158D01*
X0005296Y0182930D01*
X0004848Y0179691D01*
X0004480Y0176441D01*
X0004191Y0173183D01*
X0003982Y0169920D01*
X0003854Y0166652D01*
X0003805Y0163382D01*
X0003837Y0160112D01*
X0003949Y0156843D01*
X0004142Y0153579D01*
X0004414Y0150320D01*
X0004766Y0147068D01*
X0005198Y0143827D01*
X0005709Y0140597D01*
X0006299Y0137380D01*
X0006968Y0134179D01*
X0007716Y0130995D01*
X0008541Y0127831D01*
X0009444Y0124687D01*
X0010423Y0121567D01*
X0011479Y0118472D01*
X0012610Y0115403D01*
X0013816Y0112364D01*
X0015097Y0109354D01*
X0016451Y0106377D01*
X0017877Y0103435D01*
X0019376Y0100528D01*
X0020945Y0097658D01*
X0022584Y0094829D01*
X0024292Y0092040D01*
X0026068Y0089294D01*
X0027911Y0086592D01*
X0029819Y0083936D01*
X0031792Y0081328D01*
X0033829Y0078769D01*
X0035927Y0076261D01*
X0038087Y0073805D01*
X0040306Y0071403D01*
X0042583Y0069056D01*
X0044918Y0066765D01*
X0047307Y0064533D01*
X0049751Y0062360D01*
X0052248Y0060247D01*
X0054795Y0058196D01*
X0057392Y0056209D01*
X0060037Y0054285D01*
X0062728Y0052428D01*
X0065465Y0050636D01*
X0068244Y0048913D01*
X0071065Y0047258D01*
X0073925Y0045673D01*
X0076824Y0044158D01*
X0079758Y0042715D01*
X0082728Y0041345D01*
X0085730Y0040047D01*
X0088763Y0038824D01*
X0091825Y0037676D01*
X0094914Y0036603D01*
X0098029Y0035606D01*
X0101167Y0034686D01*
X0104327Y0033843D01*
X0107506Y0033078D01*
X0110704Y0032391D01*
X0113917Y0031783D01*
X0117144Y0031253D01*
X0120383Y0030803D01*
X0123633Y0030433D01*
X0126890Y0030143D01*
X0130154Y0029932D01*
X0133421Y0029802D01*
X0136691Y0029752D01*
X0139962Y0029782D01*
X0143230Y0029892D01*
X0146495Y0030082D01*
X0149754Y0030353D01*
X0153006Y0030703D01*
X0156247Y0031133D01*
X0159478Y0031643D01*
X0162695Y0032231D01*
X0165896Y0032899D01*
X0169081Y0033644D01*
X0172245Y0034468D01*
X0175389Y0035369D01*
X0178510Y0036346D01*
X0181606Y0037401D01*
X0184675Y0038530D01*
X0187715Y0039735D01*
X0190725Y0041014D01*
X0193703Y0042366D01*
X0196646Y0043791D01*
X0199554Y0045288D01*
X0202424Y0046855D01*
X0205255Y0048493D01*
X0208045Y0050199D01*
X0210792Y0051974D01*
X0213495Y0053815D01*
X0216151Y0055722D01*
X0218761Y0057694D01*
X0221321Y0059729D01*
X0223830Y0061826D01*
X0226287Y0063984D01*
X0228690Y0066202D01*
X0231039Y0068478D01*
X0233330Y0070811D01*
X0235564Y0073200D01*
X0237739Y0075642D01*
X0239853Y0078138D01*
X0241905Y0080684D01*
X0243894Y0083280D01*
X0245819Y0085924D01*
X0247678Y0088614D01*
X0249471Y0091349D01*
X0251196Y0094128D01*
X0252852Y0096948D01*
X0254439Y0099807D01*
X0255955Y0102705D01*
X0257400Y0105639D01*
X0258772Y0108607D01*
X0260071Y0111609D01*
X0261295Y0114641D01*
X0262446Y0117702D01*
X0263520Y0120791D01*
X0264519Y0123905D01*
X0265441Y0127043D01*
X0266285Y0130202D01*
X0267052Y0133382D01*
X0267741Y0136579D01*
X0268351Y0139792D01*
X0268882Y0143018D01*
X0269334Y0146257D01*
X0269706Y0149507D01*
X0269998Y0152764D01*
X0270210Y0156027D01*
X0270342Y0159295D01*
X0270394Y0162565D01*
X0270366Y0165835D01*
X0270257Y0169104D01*
X0270069Y0172368D01*
X0269800Y0175628D01*
X0269451Y0178879D01*
X0269023Y0182122D01*
X0268515Y0185352D01*
X0267929Y0188570D01*
X0267263Y0191771D01*
X0266519Y0194956D01*
X0265697Y0198122D01*
X0264798Y0201266D01*
X0263822Y0204387D01*
X0262770Y0207483D01*
X0261642Y0210553D01*
D17*
G36*
X0222591Y0217256D02*
X0227542Y0220115D01*
X0230795Y0214482D01*
X0225844Y0211623D01*
X0222591Y0217256D01*
G37*
G36*
X0216113Y0213515D02*
X0221064Y0216374D01*
X0224317Y0210741D01*
X0219366Y0207882D01*
X0216113Y0213515D01*
G37*
G36*
X0051950Y0207882D02*
X0046999Y0210741D01*
X0050252Y0216374D01*
X0055203Y0213515D01*
X0051950Y0207882D01*
G37*
G36*
X0045472Y0211623D02*
X0040521Y0214482D01*
X0043774Y0220115D01*
X0048725Y0217256D01*
X0045472Y0211623D01*
G37*
D18*
X0035192Y0146296D02*
X0034282Y0145386D01*
X0031873Y0147202D01*
X0031453Y0150185D01*
X0033269Y0152594D01*
X0036252Y0153014D01*
X0038661Y0151198D01*
X0039081Y0148215D01*
X0037265Y0145806D01*
X0034282Y0145386D01*
X0034651Y0146817D01*
X0033146Y0147951D01*
X0032884Y0149816D01*
X0034018Y0151321D01*
X0035883Y0151583D01*
X0037388Y0150449D01*
X0037650Y0148584D01*
X0036516Y0147079D01*
X0034651Y0146817D01*
X0035022Y0148247D01*
X0034419Y0148702D01*
X0034314Y0149445D01*
X0034769Y0150048D01*
X0035512Y0150153D01*
X0036115Y0149698D01*
X0036220Y0148955D01*
X0035765Y0148352D01*
X0035022Y0148247D01*
X0039844Y0128965D02*
X0038934Y0128055D01*
X0036246Y0129424D01*
X0035315Y0132290D01*
X0036684Y0134978D01*
X0039550Y0135909D01*
X0042238Y0134540D01*
X0043169Y0131674D01*
X0041800Y0128986D01*
X0038934Y0128055D01*
X0039050Y0129528D01*
X0037370Y0130384D01*
X0036788Y0132174D01*
X0037644Y0133854D01*
X0039434Y0134436D01*
X0041114Y0133580D01*
X0041696Y0131790D01*
X0040840Y0130110D01*
X0039050Y0129528D01*
X0039166Y0131001D01*
X0038493Y0131344D01*
X0038261Y0132058D01*
X0038604Y0132731D01*
X0039318Y0132963D01*
X0039991Y0132620D01*
X0040223Y0131906D01*
X0039880Y0131233D01*
X0039166Y0131001D01*
X0045615Y0112704D02*
X0046525Y0111794D01*
X0043641Y0112676D01*
X0042226Y0115337D01*
X0043108Y0118221D01*
X0045769Y0119636D01*
X0048653Y0118754D01*
X0050068Y0116093D01*
X0049186Y0113209D01*
X0046525Y0111794D01*
X0046383Y0113265D01*
X0044581Y0113816D01*
X0043697Y0115479D01*
X0044248Y0117281D01*
X0045911Y0118165D01*
X0047713Y0117614D01*
X0048597Y0115951D01*
X0048046Y0114149D01*
X0046383Y0113265D01*
X0046242Y0114735D01*
X0045521Y0114956D01*
X0045167Y0115620D01*
X0045388Y0116341D01*
X0046052Y0116695D01*
X0046773Y0116474D01*
X0047127Y0115810D01*
X0046906Y0115089D01*
X0046242Y0114735D01*
D19*
X0037233Y0182994D03*
X0234083Y0182994D03*
D20*
X0289320Y0147502D03*
X0299320Y0147502D03*
X0311820Y0147502D03*
X0311820Y0137502D03*
X0311820Y0127502D03*
X0311820Y0117502D03*
X0311820Y0107502D03*
X0311820Y0097502D03*
X0311820Y0087502D03*
X0311820Y0077502D03*
X0311820Y0067502D03*
X0299320Y0077502D03*
X0299320Y0087502D03*
X0299320Y0097502D03*
X0289320Y0097502D03*
X0289320Y0087502D03*
X0289320Y0077502D03*
X0289320Y0112502D03*
X0299320Y0112502D03*
X0299320Y0130002D03*
X0289320Y0130002D03*
X0311820Y0157502D03*
X0366820Y0175002D03*
X0376820Y0175002D03*
X0369320Y0190002D03*
X0369320Y0200002D03*
X0366820Y0115002D03*
X0376820Y0115002D03*
X0366820Y0097502D03*
X0366820Y0087502D03*
X0366820Y0077502D03*
X0366820Y0067502D03*
D21*
X0356720Y0067502D02*
X0351920Y0067502D01*
X0351920Y0077502D02*
X0356720Y0077502D01*
X0356720Y0087502D02*
X0351920Y0087502D01*
X0351920Y0097502D02*
X0356720Y0097502D01*
X0356720Y0107502D02*
X0351920Y0107502D01*
X0351920Y0117502D02*
X0356720Y0117502D01*
X0356720Y0127502D02*
X0351920Y0127502D01*
X0351920Y0137502D02*
X0356720Y0137502D01*
X0356720Y0147502D02*
X0351920Y0147502D01*
X0351920Y0157502D02*
X0356720Y0157502D01*
X0356720Y0167502D02*
X0351920Y0167502D01*
X0351920Y0177502D02*
X0356720Y0177502D01*
X0356720Y0187502D02*
X0351920Y0187502D01*
X0351920Y0197502D02*
X0356720Y0197502D01*
X0326720Y0197502D02*
X0321920Y0197502D01*
X0321920Y0187502D02*
X0326720Y0187502D01*
X0326720Y0177502D02*
X0321920Y0177502D01*
X0321920Y0167502D02*
X0326720Y0167502D01*
X0326720Y0157502D02*
X0321920Y0157502D01*
X0321920Y0147502D02*
X0326720Y0147502D01*
X0326720Y0137502D02*
X0321920Y0137502D01*
X0321920Y0127502D02*
X0326720Y0127502D01*
X0326720Y0117502D02*
X0321920Y0117502D01*
X0321920Y0107502D02*
X0326720Y0107502D01*
X0326720Y0097502D02*
X0321920Y0097502D01*
X0321920Y0087502D02*
X0326720Y0087502D01*
X0326720Y0077502D02*
X0321920Y0077502D01*
X0321920Y0067502D02*
X0326720Y0067502D01*
D22*
X0296820Y0050002D03*
X0384320Y0050002D03*
X0384320Y0217502D03*
X0296820Y0215002D03*
D23*
X0311120Y0225002D03*
X0322520Y0225002D03*
X0381820Y0195002D03*
X0389320Y0190002D03*
X0389320Y0200002D03*
X0389320Y0167502D03*
X0389320Y0157502D03*
X0389320Y0147502D03*
X0389320Y0137502D03*
X0389320Y0127502D03*
X0389320Y0117502D03*
D24*
X0366820Y0215002D03*
X0356820Y0215002D03*
X0356820Y0225002D03*
X0366820Y0225002D03*
X0346820Y0225002D03*
X0346820Y0215002D03*
X0336820Y0215002D03*
X0336820Y0225002D03*
D25*
X0341820Y0050002D03*
X0341820Y0040002D03*
X0351820Y0040002D03*
X0351820Y0050002D03*
X0361820Y0050002D03*
X0361820Y0040002D03*
X0331820Y0040002D03*
X0331820Y0050002D03*
X0321820Y0050002D03*
X0321820Y0040002D03*
D26*
X0371820Y0135502D03*
X0371820Y0154502D03*
D27*
X0339320Y0172502D03*
X0339320Y0091502D03*
D28*
X0384457Y0090402D02*
X0389182Y0090402D01*
X0389182Y0082502D02*
X0384457Y0082502D01*
X0384457Y0074602D02*
X0389182Y0074602D01*
D29*
X0386820Y0066352D03*
X0386820Y0098652D03*
D30*
X0310720Y0166702D02*
X0310720Y0172702D01*
X0292920Y0172702D02*
X0292920Y0166702D01*
X0292920Y0192302D02*
X0292920Y0198302D01*
X0310720Y0198302D02*
X0310720Y0192302D01*
D31*
X0312824Y0242050D03*
X0312824Y0249924D03*
X0312824Y0257798D03*
X0312824Y0265672D03*
X0320698Y0265672D03*
X0320698Y0257798D03*
X0320698Y0249924D03*
X0320698Y0242050D03*
X0336446Y0242050D03*
X0336446Y0249924D03*
X0336446Y0257798D03*
X0336446Y0265672D03*
X0336446Y0273546D03*
X0336446Y0281420D03*
X0344320Y0281420D03*
X0352194Y0281420D03*
X0352194Y0289294D03*
X0344320Y0289294D03*
X0336446Y0289294D03*
X0340383Y0301105D03*
X0348257Y0301105D03*
X0356131Y0301105D03*
X0364005Y0301105D03*
X0364005Y0308979D03*
X0371879Y0308979D03*
X0379753Y0308979D03*
X0387627Y0308979D03*
X0395501Y0308979D03*
X0395501Y0301105D03*
X0387627Y0301105D03*
X0379753Y0301105D03*
X0371879Y0301105D03*
X0367942Y0289294D03*
X0360068Y0289294D03*
X0360068Y0281420D03*
X0367942Y0281420D03*
X0367942Y0273546D03*
X0360068Y0273546D03*
X0352194Y0273546D03*
X0344320Y0273546D03*
X0344320Y0265672D03*
X0352194Y0265672D03*
X0352194Y0257798D03*
X0344320Y0257798D03*
X0344320Y0249924D03*
X0352194Y0249924D03*
X0360068Y0249924D03*
X0360068Y0257798D03*
X0360068Y0265672D03*
X0367942Y0265672D03*
X0367942Y0257798D03*
X0367942Y0249924D03*
X0367942Y0242050D03*
X0360068Y0242050D03*
X0352194Y0242050D03*
X0344320Y0242050D03*
X0320698Y0273546D03*
X0320698Y0281420D03*
X0320698Y0289294D03*
X0312824Y0289294D03*
X0312824Y0281420D03*
X0312824Y0273546D03*
X0304950Y0273546D03*
X0304950Y0281420D03*
X0304950Y0289294D03*
X0297076Y0289294D03*
X0297076Y0281420D03*
X0297076Y0273546D03*
X0297076Y0265672D03*
X0297076Y0257798D03*
X0304950Y0257798D03*
X0304950Y0265672D03*
X0304950Y0249924D03*
X0304950Y0242050D03*
X0297076Y0242050D03*
X0297076Y0249924D03*
X0289202Y0249924D03*
X0289202Y0257798D03*
X0289202Y0265672D03*
X0289202Y0273546D03*
X0289202Y0281420D03*
X0289202Y0289294D03*
X0277391Y0289294D03*
X0277391Y0281420D03*
X0277391Y0273546D03*
X0277391Y0265672D03*
X0277391Y0257798D03*
X0277391Y0249924D03*
X0277391Y0242050D03*
X0269517Y0242050D03*
X0269517Y0249924D03*
X0269517Y0257798D03*
X0269517Y0265672D03*
X0269517Y0273546D03*
X0269517Y0281420D03*
X0269517Y0289294D03*
X0265580Y0301105D03*
X0265580Y0308979D03*
X0257706Y0308979D03*
X0257706Y0301105D03*
X0249831Y0301105D03*
X0241957Y0301105D03*
X0234083Y0301105D03*
X0226209Y0301105D03*
X0218335Y0301105D03*
X0210461Y0301105D03*
X0202587Y0301105D03*
X0194713Y0301105D03*
X0186839Y0301105D03*
X0178965Y0301105D03*
X0171091Y0301105D03*
X0163217Y0301105D03*
X0155343Y0301105D03*
X0147469Y0301105D03*
X0147469Y0308979D03*
X0155343Y0308979D03*
X0163217Y0308979D03*
X0171091Y0308979D03*
X0178965Y0308979D03*
X0186839Y0308979D03*
X0194713Y0308979D03*
X0202587Y0308979D03*
X0210461Y0308979D03*
X0218335Y0308979D03*
X0226209Y0308979D03*
X0234083Y0308979D03*
X0241957Y0308979D03*
X0249831Y0308979D03*
X0249831Y0320790D03*
X0241957Y0320790D03*
X0234083Y0320790D03*
X0226209Y0320790D03*
X0218335Y0320790D03*
X0210461Y0320790D03*
X0202587Y0320790D03*
X0194713Y0320790D03*
X0186839Y0320790D03*
X0178965Y0320790D03*
X0171091Y0320790D03*
X0163217Y0320790D03*
X0155343Y0320790D03*
X0147469Y0320790D03*
X0147469Y0328664D03*
X0147469Y0336538D03*
X0147469Y0344412D03*
X0147469Y0352286D03*
X0155343Y0352286D03*
X0155343Y0344412D03*
X0155343Y0336538D03*
X0155343Y0328664D03*
X0163217Y0328664D03*
X0163217Y0336538D03*
X0163217Y0344412D03*
X0163217Y0352286D03*
X0171091Y0352286D03*
X0171091Y0344412D03*
X0171091Y0336538D03*
X0171091Y0328664D03*
X0178965Y0328664D03*
X0178965Y0336538D03*
X0178965Y0344412D03*
X0178965Y0352286D03*
X0186839Y0352286D03*
X0186839Y0344412D03*
X0186839Y0336538D03*
X0186839Y0328664D03*
X0194713Y0328664D03*
X0194713Y0336538D03*
X0194713Y0344412D03*
X0194713Y0352286D03*
X0202587Y0352286D03*
X0202587Y0344412D03*
X0202587Y0336538D03*
X0202587Y0328664D03*
X0210461Y0328664D03*
X0210461Y0336538D03*
X0210461Y0344412D03*
X0210461Y0352286D03*
X0218335Y0352286D03*
X0218335Y0344412D03*
X0218335Y0336538D03*
X0218335Y0328664D03*
X0226209Y0328664D03*
X0226209Y0336538D03*
X0226209Y0344412D03*
X0226209Y0352286D03*
X0234083Y0352286D03*
X0234083Y0344412D03*
X0234083Y0336538D03*
X0234083Y0328664D03*
X0241957Y0328664D03*
X0249831Y0328664D03*
X0249831Y0336538D03*
X0241957Y0336538D03*
X0241957Y0344412D03*
X0249831Y0344412D03*
X0249831Y0352286D03*
X0241957Y0352286D03*
X0241957Y0368034D03*
X0249831Y0368034D03*
X0249831Y0375908D03*
X0241957Y0375908D03*
X0234083Y0375908D03*
X0226209Y0375908D03*
X0218335Y0375908D03*
X0210461Y0375908D03*
X0202587Y0375908D03*
X0194713Y0375908D03*
X0186839Y0375908D03*
X0178965Y0375908D03*
X0171091Y0375908D03*
X0163217Y0375908D03*
X0155343Y0375908D03*
X0147469Y0375908D03*
X0147469Y0383782D03*
X0147469Y0391656D03*
X0147469Y0399530D03*
X0155343Y0399530D03*
X0155343Y0391656D03*
X0155343Y0383782D03*
X0163217Y0383782D03*
X0163217Y0391656D03*
X0163217Y0399530D03*
X0171091Y0399530D03*
X0171091Y0391656D03*
X0171091Y0383782D03*
X0178965Y0383782D03*
X0178965Y0391656D03*
X0178965Y0399530D03*
X0186839Y0399530D03*
X0186839Y0391656D03*
X0186839Y0383782D03*
X0194713Y0383782D03*
X0194713Y0391656D03*
X0194713Y0399530D03*
X0202587Y0399530D03*
X0202587Y0391656D03*
X0202587Y0383782D03*
X0210461Y0383782D03*
X0210461Y0391656D03*
X0210461Y0399530D03*
X0218335Y0399530D03*
X0218335Y0391656D03*
X0218335Y0383782D03*
X0226209Y0383782D03*
X0226209Y0391656D03*
X0226209Y0399530D03*
X0234083Y0399530D03*
X0234083Y0391656D03*
X0234083Y0383782D03*
X0241957Y0383782D03*
X0249831Y0383782D03*
X0249831Y0391656D03*
X0241957Y0391656D03*
X0241957Y0399530D03*
X0249831Y0399530D03*
X0257706Y0399530D03*
X0265580Y0399530D03*
X0265580Y0391656D03*
X0265580Y0383782D03*
X0265580Y0375908D03*
X0265580Y0368034D03*
X0257706Y0368034D03*
X0257706Y0375908D03*
X0257706Y0383782D03*
X0257706Y0391656D03*
X0257706Y0411341D03*
X0265580Y0411341D03*
X0265580Y0419215D03*
X0257706Y0419215D03*
X0249831Y0419215D03*
X0241957Y0419215D03*
X0234083Y0419215D03*
X0226209Y0419215D03*
X0218335Y0419215D03*
X0210461Y0419215D03*
X0202587Y0419215D03*
X0194713Y0419215D03*
X0186839Y0419215D03*
X0178965Y0419215D03*
X0171091Y0419215D03*
X0163217Y0419215D03*
X0155343Y0419215D03*
X0147469Y0419215D03*
X0147469Y0411341D03*
X0155343Y0411341D03*
X0163217Y0411341D03*
X0171091Y0411341D03*
X0178965Y0411341D03*
X0186839Y0411341D03*
X0194713Y0411341D03*
X0202587Y0411341D03*
X0210461Y0411341D03*
X0218335Y0411341D03*
X0226209Y0411341D03*
X0234083Y0411341D03*
X0241957Y0411341D03*
X0249831Y0411341D03*
X0277391Y0411341D03*
X0285265Y0411341D03*
X0293139Y0411341D03*
X0301013Y0411341D03*
X0308887Y0411341D03*
X0316761Y0411341D03*
X0324635Y0411341D03*
X0332509Y0411341D03*
X0340383Y0411341D03*
X0348257Y0411341D03*
X0356131Y0411341D03*
X0364005Y0411341D03*
X0371879Y0411341D03*
X0379753Y0411341D03*
X0387627Y0411341D03*
X0395501Y0411341D03*
X0395501Y0419215D03*
X0387627Y0419215D03*
X0379753Y0419215D03*
X0371879Y0419215D03*
X0364005Y0419215D03*
X0356131Y0419215D03*
X0348257Y0419215D03*
X0340383Y0419215D03*
X0332509Y0419215D03*
X0324635Y0419215D03*
X0316761Y0419215D03*
X0308887Y0419215D03*
X0301013Y0419215D03*
X0293139Y0419215D03*
X0285265Y0419215D03*
X0277391Y0419215D03*
X0277391Y0399530D03*
X0285265Y0399530D03*
X0293139Y0399530D03*
X0301013Y0399530D03*
X0308887Y0399530D03*
X0316761Y0399530D03*
X0324635Y0399530D03*
X0332509Y0399530D03*
X0340383Y0399530D03*
X0348257Y0399530D03*
X0356131Y0399530D03*
X0364005Y0399530D03*
X0371879Y0399530D03*
X0379753Y0399530D03*
X0387627Y0399530D03*
X0395501Y0399530D03*
X0395501Y0391656D03*
X0395501Y0383782D03*
X0395501Y0375908D03*
X0395501Y0368034D03*
X0387627Y0368034D03*
X0387627Y0375908D03*
X0387627Y0383782D03*
X0387627Y0391656D03*
X0379753Y0391656D03*
X0379753Y0383782D03*
X0379753Y0375908D03*
X0379753Y0368034D03*
X0371879Y0368034D03*
X0371879Y0375908D03*
X0371879Y0383782D03*
X0371879Y0391656D03*
X0364005Y0391656D03*
X0364005Y0383782D03*
X0364005Y0375908D03*
X0364005Y0368034D03*
X0356131Y0368034D03*
X0348257Y0368034D03*
X0348257Y0375908D03*
X0356131Y0375908D03*
X0356131Y0383782D03*
X0348257Y0383782D03*
X0348257Y0391656D03*
X0356131Y0391656D03*
X0340383Y0391656D03*
X0340383Y0383782D03*
X0340383Y0375908D03*
X0340383Y0368034D03*
X0332509Y0368034D03*
X0332509Y0375908D03*
X0332509Y0383782D03*
X0332509Y0391656D03*
X0324635Y0391656D03*
X0324635Y0383782D03*
X0324635Y0375908D03*
X0324635Y0368034D03*
X0316761Y0368034D03*
X0316761Y0375908D03*
X0316761Y0383782D03*
X0316761Y0391656D03*
X0308887Y0391656D03*
X0308887Y0383782D03*
X0308887Y0375908D03*
X0308887Y0368034D03*
X0301013Y0368034D03*
X0301013Y0375908D03*
X0301013Y0383782D03*
X0301013Y0391656D03*
X0293139Y0391656D03*
X0293139Y0383782D03*
X0293139Y0375908D03*
X0293139Y0368034D03*
X0285265Y0368034D03*
X0285265Y0375908D03*
X0285265Y0383782D03*
X0285265Y0391656D03*
X0277391Y0391656D03*
X0277391Y0383782D03*
X0277391Y0375908D03*
X0277391Y0368034D03*
X0277391Y0352286D03*
X0285265Y0352286D03*
X0293139Y0352286D03*
X0301013Y0352286D03*
X0308887Y0352286D03*
X0316761Y0352286D03*
X0324635Y0352286D03*
X0332509Y0352286D03*
X0340383Y0352286D03*
X0348257Y0352286D03*
X0356131Y0352286D03*
X0364005Y0352286D03*
X0371879Y0352286D03*
X0379753Y0352286D03*
X0387627Y0352286D03*
X0395501Y0352286D03*
X0395501Y0344412D03*
X0395501Y0336538D03*
X0395501Y0328664D03*
X0387627Y0328664D03*
X0387627Y0336538D03*
X0387627Y0344412D03*
X0379753Y0344412D03*
X0379753Y0336538D03*
X0379753Y0328664D03*
X0379753Y0320790D03*
X0387627Y0320790D03*
X0395501Y0320790D03*
X0371879Y0320790D03*
X0371879Y0328664D03*
X0371879Y0336538D03*
X0371879Y0344412D03*
X0364005Y0344412D03*
X0364005Y0336538D03*
X0364005Y0328664D03*
X0364005Y0320790D03*
X0356131Y0320790D03*
X0348257Y0320790D03*
X0348257Y0328664D03*
X0356131Y0328664D03*
X0356131Y0336538D03*
X0348257Y0336538D03*
X0348257Y0344412D03*
X0356131Y0344412D03*
X0340383Y0344412D03*
X0340383Y0336538D03*
X0340383Y0328664D03*
X0340383Y0320790D03*
X0332509Y0320790D03*
X0332509Y0328664D03*
X0332509Y0336538D03*
X0332509Y0344412D03*
X0324635Y0344412D03*
X0324635Y0336538D03*
X0324635Y0328664D03*
X0324635Y0320790D03*
X0316761Y0320790D03*
X0316761Y0328664D03*
X0316761Y0336538D03*
X0316761Y0344412D03*
X0308887Y0344412D03*
X0308887Y0336538D03*
X0308887Y0328664D03*
X0308887Y0320790D03*
X0301013Y0320790D03*
X0301013Y0328664D03*
X0301013Y0336538D03*
X0301013Y0344412D03*
X0293139Y0344412D03*
X0293139Y0336538D03*
X0293139Y0328664D03*
X0293139Y0320790D03*
X0285265Y0320790D03*
X0285265Y0328664D03*
X0285265Y0336538D03*
X0285265Y0344412D03*
X0277391Y0344412D03*
X0277391Y0336538D03*
X0277391Y0328664D03*
X0277391Y0320790D03*
X0277391Y0308979D03*
X0285265Y0308979D03*
X0293139Y0308979D03*
X0301013Y0308979D03*
X0308887Y0308979D03*
X0316761Y0308979D03*
X0324635Y0308979D03*
X0332509Y0308979D03*
X0340383Y0308979D03*
X0348257Y0308979D03*
X0356131Y0308979D03*
X0332509Y0301105D03*
X0324635Y0301105D03*
X0316761Y0301105D03*
X0308887Y0301105D03*
X0301013Y0301105D03*
X0293139Y0301105D03*
X0285265Y0301105D03*
X0277391Y0301105D03*
X0265580Y0320790D03*
X0265580Y0328664D03*
X0265580Y0336538D03*
X0265580Y0344412D03*
X0265580Y0352286D03*
X0257706Y0352286D03*
X0257706Y0344412D03*
X0257706Y0336538D03*
X0257706Y0328664D03*
X0257706Y0320790D03*
X0234083Y0368034D03*
X0226209Y0368034D03*
X0218335Y0368034D03*
X0210461Y0368034D03*
X0202587Y0368034D03*
X0194713Y0368034D03*
X0186839Y0368034D03*
X0178965Y0368034D03*
X0171091Y0368034D03*
X0163217Y0368034D03*
X0155343Y0368034D03*
X0147469Y0368034D03*
X0135658Y0368034D03*
X0127784Y0368034D03*
X0119910Y0368034D03*
X0112036Y0368034D03*
X0104162Y0368034D03*
X0096288Y0368034D03*
X0088414Y0368034D03*
X0080540Y0368034D03*
X0072666Y0368034D03*
X0072666Y0375908D03*
X0064792Y0375908D03*
X0064792Y0383782D03*
X0056918Y0383782D03*
X0056918Y0391656D03*
X0049044Y0391656D03*
X0041170Y0391656D03*
X0041170Y0399530D03*
X0049044Y0399530D03*
X0056918Y0399530D03*
X0064792Y0399530D03*
X0064792Y0391656D03*
X0072666Y0391656D03*
X0072666Y0399530D03*
X0080540Y0399530D03*
X0080540Y0391656D03*
X0080540Y0383782D03*
X0072666Y0383782D03*
X0080540Y0375908D03*
X0088414Y0375908D03*
X0088414Y0383782D03*
X0088414Y0391656D03*
X0088414Y0399530D03*
X0096288Y0399530D03*
X0096288Y0391656D03*
X0096288Y0383782D03*
X0096288Y0375908D03*
X0104162Y0375908D03*
X0104162Y0383782D03*
X0104162Y0391656D03*
X0104162Y0399530D03*
X0112036Y0399530D03*
X0112036Y0391656D03*
X0112036Y0383782D03*
X0112036Y0375908D03*
X0119910Y0375908D03*
X0119910Y0383782D03*
X0119910Y0391656D03*
X0119910Y0399530D03*
X0127784Y0399530D03*
X0127784Y0391656D03*
X0127784Y0383782D03*
X0127784Y0375908D03*
X0135658Y0375908D03*
X0135658Y0383782D03*
X0135658Y0391656D03*
X0135658Y0399530D03*
X0135658Y0411341D03*
X0127784Y0411341D03*
X0119910Y0411341D03*
X0112036Y0411341D03*
X0104162Y0411341D03*
X0096288Y0411341D03*
X0088414Y0411341D03*
X0080540Y0411341D03*
X0072666Y0411341D03*
X0064792Y0411341D03*
X0056918Y0411341D03*
X0049044Y0411341D03*
X0041170Y0411341D03*
X0033296Y0411341D03*
X0025422Y0411341D03*
X0025422Y0419215D03*
X0017548Y0419215D03*
X0017548Y0411341D03*
X0017548Y0399530D03*
X0025422Y0399530D03*
X0033296Y0399530D03*
X0033296Y0391656D03*
X0025422Y0391656D03*
X0017548Y0391656D03*
X0017548Y0383782D03*
X0025422Y0383782D03*
X0033296Y0383782D03*
X0041170Y0383782D03*
X0049044Y0383782D03*
X0049044Y0375908D03*
X0041170Y0375908D03*
X0033296Y0375908D03*
X0025422Y0375908D03*
X0017548Y0375908D03*
X0017548Y0368034D03*
X0025422Y0368034D03*
X0033296Y0368034D03*
X0041170Y0368034D03*
X0049044Y0368034D03*
X0056918Y0368034D03*
X0056918Y0375908D03*
X0064792Y0368034D03*
X0064792Y0352286D03*
X0056918Y0352286D03*
X0049044Y0352286D03*
X0041170Y0352286D03*
X0033296Y0352286D03*
X0025422Y0352286D03*
X0017548Y0352286D03*
X0017548Y0344412D03*
X0025422Y0344412D03*
X0033296Y0344412D03*
X0041170Y0344412D03*
X0049044Y0344412D03*
X0056918Y0344412D03*
X0064792Y0344412D03*
X0072666Y0344412D03*
X0072666Y0352286D03*
X0080540Y0352286D03*
X0088414Y0352286D03*
X0088414Y0344412D03*
X0080540Y0344412D03*
X0080540Y0336538D03*
X0072666Y0336538D03*
X0064792Y0336538D03*
X0056918Y0336538D03*
X0049044Y0336538D03*
X0041170Y0336538D03*
X0033296Y0336538D03*
X0025422Y0336538D03*
X0017548Y0336538D03*
X0017548Y0328664D03*
X0025422Y0328664D03*
X0033296Y0328664D03*
X0041170Y0328664D03*
X0049044Y0328664D03*
X0056918Y0328664D03*
X0064792Y0328664D03*
X0072666Y0328664D03*
X0080540Y0328664D03*
X0088414Y0328664D03*
X0088414Y0336538D03*
X0096288Y0336538D03*
X0096288Y0344412D03*
X0096288Y0352286D03*
X0104162Y0352286D03*
X0104162Y0344412D03*
X0104162Y0336538D03*
X0104162Y0328664D03*
X0096288Y0328664D03*
X0096288Y0320790D03*
X0088414Y0320790D03*
X0080540Y0320790D03*
X0072666Y0320790D03*
X0064792Y0320790D03*
X0056918Y0320790D03*
X0049044Y0320790D03*
X0041170Y0320790D03*
X0033296Y0320790D03*
X0025422Y0320790D03*
X0017548Y0320790D03*
X0017548Y0308979D03*
X0025422Y0308979D03*
X0033296Y0308979D03*
X0041170Y0308979D03*
X0049044Y0308979D03*
X0056918Y0308979D03*
X0064792Y0308979D03*
X0072666Y0308979D03*
X0080540Y0308979D03*
X0088414Y0308979D03*
X0096288Y0308979D03*
X0104162Y0308979D03*
X0112036Y0308979D03*
X0119910Y0308979D03*
X0127784Y0308979D03*
X0135658Y0308979D03*
X0135658Y0301105D03*
X0127784Y0301105D03*
X0119910Y0301105D03*
X0112036Y0301105D03*
X0104162Y0301105D03*
X0096288Y0301105D03*
X0088414Y0301105D03*
X0080540Y0301105D03*
X0072666Y0301105D03*
X0064792Y0301105D03*
X0056918Y0301105D03*
X0049044Y0301105D03*
X0041170Y0301105D03*
X0033296Y0301105D03*
X0025422Y0301105D03*
X0017548Y0301105D03*
X0104162Y0320790D03*
X0112036Y0320790D03*
X0112036Y0328664D03*
X0112036Y0336538D03*
X0112036Y0344412D03*
X0112036Y0352286D03*
X0119910Y0352286D03*
X0119910Y0344412D03*
X0119910Y0336538D03*
X0119910Y0328664D03*
X0119910Y0320790D03*
X0127784Y0320790D03*
X0127784Y0328664D03*
X0127784Y0336538D03*
X0127784Y0344412D03*
X0127784Y0352286D03*
X0135658Y0352286D03*
X0135658Y0344412D03*
X0135658Y0336538D03*
X0135658Y0328664D03*
X0135658Y0320790D03*
X0135658Y0419215D03*
X0127784Y0419215D03*
X0119910Y0419215D03*
X0112036Y0419215D03*
X0104162Y0419215D03*
X0096288Y0419215D03*
X0088414Y0419215D03*
X0080540Y0419215D03*
X0072666Y0419215D03*
X0064792Y0419215D03*
X0056918Y0419215D03*
X0049044Y0419215D03*
X0041170Y0419215D03*
X0033296Y0419215D03*
X0289202Y0242050D03*
X0379753Y0242050D03*
X0379753Y0249924D03*
X0379753Y0257798D03*
X0379753Y0265672D03*
X0379753Y0273546D03*
X0379753Y0281420D03*
X0379753Y0289294D03*
X0387627Y0289294D03*
X0387627Y0281420D03*
X0387627Y0273546D03*
X0387627Y0265672D03*
X0387627Y0257798D03*
X0387627Y0249924D03*
X0387627Y0242050D03*
M02*
