%
M48
M72
T01C0.0130
T02C0.0236
T03C0.0315
T04C0.0320
T05C0.0394
T06C0.0400
T07C0.0440
T08C0.0591
T09C0.0670
T10C0.1300
%
T01
X24081Y23030
X23637Y22747
X23348Y23180
X23040Y23601
X22714Y24007
X22370Y24399
X22010Y24775
X21633Y25135
X21242Y25479
X21026Y25131
X20657Y25020
X20712Y24581
X21097Y24565
X20621Y24148
X20980Y24007
X20686Y23518
X20393Y23769
X20054Y23485
X20248Y23152
X19715Y22950
X19640Y23328
X19197Y23315
X19144Y22933
X18754Y23445
X18527Y23134
X18116Y23415
X18324Y23739
X17879Y24007
X17690Y23671
X17249Y23902
X17418Y24249
X16943Y24462
X16796Y24106
X16457Y24647
X16331Y24284
X15856Y24433
X15961Y24804
X15457Y24930
X15374Y24554
X14885Y24647
X14945Y25027
X14429Y25093
X14392Y24710
X13895Y24744
X13566Y24943
X13236Y24744
X13221Y25129
X12702Y25093
X12740Y24710
X12247Y24647
X12186Y25027
X11675Y24930
X11758Y24554
X11275Y24433
X11171Y24804
X10674Y24647
X10801Y24284
X10336Y24106
X10188Y24462
X9714Y24249
X9882Y23902
X9442Y23671
X9253Y24007
X8807Y23739
X9015Y23415
X8605Y23134
X8378Y23445
X7934Y23315
X7987Y22933
X7417Y22950
X7492Y23328
X7078Y23485
X6884Y23152
X6446Y23518
X6738Y23769
X6510Y24148
X6152Y24007
X6034Y24565
X6419Y24581
X6475Y25020
X6106Y25131
X5890Y25479
X6296Y25805
X6716Y26113
X6986Y25727
X6671Y25417
X7403Y26005
X7150Y26402
X7595Y26673
X7830Y26265
X8269Y26506
X8052Y26923
X8519Y27154
X8718Y26727
X9176Y26929
X8996Y27364
X8795Y27850
X9302Y28047
X9482Y27552
X9643Y27110
X10117Y27271
X9975Y27720
X10475Y27866
X10597Y27411
X11083Y27530
X10981Y27989
X10867Y28503
X10339Y28374
X9817Y28222
X8297Y27631
X7809Y27390
X7332Y27128
X6867Y26846
X6415Y26544
X5976Y26222
X5552Y25882
X5143Y25523
X5498Y25135
X5122Y24775
X4762Y24399
X4418Y24007
X4092Y23601
X3784Y23180
X3494Y22747
X3051Y23030
X3353Y23482
X3674Y23921
X4015Y24345
X4374Y24754
X4750Y25147
X2768Y22565
X3224Y22302
X2973Y21845
X2743Y21378
X2533Y20901
X2344Y20415
X2177Y19922
X2031Y19422
X1907Y18916
X1394Y19029
X1287Y18496
X1806Y18405
X1726Y17890
X1670Y17372
X1636Y16852
X1624Y16331
X1098Y16331
X1110Y16875
X1145Y17418
X1205Y17958
X1523Y19558
X1675Y20080
X1850Y20595
X2047Y21102
X2266Y21600
X2507Y22088
X5917Y21902
X7818Y20356
X8275Y20035
X8733Y19715
X9047Y20123
X9394Y20503
X9774Y20850
X10182Y21164
X10616Y21440
X10895Y20956
X10503Y20706
X10133Y20422
X9789Y20107
X9475Y19764
X9191Y19394
X8941Y19001
X8726Y18588
X8547Y18158
X8407Y17713
X8306Y17258
X8245Y16796
X8225Y16331
X8784Y16331
X8802Y16748
X8857Y17161
X8947Y17569
X9072Y17966
X9232Y18352
X9425Y18722
X9649Y19074
X9903Y19405
X10185Y19712
X10492Y19994
X10823Y20248
X11175Y20472
X11545Y20665
X11930Y20824
X12328Y20950
X12473Y20410
X12121Y20299
X11781Y20158
X11454Y19988
X11144Y19790
X10851Y19566
X10580Y19317
X10331Y19045
X10107Y18753
X9909Y18442
X9738Y18116
X9597Y17775
X9487Y17424
X9407Y17064
X9359Y16699
X9343Y16331
X9359Y15963
X9407Y15598
X9487Y15238
X8947Y15093
X8857Y15501
X8802Y15914
X8245Y15865
X8306Y15404
X8407Y14949
X7867Y14804
X7756Y15307
X7689Y15817
X7132Y15768
X6575Y15719
X6655Y15112
X7206Y15209
X7328Y14659
X6788Y14515
X6549Y16331
X6575Y16943
X7132Y16894
X7689Y16845
X7666Y16331
X7108Y16331
X7206Y17452
X7756Y17355
X7867Y17858
X8022Y18349
X8219Y18824
X8457Y19281
X7973Y19560
X7489Y19840
X7206Y19297
X7713Y19060
X7497Y18540
X6972Y18731
X6788Y18147
X7328Y18002
X6655Y17549
X8618Y20482
X8999Y20898
X8604Y21293
X9055Y21706
X9415Y21278
X9861Y21621
X9541Y22079
X10057Y22408
X10337Y21924
X10836Y22184
X10600Y22691
X11166Y22925
X11357Y22400
X11548Y21875
X12039Y22029
X12184Y21490
X11739Y21350
X11309Y21171
X11073Y21678
X11894Y22569
X11750Y23109
X13910Y25129
X15558Y27627
X15639Y28091
X16150Y27989
X16049Y27530
X16535Y27411
X16657Y27866
X17157Y27720
X17015Y27271
X17489Y27110
X17650Y27552
X18136Y27364
X17955Y26929
X18414Y26727
X18613Y27154
X19080Y26923
X18862Y26506
X19301Y26265
X19537Y26673
X19982Y26402
X19729Y26005
X20145Y25727
X20461Y25417
X20835Y25805
X20415Y26113
X20717Y26544
X20265Y26846
X19800Y27128
X19323Y27390
X18835Y27631
X18337Y27850
X17830Y28047
X17315Y28222
X16793Y28374
X16264Y28503
X15731Y28609
X15193Y28692
X15125Y28170
X15063Y27704
X14566Y27758
X14607Y28227
X14087Y28261
X14066Y27791
X13566Y27802
X13566Y28273
X13045Y28261
X13065Y27791
X12566Y27758
X12525Y28227
X12007Y28170
X12069Y27704
X11574Y27627
X11492Y28091
X11401Y28609
X11938Y28692
X12479Y28751
X13022Y28787
X13566Y28799
X14110Y28787
X14652Y28751
X15382Y23109
X15237Y22569
X15093Y22029
X14948Y21490
X15392Y21350
X15823Y21171
X16236Y20956
X16629Y20706
X16999Y20422
X17342Y20107
X17657Y19764
X17941Y19394
X18191Y19001
X18406Y18588
X18584Y18158
X18725Y17713
X18825Y17258
X18886Y16796
X18906Y16331
X19465Y16331
X19443Y16845
X19376Y17355
X19264Y17858
X19110Y18349
X18913Y18824
X18675Y19281
X18398Y19715
X18085Y20123
X17737Y20503
X17358Y20850
X16950Y21164
X16516Y21440
X16059Y21678
X15584Y21875
X15775Y22400
X15966Y22925
X16531Y22691
X16295Y22184
X16795Y21924
X17074Y22408
X17591Y22079
X17270Y21621
X17717Y21278
X18076Y21706
X18528Y21293
X18133Y20898
X18513Y20482
X18941Y20841
X19314Y20356
X18856Y20035
X19159Y19560
X19643Y19840
X19926Y19297
X19419Y19060
X19635Y18540
X20160Y18731
X20344Y18147
X19804Y18002
X19926Y17452
X20476Y17549
X20556Y16943
X20583Y16331
X20024Y16331
X20000Y16894
X20000Y15768
X19443Y15817
X19376Y15307
X19264Y14804
X19804Y14659
X20344Y14515
X20476Y15112
X19926Y15209
X20556Y15719
X18886Y15865
X18825Y15404
X18725Y14949
X18185Y15093
X18275Y15501
X18329Y15914
X18348Y16331
X18329Y16748
X18275Y17161
X18185Y17569
X18059Y17966
X17900Y18352
X17707Y18722
X17483Y19074
X17229Y19405
X16947Y19712
X16640Y19994
X16309Y20248
X15957Y20472
X15587Y20665
X15201Y20824
X14803Y20950
X14659Y20410
X15010Y20299
X15351Y20158
X15677Y19988
X15988Y19790
X16280Y19566
X16552Y19317
X16801Y19045
X17025Y18753
X17223Y18442
X17393Y18116
X17534Y17775
X17645Y17424
X17725Y17064
X17773Y16699
X17789Y16331
X17773Y15963
X17725Y15598
X17645Y15238
X24363Y22565
X23908Y22302
X24158Y21845
X24389Y21378
X24598Y20901
X24787Y20415
X24955Y19922
X25101Y19422
X25224Y18916
X25738Y19029
X25844Y18496
X25326Y18405
X25405Y17890
X25462Y17372
X25496Y16852
X25507Y16331
X26034Y16331
X26022Y16875
X25986Y17418
X25927Y17958
X25609Y19558
X25457Y20080
X25282Y20595
X25085Y21102
X24866Y21600
X24625Y22088
X21156Y26222
X21580Y25882
X21989Y25523
X22382Y25147
X22758Y24754
X23117Y24345
X23457Y23921
X23779Y23482
X22215Y20170
X30282Y18000
X32882Y21000
X32882Y22700
X4750Y7515
X5122Y7887
X5498Y7527
X5890Y7183
X6106Y7531
X6475Y7642
X6419Y8081
X6034Y8097
X6510Y8514
X6152Y8655
X6446Y9144
X6738Y8893
X7078Y9177
X6884Y9510
X7417Y9712
X7492Y9334
X7934Y9347
X7987Y9728
X8378Y9217
X8605Y9528
X9015Y9247
X8807Y8923
X9253Y8655
X9442Y8991
X9882Y8760
X9714Y8413
X10188Y8200
X10336Y8555
X10801Y8378
X10674Y8014
X11171Y7858
X11275Y8229
X11758Y8108
X11675Y7731
X12186Y7635
X12247Y8015
X12740Y7952
X12702Y7569
X13221Y7533
X13236Y7918
X13566Y7719
X13895Y7918
X13910Y7533
X14429Y7569
X14392Y7952
X14885Y8015
X14945Y7635
X15457Y7731
X15374Y8108
X15856Y8229
X15961Y7858
X16331Y8378
X16457Y8014
X16943Y8200
X16796Y8555
X17249Y8760
X17418Y8413
X17879Y8655
X17690Y8991
X18116Y9247
X18324Y8923
X18754Y9217
X18527Y9528
X19144Y9728
X19197Y9347
X19640Y9334
X19715Y9712
X20248Y9510
X20054Y9177
X20393Y8893
X20686Y9144
X20980Y8655
X20621Y8514
X20712Y8081
X21097Y8097
X21026Y7531
X20657Y7642
X20461Y7245
X20145Y6935
X20415Y6549
X19982Y6259
X19729Y6657
X19301Y6397
X19537Y5989
X19080Y5739
X18862Y6156
X18414Y5935
X18613Y5508
X18136Y5298
X17955Y5733
X17489Y5552
X17650Y5109
X17830Y4615
X17315Y4440
X17157Y4942
X17015Y5391
X16535Y5251
X16657Y4796
X16150Y4672
X16049Y5132
X15639Y4571
X15558Y5034
X15063Y4958
X15125Y4491
X14607Y4435
X14566Y4904
X14066Y4871
X14087Y4401
X13566Y4389
X13566Y4860
X13065Y4871
X13045Y4401
X12525Y4435
X12566Y4904
X12069Y4958
X12007Y4491
X11492Y4571
X11574Y5034
X11083Y5132
X10981Y4672
X10475Y4796
X10597Y5251
X10117Y5391
X9975Y4942
X9482Y5109
X9643Y5552
X9176Y5733
X8996Y5298
X8519Y5508
X8718Y5935
X8269Y6156
X8052Y5739
X7595Y5989
X7830Y6397
X7403Y6657
X7150Y6259
X6716Y6549
X6986Y6935
X6671Y7245
X6296Y6857
X5976Y6440
X5552Y6780
X5143Y7139
X4374Y7908
X4762Y8263
X4418Y8655
X4092Y9061
X3784Y9482
X3494Y9915
X3224Y10360
X2973Y10817
X2743Y11284
X2533Y11761
X2344Y12247
X2177Y12740
X2031Y13240
X1523Y13104
X1675Y12582
X1850Y12067
X2047Y11560
X2266Y11062
X2507Y10574
X2768Y10097
X3051Y9632
X3353Y9180
X3674Y8741
X4015Y8317
X6415Y6118
X6867Y5816
X7332Y5533
X7809Y5272
X8297Y5031
X8795Y4812
X9302Y4615
X9817Y4440
X10339Y4288
X10867Y4159
X11401Y4053
X11938Y3970
X12479Y3911
X13022Y3875
X13566Y3863
X14110Y3875
X14652Y3911
X15193Y3970
X15731Y4053
X16264Y4159
X16793Y4288
X18337Y4812
X18835Y5031
X19323Y5272
X19800Y5533
X20265Y5816
X20717Y6118
X21156Y6440
X20835Y6857
X21242Y7183
X21633Y7527
X22010Y7887
X22370Y8263
X22714Y8655
X23040Y9061
X23348Y9482
X23637Y9915
X23908Y10360
X24158Y10817
X24389Y11284
X24598Y11761
X24787Y12247
X24955Y12740
X25101Y13240
X25609Y13104
X25738Y13632
X25224Y13746
X25326Y14257
X25405Y14772
X25462Y15290
X25496Y15810
X26022Y15787
X25986Y15244
X25927Y14704
X25844Y14166
X25457Y12582
X25282Y12067
X25085Y11560
X24866Y11062
X24625Y10574
X24363Y10097
X24081Y9632
X23779Y9180
X23457Y8741
X23117Y8317
X22758Y7908
X22382Y7515
X21989Y7139
X21580Y6780
X18290Y11607
X17742Y12155
X8841Y11446
X9390Y11213
X9390Y12155
X8054Y11860
X8190Y20841
X1670Y15290
X1726Y14772
X1806Y14257
X1907Y13746
X1394Y13632
X1287Y14166
X1205Y14704
X1145Y15244
X1110Y15787
X1636Y15810
X30182Y6500
X31282Y5800
X31082Y5500
X33182Y6700
X33882Y6100
X34782Y5800
X35382Y5800
X34482Y7300
X33982Y7600
X33582Y8000
X33182Y8600
X33982Y10000
X34282Y10500
X34782Y11100
X33482Y10500
X33482Y11700
X33382Y12700
X33082Y13300
X34682Y13400
X33682Y15100
X33682Y15500
X33382Y16700
X30282Y13300
X29582Y14200
X29282Y10900
X30082Y10700
X29582Y10100
X29582Y9100
X31482Y8300
X36382Y10100
X36882Y10800
X37182Y11600
X36082Y12000
X38282Y11100
X38582Y10800
X38082Y9400
X37482Y6400
X37882Y6100
X37582Y5400
X38782Y5900
X37882Y16700
X39282Y17300
T02
X26952Y24205
X27739Y24205
X27739Y24992
X26952Y24992
X26952Y25780
X26952Y26567
X27739Y26567
X27739Y25780
X28920Y25780
X28920Y26567
X29708Y26567
X29708Y25780
X30495Y25780
X30495Y26567
X31282Y26567
X31282Y25780
X31282Y24992
X31282Y24205
X30495Y24205
X30495Y24992
X29708Y24992
X29708Y24205
X28920Y24205
X28920Y24992
X28920Y27355
X28920Y28142
X28920Y28929
X29708Y28929
X30495Y28929
X30495Y28142
X31282Y28142
X31282Y28929
X32070Y28929
X32070Y28142
X32070Y27355
X31282Y27355
X30495Y27355
X29708Y27355
X29708Y28142
X27739Y28142
X26952Y28142
X26952Y28929
X27739Y28929
X27739Y30110
X26558Y30110
X25771Y30110
X24983Y30110
X24196Y30110
X23408Y30110
X22621Y30110
X21834Y30110
X21046Y30110
X20259Y30110
X37975Y30110
X19471Y30110
X18684Y30110
X17897Y30110
X17109Y30110
X16322Y30110
X15534Y30110
X14747Y30110
X13566Y30110
X12778Y30110
X11991Y30110
X11204Y30110
X10416Y30110
X9629Y30110
X8841Y30110
X2542Y30110
X1755Y30110
X1755Y30898
X2542Y30898
X3330Y30898
X4117Y30898
X4904Y30898
X4904Y30110
X4117Y30110
X3330Y30110
X3330Y32079
X4117Y32079
X4904Y32079
X4904Y32866
X4117Y32866
X3330Y32866
X3330Y33654
X4117Y33654
X4904Y33654
X4904Y34441
X4117Y34441
X3330Y34441
X3330Y35229
X4117Y35229
X4904Y35229
X5692Y35229
X6479Y35229
X7267Y35229
X8054Y35229
X8841Y35229
X8841Y34441
X8054Y34441
X8054Y33654
X7267Y33654
X7267Y34441
X6479Y34441
X5692Y34441
X5692Y33654
X6479Y33654
X6479Y32866
X6479Y32079
X5692Y32079
X5692Y32866
X7267Y32866
X8054Y32866
X8054Y32079
X7267Y32079
X7267Y30898
X8054Y30898
X8841Y30898
X9629Y30898
X10416Y30898
X11204Y30898
X11991Y30898
X12778Y30898
X13566Y30898
X14747Y30898
X15534Y30898
X16322Y30898
X17109Y30898
X17897Y30898
X18684Y30898
X19471Y30898
X20259Y30898
X21046Y30898
X21834Y30898
X22621Y30898
X23408Y30898
X24196Y30898
X24983Y30898
X25771Y30898
X26558Y30898
X26558Y32079
X26558Y32866
X25771Y32866
X25771Y32079
X24983Y32079
X24196Y32079
X24196Y32866
X24983Y32866
X24983Y33654
X24196Y33654
X24196Y34441
X24983Y34441
X25771Y34441
X26558Y34441
X26558Y33654
X25771Y33654
X25771Y35229
X26558Y35229
X27739Y35229
X28526Y35229
X28526Y34441
X27739Y34441
X27739Y33654
X28526Y33654
X28526Y32866
X27739Y32866
X27739Y32079
X28526Y32079
X29314Y32079
X30101Y32079
X30101Y32866
X29314Y32866
X29314Y33654
X29314Y34441
X30101Y34441
X30101Y33654
X30889Y33654
X31676Y33654
X31676Y34441
X30889Y34441
X30889Y35229
X31676Y35229
X32463Y35229
X32463Y34441
X32463Y33654
X32463Y32866
X31676Y32866
X31676Y32079
X30889Y32079
X30889Y32866
X32463Y32079
X33251Y32079
X34038Y32079
X34038Y32866
X33251Y32866
X33251Y33654
X33251Y34441
X34038Y34441
X34038Y33654
X34826Y33654
X35613Y33654
X35613Y34441
X34826Y34441
X34826Y35229
X35613Y35229
X36400Y35229
X36400Y34441
X36400Y33654
X36400Y32866
X35613Y32866
X34826Y32866
X34826Y32079
X35613Y32079
X36400Y32079
X37188Y32079
X37975Y32079
X37975Y32866
X37188Y32866
X37188Y33654
X37188Y34441
X37975Y34441
X37975Y33654
X38763Y33654
X39550Y33654
X39550Y34441
X38763Y34441
X38763Y35229
X39550Y35229
X39550Y36803
X38763Y36803
X37975Y36803
X37188Y36803
X36400Y36803
X35613Y36803
X34826Y36803
X34038Y36803
X33251Y36803
X32463Y36803
X31676Y36803
X30889Y36803
X30101Y36803
X29314Y36803
X28526Y36803
X27739Y36803
X27739Y37591
X27739Y38378
X28526Y38378
X28526Y37591
X29314Y37591
X29314Y38378
X30101Y38378
X30101Y37591
X30889Y37591
X31676Y37591
X31676Y38378
X30889Y38378
X30889Y39166
X30889Y39953
X31676Y39953
X31676Y39166
X32463Y39166
X32463Y39953
X33251Y39953
X34038Y39953
X34038Y39166
X33251Y39166
X33251Y38378
X33251Y37591
X34038Y37591
X34038Y38378
X34826Y38378
X35613Y38378
X35613Y37591
X34826Y37591
X36400Y37591
X36400Y38378
X36400Y39166
X35613Y39166
X34826Y39166
X34826Y39953
X35613Y39953
X36400Y39953
X37188Y39953
X37975Y39953
X37975Y39166
X37188Y39166
X37188Y38378
X37188Y37591
X37975Y37591
X37975Y38378
X38763Y38378
X39550Y38378
X39550Y37591
X38763Y37591
X38763Y39166
X38763Y39953
X39550Y39953
X39550Y39166
X39550Y41134
X38763Y41134
X38763Y41921
X39550Y41921
X32070Y24205
X32070Y24992
X32070Y25780
X32070Y26567
X33645Y26567
X33645Y25780
X34432Y25780
X34432Y26567
X35219Y26567
X35219Y25780
X35219Y24992
X34432Y24992
X34432Y24205
X35219Y24205
X36007Y24205
X36794Y24205
X36794Y24992
X36007Y24992
X36007Y25780
X36007Y26567
X36794Y26567
X36794Y25780
X37975Y25780
X37975Y26567
X37975Y27355
X37975Y28142
X37975Y28929
X38763Y28929
X38763Y28142
X38763Y27355
X38763Y26567
X38763Y25780
X38763Y24992
X38763Y24205
X37975Y24205
X37975Y24992
X33645Y24205
X33645Y24992
X33645Y27355
X33645Y28142
X34432Y28142
X35219Y28142
X35219Y28929
X34432Y28929
X33645Y28929
X34038Y30110
X33251Y30110
X32463Y30110
X31676Y30110
X30889Y30110
X30101Y30110
X29314Y30110
X28526Y30110
X28526Y30898
X27739Y30898
X29314Y30898
X30101Y30898
X30889Y30898
X31676Y30898
X32463Y30898
X33251Y30898
X34038Y30898
X34826Y30898
X35613Y30898
X36400Y30898
X36400Y30110
X35613Y30110
X34826Y30110
X36007Y28929
X36007Y28142
X36794Y28142
X36794Y28929
X37188Y30110
X37188Y30898
X37975Y30898
X38763Y30898
X39550Y30898
X39550Y30110
X38763Y30110
X38763Y32079
X39550Y32079
X39550Y32866
X38763Y32866
X37975Y35229
X37188Y35229
X34038Y35229
X33251Y35229
X32463Y37591
X32463Y38378
X30101Y39166
X30101Y39953
X29314Y39953
X29314Y39166
X28526Y39166
X27739Y39166
X27739Y39953
X28526Y39953
X28526Y41134
X27739Y41134
X27739Y41921
X28526Y41921
X29314Y41921
X29314Y41134
X30101Y41134
X30101Y41921
X30889Y41921
X30889Y41134
X31676Y41134
X32463Y41134
X32463Y41921
X31676Y41921
X33251Y41921
X33251Y41134
X34038Y41134
X34038Y41921
X34826Y41921
X35613Y41921
X35613Y41134
X34826Y41134
X36400Y41134
X36400Y41921
X37188Y41921
X37188Y41134
X37975Y41134
X37975Y41921
X30101Y35229
X29314Y35229
X26558Y36803
X25771Y36803
X25771Y37591
X26558Y37591
X26558Y38378
X25771Y38378
X25771Y39166
X26558Y39166
X26558Y39953
X25771Y39953
X24983Y39953
X24196Y39953
X24196Y39166
X24983Y39166
X24983Y38378
X24196Y38378
X24196Y37591
X24983Y37591
X24983Y36803
X24196Y36803
X23408Y36803
X22621Y36803
X21834Y36803
X21834Y37591
X22621Y37591
X22621Y38378
X23408Y38378
X23408Y37591
X23408Y39166
X23408Y39953
X22621Y39953
X22621Y39166
X21834Y39166
X21834Y39953
X21046Y39953
X20259Y39953
X20259Y39166
X21046Y39166
X21046Y38378
X21046Y37591
X20259Y37591
X20259Y38378
X19471Y38378
X18684Y38378
X18684Y37591
X19471Y37591
X19471Y36803
X18684Y36803
X17897Y36803
X17897Y37591
X17897Y38378
X17897Y39166
X18684Y39166
X18684Y39953
X19471Y39953
X19471Y39166
X17897Y39953
X17109Y39953
X16322Y39953
X16322Y39166
X17109Y39166
X17109Y38378
X17109Y37591
X16322Y37591
X16322Y38378
X15534Y38378
X14747Y38378
X14747Y37591
X15534Y37591
X15534Y36803
X14747Y36803
X13566Y36803
X12778Y36803
X11991Y36803
X11204Y36803
X10416Y36803
X9629Y36803
X8841Y36803
X8054Y36803
X7267Y36803
X7267Y37591
X8054Y37591
X8054Y38378
X7267Y38378
X7267Y39166
X7267Y39953
X8054Y39953
X8054Y39166
X8841Y39166
X8841Y39953
X9629Y39953
X10416Y39953
X10416Y39166
X9629Y39166
X9629Y38378
X9629Y37591
X10416Y37591
X10416Y38378
X11204Y38378
X11991Y38378
X11991Y37591
X11204Y37591
X12778Y37591
X12778Y38378
X12778Y39166
X11991Y39166
X11991Y39953
X11204Y39953
X11204Y39166
X12778Y39953
X13566Y39953
X13566Y39166
X13566Y38378
X13566Y37591
X14747Y39166
X14747Y39953
X15534Y39953
X15534Y39166
X15534Y41134
X14747Y41134
X14747Y41921
X15534Y41921
X16322Y41921
X16322Y41134
X17109Y41134
X17109Y41921
X17897Y41921
X17897Y41134
X18684Y41134
X19471Y41134
X19471Y41921
X18684Y41921
X20259Y41921
X20259Y41134
X21046Y41134
X21046Y41921
X21834Y41921
X21834Y41134
X22621Y41134
X23408Y41134
X23408Y41921
X22621Y41921
X24196Y41921
X24983Y41921
X24983Y41134
X24196Y41134
X25771Y41134
X26558Y41134
X26558Y41921
X25771Y41921
X21834Y38378
X21046Y36803
X20259Y36803
X20259Y35229
X21046Y35229
X21834Y35229
X22621Y35229
X23408Y35229
X24196Y35229
X24983Y35229
X23408Y34441
X22621Y34441
X22621Y33654
X23408Y33654
X23408Y32866
X23408Y32079
X22621Y32079
X22621Y32866
X21834Y32866
X21834Y32079
X21046Y32079
X20259Y32079
X20259Y32866
X21046Y32866
X21046Y33654
X21046Y34441
X20259Y34441
X20259Y33654
X19471Y33654
X18684Y33654
X18684Y34441
X19471Y34441
X19471Y35229
X18684Y35229
X17897Y35229
X17897Y34441
X17897Y33654
X17897Y32866
X18684Y32866
X18684Y32079
X19471Y32079
X19471Y32866
X17897Y32079
X17109Y32079
X16322Y32079
X16322Y32866
X17109Y32866
X17109Y33654
X17109Y34441
X16322Y34441
X16322Y33654
X15534Y33654
X14747Y33654
X14747Y34441
X15534Y34441
X15534Y35229
X14747Y35229
X13566Y35229
X12778Y35229
X11991Y35229
X11204Y35229
X10416Y35229
X9629Y35229
X9629Y34441
X9629Y33654
X10416Y33654
X10416Y34441
X11204Y34441
X11991Y34441
X11991Y33654
X11204Y33654
X11204Y32866
X11204Y32079
X11991Y32079
X11991Y32866
X12778Y32866
X12778Y32079
X13566Y32079
X13566Y32866
X13566Y33654
X13566Y34441
X12778Y34441
X12778Y33654
X14747Y32866
X14747Y32079
X15534Y32079
X15534Y32866
X16322Y35229
X17109Y35229
X17109Y36803
X16322Y36803
X13566Y41134
X13566Y41921
X12778Y41921
X12778Y41134
X11991Y41134
X11204Y41134
X11204Y41921
X11991Y41921
X10416Y41921
X10416Y41134
X9629Y41134
X9629Y41921
X8841Y41921
X8841Y41134
X8054Y41134
X7267Y41134
X7267Y41921
X8054Y41921
X6479Y41921
X6479Y41134
X5692Y41134
X5692Y41921
X4904Y41921
X4117Y41921
X4117Y41134
X4904Y41134
X4904Y39953
X4117Y39953
X3330Y39953
X3330Y39166
X4117Y39166
X4904Y39166
X4904Y38378
X4117Y38378
X4117Y37591
X4904Y37591
X4904Y36803
X4117Y36803
X3330Y36803
X3330Y37591
X3330Y38378
X2542Y38378
X1755Y38378
X1755Y37591
X2542Y37591
X2542Y36803
X1755Y36803
X1755Y35229
X2542Y35229
X2542Y34441
X1755Y34441
X1755Y33654
X2542Y33654
X2542Y32866
X2542Y32079
X1755Y32079
X1755Y32866
X5692Y30898
X6479Y30898
X6479Y30110
X5692Y30110
X7267Y30110
X8054Y30110
X8841Y32079
X8841Y32866
X8841Y33654
X9629Y32866
X9629Y32079
X10416Y32079
X10416Y32866
X6479Y36803
X5692Y36803
X5692Y37591
X5692Y38378
X6479Y38378
X6479Y37591
X6479Y39166
X6479Y39953
X5692Y39953
X5692Y39166
X3330Y41134
X3330Y41921
X2542Y41921
X2542Y41134
X1755Y41134
X1755Y41921
X1755Y39953
X2542Y39953
X2542Y39166
X1755Y39166
X8841Y38378
X8841Y37591
X26952Y27355
X27739Y27355
X21834Y33654
X21834Y34441
X34432Y27355
X35219Y27355
X36007Y27355
X36794Y27355
T03
X38682Y7460
X38682Y8250
X38682Y9040
T04
X28932Y14750
X29932Y14750
X31182Y14750
X31182Y13750
X31182Y12750
X31182Y11750
X31182Y10750
X31182Y9750
X31182Y8750
X31182Y7750
X31182Y6750
X32432Y6750
X32432Y7750
X32432Y8750
X32432Y9750
X32432Y10750
X32432Y11750
X32432Y12750
X32432Y13750
X32432Y14750
X32432Y15750
X32432Y16750
X32432Y17750
X32432Y18750
X32432Y19750
X35432Y19750
X35432Y18750
X35432Y17750
X35432Y16750
X35432Y15750
X35432Y14750
X35432Y13750
X35432Y12750
X35432Y11750
X35432Y10750
X35432Y9750
X35432Y8750
X35432Y7750
X35432Y6750
X36682Y6750
X36682Y7750
X36682Y8750
X36682Y9750
X36682Y11500
X37682Y11500
X37182Y13550
X37182Y15450
X37682Y17500
X36682Y17500
X36932Y19000
X36932Y20000
X38182Y19500
X38932Y19000
X38932Y20000
X28932Y7750
X28932Y8750
X28932Y9750
X29932Y9750
X29932Y8750
X29932Y7750
X29932Y11250
X28932Y11250
X28932Y13000
X29932Y13000
X31182Y15750
T05
X32182Y5000
X32182Y4000
X33182Y4000
X34182Y4000
X35182Y4000
X35182Y5000
X34182Y5000
X33182Y5000
X36182Y5000
X36182Y4000
T06
X29292Y19530
X31072Y19530
X31072Y16970
X29292Y16970
X31112Y22500
X32252Y22500
X33682Y22500
X33682Y21500
X34682Y21500
X34682Y22500
X35682Y22500
X35682Y21500
X36682Y21500
X36682Y22500
X4615Y11572
X3924Y13198
X3527Y14920
X38932Y11750
X38932Y12750
X38932Y13750
X38932Y14750
X38932Y15750
X38932Y16750
T07
X33932Y9150
X33932Y17250
T08
X38682Y6635
X38682Y9865
T09
X23408Y18299
X3723Y18299
T10
X29682Y21500
X29682Y5000
X38432Y5000
X38432Y21750
M30
