G75*
%MOIN*%
%OFA0B0*%
%FSLAX25Y25*%
%IPPOS*%
%LPD*%
%AMOC8*
5,1,8,0,0,1.08239X$1,22.5*
%
%ADD10C,0.00000*%
%ADD11C,0.00000*%
%ADD12C,0.00500*%
%ADD13C,0.00000*%
%ADD14C,0.00300*%
%ADD15C,0.01600*%
%ADD16C,0.01200*%
%ADD17C,0.01000*%
%ADD18C,0.00400*%
%ADD19C,0.00600*%
%ADD20R,0.00787X0.00787*%
%ADD21R,0.00984X0.00591*%
%ADD22C,0.00700*%
%ADD23C,0.02000*%
%ADD24C,0.00800*%
%ADD25C,0.00080*%
%ADD26C,0.00200*%
D10*
X0006721Y0163309D02*
X0006760Y0166473D01*
X0006876Y0169636D01*
X0007070Y0172794D01*
X0007342Y0175947D01*
X0007691Y0179092D01*
X0008117Y0182228D01*
X0008619Y0185352D01*
X0009198Y0188463D01*
X0009854Y0191559D01*
X0010585Y0194638D01*
X0011392Y0197698D01*
X0012273Y0200737D01*
X0013229Y0203754D01*
X0014258Y0206747D01*
X0015361Y0209713D01*
X0016536Y0212651D01*
X0017783Y0215560D01*
X0019100Y0218437D01*
X0020488Y0221281D01*
X0021946Y0224089D01*
X0023472Y0226862D01*
X0025065Y0229596D01*
X0026725Y0232290D01*
X0028451Y0234943D01*
X0030241Y0237552D01*
X0032095Y0240117D01*
X0034011Y0242635D01*
X0035988Y0245106D01*
X0038026Y0247527D01*
X0040122Y0249898D01*
X0042276Y0252216D01*
X0044486Y0254481D01*
X0046751Y0256691D01*
X0049069Y0258845D01*
X0051440Y0260941D01*
X0053861Y0262979D01*
X0056332Y0264956D01*
X0058850Y0266872D01*
X0061415Y0268726D01*
X0064024Y0270516D01*
X0066677Y0272242D01*
X0069371Y0273902D01*
X0072105Y0275495D01*
X0074878Y0277021D01*
X0077686Y0278479D01*
X0080530Y0279867D01*
X0083407Y0281184D01*
X0086316Y0282431D01*
X0089254Y0283606D01*
X0092220Y0284709D01*
X0095213Y0285738D01*
X0098230Y0286694D01*
X0101269Y0287575D01*
X0104329Y0288382D01*
X0107408Y0289113D01*
X0110504Y0289769D01*
X0113615Y0290348D01*
X0116739Y0290850D01*
X0119875Y0291276D01*
X0123020Y0291625D01*
X0126173Y0291897D01*
X0129331Y0292091D01*
X0132494Y0292207D01*
X0135658Y0292246D01*
X0138822Y0292207D01*
X0141985Y0292091D01*
X0145143Y0291897D01*
X0148296Y0291625D01*
X0151441Y0291276D01*
X0154577Y0290850D01*
X0157701Y0290348D01*
X0160812Y0289769D01*
X0163908Y0289113D01*
X0166987Y0288382D01*
X0170047Y0287575D01*
X0173086Y0286694D01*
X0176103Y0285738D01*
X0179096Y0284709D01*
X0182062Y0283606D01*
X0185000Y0282431D01*
X0187909Y0281184D01*
X0190786Y0279867D01*
X0193630Y0278479D01*
X0196438Y0277021D01*
X0199211Y0275495D01*
X0201945Y0273902D01*
X0204639Y0272242D01*
X0207292Y0270516D01*
X0209901Y0268726D01*
X0212466Y0266872D01*
X0214984Y0264956D01*
X0217455Y0262979D01*
X0219876Y0260941D01*
X0222247Y0258845D01*
X0224565Y0256691D01*
X0226830Y0254481D01*
X0229040Y0252216D01*
X0231194Y0249898D01*
X0233290Y0247527D01*
X0235328Y0245106D01*
X0237305Y0242635D01*
X0239221Y0240117D01*
X0241075Y0237552D01*
X0242865Y0234943D01*
X0244591Y0232290D01*
X0246251Y0229596D01*
X0247844Y0226862D01*
X0249370Y0224089D01*
X0250828Y0221281D01*
X0252216Y0218437D01*
X0253533Y0215560D01*
X0254780Y0212651D01*
X0255955Y0209713D01*
X0257058Y0206747D01*
X0258087Y0203754D01*
X0259043Y0200737D01*
X0259924Y0197698D01*
X0260731Y0194638D01*
X0261462Y0191559D01*
X0262118Y0188463D01*
X0262697Y0185352D01*
X0263199Y0182228D01*
X0263625Y0179092D01*
X0263974Y0175947D01*
X0264246Y0172794D01*
X0264440Y0169636D01*
X0264556Y0166473D01*
X0264595Y0163309D01*
X0264556Y0160145D01*
X0264440Y0156982D01*
X0264246Y0153824D01*
X0263974Y0150671D01*
X0263625Y0147526D01*
X0263199Y0144390D01*
X0262697Y0141266D01*
X0262118Y0138155D01*
X0261462Y0135059D01*
X0260731Y0131980D01*
X0259924Y0128920D01*
X0259043Y0125881D01*
X0258087Y0122864D01*
X0257058Y0119871D01*
X0255955Y0116905D01*
X0254780Y0113967D01*
X0253533Y0111058D01*
X0252216Y0108181D01*
X0250828Y0105337D01*
X0249370Y0102529D01*
X0247844Y0099756D01*
X0246251Y0097022D01*
X0244591Y0094328D01*
X0242865Y0091675D01*
X0241075Y0089066D01*
X0239221Y0086501D01*
X0237305Y0083983D01*
X0235328Y0081512D01*
X0233290Y0079091D01*
X0231194Y0076720D01*
X0229040Y0074402D01*
X0226830Y0072137D01*
X0224565Y0069927D01*
X0222247Y0067773D01*
X0219876Y0065677D01*
X0217455Y0063639D01*
X0214984Y0061662D01*
X0212466Y0059746D01*
X0209901Y0057892D01*
X0207292Y0056102D01*
X0204639Y0054376D01*
X0201945Y0052716D01*
X0199211Y0051123D01*
X0196438Y0049597D01*
X0193630Y0048139D01*
X0190786Y0046751D01*
X0187909Y0045434D01*
X0185000Y0044187D01*
X0182062Y0043012D01*
X0179096Y0041909D01*
X0176103Y0040880D01*
X0173086Y0039924D01*
X0170047Y0039043D01*
X0166987Y0038236D01*
X0163908Y0037505D01*
X0160812Y0036849D01*
X0157701Y0036270D01*
X0154577Y0035768D01*
X0151441Y0035342D01*
X0148296Y0034993D01*
X0145143Y0034721D01*
X0141985Y0034527D01*
X0138822Y0034411D01*
X0135658Y0034372D01*
X0132494Y0034411D01*
X0129331Y0034527D01*
X0126173Y0034721D01*
X0123020Y0034993D01*
X0119875Y0035342D01*
X0116739Y0035768D01*
X0113615Y0036270D01*
X0110504Y0036849D01*
X0107408Y0037505D01*
X0104329Y0038236D01*
X0101269Y0039043D01*
X0098230Y0039924D01*
X0095213Y0040880D01*
X0092220Y0041909D01*
X0089254Y0043012D01*
X0086316Y0044187D01*
X0083407Y0045434D01*
X0080530Y0046751D01*
X0077686Y0048139D01*
X0074878Y0049597D01*
X0072105Y0051123D01*
X0069371Y0052716D01*
X0066677Y0054376D01*
X0064024Y0056102D01*
X0061415Y0057892D01*
X0058850Y0059746D01*
X0056332Y0061662D01*
X0053861Y0063639D01*
X0051440Y0065677D01*
X0049069Y0067773D01*
X0046751Y0069927D01*
X0044486Y0072137D01*
X0042276Y0074402D01*
X0040122Y0076720D01*
X0038026Y0079091D01*
X0035988Y0081512D01*
X0034011Y0083983D01*
X0032095Y0086501D01*
X0030241Y0089066D01*
X0028451Y0091675D01*
X0026725Y0094328D01*
X0025065Y0097022D01*
X0023472Y0099756D01*
X0021946Y0102529D01*
X0020488Y0105337D01*
X0019100Y0108181D01*
X0017783Y0111058D01*
X0016536Y0113967D01*
X0015361Y0116905D01*
X0014258Y0119871D01*
X0013229Y0122864D01*
X0012273Y0125881D01*
X0011392Y0128920D01*
X0010585Y0131980D01*
X0009854Y0135059D01*
X0009198Y0138155D01*
X0008619Y0141266D01*
X0008117Y0144390D01*
X0007691Y0147526D01*
X0007342Y0150671D01*
X0007070Y0153824D01*
X0006876Y0156982D01*
X0006760Y0160145D01*
X0006721Y0163309D01*
D11*
X0099241Y0163309D02*
X0099252Y0164203D01*
X0099285Y0165096D01*
X0099340Y0165988D01*
X0099416Y0166878D01*
X0099515Y0167767D01*
X0099635Y0168652D01*
X0099777Y0169535D01*
X0099941Y0170414D01*
X0100126Y0171288D01*
X0100332Y0172158D01*
X0100560Y0173022D01*
X0100809Y0173880D01*
X0101079Y0174732D01*
X0101370Y0175578D01*
X0101681Y0176415D01*
X0102013Y0177245D01*
X0102365Y0178067D01*
X0102737Y0178879D01*
X0103129Y0179682D01*
X0103541Y0180476D01*
X0103972Y0181259D01*
X0104422Y0182031D01*
X0104891Y0182792D01*
X0105378Y0183541D01*
X0105884Y0184278D01*
X0106408Y0185003D01*
X0106949Y0185714D01*
X0107507Y0186412D01*
X0108083Y0187096D01*
X0108675Y0187765D01*
X0109283Y0188420D01*
X0109907Y0189060D01*
X0110547Y0189684D01*
X0111202Y0190292D01*
X0111871Y0190884D01*
X0112555Y0191460D01*
X0113253Y0192018D01*
X0113964Y0192559D01*
X0114689Y0193083D01*
X0115426Y0193589D01*
X0116175Y0194076D01*
X0116936Y0194545D01*
X0117708Y0194995D01*
X0118491Y0195426D01*
X0119285Y0195838D01*
X0120088Y0196230D01*
X0120900Y0196602D01*
X0121722Y0196954D01*
X0122552Y0197286D01*
X0123389Y0197597D01*
X0124235Y0197888D01*
X0125087Y0198158D01*
X0125945Y0198407D01*
X0126809Y0198635D01*
X0127679Y0198841D01*
X0128553Y0199026D01*
X0129432Y0199190D01*
X0130315Y0199332D01*
X0131200Y0199452D01*
X0132089Y0199551D01*
X0132979Y0199627D01*
X0133871Y0199682D01*
X0134764Y0199715D01*
X0135658Y0199726D01*
X0136552Y0199715D01*
X0137445Y0199682D01*
X0138337Y0199627D01*
X0139227Y0199551D01*
X0140116Y0199452D01*
X0141001Y0199332D01*
X0141884Y0199190D01*
X0142763Y0199026D01*
X0143637Y0198841D01*
X0144507Y0198635D01*
X0145371Y0198407D01*
X0146229Y0198158D01*
X0147081Y0197888D01*
X0147927Y0197597D01*
X0148764Y0197286D01*
X0149594Y0196954D01*
X0150416Y0196602D01*
X0151228Y0196230D01*
X0152031Y0195838D01*
X0152825Y0195426D01*
X0153608Y0194995D01*
X0154380Y0194545D01*
X0155141Y0194076D01*
X0155890Y0193589D01*
X0156627Y0193083D01*
X0157352Y0192559D01*
X0158063Y0192018D01*
X0158761Y0191460D01*
X0159445Y0190884D01*
X0160114Y0190292D01*
X0160769Y0189684D01*
X0161409Y0189060D01*
X0162033Y0188420D01*
X0162641Y0187765D01*
X0163233Y0187096D01*
X0163809Y0186412D01*
X0164367Y0185714D01*
X0164908Y0185003D01*
X0165432Y0184278D01*
X0165938Y0183541D01*
X0166425Y0182792D01*
X0166894Y0182031D01*
X0167344Y0181259D01*
X0167775Y0180476D01*
X0168187Y0179682D01*
X0168579Y0178879D01*
X0168951Y0178067D01*
X0169303Y0177245D01*
X0169635Y0176415D01*
X0169946Y0175578D01*
X0170237Y0174732D01*
X0170507Y0173880D01*
X0170756Y0173022D01*
X0170984Y0172158D01*
X0171190Y0171288D01*
X0171375Y0170414D01*
X0171539Y0169535D01*
X0171681Y0168652D01*
X0171801Y0167767D01*
X0171900Y0166878D01*
X0171976Y0165988D01*
X0172031Y0165096D01*
X0172064Y0164203D01*
X0172075Y0163309D01*
X0172064Y0162415D01*
X0172031Y0161522D01*
X0171976Y0160630D01*
X0171900Y0159740D01*
X0171801Y0158851D01*
X0171681Y0157966D01*
X0171539Y0157083D01*
X0171375Y0156204D01*
X0171190Y0155330D01*
X0170984Y0154460D01*
X0170756Y0153596D01*
X0170507Y0152738D01*
X0170237Y0151886D01*
X0169946Y0151040D01*
X0169635Y0150203D01*
X0169303Y0149373D01*
X0168951Y0148551D01*
X0168579Y0147739D01*
X0168187Y0146936D01*
X0167775Y0146142D01*
X0167344Y0145359D01*
X0166894Y0144587D01*
X0166425Y0143826D01*
X0165938Y0143077D01*
X0165432Y0142340D01*
X0164908Y0141615D01*
X0164367Y0140904D01*
X0163809Y0140206D01*
X0163233Y0139522D01*
X0162641Y0138853D01*
X0162033Y0138198D01*
X0161409Y0137558D01*
X0160769Y0136934D01*
X0160114Y0136326D01*
X0159445Y0135734D01*
X0158761Y0135158D01*
X0158063Y0134600D01*
X0157352Y0134059D01*
X0156627Y0133535D01*
X0155890Y0133029D01*
X0155141Y0132542D01*
X0154380Y0132073D01*
X0153608Y0131623D01*
X0152825Y0131192D01*
X0152031Y0130780D01*
X0151228Y0130388D01*
X0150416Y0130016D01*
X0149594Y0129664D01*
X0148764Y0129332D01*
X0147927Y0129021D01*
X0147081Y0128730D01*
X0146229Y0128460D01*
X0145371Y0128211D01*
X0144507Y0127983D01*
X0143637Y0127777D01*
X0142763Y0127592D01*
X0141884Y0127428D01*
X0141001Y0127286D01*
X0140116Y0127166D01*
X0139227Y0127067D01*
X0138337Y0126991D01*
X0137445Y0126936D01*
X0136552Y0126903D01*
X0135658Y0126892D01*
X0134764Y0126903D01*
X0133871Y0126936D01*
X0132979Y0126991D01*
X0132089Y0127067D01*
X0131200Y0127166D01*
X0130315Y0127286D01*
X0129432Y0127428D01*
X0128553Y0127592D01*
X0127679Y0127777D01*
X0126809Y0127983D01*
X0125945Y0128211D01*
X0125087Y0128460D01*
X0124235Y0128730D01*
X0123389Y0129021D01*
X0122552Y0129332D01*
X0121722Y0129664D01*
X0120900Y0130016D01*
X0120088Y0130388D01*
X0119285Y0130780D01*
X0118491Y0131192D01*
X0117708Y0131623D01*
X0116936Y0132073D01*
X0116175Y0132542D01*
X0115426Y0133029D01*
X0114689Y0133535D01*
X0113964Y0134059D01*
X0113253Y0134600D01*
X0112555Y0135158D01*
X0111871Y0135734D01*
X0111202Y0136326D01*
X0110547Y0136934D01*
X0109907Y0137558D01*
X0109283Y0138198D01*
X0108675Y0138853D01*
X0108083Y0139522D01*
X0107507Y0140206D01*
X0106949Y0140904D01*
X0106408Y0141615D01*
X0105884Y0142340D01*
X0105378Y0143077D01*
X0104891Y0143826D01*
X0104422Y0144587D01*
X0103972Y0145359D01*
X0103541Y0146142D01*
X0103129Y0146936D01*
X0102737Y0147739D01*
X0102365Y0148551D01*
X0102013Y0149373D01*
X0101681Y0150203D01*
X0101370Y0151040D01*
X0101079Y0151886D01*
X0100809Y0152738D01*
X0100560Y0153596D01*
X0100332Y0154460D01*
X0100126Y0155330D01*
X0099941Y0156204D01*
X0099777Y0157083D01*
X0099635Y0157966D01*
X0099515Y0158851D01*
X0099416Y0159740D01*
X0099340Y0160630D01*
X0099285Y0161522D01*
X0099252Y0162415D01*
X0099241Y0163309D01*
D12*
X0088525Y0164428D02*
X0111123Y0203569D01*
X0077914Y0222742D01*
X0074115Y0216162D01*
X0045645Y0232599D01*
X0040625Y0223905D01*
X0059719Y0212881D01*
X0054758Y0204289D01*
X0035665Y0215313D01*
X0030645Y0206618D01*
X0059115Y0190181D01*
X0055316Y0183601D01*
X0088525Y0164428D01*
X0116876Y0165115D02*
X0116876Y0161508D01*
X0117778Y0160607D01*
X0119581Y0160607D01*
X0120483Y0161508D01*
X0122314Y0161508D02*
X0123216Y0160607D01*
X0125019Y0160607D01*
X0125921Y0161508D01*
X0125921Y0166017D01*
X0127752Y0166017D02*
X0131358Y0166017D01*
X0129555Y0166017D02*
X0129555Y0160607D01*
X0122314Y0161508D02*
X0122314Y0166017D01*
X0120483Y0165115D02*
X0119581Y0166017D01*
X0117778Y0166017D01*
X0116876Y0165115D01*
X0138627Y0165115D02*
X0138627Y0161508D01*
X0139529Y0160607D01*
X0141332Y0160607D01*
X0142234Y0161508D01*
X0142234Y0165115D01*
X0141332Y0166017D01*
X0139529Y0166017D01*
X0138627Y0165115D01*
X0144065Y0166017D02*
X0144065Y0161508D01*
X0144966Y0160607D01*
X0146770Y0160607D01*
X0147672Y0161508D01*
X0147672Y0166017D01*
X0149503Y0166017D02*
X0153109Y0166017D01*
X0151306Y0166017D02*
X0151306Y0160607D01*
X0182792Y0164428D02*
X0160193Y0203569D01*
X0193402Y0222742D01*
X0197202Y0216162D01*
X0225671Y0232599D01*
X0230691Y0223905D01*
X0211598Y0212881D01*
X0216558Y0204289D01*
X0235652Y0215313D01*
X0240671Y0206618D01*
X0212202Y0190181D01*
X0216001Y0183601D01*
X0182792Y0164428D01*
X0211874Y0163309D02*
X0212833Y0163309D01*
X0212833Y0165185D01*
X0212833Y0163309D02*
X0212833Y0161434D01*
X0212833Y0163309D02*
X0215333Y0165185D01*
X0215333Y0163309D01*
X0216293Y0163309D01*
X0215333Y0163309D02*
X0215333Y0161434D01*
X0212833Y0163309D01*
X0231335Y0188744D02*
X0231335Y0193248D01*
X0232836Y0193248D02*
X0229833Y0193248D01*
X0234437Y0193248D02*
X0234437Y0188744D01*
X0234437Y0190246D02*
X0236689Y0190246D01*
X0237440Y0190996D01*
X0237440Y0192498D01*
X0236689Y0193248D01*
X0234437Y0193248D01*
X0239041Y0191747D02*
X0240543Y0193248D01*
X0240543Y0188744D01*
X0242044Y0188744D02*
X0239041Y0188744D01*
X0282566Y0176858D02*
X0287070Y0176858D01*
X0287070Y0178359D02*
X0287070Y0175356D01*
X0286319Y0173755D02*
X0287070Y0173004D01*
X0287070Y0171503D01*
X0286319Y0170752D01*
X0284818Y0171503D02*
X0284818Y0173004D01*
X0285568Y0173755D01*
X0286319Y0173755D01*
X0284818Y0171503D02*
X0284067Y0170752D01*
X0283316Y0170752D01*
X0282566Y0171503D01*
X0282566Y0173004D01*
X0283316Y0173755D01*
X0284067Y0175356D02*
X0282566Y0176858D01*
X0302070Y0153756D02*
X0302070Y0149252D01*
X0305072Y0149252D01*
X0306674Y0149252D02*
X0309676Y0149252D01*
X0311278Y0149252D02*
X0313529Y0149252D01*
X0314280Y0150003D01*
X0314280Y0153006D01*
X0313529Y0153756D01*
X0311278Y0153756D01*
X0311278Y0149252D01*
X0308175Y0151504D02*
X0306674Y0151504D01*
X0306674Y0153756D02*
X0306674Y0149252D01*
X0306674Y0153756D02*
X0309676Y0153756D01*
X0315881Y0148502D02*
X0318884Y0148502D01*
X0320485Y0149252D02*
X0320485Y0153756D01*
X0322737Y0153756D01*
X0323488Y0153006D01*
X0323488Y0151504D01*
X0322737Y0150754D01*
X0320485Y0150754D01*
X0321987Y0150754D02*
X0323488Y0149252D01*
X0321819Y0152545D02*
X0318816Y0152545D01*
X0318066Y0153295D01*
X0318066Y0154796D01*
X0318816Y0155547D01*
X0320318Y0157148D02*
X0318816Y0158650D01*
X0318066Y0160151D01*
X0320318Y0159400D02*
X0320318Y0157148D01*
X0321819Y0157148D01*
X0322570Y0157899D01*
X0322570Y0159400D01*
X0321819Y0160151D01*
X0321068Y0160151D01*
X0320318Y0159400D01*
X0321819Y0155547D02*
X0322570Y0154796D01*
X0322570Y0153295D01*
X0321819Y0152545D01*
X0321819Y0140151D02*
X0322570Y0139400D01*
X0322570Y0137899D01*
X0321819Y0137148D01*
X0320318Y0137148D02*
X0319567Y0138650D01*
X0319567Y0139400D01*
X0320318Y0140151D01*
X0321819Y0140151D01*
X0320318Y0137148D02*
X0318066Y0137148D01*
X0318066Y0140151D01*
X0320485Y0136256D02*
X0320485Y0135506D01*
X0321987Y0134004D01*
X0321987Y0131752D01*
X0321819Y0132545D02*
X0322570Y0133295D01*
X0322570Y0134796D01*
X0321819Y0135547D01*
X0321987Y0134004D02*
X0323488Y0135506D01*
X0323488Y0136256D01*
X0321819Y0132545D02*
X0318816Y0132545D01*
X0318066Y0133295D01*
X0318066Y0134796D01*
X0318816Y0135547D01*
X0314280Y0135506D02*
X0314280Y0132503D01*
X0313529Y0131752D01*
X0311278Y0131752D01*
X0311278Y0136256D01*
X0313529Y0136256D01*
X0314280Y0135506D01*
X0309676Y0136256D02*
X0306674Y0136256D01*
X0306674Y0131752D01*
X0309676Y0131752D01*
X0308175Y0134004D02*
X0306674Y0134004D01*
X0305072Y0131752D02*
X0302070Y0131752D01*
X0302070Y0136256D01*
X0315881Y0131002D02*
X0318884Y0131002D01*
X0321236Y0118756D02*
X0320485Y0118006D01*
X0320485Y0115003D01*
X0321236Y0114252D01*
X0322737Y0114252D01*
X0323488Y0115003D01*
X0323488Y0116504D01*
X0321987Y0116504D01*
X0323488Y0118006D02*
X0322737Y0118756D01*
X0321236Y0118756D01*
X0318884Y0113502D02*
X0315881Y0113502D01*
X0314280Y0115003D02*
X0314280Y0118006D01*
X0313529Y0118756D01*
X0311278Y0118756D01*
X0311278Y0114252D01*
X0313529Y0114252D01*
X0314280Y0115003D01*
X0309676Y0114252D02*
X0306674Y0114252D01*
X0306674Y0118756D01*
X0309676Y0118756D01*
X0308175Y0116504D02*
X0306674Y0116504D01*
X0306970Y0116563D02*
X0306970Y0113560D01*
X0306970Y0115061D02*
X0302466Y0115061D01*
X0303967Y0113560D01*
X0305072Y0114252D02*
X0302070Y0114252D01*
X0302070Y0118756D01*
X0306970Y0111959D02*
X0306970Y0108956D01*
X0306970Y0110458D02*
X0302466Y0110458D01*
X0303967Y0108956D01*
X0303216Y0107355D02*
X0304718Y0107355D01*
X0305468Y0106604D01*
X0305468Y0104352D01*
X0305468Y0105854D02*
X0306970Y0107355D01*
X0306970Y0104352D02*
X0302466Y0104352D01*
X0302466Y0106604D01*
X0303216Y0107355D01*
X0298380Y0106106D02*
X0297629Y0106856D01*
X0296128Y0106856D01*
X0295378Y0106106D01*
X0298380Y0106106D02*
X0298380Y0105355D01*
X0295378Y0102352D01*
X0298380Y0102352D01*
X0293776Y0102352D02*
X0290774Y0102352D01*
X0292275Y0102352D02*
X0292275Y0106856D01*
X0290774Y0105355D01*
X0289172Y0106106D02*
X0289172Y0104604D01*
X0288422Y0103854D01*
X0286170Y0103854D01*
X0287671Y0103854D02*
X0289172Y0102352D01*
X0286170Y0102352D02*
X0286170Y0106856D01*
X0288422Y0106856D01*
X0289172Y0106106D01*
X0288422Y0096856D02*
X0286170Y0096856D01*
X0286170Y0092352D01*
X0286170Y0093854D02*
X0288422Y0093854D01*
X0289172Y0094604D01*
X0289172Y0096106D01*
X0288422Y0096856D01*
X0290774Y0095355D02*
X0292275Y0096856D01*
X0292275Y0092352D01*
X0290774Y0092352D02*
X0293776Y0092352D01*
X0295378Y0093103D02*
X0296128Y0092352D01*
X0297629Y0092352D01*
X0298380Y0093103D01*
X0298380Y0093854D01*
X0297629Y0094604D01*
X0296879Y0094604D01*
X0297629Y0094604D02*
X0298380Y0095355D01*
X0298380Y0096106D01*
X0297629Y0096856D01*
X0296128Y0096856D01*
X0295378Y0096106D01*
X0302466Y0095812D02*
X0302466Y0094311D01*
X0303216Y0093560D01*
X0306219Y0093560D01*
X0303216Y0096563D01*
X0306219Y0096563D01*
X0306970Y0095812D01*
X0306970Y0094311D01*
X0306219Y0093560D01*
X0306970Y0091959D02*
X0306970Y0088956D01*
X0306970Y0090458D02*
X0302466Y0090458D01*
X0303967Y0088956D01*
X0303216Y0087355D02*
X0304718Y0087355D01*
X0305468Y0086604D01*
X0305468Y0084352D01*
X0305468Y0085854D02*
X0306970Y0087355D01*
X0306970Y0084352D02*
X0302466Y0084352D01*
X0302466Y0086604D01*
X0303216Y0087355D01*
X0298380Y0084604D02*
X0295378Y0084604D01*
X0297629Y0086856D01*
X0297629Y0082352D01*
X0293776Y0082352D02*
X0290774Y0082352D01*
X0292275Y0082352D02*
X0292275Y0086856D01*
X0290774Y0085355D01*
X0289172Y0086106D02*
X0289172Y0084604D01*
X0288422Y0083854D01*
X0286170Y0083854D01*
X0287671Y0083854D02*
X0289172Y0082352D01*
X0286170Y0082352D02*
X0286170Y0086856D01*
X0288422Y0086856D01*
X0289172Y0086106D01*
X0289172Y0092352D02*
X0287671Y0093854D01*
X0302466Y0095812D02*
X0303216Y0096563D01*
X0318066Y0080151D02*
X0318816Y0080151D01*
X0321819Y0077148D01*
X0322570Y0077148D01*
X0321819Y0075547D02*
X0322570Y0074796D01*
X0322570Y0073295D01*
X0321819Y0072545D01*
X0318816Y0072545D01*
X0318066Y0073295D01*
X0318066Y0074796D01*
X0318816Y0075547D01*
X0318066Y0077148D02*
X0318066Y0080151D01*
X0363070Y0122003D02*
X0363070Y0125006D01*
X0363820Y0125756D01*
X0365322Y0125756D01*
X0366072Y0125006D01*
X0367674Y0125006D02*
X0367674Y0124255D01*
X0368424Y0123504D01*
X0370676Y0123504D01*
X0370676Y0122003D02*
X0370676Y0125006D01*
X0369926Y0125756D01*
X0368424Y0125756D01*
X0367674Y0125006D01*
X0367674Y0122003D02*
X0368424Y0121252D01*
X0369926Y0121252D01*
X0370676Y0122003D01*
X0366072Y0122003D02*
X0365322Y0121252D01*
X0363820Y0121252D01*
X0363070Y0122003D01*
X0377366Y0123954D02*
X0377366Y0125455D01*
X0377366Y0124704D02*
X0381119Y0124704D01*
X0381870Y0123954D01*
X0381870Y0123203D01*
X0381119Y0122452D01*
X0380368Y0127056D02*
X0380368Y0129308D01*
X0379618Y0130059D01*
X0378116Y0130059D01*
X0377366Y0129308D01*
X0377366Y0127056D01*
X0381870Y0127056D01*
X0381870Y0131660D02*
X0381119Y0131660D01*
X0378116Y0134663D01*
X0377366Y0134663D01*
X0377366Y0131660D01*
X0383316Y0156045D02*
X0382566Y0156795D01*
X0382566Y0158296D01*
X0383316Y0159047D01*
X0386319Y0159047D01*
X0387070Y0158296D01*
X0387070Y0156795D01*
X0386319Y0156045D01*
X0383316Y0156045D01*
X0385568Y0157546D02*
X0387070Y0159047D01*
X0387070Y0160648D02*
X0387070Y0163651D01*
X0387070Y0162150D02*
X0382566Y0162150D01*
X0384067Y0160648D01*
X0379468Y0165003D02*
X0378718Y0164252D01*
X0377216Y0164252D01*
X0376466Y0165003D01*
X0379468Y0168006D01*
X0379468Y0165003D01*
X0376466Y0165003D02*
X0376466Y0168006D01*
X0377216Y0168756D01*
X0378718Y0168756D01*
X0379468Y0168006D01*
X0374864Y0164252D02*
X0371862Y0164252D01*
X0373363Y0164252D02*
X0373363Y0168756D01*
X0371862Y0167255D01*
X0370260Y0168006D02*
X0369510Y0168756D01*
X0368009Y0168756D01*
X0367258Y0168006D01*
X0367258Y0165003D01*
X0368009Y0164252D01*
X0369510Y0164252D01*
X0370260Y0165003D01*
X0362319Y0186252D02*
X0359316Y0186252D01*
X0358566Y0187003D01*
X0358566Y0188504D01*
X0359316Y0189255D01*
X0360818Y0190856D02*
X0358566Y0193108D01*
X0363070Y0193108D01*
X0360818Y0193859D02*
X0360818Y0190856D01*
X0362319Y0189255D02*
X0363070Y0188504D01*
X0363070Y0187003D01*
X0362319Y0186252D01*
X0373816Y0100151D02*
X0374567Y0100151D01*
X0375318Y0099400D01*
X0376068Y0100151D01*
X0376819Y0100151D01*
X0377570Y0099400D01*
X0377570Y0097899D01*
X0376819Y0097148D01*
X0376819Y0095547D02*
X0377570Y0094796D01*
X0377570Y0093295D01*
X0376819Y0092545D01*
X0373816Y0092545D01*
X0373066Y0093295D01*
X0373066Y0094796D01*
X0373816Y0095547D01*
X0373816Y0097148D02*
X0373066Y0097899D01*
X0373066Y0099400D01*
X0373816Y0100151D01*
X0375318Y0099400D02*
X0375318Y0098650D01*
X0378370Y0099502D02*
X0395270Y0099502D01*
X0395270Y0065502D01*
X0378370Y0065502D01*
X0378370Y0099502D01*
X0375419Y0079551D02*
X0372416Y0079551D01*
X0371666Y0078800D01*
X0371666Y0077299D01*
X0372416Y0076548D01*
X0373167Y0076548D01*
X0373918Y0077299D01*
X0373918Y0079551D01*
X0375419Y0079551D02*
X0376170Y0078800D01*
X0376170Y0077299D01*
X0375419Y0076548D01*
X0376170Y0074947D02*
X0374668Y0073446D01*
X0374668Y0074196D02*
X0374668Y0071945D01*
X0376170Y0071945D02*
X0371666Y0071945D01*
X0371666Y0074196D01*
X0372416Y0074947D01*
X0373918Y0074947D01*
X0374668Y0074196D01*
X0153109Y0064639D02*
X0149503Y0064639D01*
X0151306Y0064639D02*
X0151306Y0059229D01*
X0147672Y0060130D02*
X0147672Y0064639D01*
X0144065Y0064639D02*
X0144065Y0060130D01*
X0144966Y0059229D01*
X0146770Y0059229D01*
X0147672Y0060130D01*
X0142234Y0060130D02*
X0141332Y0059229D01*
X0139529Y0059229D01*
X0138627Y0060130D01*
X0138627Y0063737D01*
X0139529Y0064639D01*
X0141332Y0064639D01*
X0142234Y0063737D01*
X0142234Y0060130D01*
X0131358Y0064639D02*
X0127752Y0064639D01*
X0129555Y0064639D02*
X0129555Y0059229D01*
X0125921Y0060130D02*
X0125921Y0064639D01*
X0122314Y0064639D02*
X0122314Y0060130D01*
X0123216Y0059229D01*
X0125019Y0059229D01*
X0125921Y0060130D01*
X0120483Y0060130D02*
X0119581Y0059229D01*
X0117778Y0059229D01*
X0116876Y0060130D01*
X0116876Y0063737D01*
X0117778Y0064639D01*
X0119581Y0064639D01*
X0120483Y0063737D01*
X0058483Y0161434D02*
X0058483Y0163309D01*
X0059443Y0163309D01*
X0058483Y0163309D02*
X0058483Y0165185D01*
X0058483Y0163309D02*
X0055983Y0161434D01*
X0055983Y0163309D01*
X0055023Y0163309D01*
X0055983Y0163309D02*
X0055983Y0165185D01*
X0058483Y0163309D01*
X0045193Y0188744D02*
X0042191Y0188744D01*
X0045193Y0191747D01*
X0045193Y0192498D01*
X0044443Y0193248D01*
X0042942Y0193248D01*
X0042191Y0192498D01*
X0040590Y0192498D02*
X0039839Y0193248D01*
X0037587Y0193248D01*
X0037587Y0188744D01*
X0037587Y0190246D02*
X0039839Y0190246D01*
X0040590Y0190996D01*
X0040590Y0192498D01*
X0035986Y0193248D02*
X0032983Y0193248D01*
X0034484Y0193248D02*
X0034484Y0188744D01*
X0116876Y0262886D02*
X0117778Y0261985D01*
X0119581Y0261985D01*
X0120483Y0262886D01*
X0122314Y0262886D02*
X0123216Y0261985D01*
X0125019Y0261985D01*
X0125921Y0262886D01*
X0125921Y0267395D01*
X0127752Y0267395D02*
X0131358Y0267395D01*
X0129555Y0267395D02*
X0129555Y0261985D01*
X0122314Y0262886D02*
X0122314Y0267395D01*
X0120483Y0266493D02*
X0119581Y0267395D01*
X0117778Y0267395D01*
X0116876Y0266493D01*
X0116876Y0262886D01*
X0138627Y0262886D02*
X0139529Y0261985D01*
X0141332Y0261985D01*
X0142234Y0262886D01*
X0142234Y0266493D01*
X0141332Y0267395D01*
X0139529Y0267395D01*
X0138627Y0266493D01*
X0138627Y0262886D01*
X0144065Y0262886D02*
X0144966Y0261985D01*
X0146770Y0261985D01*
X0147672Y0262886D01*
X0147672Y0267395D01*
X0149503Y0267395D02*
X0153109Y0267395D01*
X0151306Y0267395D02*
X0151306Y0261985D01*
X0144065Y0262886D02*
X0144065Y0267395D01*
D13*
X0200016Y0255222D02*
X0200229Y0255069D01*
X0200437Y0254912D01*
X0200642Y0254749D01*
X0200843Y0254581D01*
X0201040Y0254409D01*
X0201232Y0254232D01*
X0201421Y0254050D01*
X0201604Y0253864D01*
X0201784Y0253673D01*
X0201958Y0253478D01*
X0202128Y0253279D01*
X0202293Y0253076D01*
X0202453Y0252869D01*
X0202608Y0252658D01*
X0202758Y0252443D01*
X0202902Y0252225D01*
X0203041Y0252004D01*
X0203175Y0251779D01*
X0203304Y0251551D01*
X0203426Y0251320D01*
X0203544Y0251086D01*
X0203655Y0250850D01*
X0203761Y0250610D01*
X0203861Y0250368D01*
X0203955Y0250124D01*
X0204043Y0249878D01*
X0204125Y0249630D01*
X0204201Y0249379D01*
X0204272Y0249127D01*
X0204336Y0248873D01*
X0204393Y0248618D01*
X0204445Y0248362D01*
X0204490Y0248104D01*
X0204530Y0247845D01*
X0204563Y0247586D01*
X0204589Y0247326D01*
X0204610Y0247065D01*
X0204624Y0246803D01*
X0204631Y0246542D01*
X0204633Y0246280D01*
X0204628Y0246019D01*
X0204617Y0245757D01*
X0204599Y0245496D01*
X0204575Y0245236D01*
X0204545Y0244976D01*
X0204509Y0244717D01*
X0204466Y0244459D01*
X0204417Y0244202D01*
X0204362Y0243946D01*
X0204301Y0243691D01*
X0204233Y0243439D01*
X0204160Y0243187D01*
X0204080Y0242938D01*
X0203995Y0242691D01*
X0203903Y0242446D01*
X0203806Y0242203D01*
X0203703Y0241963D01*
X0203594Y0241725D01*
X0203479Y0241490D01*
X0203359Y0241257D01*
X0203233Y0241028D01*
X0203101Y0240802D01*
X0202965Y0240579D01*
X0202822Y0240359D01*
X0202675Y0240143D01*
X0202522Y0239930D01*
X0202365Y0239722D01*
X0202202Y0239517D01*
X0202034Y0239316D01*
X0201862Y0239119D01*
X0201685Y0238927D01*
X0201503Y0238738D01*
X0201317Y0238555D01*
X0201126Y0238375D01*
X0200931Y0238201D01*
X0200732Y0238031D01*
X0200529Y0237866D01*
X0200322Y0237706D01*
X0200111Y0237551D01*
X0199896Y0237401D01*
X0199678Y0237257D01*
X0199457Y0237118D01*
X0199232Y0236984D01*
X0199004Y0236855D01*
X0198773Y0236733D01*
X0198539Y0236615D01*
X0198303Y0236504D01*
X0198063Y0236398D01*
X0197821Y0236298D01*
X0197577Y0236204D01*
X0197331Y0236116D01*
X0197083Y0236034D01*
X0196832Y0235958D01*
X0196580Y0235887D01*
X0196326Y0235823D01*
X0196071Y0235766D01*
X0195815Y0235714D01*
X0195557Y0235669D01*
X0195298Y0235629D01*
X0195039Y0235596D01*
X0194779Y0235570D01*
X0194518Y0235549D01*
X0194256Y0235535D01*
X0193995Y0235528D01*
X0193733Y0235526D01*
X0193472Y0235531D01*
X0193210Y0235542D01*
X0192949Y0235560D01*
X0192689Y0235584D01*
X0192429Y0235614D01*
X0192170Y0235650D01*
X0191912Y0235693D01*
X0191655Y0235742D01*
X0191399Y0235797D01*
X0191144Y0235858D01*
X0190892Y0235926D01*
X0190640Y0235999D01*
X0190391Y0236079D01*
X0190144Y0236164D01*
X0189899Y0236256D01*
X0189656Y0236353D01*
X0189416Y0236456D01*
X0189178Y0236565D01*
X0188943Y0236680D01*
X0188710Y0236800D01*
X0188481Y0236926D01*
X0188255Y0237058D01*
X0188032Y0237194D01*
X0187812Y0237337D01*
X0187596Y0237484D01*
X0200016Y0255222D02*
X0197751Y0256767D01*
X0195449Y0258256D01*
X0193112Y0259689D01*
X0190740Y0261064D01*
X0188335Y0262380D01*
X0185899Y0263638D01*
X0183433Y0264835D01*
X0180938Y0265972D01*
X0178416Y0267048D01*
X0175869Y0268061D01*
X0173297Y0269013D01*
X0170704Y0269901D01*
X0168089Y0270725D01*
X0165455Y0271485D01*
X0162803Y0272181D01*
X0160135Y0272812D01*
X0157452Y0273377D01*
X0154756Y0273877D01*
X0152049Y0274310D01*
X0149332Y0274678D01*
X0146607Y0274978D01*
X0143876Y0275213D01*
X0141139Y0275380D01*
X0138399Y0275481D01*
X0135658Y0275514D01*
X0132917Y0275481D01*
X0130177Y0275380D01*
X0127440Y0275213D01*
X0124709Y0274978D01*
X0121984Y0274678D01*
X0119267Y0274310D01*
X0116560Y0273877D01*
X0113864Y0273377D01*
X0111181Y0272812D01*
X0108513Y0272181D01*
X0105861Y0271485D01*
X0103227Y0270725D01*
X0100612Y0269901D01*
X0098019Y0269013D01*
X0095447Y0268061D01*
X0092900Y0267048D01*
X0090378Y0265972D01*
X0087883Y0264835D01*
X0085417Y0263638D01*
X0082981Y0262380D01*
X0080576Y0261064D01*
X0078204Y0259689D01*
X0075867Y0258256D01*
X0073565Y0256767D01*
X0071300Y0255222D01*
X0071087Y0255069D01*
X0070879Y0254912D01*
X0070674Y0254749D01*
X0070473Y0254581D01*
X0070276Y0254409D01*
X0070084Y0254232D01*
X0069895Y0254050D01*
X0069712Y0253864D01*
X0069532Y0253673D01*
X0069358Y0253478D01*
X0069188Y0253279D01*
X0069023Y0253076D01*
X0068863Y0252869D01*
X0068708Y0252658D01*
X0068558Y0252443D01*
X0068414Y0252225D01*
X0068275Y0252004D01*
X0068141Y0251779D01*
X0068012Y0251551D01*
X0067890Y0251320D01*
X0067772Y0251086D01*
X0067661Y0250850D01*
X0067555Y0250610D01*
X0067455Y0250368D01*
X0067361Y0250124D01*
X0067273Y0249878D01*
X0067191Y0249630D01*
X0067115Y0249379D01*
X0067044Y0249127D01*
X0066980Y0248873D01*
X0066923Y0248618D01*
X0066871Y0248362D01*
X0066826Y0248104D01*
X0066786Y0247845D01*
X0066753Y0247586D01*
X0066727Y0247326D01*
X0066706Y0247065D01*
X0066692Y0246803D01*
X0066685Y0246542D01*
X0066683Y0246280D01*
X0066688Y0246019D01*
X0066699Y0245757D01*
X0066717Y0245496D01*
X0066741Y0245236D01*
X0066771Y0244976D01*
X0066807Y0244717D01*
X0066850Y0244459D01*
X0066899Y0244202D01*
X0066954Y0243946D01*
X0067015Y0243691D01*
X0067083Y0243439D01*
X0067156Y0243187D01*
X0067236Y0242938D01*
X0067321Y0242691D01*
X0067413Y0242446D01*
X0067510Y0242203D01*
X0067613Y0241963D01*
X0067722Y0241725D01*
X0067837Y0241490D01*
X0067957Y0241257D01*
X0068083Y0241028D01*
X0068215Y0240802D01*
X0068351Y0240579D01*
X0068494Y0240359D01*
X0068641Y0240143D01*
X0068794Y0239930D01*
X0068951Y0239722D01*
X0069114Y0239517D01*
X0069282Y0239316D01*
X0069454Y0239119D01*
X0069631Y0238927D01*
X0069813Y0238738D01*
X0069999Y0238555D01*
X0070190Y0238375D01*
X0070385Y0238201D01*
X0070584Y0238031D01*
X0070787Y0237866D01*
X0070994Y0237706D01*
X0071205Y0237551D01*
X0071420Y0237401D01*
X0071638Y0237257D01*
X0071859Y0237118D01*
X0072084Y0236984D01*
X0072312Y0236855D01*
X0072543Y0236733D01*
X0072777Y0236615D01*
X0073013Y0236504D01*
X0073253Y0236398D01*
X0073495Y0236298D01*
X0073739Y0236204D01*
X0073985Y0236116D01*
X0074233Y0236034D01*
X0074484Y0235958D01*
X0074736Y0235887D01*
X0074990Y0235823D01*
X0075245Y0235766D01*
X0075501Y0235714D01*
X0075759Y0235669D01*
X0076018Y0235629D01*
X0076277Y0235596D01*
X0076537Y0235570D01*
X0076798Y0235549D01*
X0077060Y0235535D01*
X0077321Y0235528D01*
X0077583Y0235526D01*
X0077844Y0235531D01*
X0078106Y0235542D01*
X0078367Y0235560D01*
X0078627Y0235584D01*
X0078887Y0235614D01*
X0079146Y0235650D01*
X0079404Y0235693D01*
X0079661Y0235742D01*
X0079917Y0235797D01*
X0080172Y0235858D01*
X0080424Y0235926D01*
X0080676Y0235999D01*
X0080925Y0236079D01*
X0081172Y0236164D01*
X0081417Y0236256D01*
X0081660Y0236353D01*
X0081900Y0236456D01*
X0082138Y0236565D01*
X0082373Y0236680D01*
X0082606Y0236800D01*
X0082835Y0236926D01*
X0083061Y0237058D01*
X0083284Y0237194D01*
X0083504Y0237337D01*
X0083720Y0237484D01*
X0085548Y0238731D01*
X0087406Y0239933D01*
X0089292Y0241089D01*
X0091206Y0242198D01*
X0093147Y0243261D01*
X0095113Y0244276D01*
X0097103Y0245242D01*
X0099117Y0246160D01*
X0101152Y0247028D01*
X0103207Y0247846D01*
X0105283Y0248613D01*
X0107376Y0249330D01*
X0109486Y0249995D01*
X0111612Y0250609D01*
X0113752Y0251170D01*
X0115905Y0251679D01*
X0118070Y0252135D01*
X0120245Y0252539D01*
X0122430Y0252889D01*
X0124623Y0253185D01*
X0126822Y0253428D01*
X0129026Y0253617D01*
X0131235Y0253752D01*
X0133446Y0253833D01*
X0135658Y0253860D01*
X0137870Y0253833D01*
X0140081Y0253752D01*
X0142290Y0253617D01*
X0144494Y0253428D01*
X0146693Y0253185D01*
X0148886Y0252889D01*
X0151071Y0252539D01*
X0153246Y0252135D01*
X0155411Y0251679D01*
X0157564Y0251170D01*
X0159704Y0250609D01*
X0161830Y0249995D01*
X0163940Y0249330D01*
X0166033Y0248613D01*
X0168109Y0247846D01*
X0170164Y0247028D01*
X0172199Y0246160D01*
X0174213Y0245242D01*
X0176203Y0244276D01*
X0178169Y0243261D01*
X0180110Y0242198D01*
X0182024Y0241089D01*
X0183910Y0239933D01*
X0185768Y0238731D01*
X0187596Y0237484D01*
X0200016Y0071396D02*
X0197751Y0069851D01*
X0195449Y0068362D01*
X0193112Y0066929D01*
X0190740Y0065554D01*
X0188335Y0064238D01*
X0185899Y0062980D01*
X0183433Y0061783D01*
X0180938Y0060646D01*
X0178416Y0059570D01*
X0175869Y0058557D01*
X0173297Y0057605D01*
X0170704Y0056717D01*
X0168089Y0055893D01*
X0165455Y0055133D01*
X0162803Y0054437D01*
X0160135Y0053806D01*
X0157452Y0053241D01*
X0154756Y0052741D01*
X0152049Y0052308D01*
X0149332Y0051940D01*
X0146607Y0051640D01*
X0143876Y0051405D01*
X0141139Y0051238D01*
X0138399Y0051137D01*
X0135658Y0051104D01*
X0132917Y0051137D01*
X0130177Y0051238D01*
X0127440Y0051405D01*
X0124709Y0051640D01*
X0121984Y0051940D01*
X0119267Y0052308D01*
X0116560Y0052741D01*
X0113864Y0053241D01*
X0111181Y0053806D01*
X0108513Y0054437D01*
X0105861Y0055133D01*
X0103227Y0055893D01*
X0100612Y0056717D01*
X0098019Y0057605D01*
X0095447Y0058557D01*
X0092900Y0059570D01*
X0090378Y0060646D01*
X0087883Y0061783D01*
X0085417Y0062980D01*
X0082981Y0064238D01*
X0080576Y0065554D01*
X0078204Y0066929D01*
X0075867Y0068362D01*
X0073565Y0069851D01*
X0071300Y0071396D01*
X0071087Y0071549D01*
X0070879Y0071706D01*
X0070674Y0071869D01*
X0070473Y0072037D01*
X0070276Y0072209D01*
X0070084Y0072386D01*
X0069895Y0072568D01*
X0069712Y0072754D01*
X0069532Y0072945D01*
X0069358Y0073140D01*
X0069188Y0073339D01*
X0069023Y0073542D01*
X0068863Y0073749D01*
X0068708Y0073960D01*
X0068558Y0074175D01*
X0068414Y0074393D01*
X0068275Y0074614D01*
X0068141Y0074839D01*
X0068012Y0075067D01*
X0067890Y0075298D01*
X0067772Y0075532D01*
X0067661Y0075768D01*
X0067555Y0076008D01*
X0067455Y0076250D01*
X0067361Y0076494D01*
X0067273Y0076740D01*
X0067191Y0076988D01*
X0067115Y0077239D01*
X0067044Y0077491D01*
X0066980Y0077745D01*
X0066923Y0078000D01*
X0066871Y0078256D01*
X0066826Y0078514D01*
X0066786Y0078773D01*
X0066753Y0079032D01*
X0066727Y0079292D01*
X0066706Y0079553D01*
X0066692Y0079815D01*
X0066685Y0080076D01*
X0066683Y0080338D01*
X0066688Y0080599D01*
X0066699Y0080861D01*
X0066717Y0081122D01*
X0066741Y0081382D01*
X0066771Y0081642D01*
X0066807Y0081901D01*
X0066850Y0082159D01*
X0066899Y0082416D01*
X0066954Y0082672D01*
X0067015Y0082927D01*
X0067083Y0083179D01*
X0067156Y0083431D01*
X0067236Y0083680D01*
X0067321Y0083927D01*
X0067413Y0084172D01*
X0067510Y0084415D01*
X0067613Y0084655D01*
X0067722Y0084893D01*
X0067837Y0085128D01*
X0067957Y0085361D01*
X0068083Y0085590D01*
X0068215Y0085816D01*
X0068351Y0086039D01*
X0068494Y0086259D01*
X0068641Y0086475D01*
X0068794Y0086688D01*
X0068951Y0086896D01*
X0069114Y0087101D01*
X0069282Y0087302D01*
X0069454Y0087499D01*
X0069631Y0087691D01*
X0069813Y0087880D01*
X0069999Y0088063D01*
X0070190Y0088243D01*
X0070385Y0088417D01*
X0070584Y0088587D01*
X0070787Y0088752D01*
X0070994Y0088912D01*
X0071205Y0089067D01*
X0071420Y0089217D01*
X0071638Y0089361D01*
X0071859Y0089500D01*
X0072084Y0089634D01*
X0072312Y0089763D01*
X0072543Y0089885D01*
X0072777Y0090003D01*
X0073013Y0090114D01*
X0073253Y0090220D01*
X0073495Y0090320D01*
X0073739Y0090414D01*
X0073985Y0090502D01*
X0074233Y0090584D01*
X0074484Y0090660D01*
X0074736Y0090731D01*
X0074990Y0090795D01*
X0075245Y0090852D01*
X0075501Y0090904D01*
X0075759Y0090949D01*
X0076018Y0090989D01*
X0076277Y0091022D01*
X0076537Y0091048D01*
X0076798Y0091069D01*
X0077060Y0091083D01*
X0077321Y0091090D01*
X0077583Y0091092D01*
X0077844Y0091087D01*
X0078106Y0091076D01*
X0078367Y0091058D01*
X0078627Y0091034D01*
X0078887Y0091004D01*
X0079146Y0090968D01*
X0079404Y0090925D01*
X0079661Y0090876D01*
X0079917Y0090821D01*
X0080172Y0090760D01*
X0080424Y0090692D01*
X0080676Y0090619D01*
X0080925Y0090539D01*
X0081172Y0090454D01*
X0081417Y0090362D01*
X0081660Y0090265D01*
X0081900Y0090162D01*
X0082138Y0090053D01*
X0082373Y0089938D01*
X0082606Y0089818D01*
X0082835Y0089692D01*
X0083061Y0089560D01*
X0083284Y0089424D01*
X0083504Y0089281D01*
X0083720Y0089134D01*
X0085548Y0087887D01*
X0087406Y0086685D01*
X0089292Y0085529D01*
X0091206Y0084420D01*
X0093147Y0083357D01*
X0095113Y0082342D01*
X0097103Y0081376D01*
X0099117Y0080458D01*
X0101152Y0079590D01*
X0103207Y0078772D01*
X0105283Y0078005D01*
X0107376Y0077288D01*
X0109486Y0076623D01*
X0111612Y0076009D01*
X0113752Y0075448D01*
X0115905Y0074939D01*
X0118070Y0074483D01*
X0120245Y0074079D01*
X0122430Y0073729D01*
X0124623Y0073433D01*
X0126822Y0073190D01*
X0129026Y0073001D01*
X0131235Y0072866D01*
X0133446Y0072785D01*
X0135658Y0072758D01*
X0137870Y0072785D01*
X0140081Y0072866D01*
X0142290Y0073001D01*
X0144494Y0073190D01*
X0146693Y0073433D01*
X0148886Y0073729D01*
X0151071Y0074079D01*
X0153246Y0074483D01*
X0155411Y0074939D01*
X0157564Y0075448D01*
X0159704Y0076009D01*
X0161830Y0076623D01*
X0163940Y0077288D01*
X0166033Y0078005D01*
X0168109Y0078772D01*
X0170164Y0079590D01*
X0172199Y0080458D01*
X0174213Y0081376D01*
X0176203Y0082342D01*
X0178169Y0083357D01*
X0180110Y0084420D01*
X0182024Y0085529D01*
X0183910Y0086685D01*
X0185768Y0087887D01*
X0187596Y0089134D01*
X0187812Y0089281D01*
X0188032Y0089424D01*
X0188255Y0089560D01*
X0188481Y0089692D01*
X0188710Y0089818D01*
X0188943Y0089938D01*
X0189178Y0090053D01*
X0189416Y0090162D01*
X0189656Y0090265D01*
X0189899Y0090362D01*
X0190144Y0090454D01*
X0190391Y0090539D01*
X0190640Y0090619D01*
X0190892Y0090692D01*
X0191144Y0090760D01*
X0191399Y0090821D01*
X0191655Y0090876D01*
X0191912Y0090925D01*
X0192170Y0090968D01*
X0192429Y0091004D01*
X0192689Y0091034D01*
X0192949Y0091058D01*
X0193210Y0091076D01*
X0193472Y0091087D01*
X0193733Y0091092D01*
X0193995Y0091090D01*
X0194256Y0091083D01*
X0194518Y0091069D01*
X0194779Y0091048D01*
X0195039Y0091022D01*
X0195298Y0090989D01*
X0195557Y0090949D01*
X0195815Y0090904D01*
X0196071Y0090852D01*
X0196326Y0090795D01*
X0196580Y0090731D01*
X0196832Y0090660D01*
X0197083Y0090584D01*
X0197331Y0090502D01*
X0197577Y0090414D01*
X0197821Y0090320D01*
X0198063Y0090220D01*
X0198303Y0090114D01*
X0198539Y0090003D01*
X0198773Y0089885D01*
X0199004Y0089763D01*
X0199232Y0089634D01*
X0199457Y0089500D01*
X0199678Y0089361D01*
X0199896Y0089217D01*
X0200111Y0089067D01*
X0200322Y0088912D01*
X0200529Y0088752D01*
X0200732Y0088587D01*
X0200931Y0088417D01*
X0201126Y0088243D01*
X0201317Y0088063D01*
X0201503Y0087880D01*
X0201685Y0087691D01*
X0201862Y0087499D01*
X0202034Y0087302D01*
X0202202Y0087101D01*
X0202365Y0086896D01*
X0202522Y0086688D01*
X0202675Y0086475D01*
X0202822Y0086259D01*
X0202965Y0086039D01*
X0203101Y0085816D01*
X0203233Y0085590D01*
X0203359Y0085361D01*
X0203479Y0085128D01*
X0203594Y0084893D01*
X0203703Y0084655D01*
X0203806Y0084415D01*
X0203903Y0084172D01*
X0203995Y0083927D01*
X0204080Y0083680D01*
X0204160Y0083431D01*
X0204233Y0083179D01*
X0204301Y0082927D01*
X0204362Y0082672D01*
X0204417Y0082416D01*
X0204466Y0082159D01*
X0204509Y0081901D01*
X0204545Y0081642D01*
X0204575Y0081382D01*
X0204599Y0081122D01*
X0204617Y0080861D01*
X0204628Y0080599D01*
X0204633Y0080338D01*
X0204631Y0080076D01*
X0204624Y0079815D01*
X0204610Y0079553D01*
X0204589Y0079292D01*
X0204563Y0079032D01*
X0204530Y0078773D01*
X0204490Y0078514D01*
X0204445Y0078256D01*
X0204393Y0078000D01*
X0204336Y0077745D01*
X0204272Y0077491D01*
X0204201Y0077239D01*
X0204125Y0076988D01*
X0204043Y0076740D01*
X0203955Y0076494D01*
X0203861Y0076250D01*
X0203761Y0076008D01*
X0203655Y0075768D01*
X0203544Y0075532D01*
X0203426Y0075298D01*
X0203304Y0075067D01*
X0203175Y0074839D01*
X0203041Y0074614D01*
X0202902Y0074393D01*
X0202758Y0074175D01*
X0202608Y0073960D01*
X0202453Y0073749D01*
X0202293Y0073542D01*
X0202128Y0073339D01*
X0201958Y0073140D01*
X0201784Y0072945D01*
X0201604Y0072754D01*
X0201421Y0072568D01*
X0201232Y0072386D01*
X0201040Y0072209D01*
X0200843Y0072037D01*
X0200642Y0071869D01*
X0200437Y0071706D01*
X0200229Y0071549D01*
X0200016Y0071396D01*
X0290320Y0050002D02*
X0290322Y0050163D01*
X0290328Y0050323D01*
X0290338Y0050484D01*
X0290352Y0050644D01*
X0290370Y0050804D01*
X0290391Y0050963D01*
X0290417Y0051122D01*
X0290447Y0051280D01*
X0290480Y0051437D01*
X0290518Y0051594D01*
X0290559Y0051749D01*
X0290604Y0051903D01*
X0290653Y0052056D01*
X0290706Y0052208D01*
X0290762Y0052359D01*
X0290823Y0052508D01*
X0290886Y0052656D01*
X0290954Y0052802D01*
X0291025Y0052946D01*
X0291099Y0053088D01*
X0291177Y0053229D01*
X0291259Y0053367D01*
X0291344Y0053504D01*
X0291432Y0053638D01*
X0291524Y0053770D01*
X0291619Y0053900D01*
X0291717Y0054028D01*
X0291818Y0054153D01*
X0291922Y0054275D01*
X0292029Y0054395D01*
X0292139Y0054512D01*
X0292252Y0054627D01*
X0292368Y0054738D01*
X0292487Y0054847D01*
X0292608Y0054952D01*
X0292732Y0055055D01*
X0292858Y0055155D01*
X0292986Y0055251D01*
X0293117Y0055344D01*
X0293251Y0055434D01*
X0293386Y0055521D01*
X0293524Y0055604D01*
X0293663Y0055684D01*
X0293805Y0055760D01*
X0293948Y0055833D01*
X0294093Y0055902D01*
X0294240Y0055968D01*
X0294388Y0056030D01*
X0294538Y0056088D01*
X0294689Y0056143D01*
X0294842Y0056194D01*
X0294996Y0056241D01*
X0295151Y0056284D01*
X0295307Y0056323D01*
X0295463Y0056359D01*
X0295621Y0056390D01*
X0295779Y0056418D01*
X0295938Y0056442D01*
X0296098Y0056462D01*
X0296258Y0056478D01*
X0296418Y0056490D01*
X0296579Y0056498D01*
X0296740Y0056502D01*
X0296900Y0056502D01*
X0297061Y0056498D01*
X0297222Y0056490D01*
X0297382Y0056478D01*
X0297542Y0056462D01*
X0297702Y0056442D01*
X0297861Y0056418D01*
X0298019Y0056390D01*
X0298177Y0056359D01*
X0298333Y0056323D01*
X0298489Y0056284D01*
X0298644Y0056241D01*
X0298798Y0056194D01*
X0298951Y0056143D01*
X0299102Y0056088D01*
X0299252Y0056030D01*
X0299400Y0055968D01*
X0299547Y0055902D01*
X0299692Y0055833D01*
X0299835Y0055760D01*
X0299977Y0055684D01*
X0300116Y0055604D01*
X0300254Y0055521D01*
X0300389Y0055434D01*
X0300523Y0055344D01*
X0300654Y0055251D01*
X0300782Y0055155D01*
X0300908Y0055055D01*
X0301032Y0054952D01*
X0301153Y0054847D01*
X0301272Y0054738D01*
X0301388Y0054627D01*
X0301501Y0054512D01*
X0301611Y0054395D01*
X0301718Y0054275D01*
X0301822Y0054153D01*
X0301923Y0054028D01*
X0302021Y0053900D01*
X0302116Y0053770D01*
X0302208Y0053638D01*
X0302296Y0053504D01*
X0302381Y0053367D01*
X0302463Y0053229D01*
X0302541Y0053088D01*
X0302615Y0052946D01*
X0302686Y0052802D01*
X0302754Y0052656D01*
X0302817Y0052508D01*
X0302878Y0052359D01*
X0302934Y0052208D01*
X0302987Y0052056D01*
X0303036Y0051903D01*
X0303081Y0051749D01*
X0303122Y0051594D01*
X0303160Y0051437D01*
X0303193Y0051280D01*
X0303223Y0051122D01*
X0303249Y0050963D01*
X0303270Y0050804D01*
X0303288Y0050644D01*
X0303302Y0050484D01*
X0303312Y0050323D01*
X0303318Y0050163D01*
X0303320Y0050002D01*
X0303318Y0049841D01*
X0303312Y0049681D01*
X0303302Y0049520D01*
X0303288Y0049360D01*
X0303270Y0049200D01*
X0303249Y0049041D01*
X0303223Y0048882D01*
X0303193Y0048724D01*
X0303160Y0048567D01*
X0303122Y0048410D01*
X0303081Y0048255D01*
X0303036Y0048101D01*
X0302987Y0047948D01*
X0302934Y0047796D01*
X0302878Y0047645D01*
X0302817Y0047496D01*
X0302754Y0047348D01*
X0302686Y0047202D01*
X0302615Y0047058D01*
X0302541Y0046916D01*
X0302463Y0046775D01*
X0302381Y0046637D01*
X0302296Y0046500D01*
X0302208Y0046366D01*
X0302116Y0046234D01*
X0302021Y0046104D01*
X0301923Y0045976D01*
X0301822Y0045851D01*
X0301718Y0045729D01*
X0301611Y0045609D01*
X0301501Y0045492D01*
X0301388Y0045377D01*
X0301272Y0045266D01*
X0301153Y0045157D01*
X0301032Y0045052D01*
X0300908Y0044949D01*
X0300782Y0044849D01*
X0300654Y0044753D01*
X0300523Y0044660D01*
X0300389Y0044570D01*
X0300254Y0044483D01*
X0300116Y0044400D01*
X0299977Y0044320D01*
X0299835Y0044244D01*
X0299692Y0044171D01*
X0299547Y0044102D01*
X0299400Y0044036D01*
X0299252Y0043974D01*
X0299102Y0043916D01*
X0298951Y0043861D01*
X0298798Y0043810D01*
X0298644Y0043763D01*
X0298489Y0043720D01*
X0298333Y0043681D01*
X0298177Y0043645D01*
X0298019Y0043614D01*
X0297861Y0043586D01*
X0297702Y0043562D01*
X0297542Y0043542D01*
X0297382Y0043526D01*
X0297222Y0043514D01*
X0297061Y0043506D01*
X0296900Y0043502D01*
X0296740Y0043502D01*
X0296579Y0043506D01*
X0296418Y0043514D01*
X0296258Y0043526D01*
X0296098Y0043542D01*
X0295938Y0043562D01*
X0295779Y0043586D01*
X0295621Y0043614D01*
X0295463Y0043645D01*
X0295307Y0043681D01*
X0295151Y0043720D01*
X0294996Y0043763D01*
X0294842Y0043810D01*
X0294689Y0043861D01*
X0294538Y0043916D01*
X0294388Y0043974D01*
X0294240Y0044036D01*
X0294093Y0044102D01*
X0293948Y0044171D01*
X0293805Y0044244D01*
X0293663Y0044320D01*
X0293524Y0044400D01*
X0293386Y0044483D01*
X0293251Y0044570D01*
X0293117Y0044660D01*
X0292986Y0044753D01*
X0292858Y0044849D01*
X0292732Y0044949D01*
X0292608Y0045052D01*
X0292487Y0045157D01*
X0292368Y0045266D01*
X0292252Y0045377D01*
X0292139Y0045492D01*
X0292029Y0045609D01*
X0291922Y0045729D01*
X0291818Y0045851D01*
X0291717Y0045976D01*
X0291619Y0046104D01*
X0291524Y0046234D01*
X0291432Y0046366D01*
X0291344Y0046500D01*
X0291259Y0046637D01*
X0291177Y0046775D01*
X0291099Y0046916D01*
X0291025Y0047058D01*
X0290954Y0047202D01*
X0290886Y0047348D01*
X0290823Y0047496D01*
X0290762Y0047645D01*
X0290706Y0047796D01*
X0290653Y0047948D01*
X0290604Y0048101D01*
X0290559Y0048255D01*
X0290518Y0048410D01*
X0290480Y0048567D01*
X0290447Y0048724D01*
X0290417Y0048882D01*
X0290391Y0049041D01*
X0290370Y0049200D01*
X0290352Y0049360D01*
X0290338Y0049520D01*
X0290328Y0049681D01*
X0290322Y0049841D01*
X0290320Y0050002D01*
X0377820Y0050002D02*
X0377822Y0050163D01*
X0377828Y0050323D01*
X0377838Y0050484D01*
X0377852Y0050644D01*
X0377870Y0050804D01*
X0377891Y0050963D01*
X0377917Y0051122D01*
X0377947Y0051280D01*
X0377980Y0051437D01*
X0378018Y0051594D01*
X0378059Y0051749D01*
X0378104Y0051903D01*
X0378153Y0052056D01*
X0378206Y0052208D01*
X0378262Y0052359D01*
X0378323Y0052508D01*
X0378386Y0052656D01*
X0378454Y0052802D01*
X0378525Y0052946D01*
X0378599Y0053088D01*
X0378677Y0053229D01*
X0378759Y0053367D01*
X0378844Y0053504D01*
X0378932Y0053638D01*
X0379024Y0053770D01*
X0379119Y0053900D01*
X0379217Y0054028D01*
X0379318Y0054153D01*
X0379422Y0054275D01*
X0379529Y0054395D01*
X0379639Y0054512D01*
X0379752Y0054627D01*
X0379868Y0054738D01*
X0379987Y0054847D01*
X0380108Y0054952D01*
X0380232Y0055055D01*
X0380358Y0055155D01*
X0380486Y0055251D01*
X0380617Y0055344D01*
X0380751Y0055434D01*
X0380886Y0055521D01*
X0381024Y0055604D01*
X0381163Y0055684D01*
X0381305Y0055760D01*
X0381448Y0055833D01*
X0381593Y0055902D01*
X0381740Y0055968D01*
X0381888Y0056030D01*
X0382038Y0056088D01*
X0382189Y0056143D01*
X0382342Y0056194D01*
X0382496Y0056241D01*
X0382651Y0056284D01*
X0382807Y0056323D01*
X0382963Y0056359D01*
X0383121Y0056390D01*
X0383279Y0056418D01*
X0383438Y0056442D01*
X0383598Y0056462D01*
X0383758Y0056478D01*
X0383918Y0056490D01*
X0384079Y0056498D01*
X0384240Y0056502D01*
X0384400Y0056502D01*
X0384561Y0056498D01*
X0384722Y0056490D01*
X0384882Y0056478D01*
X0385042Y0056462D01*
X0385202Y0056442D01*
X0385361Y0056418D01*
X0385519Y0056390D01*
X0385677Y0056359D01*
X0385833Y0056323D01*
X0385989Y0056284D01*
X0386144Y0056241D01*
X0386298Y0056194D01*
X0386451Y0056143D01*
X0386602Y0056088D01*
X0386752Y0056030D01*
X0386900Y0055968D01*
X0387047Y0055902D01*
X0387192Y0055833D01*
X0387335Y0055760D01*
X0387477Y0055684D01*
X0387616Y0055604D01*
X0387754Y0055521D01*
X0387889Y0055434D01*
X0388023Y0055344D01*
X0388154Y0055251D01*
X0388282Y0055155D01*
X0388408Y0055055D01*
X0388532Y0054952D01*
X0388653Y0054847D01*
X0388772Y0054738D01*
X0388888Y0054627D01*
X0389001Y0054512D01*
X0389111Y0054395D01*
X0389218Y0054275D01*
X0389322Y0054153D01*
X0389423Y0054028D01*
X0389521Y0053900D01*
X0389616Y0053770D01*
X0389708Y0053638D01*
X0389796Y0053504D01*
X0389881Y0053367D01*
X0389963Y0053229D01*
X0390041Y0053088D01*
X0390115Y0052946D01*
X0390186Y0052802D01*
X0390254Y0052656D01*
X0390317Y0052508D01*
X0390378Y0052359D01*
X0390434Y0052208D01*
X0390487Y0052056D01*
X0390536Y0051903D01*
X0390581Y0051749D01*
X0390622Y0051594D01*
X0390660Y0051437D01*
X0390693Y0051280D01*
X0390723Y0051122D01*
X0390749Y0050963D01*
X0390770Y0050804D01*
X0390788Y0050644D01*
X0390802Y0050484D01*
X0390812Y0050323D01*
X0390818Y0050163D01*
X0390820Y0050002D01*
X0390818Y0049841D01*
X0390812Y0049681D01*
X0390802Y0049520D01*
X0390788Y0049360D01*
X0390770Y0049200D01*
X0390749Y0049041D01*
X0390723Y0048882D01*
X0390693Y0048724D01*
X0390660Y0048567D01*
X0390622Y0048410D01*
X0390581Y0048255D01*
X0390536Y0048101D01*
X0390487Y0047948D01*
X0390434Y0047796D01*
X0390378Y0047645D01*
X0390317Y0047496D01*
X0390254Y0047348D01*
X0390186Y0047202D01*
X0390115Y0047058D01*
X0390041Y0046916D01*
X0389963Y0046775D01*
X0389881Y0046637D01*
X0389796Y0046500D01*
X0389708Y0046366D01*
X0389616Y0046234D01*
X0389521Y0046104D01*
X0389423Y0045976D01*
X0389322Y0045851D01*
X0389218Y0045729D01*
X0389111Y0045609D01*
X0389001Y0045492D01*
X0388888Y0045377D01*
X0388772Y0045266D01*
X0388653Y0045157D01*
X0388532Y0045052D01*
X0388408Y0044949D01*
X0388282Y0044849D01*
X0388154Y0044753D01*
X0388023Y0044660D01*
X0387889Y0044570D01*
X0387754Y0044483D01*
X0387616Y0044400D01*
X0387477Y0044320D01*
X0387335Y0044244D01*
X0387192Y0044171D01*
X0387047Y0044102D01*
X0386900Y0044036D01*
X0386752Y0043974D01*
X0386602Y0043916D01*
X0386451Y0043861D01*
X0386298Y0043810D01*
X0386144Y0043763D01*
X0385989Y0043720D01*
X0385833Y0043681D01*
X0385677Y0043645D01*
X0385519Y0043614D01*
X0385361Y0043586D01*
X0385202Y0043562D01*
X0385042Y0043542D01*
X0384882Y0043526D01*
X0384722Y0043514D01*
X0384561Y0043506D01*
X0384400Y0043502D01*
X0384240Y0043502D01*
X0384079Y0043506D01*
X0383918Y0043514D01*
X0383758Y0043526D01*
X0383598Y0043542D01*
X0383438Y0043562D01*
X0383279Y0043586D01*
X0383121Y0043614D01*
X0382963Y0043645D01*
X0382807Y0043681D01*
X0382651Y0043720D01*
X0382496Y0043763D01*
X0382342Y0043810D01*
X0382189Y0043861D01*
X0382038Y0043916D01*
X0381888Y0043974D01*
X0381740Y0044036D01*
X0381593Y0044102D01*
X0381448Y0044171D01*
X0381305Y0044244D01*
X0381163Y0044320D01*
X0381024Y0044400D01*
X0380886Y0044483D01*
X0380751Y0044570D01*
X0380617Y0044660D01*
X0380486Y0044753D01*
X0380358Y0044849D01*
X0380232Y0044949D01*
X0380108Y0045052D01*
X0379987Y0045157D01*
X0379868Y0045266D01*
X0379752Y0045377D01*
X0379639Y0045492D01*
X0379529Y0045609D01*
X0379422Y0045729D01*
X0379318Y0045851D01*
X0379217Y0045976D01*
X0379119Y0046104D01*
X0379024Y0046234D01*
X0378932Y0046366D01*
X0378844Y0046500D01*
X0378759Y0046637D01*
X0378677Y0046775D01*
X0378599Y0046916D01*
X0378525Y0047058D01*
X0378454Y0047202D01*
X0378386Y0047348D01*
X0378323Y0047496D01*
X0378262Y0047645D01*
X0378206Y0047796D01*
X0378153Y0047948D01*
X0378104Y0048101D01*
X0378059Y0048255D01*
X0378018Y0048410D01*
X0377980Y0048567D01*
X0377947Y0048724D01*
X0377917Y0048882D01*
X0377891Y0049041D01*
X0377870Y0049200D01*
X0377852Y0049360D01*
X0377838Y0049520D01*
X0377828Y0049681D01*
X0377822Y0049841D01*
X0377820Y0050002D01*
X0377820Y0217502D02*
X0377822Y0217663D01*
X0377828Y0217823D01*
X0377838Y0217984D01*
X0377852Y0218144D01*
X0377870Y0218304D01*
X0377891Y0218463D01*
X0377917Y0218622D01*
X0377947Y0218780D01*
X0377980Y0218937D01*
X0378018Y0219094D01*
X0378059Y0219249D01*
X0378104Y0219403D01*
X0378153Y0219556D01*
X0378206Y0219708D01*
X0378262Y0219859D01*
X0378323Y0220008D01*
X0378386Y0220156D01*
X0378454Y0220302D01*
X0378525Y0220446D01*
X0378599Y0220588D01*
X0378677Y0220729D01*
X0378759Y0220867D01*
X0378844Y0221004D01*
X0378932Y0221138D01*
X0379024Y0221270D01*
X0379119Y0221400D01*
X0379217Y0221528D01*
X0379318Y0221653D01*
X0379422Y0221775D01*
X0379529Y0221895D01*
X0379639Y0222012D01*
X0379752Y0222127D01*
X0379868Y0222238D01*
X0379987Y0222347D01*
X0380108Y0222452D01*
X0380232Y0222555D01*
X0380358Y0222655D01*
X0380486Y0222751D01*
X0380617Y0222844D01*
X0380751Y0222934D01*
X0380886Y0223021D01*
X0381024Y0223104D01*
X0381163Y0223184D01*
X0381305Y0223260D01*
X0381448Y0223333D01*
X0381593Y0223402D01*
X0381740Y0223468D01*
X0381888Y0223530D01*
X0382038Y0223588D01*
X0382189Y0223643D01*
X0382342Y0223694D01*
X0382496Y0223741D01*
X0382651Y0223784D01*
X0382807Y0223823D01*
X0382963Y0223859D01*
X0383121Y0223890D01*
X0383279Y0223918D01*
X0383438Y0223942D01*
X0383598Y0223962D01*
X0383758Y0223978D01*
X0383918Y0223990D01*
X0384079Y0223998D01*
X0384240Y0224002D01*
X0384400Y0224002D01*
X0384561Y0223998D01*
X0384722Y0223990D01*
X0384882Y0223978D01*
X0385042Y0223962D01*
X0385202Y0223942D01*
X0385361Y0223918D01*
X0385519Y0223890D01*
X0385677Y0223859D01*
X0385833Y0223823D01*
X0385989Y0223784D01*
X0386144Y0223741D01*
X0386298Y0223694D01*
X0386451Y0223643D01*
X0386602Y0223588D01*
X0386752Y0223530D01*
X0386900Y0223468D01*
X0387047Y0223402D01*
X0387192Y0223333D01*
X0387335Y0223260D01*
X0387477Y0223184D01*
X0387616Y0223104D01*
X0387754Y0223021D01*
X0387889Y0222934D01*
X0388023Y0222844D01*
X0388154Y0222751D01*
X0388282Y0222655D01*
X0388408Y0222555D01*
X0388532Y0222452D01*
X0388653Y0222347D01*
X0388772Y0222238D01*
X0388888Y0222127D01*
X0389001Y0222012D01*
X0389111Y0221895D01*
X0389218Y0221775D01*
X0389322Y0221653D01*
X0389423Y0221528D01*
X0389521Y0221400D01*
X0389616Y0221270D01*
X0389708Y0221138D01*
X0389796Y0221004D01*
X0389881Y0220867D01*
X0389963Y0220729D01*
X0390041Y0220588D01*
X0390115Y0220446D01*
X0390186Y0220302D01*
X0390254Y0220156D01*
X0390317Y0220008D01*
X0390378Y0219859D01*
X0390434Y0219708D01*
X0390487Y0219556D01*
X0390536Y0219403D01*
X0390581Y0219249D01*
X0390622Y0219094D01*
X0390660Y0218937D01*
X0390693Y0218780D01*
X0390723Y0218622D01*
X0390749Y0218463D01*
X0390770Y0218304D01*
X0390788Y0218144D01*
X0390802Y0217984D01*
X0390812Y0217823D01*
X0390818Y0217663D01*
X0390820Y0217502D01*
X0390818Y0217341D01*
X0390812Y0217181D01*
X0390802Y0217020D01*
X0390788Y0216860D01*
X0390770Y0216700D01*
X0390749Y0216541D01*
X0390723Y0216382D01*
X0390693Y0216224D01*
X0390660Y0216067D01*
X0390622Y0215910D01*
X0390581Y0215755D01*
X0390536Y0215601D01*
X0390487Y0215448D01*
X0390434Y0215296D01*
X0390378Y0215145D01*
X0390317Y0214996D01*
X0390254Y0214848D01*
X0390186Y0214702D01*
X0390115Y0214558D01*
X0390041Y0214416D01*
X0389963Y0214275D01*
X0389881Y0214137D01*
X0389796Y0214000D01*
X0389708Y0213866D01*
X0389616Y0213734D01*
X0389521Y0213604D01*
X0389423Y0213476D01*
X0389322Y0213351D01*
X0389218Y0213229D01*
X0389111Y0213109D01*
X0389001Y0212992D01*
X0388888Y0212877D01*
X0388772Y0212766D01*
X0388653Y0212657D01*
X0388532Y0212552D01*
X0388408Y0212449D01*
X0388282Y0212349D01*
X0388154Y0212253D01*
X0388023Y0212160D01*
X0387889Y0212070D01*
X0387754Y0211983D01*
X0387616Y0211900D01*
X0387477Y0211820D01*
X0387335Y0211744D01*
X0387192Y0211671D01*
X0387047Y0211602D01*
X0386900Y0211536D01*
X0386752Y0211474D01*
X0386602Y0211416D01*
X0386451Y0211361D01*
X0386298Y0211310D01*
X0386144Y0211263D01*
X0385989Y0211220D01*
X0385833Y0211181D01*
X0385677Y0211145D01*
X0385519Y0211114D01*
X0385361Y0211086D01*
X0385202Y0211062D01*
X0385042Y0211042D01*
X0384882Y0211026D01*
X0384722Y0211014D01*
X0384561Y0211006D01*
X0384400Y0211002D01*
X0384240Y0211002D01*
X0384079Y0211006D01*
X0383918Y0211014D01*
X0383758Y0211026D01*
X0383598Y0211042D01*
X0383438Y0211062D01*
X0383279Y0211086D01*
X0383121Y0211114D01*
X0382963Y0211145D01*
X0382807Y0211181D01*
X0382651Y0211220D01*
X0382496Y0211263D01*
X0382342Y0211310D01*
X0382189Y0211361D01*
X0382038Y0211416D01*
X0381888Y0211474D01*
X0381740Y0211536D01*
X0381593Y0211602D01*
X0381448Y0211671D01*
X0381305Y0211744D01*
X0381163Y0211820D01*
X0381024Y0211900D01*
X0380886Y0211983D01*
X0380751Y0212070D01*
X0380617Y0212160D01*
X0380486Y0212253D01*
X0380358Y0212349D01*
X0380232Y0212449D01*
X0380108Y0212552D01*
X0379987Y0212657D01*
X0379868Y0212766D01*
X0379752Y0212877D01*
X0379639Y0212992D01*
X0379529Y0213109D01*
X0379422Y0213229D01*
X0379318Y0213351D01*
X0379217Y0213476D01*
X0379119Y0213604D01*
X0379024Y0213734D01*
X0378932Y0213866D01*
X0378844Y0214000D01*
X0378759Y0214137D01*
X0378677Y0214275D01*
X0378599Y0214416D01*
X0378525Y0214558D01*
X0378454Y0214702D01*
X0378386Y0214848D01*
X0378323Y0214996D01*
X0378262Y0215145D01*
X0378206Y0215296D01*
X0378153Y0215448D01*
X0378104Y0215601D01*
X0378059Y0215755D01*
X0378018Y0215910D01*
X0377980Y0216067D01*
X0377947Y0216224D01*
X0377917Y0216382D01*
X0377891Y0216541D01*
X0377870Y0216700D01*
X0377852Y0216860D01*
X0377838Y0217020D01*
X0377828Y0217181D01*
X0377822Y0217341D01*
X0377820Y0217502D01*
X0290320Y0215002D02*
X0290322Y0215163D01*
X0290328Y0215323D01*
X0290338Y0215484D01*
X0290352Y0215644D01*
X0290370Y0215804D01*
X0290391Y0215963D01*
X0290417Y0216122D01*
X0290447Y0216280D01*
X0290480Y0216437D01*
X0290518Y0216594D01*
X0290559Y0216749D01*
X0290604Y0216903D01*
X0290653Y0217056D01*
X0290706Y0217208D01*
X0290762Y0217359D01*
X0290823Y0217508D01*
X0290886Y0217656D01*
X0290954Y0217802D01*
X0291025Y0217946D01*
X0291099Y0218088D01*
X0291177Y0218229D01*
X0291259Y0218367D01*
X0291344Y0218504D01*
X0291432Y0218638D01*
X0291524Y0218770D01*
X0291619Y0218900D01*
X0291717Y0219028D01*
X0291818Y0219153D01*
X0291922Y0219275D01*
X0292029Y0219395D01*
X0292139Y0219512D01*
X0292252Y0219627D01*
X0292368Y0219738D01*
X0292487Y0219847D01*
X0292608Y0219952D01*
X0292732Y0220055D01*
X0292858Y0220155D01*
X0292986Y0220251D01*
X0293117Y0220344D01*
X0293251Y0220434D01*
X0293386Y0220521D01*
X0293524Y0220604D01*
X0293663Y0220684D01*
X0293805Y0220760D01*
X0293948Y0220833D01*
X0294093Y0220902D01*
X0294240Y0220968D01*
X0294388Y0221030D01*
X0294538Y0221088D01*
X0294689Y0221143D01*
X0294842Y0221194D01*
X0294996Y0221241D01*
X0295151Y0221284D01*
X0295307Y0221323D01*
X0295463Y0221359D01*
X0295621Y0221390D01*
X0295779Y0221418D01*
X0295938Y0221442D01*
X0296098Y0221462D01*
X0296258Y0221478D01*
X0296418Y0221490D01*
X0296579Y0221498D01*
X0296740Y0221502D01*
X0296900Y0221502D01*
X0297061Y0221498D01*
X0297222Y0221490D01*
X0297382Y0221478D01*
X0297542Y0221462D01*
X0297702Y0221442D01*
X0297861Y0221418D01*
X0298019Y0221390D01*
X0298177Y0221359D01*
X0298333Y0221323D01*
X0298489Y0221284D01*
X0298644Y0221241D01*
X0298798Y0221194D01*
X0298951Y0221143D01*
X0299102Y0221088D01*
X0299252Y0221030D01*
X0299400Y0220968D01*
X0299547Y0220902D01*
X0299692Y0220833D01*
X0299835Y0220760D01*
X0299977Y0220684D01*
X0300116Y0220604D01*
X0300254Y0220521D01*
X0300389Y0220434D01*
X0300523Y0220344D01*
X0300654Y0220251D01*
X0300782Y0220155D01*
X0300908Y0220055D01*
X0301032Y0219952D01*
X0301153Y0219847D01*
X0301272Y0219738D01*
X0301388Y0219627D01*
X0301501Y0219512D01*
X0301611Y0219395D01*
X0301718Y0219275D01*
X0301822Y0219153D01*
X0301923Y0219028D01*
X0302021Y0218900D01*
X0302116Y0218770D01*
X0302208Y0218638D01*
X0302296Y0218504D01*
X0302381Y0218367D01*
X0302463Y0218229D01*
X0302541Y0218088D01*
X0302615Y0217946D01*
X0302686Y0217802D01*
X0302754Y0217656D01*
X0302817Y0217508D01*
X0302878Y0217359D01*
X0302934Y0217208D01*
X0302987Y0217056D01*
X0303036Y0216903D01*
X0303081Y0216749D01*
X0303122Y0216594D01*
X0303160Y0216437D01*
X0303193Y0216280D01*
X0303223Y0216122D01*
X0303249Y0215963D01*
X0303270Y0215804D01*
X0303288Y0215644D01*
X0303302Y0215484D01*
X0303312Y0215323D01*
X0303318Y0215163D01*
X0303320Y0215002D01*
X0303318Y0214841D01*
X0303312Y0214681D01*
X0303302Y0214520D01*
X0303288Y0214360D01*
X0303270Y0214200D01*
X0303249Y0214041D01*
X0303223Y0213882D01*
X0303193Y0213724D01*
X0303160Y0213567D01*
X0303122Y0213410D01*
X0303081Y0213255D01*
X0303036Y0213101D01*
X0302987Y0212948D01*
X0302934Y0212796D01*
X0302878Y0212645D01*
X0302817Y0212496D01*
X0302754Y0212348D01*
X0302686Y0212202D01*
X0302615Y0212058D01*
X0302541Y0211916D01*
X0302463Y0211775D01*
X0302381Y0211637D01*
X0302296Y0211500D01*
X0302208Y0211366D01*
X0302116Y0211234D01*
X0302021Y0211104D01*
X0301923Y0210976D01*
X0301822Y0210851D01*
X0301718Y0210729D01*
X0301611Y0210609D01*
X0301501Y0210492D01*
X0301388Y0210377D01*
X0301272Y0210266D01*
X0301153Y0210157D01*
X0301032Y0210052D01*
X0300908Y0209949D01*
X0300782Y0209849D01*
X0300654Y0209753D01*
X0300523Y0209660D01*
X0300389Y0209570D01*
X0300254Y0209483D01*
X0300116Y0209400D01*
X0299977Y0209320D01*
X0299835Y0209244D01*
X0299692Y0209171D01*
X0299547Y0209102D01*
X0299400Y0209036D01*
X0299252Y0208974D01*
X0299102Y0208916D01*
X0298951Y0208861D01*
X0298798Y0208810D01*
X0298644Y0208763D01*
X0298489Y0208720D01*
X0298333Y0208681D01*
X0298177Y0208645D01*
X0298019Y0208614D01*
X0297861Y0208586D01*
X0297702Y0208562D01*
X0297542Y0208542D01*
X0297382Y0208526D01*
X0297222Y0208514D01*
X0297061Y0208506D01*
X0296900Y0208502D01*
X0296740Y0208502D01*
X0296579Y0208506D01*
X0296418Y0208514D01*
X0296258Y0208526D01*
X0296098Y0208542D01*
X0295938Y0208562D01*
X0295779Y0208586D01*
X0295621Y0208614D01*
X0295463Y0208645D01*
X0295307Y0208681D01*
X0295151Y0208720D01*
X0294996Y0208763D01*
X0294842Y0208810D01*
X0294689Y0208861D01*
X0294538Y0208916D01*
X0294388Y0208974D01*
X0294240Y0209036D01*
X0294093Y0209102D01*
X0293948Y0209171D01*
X0293805Y0209244D01*
X0293663Y0209320D01*
X0293524Y0209400D01*
X0293386Y0209483D01*
X0293251Y0209570D01*
X0293117Y0209660D01*
X0292986Y0209753D01*
X0292858Y0209849D01*
X0292732Y0209949D01*
X0292608Y0210052D01*
X0292487Y0210157D01*
X0292368Y0210266D01*
X0292252Y0210377D01*
X0292139Y0210492D01*
X0292029Y0210609D01*
X0291922Y0210729D01*
X0291818Y0210851D01*
X0291717Y0210976D01*
X0291619Y0211104D01*
X0291524Y0211234D01*
X0291432Y0211366D01*
X0291344Y0211500D01*
X0291259Y0211637D01*
X0291177Y0211775D01*
X0291099Y0211916D01*
X0291025Y0212058D01*
X0290954Y0212202D01*
X0290886Y0212348D01*
X0290823Y0212496D01*
X0290762Y0212645D01*
X0290706Y0212796D01*
X0290653Y0212948D01*
X0290604Y0213101D01*
X0290559Y0213255D01*
X0290518Y0213410D01*
X0290480Y0213567D01*
X0290447Y0213724D01*
X0290417Y0213882D01*
X0290391Y0214041D01*
X0290370Y0214200D01*
X0290352Y0214360D01*
X0290338Y0214520D01*
X0290328Y0214681D01*
X0290322Y0214841D01*
X0290320Y0215002D01*
D14*
X0246434Y0135856D02*
X0245200Y0134621D01*
X0246434Y0135856D02*
X0246434Y0132152D01*
X0245200Y0132152D02*
X0247668Y0132152D01*
X0240302Y0133387D02*
X0239068Y0132152D01*
X0237833Y0133387D01*
X0237833Y0135856D01*
X0236619Y0135856D02*
X0234150Y0135856D01*
X0234150Y0132152D01*
X0236619Y0132152D01*
X0235385Y0134004D02*
X0234150Y0134004D01*
X0232936Y0134004D02*
X0232319Y0133387D01*
X0230467Y0133387D01*
X0231702Y0133387D02*
X0232936Y0132152D01*
X0232936Y0134004D02*
X0232936Y0135238D01*
X0232319Y0135856D01*
X0230467Y0135856D01*
X0230467Y0132152D01*
X0225570Y0132152D02*
X0225570Y0135856D01*
X0223101Y0135856D02*
X0223101Y0132152D01*
X0221886Y0132770D02*
X0221886Y0134004D01*
X0220652Y0134004D01*
X0219418Y0135238D02*
X0219418Y0132770D01*
X0220035Y0132152D01*
X0221269Y0132152D01*
X0221886Y0132770D01*
X0221886Y0135238D02*
X0221269Y0135856D01*
X0220035Y0135856D01*
X0219418Y0135238D01*
X0218197Y0135856D02*
X0216962Y0135856D01*
X0217579Y0135856D02*
X0217579Y0132152D01*
X0216962Y0132152D02*
X0218197Y0132152D01*
X0218804Y0129856D02*
X0218804Y0126152D01*
X0217589Y0126770D02*
X0216972Y0126152D01*
X0215738Y0126152D01*
X0215121Y0126770D01*
X0213906Y0126152D02*
X0211438Y0126152D01*
X0211438Y0129856D01*
X0210223Y0129856D02*
X0207754Y0129856D01*
X0207754Y0126152D01*
X0210223Y0126152D01*
X0208989Y0128004D02*
X0207754Y0128004D01*
X0206540Y0126152D02*
X0206540Y0129856D01*
X0206530Y0132152D02*
X0207764Y0132152D01*
X0208382Y0132770D01*
X0208382Y0133387D01*
X0207764Y0134004D01*
X0205913Y0134004D01*
X0205913Y0132770D01*
X0206530Y0132152D01*
X0204698Y0132770D02*
X0204698Y0133387D01*
X0204081Y0134004D01*
X0203464Y0134004D01*
X0204081Y0134004D02*
X0204698Y0134621D01*
X0204698Y0135238D01*
X0204081Y0135856D01*
X0202847Y0135856D01*
X0202230Y0135238D01*
X0201015Y0135238D02*
X0201015Y0134621D01*
X0200398Y0134004D01*
X0198547Y0134004D01*
X0197332Y0135238D02*
X0196715Y0135856D01*
X0195481Y0135856D01*
X0194863Y0135238D01*
X0194863Y0132770D01*
X0195481Y0132152D01*
X0196715Y0132152D01*
X0197332Y0132770D01*
X0198547Y0132152D02*
X0200398Y0132152D01*
X0201015Y0132770D01*
X0201015Y0133387D01*
X0200398Y0134004D01*
X0201015Y0135238D02*
X0200398Y0135856D01*
X0198547Y0135856D01*
X0198547Y0132152D01*
X0197332Y0129856D02*
X0194863Y0127387D01*
X0195481Y0128004D02*
X0197332Y0126152D01*
X0198547Y0126152D02*
X0199164Y0126152D01*
X0199164Y0126770D01*
X0198547Y0126770D01*
X0198547Y0126152D01*
X0196098Y0123856D02*
X0196098Y0120152D01*
X0197332Y0120152D02*
X0194863Y0120152D01*
X0194863Y0122621D02*
X0196098Y0123856D01*
X0194863Y0126152D02*
X0194863Y0129856D01*
X0202230Y0132770D02*
X0202847Y0132152D01*
X0204081Y0132152D01*
X0204698Y0132770D01*
X0205913Y0134004D02*
X0207147Y0135238D01*
X0208382Y0135856D01*
X0209596Y0135238D02*
X0209596Y0132770D01*
X0212065Y0135238D01*
X0212065Y0132770D01*
X0211448Y0132152D01*
X0210213Y0132152D01*
X0209596Y0132770D01*
X0209596Y0135238D02*
X0210213Y0135856D01*
X0211448Y0135856D01*
X0212065Y0135238D01*
X0215738Y0129856D02*
X0215121Y0129238D01*
X0215121Y0128621D01*
X0215738Y0128004D01*
X0216972Y0128004D01*
X0217589Y0127387D01*
X0217589Y0126770D01*
X0218804Y0128004D02*
X0221273Y0128004D01*
X0221273Y0129856D02*
X0221273Y0126152D01*
X0219431Y0123856D02*
X0219431Y0123238D01*
X0216962Y0120770D01*
X0216962Y0120152D01*
X0215748Y0120152D02*
X0213279Y0120152D01*
X0214513Y0120152D02*
X0214513Y0123856D01*
X0213279Y0122621D01*
X0212065Y0123856D02*
X0209596Y0120152D01*
X0207764Y0120152D02*
X0207764Y0123856D01*
X0205913Y0122004D01*
X0208382Y0122004D01*
X0204698Y0122621D02*
X0204698Y0123238D01*
X0204081Y0123856D01*
X0202847Y0123856D01*
X0202230Y0123238D01*
X0201015Y0123856D02*
X0198547Y0120152D01*
X0202230Y0120152D02*
X0204698Y0122621D01*
X0204698Y0120152D02*
X0202230Y0120152D01*
X0204071Y0126152D02*
X0205306Y0127387D01*
X0206540Y0126152D01*
X0204071Y0126152D02*
X0204071Y0129856D01*
X0215738Y0129856D02*
X0216972Y0129856D01*
X0217589Y0129238D01*
X0225570Y0132152D02*
X0223101Y0135856D01*
X0219431Y0123856D02*
X0216962Y0123856D01*
X0240302Y0133387D02*
X0240302Y0135856D01*
D15*
X0399438Y0025514D02*
X0001800Y0025514D01*
X0001800Y0427089D01*
X0399438Y0427089D01*
X0399438Y0238113D01*
X0399438Y0234176D01*
X0399438Y0025514D01*
X0380320Y0133002D02*
X0380320Y0157002D01*
X0380317Y0157209D01*
X0380310Y0157416D01*
X0380297Y0157622D01*
X0380280Y0157829D01*
X0380257Y0158034D01*
X0380229Y0158240D01*
X0380197Y0158444D01*
X0380159Y0158648D01*
X0380117Y0158850D01*
X0380069Y0159052D01*
X0380017Y0159252D01*
X0379960Y0159451D01*
X0379898Y0159648D01*
X0379831Y0159844D01*
X0379759Y0160038D01*
X0379683Y0160231D01*
X0379602Y0160421D01*
X0379516Y0160610D01*
X0379426Y0160796D01*
X0379332Y0160980D01*
X0379232Y0161162D01*
X0379129Y0161341D01*
X0379021Y0161518D01*
X0378909Y0161692D01*
X0378793Y0161863D01*
X0378672Y0162032D01*
X0378548Y0162197D01*
X0378419Y0162359D01*
X0378287Y0162518D01*
X0378151Y0162674D01*
X0378011Y0162827D01*
X0377867Y0162976D01*
X0377720Y0163121D01*
X0377569Y0163263D01*
X0377415Y0163401D01*
X0377257Y0163536D01*
X0377097Y0163666D01*
X0376933Y0163792D01*
X0376766Y0163915D01*
X0376596Y0164033D01*
X0376423Y0164148D01*
X0376248Y0164258D01*
X0376070Y0164363D01*
X0375889Y0164465D01*
X0375707Y0164561D01*
X0375521Y0164654D01*
X0375334Y0164742D01*
X0375144Y0164825D01*
X0374953Y0164904D01*
X0374760Y0164978D01*
X0374564Y0165047D01*
X0374368Y0165111D01*
X0374170Y0165171D01*
X0373970Y0165226D01*
X0373769Y0165276D01*
X0373567Y0165321D01*
X0373364Y0165361D01*
X0373160Y0165396D01*
X0372955Y0165426D01*
X0372750Y0165451D01*
X0372544Y0165471D01*
X0372337Y0165486D01*
X0372130Y0165496D01*
X0371923Y0165501D01*
X0371717Y0165501D01*
X0371510Y0165496D01*
X0371303Y0165486D01*
X0371096Y0165471D01*
X0370890Y0165451D01*
X0370685Y0165426D01*
X0370480Y0165396D01*
X0370276Y0165361D01*
X0370073Y0165321D01*
X0369871Y0165276D01*
X0369670Y0165226D01*
X0369470Y0165171D01*
X0369272Y0165111D01*
X0369076Y0165047D01*
X0368880Y0164978D01*
X0368687Y0164904D01*
X0368496Y0164825D01*
X0368306Y0164742D01*
X0368119Y0164654D01*
X0367933Y0164561D01*
X0367751Y0164465D01*
X0367570Y0164363D01*
X0367392Y0164258D01*
X0367217Y0164148D01*
X0367044Y0164033D01*
X0366874Y0163915D01*
X0366707Y0163792D01*
X0366543Y0163666D01*
X0366383Y0163536D01*
X0366225Y0163401D01*
X0366071Y0163263D01*
X0365920Y0163121D01*
X0365773Y0162976D01*
X0365629Y0162827D01*
X0365489Y0162674D01*
X0365353Y0162518D01*
X0365221Y0162359D01*
X0365092Y0162197D01*
X0364968Y0162032D01*
X0364847Y0161863D01*
X0364731Y0161692D01*
X0364619Y0161518D01*
X0364511Y0161341D01*
X0364408Y0161162D01*
X0364308Y0160980D01*
X0364214Y0160796D01*
X0364124Y0160610D01*
X0364038Y0160421D01*
X0363957Y0160231D01*
X0363881Y0160038D01*
X0363809Y0159844D01*
X0363742Y0159648D01*
X0363680Y0159451D01*
X0363623Y0159252D01*
X0363571Y0159052D01*
X0363523Y0158850D01*
X0363481Y0158648D01*
X0363443Y0158444D01*
X0363411Y0158240D01*
X0363383Y0158034D01*
X0363360Y0157829D01*
X0363343Y0157622D01*
X0363330Y0157416D01*
X0363323Y0157209D01*
X0363320Y0157002D01*
X0363320Y0133002D01*
X0363323Y0132795D01*
X0363330Y0132588D01*
X0363343Y0132382D01*
X0363360Y0132175D01*
X0363383Y0131970D01*
X0363411Y0131764D01*
X0363443Y0131560D01*
X0363481Y0131356D01*
X0363523Y0131154D01*
X0363571Y0130952D01*
X0363623Y0130752D01*
X0363680Y0130553D01*
X0363742Y0130356D01*
X0363809Y0130160D01*
X0363881Y0129966D01*
X0363957Y0129773D01*
X0364038Y0129583D01*
X0364124Y0129394D01*
X0364214Y0129208D01*
X0364308Y0129024D01*
X0364408Y0128842D01*
X0364511Y0128663D01*
X0364619Y0128486D01*
X0364731Y0128312D01*
X0364847Y0128141D01*
X0364968Y0127972D01*
X0365092Y0127807D01*
X0365221Y0127645D01*
X0365353Y0127486D01*
X0365489Y0127330D01*
X0365629Y0127177D01*
X0365773Y0127028D01*
X0365920Y0126883D01*
X0366071Y0126741D01*
X0366225Y0126603D01*
X0366383Y0126468D01*
X0366543Y0126338D01*
X0366707Y0126212D01*
X0366874Y0126089D01*
X0367044Y0125971D01*
X0367217Y0125856D01*
X0367392Y0125746D01*
X0367570Y0125641D01*
X0367751Y0125539D01*
X0367933Y0125443D01*
X0368119Y0125350D01*
X0368306Y0125262D01*
X0368496Y0125179D01*
X0368687Y0125100D01*
X0368880Y0125026D01*
X0369076Y0124957D01*
X0369272Y0124893D01*
X0369470Y0124833D01*
X0369670Y0124778D01*
X0369871Y0124728D01*
X0370073Y0124683D01*
X0370276Y0124643D01*
X0370480Y0124608D01*
X0370685Y0124578D01*
X0370890Y0124553D01*
X0371096Y0124533D01*
X0371303Y0124518D01*
X0371510Y0124508D01*
X0371717Y0124503D01*
X0371923Y0124503D01*
X0372130Y0124508D01*
X0372337Y0124518D01*
X0372544Y0124533D01*
X0372750Y0124553D01*
X0372955Y0124578D01*
X0373160Y0124608D01*
X0373364Y0124643D01*
X0373567Y0124683D01*
X0373769Y0124728D01*
X0373970Y0124778D01*
X0374170Y0124833D01*
X0374368Y0124893D01*
X0374564Y0124957D01*
X0374760Y0125026D01*
X0374953Y0125100D01*
X0375144Y0125179D01*
X0375334Y0125262D01*
X0375521Y0125350D01*
X0375707Y0125443D01*
X0375889Y0125539D01*
X0376070Y0125641D01*
X0376248Y0125746D01*
X0376423Y0125856D01*
X0376596Y0125971D01*
X0376766Y0126089D01*
X0376933Y0126212D01*
X0377097Y0126338D01*
X0377257Y0126468D01*
X0377415Y0126603D01*
X0377569Y0126741D01*
X0377720Y0126883D01*
X0377867Y0127028D01*
X0378011Y0127177D01*
X0378151Y0127330D01*
X0378287Y0127486D01*
X0378419Y0127645D01*
X0378548Y0127807D01*
X0378672Y0127972D01*
X0378793Y0128141D01*
X0378909Y0128312D01*
X0379021Y0128486D01*
X0379129Y0128663D01*
X0379232Y0128842D01*
X0379332Y0129024D01*
X0379426Y0129208D01*
X0379516Y0129394D01*
X0379602Y0129583D01*
X0379683Y0129773D01*
X0379759Y0129966D01*
X0379831Y0130160D01*
X0379898Y0130356D01*
X0379960Y0130553D01*
X0380017Y0130752D01*
X0380069Y0130952D01*
X0380117Y0131154D01*
X0380159Y0131356D01*
X0380197Y0131560D01*
X0380229Y0131764D01*
X0380257Y0131970D01*
X0380280Y0132175D01*
X0380297Y0132382D01*
X0380310Y0132588D01*
X0380317Y0132795D01*
X0380320Y0133002D01*
D16*
X0391564Y0234176D02*
X0391564Y0238113D01*
X0399438Y0238113D01*
X0399438Y0234176D02*
X0391564Y0234176D01*
X0257706Y0234176D01*
X0257706Y0238113D01*
X0391564Y0238113D01*
X0379753Y0293231D02*
X0379753Y0297168D01*
X0285265Y0226302D02*
X0281328Y0226302D01*
X0281328Y0041262D01*
X0285265Y0041262D01*
X0285265Y0226302D01*
X0261643Y0245987D02*
X0261643Y0289294D01*
X0257706Y0289294D01*
X0257706Y0245987D01*
X0261643Y0245987D01*
X0269517Y0305042D02*
X0269517Y0415278D01*
X0273454Y0415278D01*
X0273454Y0305042D01*
X0269517Y0305042D01*
X0143532Y0305042D02*
X0139595Y0305042D01*
X0139595Y0415278D01*
X0143532Y0415278D01*
X0143532Y0305042D01*
X0021485Y0297168D02*
X0021485Y0293231D01*
D17*
X0088414Y0293231D01*
X0088414Y0297168D01*
X0021485Y0297168D01*
X0246605Y0232818D02*
X0244886Y0235496D01*
X0243103Y0238130D01*
X0241256Y0240720D01*
X0239346Y0243264D01*
X0237375Y0245761D01*
X0235343Y0248208D01*
X0233252Y0250605D01*
X0231102Y0252951D01*
X0228896Y0255242D01*
X0226635Y0257480D01*
X0224320Y0259661D01*
X0221951Y0261785D01*
X0219532Y0263851D01*
X0217063Y0265856D01*
X0214546Y0267801D01*
X0211981Y0269684D01*
X0209372Y0271503D01*
X0206718Y0273258D01*
X0204023Y0274947D01*
X0201287Y0276570D01*
X0198512Y0278126D01*
X0195700Y0279613D01*
X0192852Y0281031D01*
X0189971Y0282379D01*
X0187058Y0283656D01*
X0184114Y0284861D01*
X0181141Y0285994D01*
X0178142Y0287054D01*
X0175117Y0288040D01*
X0172070Y0288952D01*
X0169001Y0289790D01*
X0165912Y0290551D01*
X0162806Y0291237D01*
X0159684Y0291847D01*
X0156548Y0292381D01*
X0153400Y0292837D01*
X0150241Y0293216D01*
X0147074Y0293518D01*
X0143901Y0293743D01*
X0140724Y0293889D01*
X0137543Y0293958D01*
X0134362Y0293949D01*
X0131182Y0293863D01*
X0128005Y0293698D01*
X0124833Y0293456D01*
X0121668Y0293136D01*
X0118512Y0292739D01*
X0115367Y0292265D01*
X0112234Y0291714D01*
X0109115Y0291087D01*
X0106013Y0290383D01*
X0102928Y0289604D01*
X0099864Y0288750D01*
X0096822Y0287821D01*
X0093803Y0286818D01*
X0090810Y0285741D01*
X0087843Y0284591D01*
X0084906Y0283370D01*
X0082000Y0282076D01*
X0079126Y0280712D01*
X0076287Y0279278D01*
X0073483Y0277775D01*
X0070717Y0276204D01*
X0067990Y0274566D01*
X0065304Y0272861D01*
X0062661Y0271092D01*
X0060061Y0269258D01*
X0057508Y0267361D01*
X0055001Y0265402D01*
X0052543Y0263383D01*
X0050135Y0261304D01*
X0047779Y0259166D01*
X0045476Y0256972D01*
X0043227Y0254722D01*
X0041034Y0252418D01*
X0038898Y0250061D01*
X0036820Y0247652D01*
X0034802Y0245193D01*
X0032845Y0242685D01*
X0030949Y0240131D01*
X0029117Y0237530D01*
X0027348Y0234886D01*
X0025645Y0232199D01*
X0024008Y0229472D01*
X0022439Y0226705D01*
X0020937Y0223900D01*
X0019505Y0221060D01*
X0018142Y0218185D01*
X0016850Y0215278D01*
X0015630Y0212341D01*
X0014482Y0209374D01*
X0013406Y0206380D01*
X0012405Y0203361D01*
X0011477Y0200318D01*
X0010625Y0197253D01*
X0009847Y0194169D01*
X0009145Y0191066D01*
X0008519Y0187947D01*
X0007970Y0184814D01*
X0007498Y0181668D01*
X0007102Y0178511D01*
X0006784Y0175346D01*
X0006544Y0172174D01*
X0006381Y0168997D01*
X0006296Y0165817D01*
X0006288Y0162636D01*
X0006359Y0159456D01*
X0006507Y0156278D01*
X0006733Y0153105D01*
X0007037Y0149939D01*
X0007418Y0146780D01*
X0007876Y0143632D01*
X0008411Y0140497D01*
X0009022Y0137375D01*
X0009710Y0134269D01*
X0010473Y0131181D01*
X0011312Y0128112D01*
X0012226Y0125065D01*
X0013213Y0122041D01*
X0014275Y0119042D01*
X0015409Y0116070D01*
X0016616Y0113127D01*
X0017895Y0110214D01*
X0019244Y0107334D01*
X0020664Y0104487D01*
X0022152Y0101675D01*
X0023709Y0098901D01*
X0025334Y0096166D01*
X0027024Y0093472D01*
X0028781Y0090819D01*
X0030601Y0088211D01*
X0032485Y0085647D01*
X0034431Y0083131D01*
X0036438Y0080663D01*
X0038505Y0078244D01*
X0040630Y0075877D01*
X0042812Y0073563D01*
X0045051Y0071303D01*
X0047344Y0069098D01*
X0049690Y0066950D01*
X0052089Y0064860D01*
X0054537Y0062829D01*
X0057035Y0060859D01*
X0059580Y0058950D01*
X0062171Y0057105D01*
X0064806Y0055323D01*
X0067484Y0053606D01*
X0070203Y0051955D01*
X0072962Y0050372D01*
X0075759Y0048856D01*
X0078592Y0047409D01*
X0081459Y0046032D01*
X0084360Y0044725D01*
X0087291Y0043490D01*
X0090252Y0042327D01*
X0093241Y0041236D01*
X0096255Y0040219D01*
X0099293Y0039276D01*
X0102353Y0038408D01*
X0105434Y0037615D01*
X0108533Y0036897D01*
X0111649Y0036255D01*
X0114779Y0035690D01*
X0117922Y0035202D01*
X0121077Y0034790D01*
X0124240Y0034456D01*
X0127411Y0034199D01*
X0130587Y0034020D01*
X0133767Y0033919D01*
X0136948Y0033896D01*
X0140128Y0033950D01*
X0143307Y0034082D01*
X0146481Y0034292D01*
X0149649Y0034579D01*
X0152809Y0034944D01*
X0155959Y0035386D01*
X0159098Y0035905D01*
X0162223Y0036501D01*
X0165332Y0037172D01*
X0168424Y0037920D01*
X0171497Y0038743D01*
X0174549Y0039641D01*
X0177577Y0040614D01*
X0180582Y0041660D01*
X0183559Y0042779D01*
X0186509Y0043971D01*
X0189428Y0045235D01*
X0192316Y0046569D01*
X0195170Y0047974D01*
X0197989Y0049449D01*
X0200770Y0050992D01*
X0203514Y0052602D01*
X0206217Y0054279D01*
X0208878Y0056022D01*
X0211496Y0057829D01*
X0214069Y0059700D01*
X0216595Y0061633D01*
X0219074Y0063627D01*
X0221502Y0065682D01*
X0223880Y0067795D01*
X0226206Y0069966D01*
X0228477Y0072193D01*
X0230694Y0074474D01*
X0232854Y0076810D01*
X0234956Y0079197D01*
X0236999Y0081635D01*
X0238982Y0084123D01*
X0240903Y0086658D01*
X0242762Y0089240D01*
X0244558Y0091866D01*
X0246288Y0094535D01*
X0247952Y0097246D01*
X0249550Y0099997D01*
X0251080Y0102786D01*
X0252542Y0105611D01*
X0253933Y0108472D01*
X0255255Y0111366D01*
X0256505Y0114291D01*
X0257683Y0117246D01*
X0258789Y0120228D01*
X0259821Y0123237D01*
X0260780Y0126271D01*
X0261664Y0129326D01*
X0262473Y0132403D01*
X0263206Y0135498D01*
X0263863Y0138611D01*
X0264445Y0141738D01*
X0264949Y0144879D01*
X0265377Y0148032D01*
X0265727Y0151193D01*
X0266000Y0154363D01*
X0266195Y0157538D01*
X0266312Y0160717D01*
X0266352Y0163898D01*
X0266314Y0167078D01*
X0266198Y0170257D01*
X0266004Y0173433D01*
X0265733Y0176602D01*
X0265384Y0179764D01*
X0264958Y0182917D01*
X0264455Y0186058D01*
X0263876Y0189186D01*
X0263220Y0192298D01*
X0262488Y0195394D01*
X0261680Y0198471D01*
X0260798Y0201527D01*
X0259841Y0204561D01*
X0258810Y0207570D01*
X0257706Y0210554D01*
X0261643Y0210554D01*
X0249831Y0234176D02*
X0245894Y0234176D01*
X0246671Y0232484D02*
X0249870Y0234576D01*
X0198650Y0293231D02*
X0379753Y0293231D01*
X0379753Y0297168D02*
X0198650Y0297168D01*
X0198650Y0293231D01*
X0249831Y0234175D02*
X0248052Y0236919D01*
X0246206Y0239619D01*
X0244295Y0242273D01*
X0242319Y0244879D01*
X0240280Y0247435D01*
X0238178Y0249941D01*
X0236016Y0252395D01*
X0233794Y0254794D01*
X0231514Y0257139D01*
X0229178Y0259427D01*
X0226785Y0261657D01*
X0224339Y0263827D01*
X0221840Y0265937D01*
X0219291Y0267985D01*
X0216692Y0269970D01*
X0214044Y0271890D01*
X0211351Y0273745D01*
X0208613Y0275534D01*
X0205832Y0277254D01*
X0203009Y0278906D01*
X0200147Y0280488D01*
X0197247Y0281999D01*
X0194311Y0283439D01*
X0191340Y0284806D01*
X0188336Y0286100D01*
X0185302Y0287320D01*
X0182239Y0288465D01*
X0179148Y0289535D01*
X0176033Y0290529D01*
X0172893Y0291445D01*
X0169733Y0292285D01*
X0166552Y0293046D01*
X0163354Y0293730D01*
X0160140Y0294335D01*
X0156912Y0294860D01*
X0153673Y0295307D01*
X0150423Y0295674D01*
X0147165Y0295960D01*
X0143901Y0296167D01*
X0140633Y0296294D01*
X0137363Y0296341D01*
X0134093Y0296307D01*
X0130825Y0296193D01*
X0127560Y0295999D01*
X0124302Y0295725D01*
X0121050Y0295371D01*
X0117809Y0294938D01*
X0114579Y0294425D01*
X0111363Y0293833D01*
X0108162Y0293162D01*
X0104979Y0292413D01*
X0101815Y0291586D01*
X0098672Y0290682D01*
X0095552Y0289700D01*
X0092457Y0288643D01*
X0089390Y0287510D01*
X0086351Y0286302D01*
X0083342Y0285020D01*
X0080366Y0283664D01*
X0077424Y0282236D01*
X0074518Y0280736D01*
X0071649Y0279166D01*
X0068820Y0277525D01*
X0066032Y0275815D01*
X0063287Y0274038D01*
X0060586Y0272194D01*
X0057932Y0270284D01*
X0055325Y0268309D01*
X0052767Y0266271D01*
X0050260Y0264171D01*
X0047805Y0262011D01*
X0045404Y0259790D01*
X0043058Y0257512D01*
X0040769Y0255176D01*
X0038538Y0252785D01*
X0036366Y0250340D01*
X0034255Y0247842D01*
X0032206Y0245294D01*
X0030219Y0242696D01*
X0028297Y0240050D01*
X0026441Y0237357D01*
X0024651Y0234620D01*
X0022929Y0231840D01*
X0021276Y0229018D01*
X0019692Y0226157D01*
X0018179Y0223258D01*
X0016738Y0220322D01*
X0015369Y0217352D01*
X0014073Y0214349D01*
X0012852Y0211316D01*
X0011705Y0208253D01*
X0010634Y0205163D01*
X0009639Y0202048D01*
X0008720Y0198909D01*
X0007879Y0195749D01*
X0007116Y0192569D01*
X0006430Y0189371D01*
X0005824Y0186158D01*
X0005296Y0182930D01*
X0004848Y0179691D01*
X0004480Y0176441D01*
X0004191Y0173183D01*
X0003982Y0169920D01*
X0003854Y0166652D01*
X0003805Y0163382D01*
X0003837Y0160112D01*
X0003949Y0156843D01*
X0004142Y0153579D01*
X0004414Y0150320D01*
X0004766Y0147068D01*
X0005198Y0143827D01*
X0005709Y0140597D01*
X0006299Y0137380D01*
X0006968Y0134179D01*
X0007716Y0130995D01*
X0008541Y0127831D01*
X0009444Y0124687D01*
X0010423Y0121567D01*
X0011479Y0118472D01*
X0012610Y0115403D01*
X0013816Y0112364D01*
X0015097Y0109354D01*
X0016451Y0106377D01*
X0017877Y0103435D01*
X0019376Y0100528D01*
X0020945Y0097658D01*
X0022584Y0094829D01*
X0024292Y0092040D01*
X0026068Y0089294D01*
X0027911Y0086592D01*
X0029819Y0083936D01*
X0031792Y0081328D01*
X0033829Y0078769D01*
X0035927Y0076261D01*
X0038087Y0073805D01*
X0040306Y0071403D01*
X0042583Y0069056D01*
X0044918Y0066765D01*
X0047307Y0064533D01*
X0049751Y0062360D01*
X0052248Y0060247D01*
X0054795Y0058196D01*
X0057392Y0056209D01*
X0060037Y0054285D01*
X0062728Y0052428D01*
X0065465Y0050636D01*
X0068244Y0048913D01*
X0071065Y0047258D01*
X0073925Y0045673D01*
X0076824Y0044158D01*
X0079758Y0042715D01*
X0082728Y0041345D01*
X0085730Y0040047D01*
X0088763Y0038824D01*
X0091825Y0037676D01*
X0094914Y0036603D01*
X0098029Y0035606D01*
X0101167Y0034686D01*
X0104327Y0033843D01*
X0107506Y0033078D01*
X0110704Y0032391D01*
X0113917Y0031783D01*
X0117144Y0031253D01*
X0120383Y0030803D01*
X0123633Y0030433D01*
X0126890Y0030143D01*
X0130154Y0029932D01*
X0133421Y0029802D01*
X0136691Y0029752D01*
X0139962Y0029782D01*
X0143230Y0029892D01*
X0146495Y0030082D01*
X0149754Y0030353D01*
X0153006Y0030703D01*
X0156247Y0031133D01*
X0159478Y0031643D01*
X0162695Y0032231D01*
X0165896Y0032899D01*
X0169081Y0033644D01*
X0172245Y0034468D01*
X0175389Y0035369D01*
X0178510Y0036346D01*
X0181606Y0037401D01*
X0184675Y0038530D01*
X0187715Y0039735D01*
X0190725Y0041014D01*
X0193703Y0042366D01*
X0196646Y0043791D01*
X0199554Y0045288D01*
X0202424Y0046855D01*
X0205255Y0048493D01*
X0208045Y0050199D01*
X0210792Y0051974D01*
X0213495Y0053815D01*
X0216151Y0055722D01*
X0218761Y0057694D01*
X0221321Y0059729D01*
X0223830Y0061826D01*
X0226287Y0063984D01*
X0228690Y0066202D01*
X0231039Y0068478D01*
X0233330Y0070811D01*
X0235564Y0073200D01*
X0237739Y0075642D01*
X0239853Y0078138D01*
X0241905Y0080684D01*
X0243894Y0083280D01*
X0245819Y0085924D01*
X0247678Y0088614D01*
X0249471Y0091349D01*
X0251196Y0094128D01*
X0252852Y0096948D01*
X0254439Y0099807D01*
X0255955Y0102705D01*
X0257400Y0105639D01*
X0258772Y0108607D01*
X0260071Y0111609D01*
X0261295Y0114641D01*
X0262446Y0117702D01*
X0263520Y0120791D01*
X0264519Y0123905D01*
X0265441Y0127043D01*
X0266285Y0130202D01*
X0267052Y0133382D01*
X0267741Y0136579D01*
X0268351Y0139792D01*
X0268882Y0143018D01*
X0269334Y0146257D01*
X0269706Y0149507D01*
X0269998Y0152764D01*
X0270210Y0156027D01*
X0270342Y0159295D01*
X0270394Y0162565D01*
X0270366Y0165835D01*
X0270257Y0169104D01*
X0270069Y0172368D01*
X0269800Y0175628D01*
X0269451Y0178879D01*
X0269023Y0182122D01*
X0268515Y0185352D01*
X0267929Y0188570D01*
X0267263Y0191771D01*
X0266519Y0194956D01*
X0265697Y0198122D01*
X0264798Y0201266D01*
X0263822Y0204387D01*
X0262770Y0207483D01*
X0261642Y0210553D01*
X0308820Y0153502D02*
X0311820Y0153502D01*
X0314820Y0153502D01*
X0314820Y0151502D02*
X0311820Y0151502D01*
X0308820Y0151502D01*
X0294320Y0155502D02*
X0294128Y0155500D01*
X0293936Y0155493D01*
X0293744Y0155481D01*
X0293552Y0155465D01*
X0293361Y0155444D01*
X0293171Y0155419D01*
X0292981Y0155389D01*
X0292792Y0155355D01*
X0292604Y0155316D01*
X0292417Y0155272D01*
X0292231Y0155224D01*
X0292046Y0155172D01*
X0291862Y0155115D01*
X0291680Y0155054D01*
X0291500Y0154988D01*
X0291321Y0154918D01*
X0291143Y0154844D01*
X0290968Y0154766D01*
X0290794Y0154683D01*
X0290623Y0154596D01*
X0290454Y0154506D01*
X0290287Y0154411D01*
X0290122Y0154312D01*
X0289959Y0154209D01*
X0289800Y0154102D01*
X0289642Y0153992D01*
X0289488Y0153878D01*
X0289336Y0153760D01*
X0289187Y0153638D01*
X0289041Y0153513D01*
X0288899Y0153385D01*
X0288759Y0153253D01*
X0288622Y0153118D01*
X0288489Y0152979D01*
X0288359Y0152838D01*
X0288233Y0152693D01*
X0288110Y0152545D01*
X0287991Y0152395D01*
X0287875Y0152241D01*
X0287763Y0152085D01*
X0287655Y0151926D01*
X0287550Y0151765D01*
X0287450Y0151601D01*
X0287354Y0151435D01*
X0287261Y0151267D01*
X0287373Y0143533D02*
X0287472Y0143364D01*
X0287576Y0143198D01*
X0287683Y0143034D01*
X0287794Y0142873D01*
X0287909Y0142715D01*
X0288028Y0142560D01*
X0288151Y0142407D01*
X0288277Y0142258D01*
X0288407Y0142112D01*
X0288541Y0141969D01*
X0288678Y0141829D01*
X0288818Y0141693D01*
X0288962Y0141560D01*
X0289109Y0141431D01*
X0289259Y0141305D01*
X0289412Y0141184D01*
X0289568Y0141065D01*
X0289727Y0140951D01*
X0289888Y0140841D01*
X0290053Y0140735D01*
X0290219Y0140632D01*
X0290389Y0140534D01*
X0290560Y0140440D01*
X0290734Y0140350D01*
X0290910Y0140265D01*
X0291088Y0140183D01*
X0291268Y0140107D01*
X0291450Y0140034D01*
X0291633Y0139966D01*
X0291818Y0139903D01*
X0292005Y0139844D01*
X0292193Y0139790D01*
X0292382Y0139740D01*
X0292572Y0139695D01*
X0292764Y0139655D01*
X0292956Y0139619D01*
X0293149Y0139588D01*
X0293343Y0139562D01*
X0293538Y0139540D01*
X0293733Y0139524D01*
X0293928Y0139512D01*
X0294124Y0139504D01*
X0294319Y0139502D01*
X0294320Y0139502D02*
X0294513Y0139504D01*
X0294706Y0139511D01*
X0294898Y0139523D01*
X0295091Y0139539D01*
X0295283Y0139560D01*
X0295474Y0139586D01*
X0295664Y0139616D01*
X0295854Y0139651D01*
X0296043Y0139690D01*
X0296231Y0139734D01*
X0296418Y0139782D01*
X0296604Y0139835D01*
X0296788Y0139892D01*
X0296971Y0139954D01*
X0297152Y0140020D01*
X0297332Y0140091D01*
X0297510Y0140165D01*
X0297686Y0140244D01*
X0297860Y0140328D01*
X0298032Y0140415D01*
X0298202Y0140507D01*
X0298369Y0140603D01*
X0298535Y0140702D01*
X0298698Y0140806D01*
X0298858Y0140913D01*
X0299015Y0141025D01*
X0299170Y0141140D01*
X0299322Y0141259D01*
X0299471Y0141381D01*
X0299618Y0141507D01*
X0299761Y0141637D01*
X0299901Y0141770D01*
X0300037Y0141906D01*
X0300171Y0142046D01*
X0300300Y0142188D01*
X0300427Y0142334D01*
X0300466Y0152624D02*
X0300339Y0152772D01*
X0300209Y0152917D01*
X0300076Y0153058D01*
X0299939Y0153197D01*
X0299799Y0153332D01*
X0299655Y0153463D01*
X0299508Y0153591D01*
X0299359Y0153716D01*
X0299206Y0153837D01*
X0299051Y0153954D01*
X0298892Y0154067D01*
X0298731Y0154176D01*
X0298567Y0154281D01*
X0298401Y0154383D01*
X0298232Y0154480D01*
X0298062Y0154573D01*
X0297888Y0154662D01*
X0297713Y0154747D01*
X0297536Y0154827D01*
X0297357Y0154903D01*
X0297176Y0154975D01*
X0296993Y0155042D01*
X0296809Y0155105D01*
X0296623Y0155163D01*
X0296436Y0155217D01*
X0296248Y0155266D01*
X0296058Y0155311D01*
X0295868Y0155351D01*
X0295676Y0155386D01*
X0295484Y0155417D01*
X0295291Y0155443D01*
X0295097Y0155464D01*
X0294903Y0155481D01*
X0294709Y0155493D01*
X0294515Y0155500D01*
X0294320Y0155502D01*
X0308820Y0133502D02*
X0311820Y0133502D01*
X0314820Y0133502D01*
X0314820Y0131502D02*
X0311820Y0131502D01*
X0308820Y0131502D01*
X0294320Y0138002D02*
X0294128Y0138000D01*
X0293936Y0137993D01*
X0293744Y0137981D01*
X0293552Y0137965D01*
X0293361Y0137944D01*
X0293171Y0137919D01*
X0292981Y0137889D01*
X0292792Y0137855D01*
X0292604Y0137816D01*
X0292417Y0137772D01*
X0292231Y0137724D01*
X0292046Y0137672D01*
X0291862Y0137615D01*
X0291680Y0137554D01*
X0291500Y0137488D01*
X0291321Y0137418D01*
X0291143Y0137344D01*
X0290968Y0137266D01*
X0290794Y0137183D01*
X0290623Y0137096D01*
X0290454Y0137006D01*
X0290287Y0136911D01*
X0290122Y0136812D01*
X0289959Y0136709D01*
X0289800Y0136602D01*
X0289642Y0136492D01*
X0289488Y0136378D01*
X0289336Y0136260D01*
X0289187Y0136138D01*
X0289041Y0136013D01*
X0288899Y0135885D01*
X0288759Y0135753D01*
X0288622Y0135618D01*
X0288489Y0135479D01*
X0288359Y0135338D01*
X0288233Y0135193D01*
X0288110Y0135045D01*
X0287991Y0134895D01*
X0287875Y0134741D01*
X0287763Y0134585D01*
X0287655Y0134426D01*
X0287550Y0134265D01*
X0287450Y0134101D01*
X0287354Y0133935D01*
X0287261Y0133767D01*
X0287373Y0126033D02*
X0287472Y0125864D01*
X0287576Y0125698D01*
X0287683Y0125534D01*
X0287794Y0125373D01*
X0287909Y0125215D01*
X0288028Y0125060D01*
X0288151Y0124907D01*
X0288277Y0124758D01*
X0288407Y0124612D01*
X0288541Y0124469D01*
X0288678Y0124329D01*
X0288818Y0124193D01*
X0288962Y0124060D01*
X0289109Y0123931D01*
X0289259Y0123805D01*
X0289412Y0123684D01*
X0289568Y0123565D01*
X0289727Y0123451D01*
X0289888Y0123341D01*
X0290053Y0123235D01*
X0290219Y0123132D01*
X0290389Y0123034D01*
X0290560Y0122940D01*
X0290734Y0122850D01*
X0290910Y0122765D01*
X0291088Y0122683D01*
X0291268Y0122607D01*
X0291450Y0122534D01*
X0291633Y0122466D01*
X0291818Y0122403D01*
X0292005Y0122344D01*
X0292193Y0122290D01*
X0292382Y0122240D01*
X0292572Y0122195D01*
X0292764Y0122155D01*
X0292956Y0122119D01*
X0293149Y0122088D01*
X0293343Y0122062D01*
X0293538Y0122040D01*
X0293733Y0122024D01*
X0293928Y0122012D01*
X0294124Y0122004D01*
X0294319Y0122002D01*
X0294320Y0122002D02*
X0294513Y0122004D01*
X0294706Y0122011D01*
X0294898Y0122023D01*
X0295091Y0122039D01*
X0295283Y0122060D01*
X0295474Y0122086D01*
X0295664Y0122116D01*
X0295854Y0122151D01*
X0296043Y0122190D01*
X0296231Y0122234D01*
X0296418Y0122282D01*
X0296604Y0122335D01*
X0296788Y0122392D01*
X0296971Y0122454D01*
X0297152Y0122520D01*
X0297332Y0122591D01*
X0297510Y0122665D01*
X0297686Y0122744D01*
X0297860Y0122828D01*
X0298032Y0122915D01*
X0298202Y0123007D01*
X0298369Y0123103D01*
X0298535Y0123202D01*
X0298698Y0123306D01*
X0298858Y0123413D01*
X0299015Y0123525D01*
X0299170Y0123640D01*
X0299322Y0123759D01*
X0299471Y0123881D01*
X0299618Y0124007D01*
X0299761Y0124137D01*
X0299901Y0124270D01*
X0300037Y0124406D01*
X0300171Y0124546D01*
X0300300Y0124688D01*
X0300427Y0124834D01*
X0300466Y0135124D02*
X0300339Y0135272D01*
X0300209Y0135417D01*
X0300076Y0135558D01*
X0299939Y0135697D01*
X0299799Y0135832D01*
X0299655Y0135963D01*
X0299508Y0136091D01*
X0299359Y0136216D01*
X0299206Y0136337D01*
X0299051Y0136454D01*
X0298892Y0136567D01*
X0298731Y0136676D01*
X0298567Y0136781D01*
X0298401Y0136883D01*
X0298232Y0136980D01*
X0298062Y0137073D01*
X0297888Y0137162D01*
X0297713Y0137247D01*
X0297536Y0137327D01*
X0297357Y0137403D01*
X0297176Y0137475D01*
X0296993Y0137542D01*
X0296809Y0137605D01*
X0296623Y0137663D01*
X0296436Y0137717D01*
X0296248Y0137766D01*
X0296058Y0137811D01*
X0295868Y0137851D01*
X0295676Y0137886D01*
X0295484Y0137917D01*
X0295291Y0137943D01*
X0295097Y0137964D01*
X0294903Y0137981D01*
X0294709Y0137993D01*
X0294515Y0138000D01*
X0294320Y0138002D01*
X0287373Y0108533D02*
X0287472Y0108364D01*
X0287576Y0108198D01*
X0287683Y0108034D01*
X0287794Y0107873D01*
X0287909Y0107715D01*
X0288028Y0107560D01*
X0288151Y0107407D01*
X0288277Y0107258D01*
X0288407Y0107112D01*
X0288541Y0106969D01*
X0288678Y0106829D01*
X0288818Y0106693D01*
X0288962Y0106560D01*
X0289109Y0106431D01*
X0289259Y0106305D01*
X0289412Y0106184D01*
X0289568Y0106065D01*
X0289727Y0105951D01*
X0289888Y0105841D01*
X0290053Y0105735D01*
X0290219Y0105632D01*
X0290389Y0105534D01*
X0290560Y0105440D01*
X0290734Y0105350D01*
X0290910Y0105265D01*
X0291088Y0105183D01*
X0291268Y0105107D01*
X0291450Y0105034D01*
X0291633Y0104966D01*
X0291818Y0104903D01*
X0292005Y0104844D01*
X0292193Y0104790D01*
X0292382Y0104740D01*
X0292572Y0104695D01*
X0292764Y0104655D01*
X0292956Y0104619D01*
X0293149Y0104588D01*
X0293343Y0104562D01*
X0293538Y0104540D01*
X0293733Y0104524D01*
X0293928Y0104512D01*
X0294124Y0104504D01*
X0294319Y0104502D01*
X0287261Y0116267D02*
X0287354Y0116435D01*
X0287450Y0116601D01*
X0287550Y0116765D01*
X0287655Y0116926D01*
X0287763Y0117085D01*
X0287875Y0117241D01*
X0287991Y0117395D01*
X0288110Y0117545D01*
X0288233Y0117693D01*
X0288359Y0117838D01*
X0288489Y0117979D01*
X0288622Y0118118D01*
X0288759Y0118253D01*
X0288899Y0118385D01*
X0289041Y0118513D01*
X0289187Y0118638D01*
X0289336Y0118760D01*
X0289488Y0118878D01*
X0289642Y0118992D01*
X0289800Y0119102D01*
X0289959Y0119209D01*
X0290122Y0119312D01*
X0290287Y0119411D01*
X0290454Y0119506D01*
X0290623Y0119596D01*
X0290794Y0119683D01*
X0290968Y0119766D01*
X0291143Y0119844D01*
X0291321Y0119918D01*
X0291500Y0119988D01*
X0291680Y0120054D01*
X0291862Y0120115D01*
X0292046Y0120172D01*
X0292231Y0120224D01*
X0292417Y0120272D01*
X0292604Y0120316D01*
X0292792Y0120355D01*
X0292981Y0120389D01*
X0293171Y0120419D01*
X0293361Y0120444D01*
X0293552Y0120465D01*
X0293744Y0120481D01*
X0293936Y0120493D01*
X0294128Y0120500D01*
X0294320Y0120502D01*
X0300427Y0107334D02*
X0300300Y0107188D01*
X0300171Y0107046D01*
X0300037Y0106906D01*
X0299901Y0106770D01*
X0299761Y0106637D01*
X0299618Y0106507D01*
X0299471Y0106381D01*
X0299322Y0106259D01*
X0299170Y0106140D01*
X0299015Y0106025D01*
X0298858Y0105913D01*
X0298698Y0105806D01*
X0298535Y0105702D01*
X0298369Y0105603D01*
X0298202Y0105507D01*
X0298032Y0105415D01*
X0297860Y0105328D01*
X0297686Y0105244D01*
X0297510Y0105165D01*
X0297332Y0105091D01*
X0297152Y0105020D01*
X0296971Y0104954D01*
X0296788Y0104892D01*
X0296604Y0104835D01*
X0296418Y0104782D01*
X0296231Y0104734D01*
X0296043Y0104690D01*
X0295854Y0104651D01*
X0295664Y0104616D01*
X0295474Y0104586D01*
X0295283Y0104560D01*
X0295091Y0104539D01*
X0294898Y0104523D01*
X0294706Y0104511D01*
X0294513Y0104504D01*
X0294320Y0104502D01*
X0300466Y0117624D02*
X0300339Y0117772D01*
X0300209Y0117917D01*
X0300076Y0118058D01*
X0299939Y0118197D01*
X0299799Y0118332D01*
X0299655Y0118463D01*
X0299508Y0118591D01*
X0299359Y0118716D01*
X0299206Y0118837D01*
X0299051Y0118954D01*
X0298892Y0119067D01*
X0298731Y0119176D01*
X0298567Y0119281D01*
X0298401Y0119383D01*
X0298232Y0119480D01*
X0298062Y0119573D01*
X0297888Y0119662D01*
X0297713Y0119747D01*
X0297536Y0119827D01*
X0297357Y0119903D01*
X0297176Y0119975D01*
X0296993Y0120042D01*
X0296809Y0120105D01*
X0296623Y0120163D01*
X0296436Y0120217D01*
X0296248Y0120266D01*
X0296058Y0120311D01*
X0295868Y0120351D01*
X0295676Y0120386D01*
X0295484Y0120417D01*
X0295291Y0120443D01*
X0295097Y0120464D01*
X0294903Y0120481D01*
X0294709Y0120493D01*
X0294515Y0120500D01*
X0294320Y0120502D01*
X0308820Y0073502D02*
X0311820Y0073502D01*
X0314820Y0073502D01*
X0314820Y0071502D02*
X0311820Y0071502D01*
X0308820Y0071502D01*
X0363820Y0091502D02*
X0366820Y0091502D01*
X0369820Y0091502D01*
X0369820Y0093502D02*
X0366820Y0093502D01*
X0363820Y0093502D01*
X0370820Y0112002D02*
X0370820Y0115002D01*
X0370820Y0118002D01*
X0372820Y0118002D02*
X0372820Y0115002D01*
X0372820Y0112002D01*
X0372820Y0172002D02*
X0372820Y0175002D01*
X0372820Y0178002D01*
X0370820Y0178002D02*
X0370820Y0175002D01*
X0370820Y0172002D01*
X0369320Y0194002D02*
X0372320Y0194002D01*
X0372320Y0196002D02*
X0369320Y0196002D01*
X0366320Y0196002D01*
X0366320Y0194002D02*
X0369320Y0194002D01*
D18*
X0368208Y0059806D02*
X0370510Y0059806D01*
X0371277Y0059039D01*
X0371277Y0057504D01*
X0370510Y0056737D01*
X0368208Y0056737D01*
X0369742Y0056737D02*
X0371277Y0055202D01*
X0368208Y0055202D02*
X0368208Y0059806D01*
X0366673Y0059039D02*
X0365906Y0059806D01*
X0364371Y0059806D01*
X0363604Y0059039D01*
X0363604Y0055970D01*
X0364371Y0055202D01*
X0365906Y0055202D01*
X0366673Y0055970D01*
X0366673Y0059039D01*
X0362069Y0059039D02*
X0362069Y0057504D01*
X0361302Y0056737D01*
X0359000Y0056737D01*
X0359000Y0055202D02*
X0359000Y0059806D01*
X0361302Y0059806D01*
X0362069Y0059039D01*
X0372812Y0059806D02*
X0375881Y0059806D01*
X0374346Y0059806D02*
X0374346Y0055202D01*
X0377416Y0055202D02*
X0377416Y0059806D01*
X0379718Y0059806D01*
X0380485Y0059039D01*
X0380485Y0058272D01*
X0379718Y0057504D01*
X0377416Y0057504D01*
X0377416Y0055202D02*
X0379718Y0055202D01*
X0380485Y0055970D01*
X0380485Y0056737D01*
X0379718Y0057504D01*
X0216643Y0168431D02*
X0214283Y0168431D01*
X0215463Y0168431D02*
X0215463Y0171971D01*
X0214283Y0170791D01*
X0213018Y0171381D02*
X0212428Y0171971D01*
X0210658Y0171971D01*
X0210658Y0168431D01*
X0212428Y0168431D01*
X0213018Y0169021D01*
X0213018Y0171381D01*
X0174011Y0214096D02*
X0174227Y0214902D01*
X0174011Y0214096D02*
X0172989Y0213506D01*
X0172184Y0213722D01*
X0171004Y0215766D01*
X0171219Y0216572D01*
X0172241Y0217162D01*
X0173047Y0216946D01*
X0174438Y0217068D02*
X0174870Y0218680D01*
X0176640Y0215614D01*
X0175618Y0215024D02*
X0177662Y0216204D01*
X0171407Y0212593D02*
X0170386Y0212003D01*
X0170897Y0212298D02*
X0169127Y0215364D01*
X0169637Y0215659D02*
X0168616Y0215069D01*
X0101657Y0214990D02*
X0101441Y0215796D01*
X0100419Y0216386D01*
X0099613Y0216170D01*
X0098517Y0216803D02*
X0098301Y0217609D01*
X0097279Y0218199D01*
X0096473Y0217983D01*
X0095293Y0215939D01*
X0095509Y0215133D01*
X0096531Y0214543D01*
X0097337Y0214759D01*
X0098138Y0213616D02*
X0101362Y0214479D01*
X0101657Y0214990D01*
X0100182Y0212436D02*
X0098138Y0213616D01*
X0093927Y0216047D02*
X0092905Y0216637D01*
X0093416Y0216342D02*
X0095186Y0219407D01*
X0094675Y0219702D02*
X0095697Y0219112D01*
X0059203Y0171971D02*
X0058023Y0171971D01*
X0057433Y0171381D01*
X0056168Y0171381D02*
X0055578Y0171971D01*
X0053808Y0171971D01*
X0053808Y0168431D01*
X0055578Y0168431D01*
X0056168Y0169021D01*
X0056168Y0171381D01*
X0059203Y0171971D02*
X0059793Y0171381D01*
X0059793Y0170791D01*
X0057433Y0168431D01*
X0059793Y0168431D01*
X0044128Y0155460D02*
X0041791Y0155131D01*
X0040786Y0153798D01*
X0042119Y0152794D01*
X0044456Y0153123D01*
X0044048Y0151788D02*
X0041711Y0151459D01*
X0041209Y0150793D01*
X0041373Y0149624D01*
X0042039Y0149122D01*
X0042215Y0147869D02*
X0041713Y0147203D01*
X0041877Y0146034D01*
X0042544Y0145532D01*
X0044881Y0145861D02*
X0045383Y0146527D01*
X0045219Y0147696D01*
X0044552Y0148198D01*
X0042215Y0147869D01*
X0044376Y0149451D02*
X0044878Y0150117D01*
X0044714Y0151286D01*
X0044048Y0151788D01*
X0046417Y0139204D02*
X0044173Y0138475D01*
X0043794Y0137731D01*
X0044158Y0136609D01*
X0044902Y0136230D01*
X0044732Y0134845D02*
X0045461Y0132600D01*
X0045852Y0131397D02*
X0046399Y0129713D01*
X0047142Y0129335D01*
X0047703Y0129517D01*
X0048082Y0130260D01*
X0047535Y0131944D01*
X0045852Y0131397D02*
X0049219Y0132491D01*
X0049766Y0130807D01*
X0049387Y0130064D01*
X0048826Y0129882D01*
X0048082Y0130260D01*
X0044732Y0134845D02*
X0048098Y0135939D01*
X0047146Y0136959D02*
X0047525Y0137703D01*
X0047161Y0138825D01*
X0046417Y0139204D01*
X0052071Y0123863D02*
X0049987Y0122755D01*
X0049743Y0121957D01*
X0050297Y0120916D01*
X0051095Y0120672D01*
X0051168Y0119278D02*
X0052276Y0117194D01*
X0052870Y0116077D02*
X0054953Y0117185D01*
X0056549Y0116697D01*
X0056061Y0115101D01*
X0053978Y0113993D01*
X0055540Y0114824D02*
X0054432Y0116908D01*
X0051168Y0119278D02*
X0054293Y0120940D01*
X0053178Y0121780D02*
X0053422Y0122577D01*
X0052868Y0123619D01*
X0052071Y0123863D01*
X0081986Y0117045D02*
X0084489Y0119548D01*
X0083238Y0118296D02*
X0084906Y0116627D01*
X0086218Y0116150D02*
X0086218Y0115316D01*
X0087053Y0114481D01*
X0087053Y0113647D01*
X0086635Y0113230D01*
X0085801Y0113230D01*
X0084967Y0114064D01*
X0084967Y0114898D01*
X0083655Y0115376D02*
X0086158Y0117879D01*
X0086635Y0116567D02*
X0086218Y0116150D01*
X0086635Y0116567D02*
X0087470Y0116567D01*
X0088304Y0115733D01*
X0088304Y0114898D01*
X0089199Y0114004D02*
X0090033Y0114004D01*
X0090868Y0113169D01*
X0090868Y0112335D01*
X0090450Y0111918D01*
X0087113Y0111918D01*
X0088782Y0110249D01*
X0106131Y0102482D02*
X0106054Y0102409D01*
X0105979Y0102334D01*
X0105908Y0102256D01*
X0105839Y0102175D01*
X0105773Y0102092D01*
X0105710Y0102007D01*
X0105651Y0101919D01*
X0105594Y0101830D01*
X0105541Y0101738D01*
X0105491Y0101644D01*
X0105445Y0101549D01*
X0105402Y0101452D01*
X0105363Y0101354D01*
X0105327Y0101254D01*
X0105295Y0101153D01*
X0105267Y0101051D01*
X0105242Y0100948D01*
X0105221Y0100844D01*
X0105204Y0100739D01*
X0105190Y0100634D01*
X0105181Y0100529D01*
X0105175Y0100423D01*
X0105173Y0100317D01*
X0105175Y0100211D01*
X0105181Y0100105D01*
X0105190Y0100000D01*
X0105204Y0099895D01*
X0105221Y0099790D01*
X0105242Y0099686D01*
X0105267Y0099583D01*
X0105295Y0099481D01*
X0105327Y0099380D01*
X0105363Y0099280D01*
X0105402Y0099182D01*
X0105445Y0099085D01*
X0105491Y0098990D01*
X0105541Y0098896D01*
X0105594Y0098804D01*
X0105651Y0098715D01*
X0105710Y0098627D01*
X0105773Y0098542D01*
X0105839Y0098459D01*
X0105908Y0098378D01*
X0105979Y0098300D01*
X0106054Y0098225D01*
X0106131Y0098152D01*
X0110067Y0098152D02*
X0110144Y0098225D01*
X0110219Y0098300D01*
X0110290Y0098378D01*
X0110359Y0098459D01*
X0110425Y0098542D01*
X0110488Y0098627D01*
X0110547Y0098715D01*
X0110604Y0098804D01*
X0110657Y0098896D01*
X0110707Y0098990D01*
X0110753Y0099085D01*
X0110796Y0099182D01*
X0110835Y0099280D01*
X0110871Y0099380D01*
X0110903Y0099481D01*
X0110931Y0099583D01*
X0110956Y0099686D01*
X0110977Y0099790D01*
X0110994Y0099895D01*
X0111008Y0100000D01*
X0111017Y0100105D01*
X0111023Y0100211D01*
X0111025Y0100317D01*
X0111023Y0100423D01*
X0111017Y0100529D01*
X0111008Y0100634D01*
X0110994Y0100739D01*
X0110977Y0100844D01*
X0110956Y0100948D01*
X0110931Y0101051D01*
X0110903Y0101153D01*
X0110871Y0101254D01*
X0110835Y0101354D01*
X0110796Y0101452D01*
X0110753Y0101549D01*
X0110707Y0101644D01*
X0110657Y0101738D01*
X0110604Y0101830D01*
X0110547Y0101919D01*
X0110488Y0102007D01*
X0110425Y0102092D01*
X0110359Y0102175D01*
X0110290Y0102256D01*
X0110219Y0102334D01*
X0110144Y0102409D01*
X0110067Y0102482D01*
X0113295Y0103215D02*
X0113295Y0101681D01*
X0114063Y0100913D01*
X0114063Y0099379D02*
X0113295Y0098611D01*
X0113295Y0096309D01*
X0117899Y0096309D01*
X0117899Y0098611D01*
X0117132Y0099379D01*
X0114063Y0099379D01*
X0113295Y0103215D02*
X0114063Y0103983D01*
X0114830Y0103983D01*
X0117899Y0100913D01*
X0117899Y0103983D01*
X0117899Y0094775D02*
X0117899Y0091706D01*
X0113295Y0091706D01*
X0113295Y0094775D01*
X0115597Y0093240D02*
X0115597Y0091706D01*
X0117899Y0090171D02*
X0117899Y0087102D01*
X0113295Y0087102D01*
X0113673Y0121265D02*
X0113673Y0125869D01*
X0115975Y0125869D01*
X0116743Y0125102D01*
X0116743Y0123567D01*
X0115975Y0122800D01*
X0113673Y0122800D01*
X0115208Y0122800D02*
X0116743Y0121265D01*
X0118277Y0122033D02*
X0118277Y0122800D01*
X0119044Y0123567D01*
X0120579Y0123567D01*
X0121346Y0122800D01*
X0121346Y0122033D01*
X0120579Y0121265D01*
X0119044Y0121265D01*
X0118277Y0122033D01*
X0119044Y0123567D02*
X0118277Y0124335D01*
X0118277Y0125102D01*
X0119044Y0125869D01*
X0120579Y0125869D01*
X0121346Y0125102D01*
X0121346Y0124335D01*
X0120579Y0123567D01*
X0109769Y0133800D02*
X0109769Y0134634D01*
X0108935Y0135469D01*
X0108100Y0135469D01*
X0107206Y0136363D02*
X0107206Y0137198D01*
X0106371Y0138032D01*
X0105537Y0138032D01*
X0103868Y0136363D01*
X0103868Y0135529D01*
X0104703Y0134694D01*
X0105537Y0134694D01*
X0106014Y0133383D02*
X0109352Y0133383D01*
X0109769Y0133800D01*
X0107683Y0131714D02*
X0106014Y0133383D01*
X0092648Y0136166D02*
X0092231Y0135749D01*
X0091397Y0135749D01*
X0091397Y0134915D01*
X0090979Y0134497D01*
X0090145Y0134497D01*
X0089311Y0135332D01*
X0089311Y0136166D01*
X0087999Y0136644D02*
X0087999Y0138312D01*
X0088416Y0137895D02*
X0087164Y0139147D01*
X0086330Y0138312D02*
X0088833Y0140815D01*
X0090085Y0139564D01*
X0090085Y0138730D01*
X0089250Y0137895D01*
X0088416Y0137895D01*
X0090979Y0137835D02*
X0091814Y0137835D01*
X0092648Y0137001D01*
X0092648Y0136166D01*
X0091397Y0135749D02*
X0090979Y0136166D01*
X0144898Y0110869D02*
X0144898Y0106265D01*
X0144898Y0107800D02*
X0147200Y0107800D01*
X0147968Y0108567D01*
X0147968Y0110102D01*
X0147200Y0110869D01*
X0144898Y0110869D01*
X0146433Y0107800D02*
X0147968Y0106265D01*
X0149502Y0106265D02*
X0149502Y0107033D01*
X0152572Y0110102D01*
X0152572Y0110869D01*
X0149502Y0110869D01*
X0158152Y0116484D02*
X0159404Y0117736D01*
X0160238Y0117736D01*
X0161073Y0116902D01*
X0161073Y0116067D01*
X0159821Y0114816D01*
X0160655Y0115650D02*
X0162324Y0115650D01*
X0163219Y0116545D02*
X0164887Y0118213D01*
X0164053Y0117379D02*
X0161550Y0119882D01*
X0161550Y0118213D01*
X0158152Y0116484D02*
X0160655Y0113981D01*
X0169080Y0103983D02*
X0169080Y0100913D01*
X0169080Y0102448D02*
X0164476Y0102448D01*
X0166011Y0100913D01*
X0165244Y0099379D02*
X0164476Y0098611D01*
X0164476Y0096309D01*
X0169080Y0096309D01*
X0169080Y0098611D01*
X0168313Y0099379D01*
X0165244Y0099379D01*
X0164476Y0094775D02*
X0164476Y0091706D01*
X0169080Y0091706D01*
X0169080Y0094775D01*
X0166778Y0093240D02*
X0166778Y0091706D01*
X0169080Y0090171D02*
X0169080Y0087102D01*
X0164476Y0087102D01*
X0161248Y0098152D02*
X0161325Y0098225D01*
X0161400Y0098300D01*
X0161471Y0098378D01*
X0161540Y0098459D01*
X0161606Y0098542D01*
X0161669Y0098627D01*
X0161728Y0098715D01*
X0161785Y0098804D01*
X0161838Y0098896D01*
X0161888Y0098990D01*
X0161934Y0099085D01*
X0161977Y0099182D01*
X0162016Y0099280D01*
X0162052Y0099380D01*
X0162084Y0099481D01*
X0162112Y0099583D01*
X0162137Y0099686D01*
X0162158Y0099790D01*
X0162175Y0099895D01*
X0162189Y0100000D01*
X0162198Y0100105D01*
X0162204Y0100211D01*
X0162206Y0100317D01*
X0162204Y0100423D01*
X0162198Y0100529D01*
X0162189Y0100634D01*
X0162175Y0100739D01*
X0162158Y0100844D01*
X0162137Y0100948D01*
X0162112Y0101051D01*
X0162084Y0101153D01*
X0162052Y0101254D01*
X0162016Y0101354D01*
X0161977Y0101452D01*
X0161934Y0101549D01*
X0161888Y0101644D01*
X0161838Y0101738D01*
X0161785Y0101830D01*
X0161728Y0101919D01*
X0161669Y0102007D01*
X0161606Y0102092D01*
X0161540Y0102175D01*
X0161471Y0102256D01*
X0161400Y0102334D01*
X0161325Y0102409D01*
X0161248Y0102482D01*
X0157312Y0102482D02*
X0157235Y0102409D01*
X0157160Y0102334D01*
X0157089Y0102256D01*
X0157020Y0102175D01*
X0156954Y0102092D01*
X0156891Y0102007D01*
X0156832Y0101919D01*
X0156775Y0101830D01*
X0156722Y0101738D01*
X0156672Y0101644D01*
X0156626Y0101549D01*
X0156583Y0101452D01*
X0156544Y0101354D01*
X0156508Y0101254D01*
X0156476Y0101153D01*
X0156448Y0101051D01*
X0156423Y0100948D01*
X0156402Y0100844D01*
X0156385Y0100739D01*
X0156371Y0100634D01*
X0156362Y0100529D01*
X0156356Y0100423D01*
X0156354Y0100317D01*
X0156356Y0100211D01*
X0156362Y0100105D01*
X0156371Y0100000D01*
X0156385Y0099895D01*
X0156402Y0099790D01*
X0156423Y0099686D01*
X0156448Y0099583D01*
X0156476Y0099481D01*
X0156508Y0099380D01*
X0156544Y0099280D01*
X0156583Y0099182D01*
X0156626Y0099085D01*
X0156672Y0098990D01*
X0156722Y0098896D01*
X0156775Y0098804D01*
X0156832Y0098715D01*
X0156891Y0098627D01*
X0156954Y0098542D01*
X0157020Y0098459D01*
X0157089Y0098378D01*
X0157160Y0098300D01*
X0157235Y0098225D01*
X0157312Y0098152D01*
X0179420Y0112140D02*
X0181923Y0109637D01*
X0180672Y0110889D02*
X0182340Y0112558D01*
X0182818Y0113869D02*
X0183652Y0113869D01*
X0184486Y0114704D01*
X0185321Y0114704D01*
X0185738Y0114287D01*
X0185738Y0113452D01*
X0184904Y0112618D01*
X0184069Y0112618D01*
X0183592Y0111306D02*
X0181089Y0113809D01*
X0182401Y0114287D02*
X0182818Y0113869D01*
X0182401Y0114287D02*
X0182401Y0115121D01*
X0183235Y0115955D01*
X0184069Y0115955D01*
X0185381Y0116433D02*
X0185381Y0118102D01*
X0187884Y0115598D01*
X0187050Y0114764D02*
X0188719Y0116433D01*
X0167254Y0135334D02*
X0165585Y0133666D01*
X0166419Y0134500D02*
X0163916Y0137003D01*
X0163916Y0135334D01*
X0162604Y0134857D02*
X0161770Y0134857D01*
X0160936Y0134023D01*
X0160936Y0133188D01*
X0162604Y0131519D01*
X0163439Y0131519D01*
X0164273Y0132354D01*
X0164273Y0133188D01*
D19*
X0172476Y0124530D02*
X0175991Y0128045D01*
X0176503Y0127534D01*
X0183399Y0120637D02*
X0183911Y0120126D01*
X0180395Y0116610D01*
X0175640Y0118258D02*
X0174154Y0119744D01*
X0100394Y0122977D02*
X0099883Y0122465D01*
X0100394Y0122977D02*
X0096879Y0126492D01*
X0092093Y0124813D02*
X0090607Y0123327D01*
X0088959Y0118572D02*
X0092475Y0115057D01*
X0092986Y0115569D01*
X0052233Y0113855D02*
X0051294Y0115621D01*
X0052233Y0113855D02*
X0050467Y0112916D01*
X0046052Y0110568D02*
X0044286Y0109629D01*
X0043347Y0111395D01*
X0041000Y0115810D02*
X0040061Y0117576D01*
X0041827Y0118515D01*
X0046242Y0120862D02*
X0048007Y0121801D01*
X0048946Y0120035D01*
X0044912Y0129093D02*
X0043010Y0128475D01*
X0044912Y0129093D02*
X0044294Y0130995D01*
X0042749Y0135750D02*
X0042131Y0137652D01*
X0040229Y0137034D01*
X0035474Y0135489D02*
X0033572Y0134871D01*
X0034190Y0132969D01*
X0035735Y0128214D02*
X0036353Y0126312D01*
X0038255Y0126930D01*
X0033418Y0144396D02*
X0031437Y0144118D01*
X0031159Y0146098D01*
X0030463Y0151050D02*
X0030184Y0153030D01*
X0032165Y0153309D01*
X0037116Y0154005D02*
X0039097Y0154283D01*
X0039375Y0152302D01*
X0040071Y0147351D02*
X0040349Y0145370D01*
X0038369Y0145092D01*
X0289820Y0174002D02*
X0289820Y0177502D01*
X0289820Y0187502D01*
X0289820Y0191002D01*
X0297820Y0194502D02*
X0298820Y0194502D01*
X0298820Y0195502D01*
X0304820Y0195502D01*
X0304820Y0194502D01*
X0305820Y0194502D01*
X0313820Y0191002D02*
X0313820Y0187002D01*
X0313820Y0177502D01*
X0313820Y0174002D01*
X0305820Y0170502D02*
X0304820Y0170502D01*
X0304820Y0169502D01*
X0298820Y0169502D01*
X0298820Y0170502D01*
X0297820Y0170502D01*
X0306820Y0161002D02*
X0306820Y0144002D01*
X0306822Y0143942D01*
X0306827Y0143881D01*
X0306836Y0143822D01*
X0306849Y0143763D01*
X0306865Y0143704D01*
X0306885Y0143647D01*
X0306908Y0143592D01*
X0306935Y0143537D01*
X0306964Y0143485D01*
X0306997Y0143434D01*
X0307033Y0143385D01*
X0307071Y0143339D01*
X0307113Y0143295D01*
X0307157Y0143253D01*
X0307203Y0143215D01*
X0307252Y0143179D01*
X0307303Y0143146D01*
X0307355Y0143117D01*
X0307410Y0143090D01*
X0307465Y0143067D01*
X0307522Y0143047D01*
X0307581Y0143031D01*
X0307640Y0143018D01*
X0307699Y0143009D01*
X0307760Y0143004D01*
X0307820Y0143002D01*
X0315820Y0143002D01*
X0315820Y0142002D02*
X0307820Y0142002D01*
X0307760Y0142000D01*
X0307699Y0141995D01*
X0307640Y0141986D01*
X0307581Y0141973D01*
X0307522Y0141957D01*
X0307465Y0141937D01*
X0307410Y0141914D01*
X0307355Y0141887D01*
X0307303Y0141858D01*
X0307252Y0141825D01*
X0307203Y0141789D01*
X0307157Y0141751D01*
X0307113Y0141709D01*
X0307071Y0141665D01*
X0307033Y0141619D01*
X0306997Y0141570D01*
X0306964Y0141519D01*
X0306935Y0141467D01*
X0306908Y0141412D01*
X0306885Y0141357D01*
X0306865Y0141300D01*
X0306849Y0141241D01*
X0306836Y0141182D01*
X0306827Y0141123D01*
X0306822Y0141062D01*
X0306820Y0141002D01*
X0306820Y0124002D01*
X0306822Y0123942D01*
X0306827Y0123881D01*
X0306836Y0123822D01*
X0306849Y0123763D01*
X0306865Y0123704D01*
X0306885Y0123647D01*
X0306908Y0123592D01*
X0306935Y0123537D01*
X0306964Y0123485D01*
X0306997Y0123434D01*
X0307033Y0123385D01*
X0307071Y0123339D01*
X0307113Y0123295D01*
X0307157Y0123253D01*
X0307203Y0123215D01*
X0307252Y0123179D01*
X0307303Y0123146D01*
X0307355Y0123117D01*
X0307410Y0123090D01*
X0307465Y0123067D01*
X0307522Y0123047D01*
X0307581Y0123031D01*
X0307640Y0123018D01*
X0307699Y0123009D01*
X0307760Y0123004D01*
X0307820Y0123002D01*
X0315820Y0123002D01*
X0315880Y0123004D01*
X0315941Y0123009D01*
X0316000Y0123018D01*
X0316059Y0123031D01*
X0316118Y0123047D01*
X0316175Y0123067D01*
X0316230Y0123090D01*
X0316285Y0123117D01*
X0316337Y0123146D01*
X0316388Y0123179D01*
X0316437Y0123215D01*
X0316483Y0123253D01*
X0316527Y0123295D01*
X0316569Y0123339D01*
X0316607Y0123385D01*
X0316643Y0123434D01*
X0316676Y0123485D01*
X0316705Y0123537D01*
X0316732Y0123592D01*
X0316755Y0123647D01*
X0316775Y0123704D01*
X0316791Y0123763D01*
X0316804Y0123822D01*
X0316813Y0123881D01*
X0316818Y0123942D01*
X0316820Y0124002D01*
X0316820Y0141002D01*
X0316818Y0141062D01*
X0316813Y0141123D01*
X0316804Y0141182D01*
X0316791Y0141241D01*
X0316775Y0141300D01*
X0316755Y0141357D01*
X0316732Y0141412D01*
X0316705Y0141467D01*
X0316676Y0141519D01*
X0316643Y0141570D01*
X0316607Y0141619D01*
X0316569Y0141665D01*
X0316527Y0141709D01*
X0316483Y0141751D01*
X0316437Y0141789D01*
X0316388Y0141825D01*
X0316337Y0141858D01*
X0316285Y0141887D01*
X0316230Y0141914D01*
X0316175Y0141937D01*
X0316118Y0141957D01*
X0316059Y0141973D01*
X0316000Y0141986D01*
X0315941Y0141995D01*
X0315880Y0142000D01*
X0315820Y0142002D01*
X0315820Y0143002D02*
X0315880Y0143004D01*
X0315941Y0143009D01*
X0316000Y0143018D01*
X0316059Y0143031D01*
X0316118Y0143047D01*
X0316175Y0143067D01*
X0316230Y0143090D01*
X0316285Y0143117D01*
X0316337Y0143146D01*
X0316388Y0143179D01*
X0316437Y0143215D01*
X0316483Y0143253D01*
X0316527Y0143295D01*
X0316569Y0143339D01*
X0316607Y0143385D01*
X0316643Y0143434D01*
X0316676Y0143485D01*
X0316705Y0143537D01*
X0316732Y0143592D01*
X0316755Y0143647D01*
X0316775Y0143704D01*
X0316791Y0143763D01*
X0316804Y0143822D01*
X0316813Y0143881D01*
X0316818Y0143942D01*
X0316820Y0144002D01*
X0316820Y0161002D01*
X0316818Y0161062D01*
X0316813Y0161123D01*
X0316804Y0161182D01*
X0316791Y0161241D01*
X0316775Y0161300D01*
X0316755Y0161357D01*
X0316732Y0161412D01*
X0316705Y0161467D01*
X0316676Y0161519D01*
X0316643Y0161570D01*
X0316607Y0161619D01*
X0316569Y0161665D01*
X0316527Y0161709D01*
X0316483Y0161751D01*
X0316437Y0161789D01*
X0316388Y0161825D01*
X0316337Y0161858D01*
X0316285Y0161887D01*
X0316230Y0161914D01*
X0316175Y0161937D01*
X0316118Y0161957D01*
X0316059Y0161973D01*
X0316000Y0161986D01*
X0315941Y0161995D01*
X0315880Y0162000D01*
X0315820Y0162002D01*
X0307820Y0162002D01*
X0307760Y0162000D01*
X0307699Y0161995D01*
X0307640Y0161986D01*
X0307581Y0161973D01*
X0307522Y0161957D01*
X0307465Y0161937D01*
X0307410Y0161914D01*
X0307355Y0161887D01*
X0307303Y0161858D01*
X0307252Y0161825D01*
X0307203Y0161789D01*
X0307157Y0161751D01*
X0307113Y0161709D01*
X0307071Y0161665D01*
X0307033Y0161619D01*
X0306997Y0161570D01*
X0306964Y0161519D01*
X0306935Y0161467D01*
X0306908Y0161412D01*
X0306885Y0161357D01*
X0306865Y0161300D01*
X0306849Y0161241D01*
X0306836Y0161182D01*
X0306827Y0161123D01*
X0306822Y0161062D01*
X0306820Y0161002D01*
X0311820Y0154002D02*
X0311820Y0153502D01*
X0311820Y0151502D02*
X0311820Y0151002D01*
X0311820Y0134002D02*
X0311820Y0133502D01*
X0311820Y0131502D02*
X0311820Y0131002D01*
X0294320Y0124002D02*
X0294168Y0124004D01*
X0294017Y0124010D01*
X0293866Y0124019D01*
X0293714Y0124033D01*
X0293564Y0124050D01*
X0293414Y0124071D01*
X0293264Y0124096D01*
X0293115Y0124124D01*
X0292967Y0124157D01*
X0292820Y0124193D01*
X0292673Y0124232D01*
X0292528Y0124276D01*
X0292384Y0124323D01*
X0292241Y0124374D01*
X0292100Y0124428D01*
X0291959Y0124486D01*
X0291821Y0124547D01*
X0291684Y0124612D01*
X0291548Y0124681D01*
X0291415Y0124752D01*
X0291283Y0124827D01*
X0291153Y0124906D01*
X0291026Y0124987D01*
X0290900Y0125072D01*
X0290776Y0125160D01*
X0290655Y0125251D01*
X0290536Y0125345D01*
X0290420Y0125443D01*
X0290306Y0125543D01*
X0290194Y0125645D01*
X0290086Y0125751D01*
X0289980Y0125859D01*
X0289876Y0125970D01*
X0289776Y0126084D01*
X0289678Y0126200D01*
X0289584Y0126319D01*
X0294320Y0136002D02*
X0294474Y0136000D01*
X0294628Y0135994D01*
X0294782Y0135984D01*
X0294936Y0135970D01*
X0295089Y0135953D01*
X0295241Y0135931D01*
X0295393Y0135905D01*
X0295545Y0135876D01*
X0295695Y0135842D01*
X0295845Y0135805D01*
X0295993Y0135764D01*
X0296141Y0135719D01*
X0296287Y0135670D01*
X0296432Y0135618D01*
X0296575Y0135562D01*
X0296718Y0135502D01*
X0296858Y0135439D01*
X0296997Y0135372D01*
X0297134Y0135301D01*
X0297269Y0135227D01*
X0297402Y0135150D01*
X0297534Y0135069D01*
X0297663Y0134985D01*
X0297790Y0134897D01*
X0297914Y0134806D01*
X0298036Y0134713D01*
X0298156Y0134615D01*
X0298273Y0134515D01*
X0298388Y0134412D01*
X0298500Y0134306D01*
X0298609Y0134198D01*
X0298715Y0134086D01*
X0298819Y0133972D01*
X0298919Y0133855D01*
X0299017Y0133736D01*
X0299111Y0133614D01*
X0299202Y0133489D01*
X0294320Y0136002D02*
X0294170Y0136000D01*
X0294019Y0135994D01*
X0293869Y0135985D01*
X0293720Y0135972D01*
X0293570Y0135955D01*
X0293421Y0135934D01*
X0293273Y0135910D01*
X0293125Y0135882D01*
X0292978Y0135850D01*
X0292832Y0135815D01*
X0292687Y0135775D01*
X0292543Y0135733D01*
X0292400Y0135686D01*
X0292258Y0135636D01*
X0292117Y0135583D01*
X0291978Y0135526D01*
X0291840Y0135466D01*
X0291704Y0135402D01*
X0291570Y0135335D01*
X0291437Y0135264D01*
X0291306Y0135190D01*
X0291177Y0135113D01*
X0291050Y0135032D01*
X0290925Y0134949D01*
X0290802Y0134862D01*
X0290681Y0134773D01*
X0290563Y0134680D01*
X0290447Y0134584D01*
X0290333Y0134486D01*
X0290222Y0134385D01*
X0290113Y0134280D01*
X0290008Y0134174D01*
X0289904Y0134064D01*
X0289804Y0133952D01*
X0289706Y0133838D01*
X0289612Y0133721D01*
X0289520Y0133602D01*
X0294320Y0124002D02*
X0294472Y0124004D01*
X0294623Y0124010D01*
X0294774Y0124019D01*
X0294926Y0124033D01*
X0295076Y0124050D01*
X0295226Y0124071D01*
X0295376Y0124096D01*
X0295525Y0124124D01*
X0295673Y0124157D01*
X0295820Y0124193D01*
X0295967Y0124232D01*
X0296112Y0124276D01*
X0296256Y0124323D01*
X0296399Y0124374D01*
X0296540Y0124428D01*
X0296681Y0124486D01*
X0296819Y0124547D01*
X0296956Y0124612D01*
X0297092Y0124681D01*
X0297225Y0124752D01*
X0297357Y0124827D01*
X0297487Y0124906D01*
X0297614Y0124987D01*
X0297740Y0125072D01*
X0297864Y0125160D01*
X0297985Y0125251D01*
X0298104Y0125345D01*
X0298220Y0125443D01*
X0298334Y0125543D01*
X0298446Y0125645D01*
X0298554Y0125751D01*
X0298660Y0125859D01*
X0298764Y0125970D01*
X0298864Y0126084D01*
X0298962Y0126200D01*
X0299056Y0126319D01*
X0289584Y0108819D02*
X0289678Y0108700D01*
X0289776Y0108584D01*
X0289876Y0108470D01*
X0289980Y0108359D01*
X0290086Y0108251D01*
X0290194Y0108145D01*
X0290306Y0108043D01*
X0290420Y0107943D01*
X0290536Y0107845D01*
X0290655Y0107751D01*
X0290776Y0107660D01*
X0290900Y0107572D01*
X0291026Y0107487D01*
X0291153Y0107406D01*
X0291283Y0107327D01*
X0291415Y0107252D01*
X0291548Y0107181D01*
X0291684Y0107112D01*
X0291821Y0107047D01*
X0291959Y0106986D01*
X0292100Y0106928D01*
X0292241Y0106874D01*
X0292384Y0106823D01*
X0292528Y0106776D01*
X0292673Y0106732D01*
X0292820Y0106693D01*
X0292967Y0106657D01*
X0293115Y0106624D01*
X0293264Y0106596D01*
X0293414Y0106571D01*
X0293564Y0106550D01*
X0293714Y0106533D01*
X0293866Y0106519D01*
X0294017Y0106510D01*
X0294168Y0106504D01*
X0294320Y0106502D01*
X0289520Y0116102D02*
X0289612Y0116221D01*
X0289706Y0116338D01*
X0289804Y0116452D01*
X0289904Y0116564D01*
X0290008Y0116674D01*
X0290113Y0116780D01*
X0290222Y0116885D01*
X0290333Y0116986D01*
X0290447Y0117084D01*
X0290563Y0117180D01*
X0290681Y0117273D01*
X0290802Y0117362D01*
X0290925Y0117449D01*
X0291050Y0117532D01*
X0291177Y0117613D01*
X0291306Y0117690D01*
X0291437Y0117764D01*
X0291570Y0117835D01*
X0291704Y0117902D01*
X0291840Y0117966D01*
X0291978Y0118026D01*
X0292117Y0118083D01*
X0292258Y0118136D01*
X0292400Y0118186D01*
X0292543Y0118233D01*
X0292687Y0118275D01*
X0292832Y0118315D01*
X0292978Y0118350D01*
X0293125Y0118382D01*
X0293273Y0118410D01*
X0293421Y0118434D01*
X0293570Y0118455D01*
X0293720Y0118472D01*
X0293869Y0118485D01*
X0294019Y0118494D01*
X0294170Y0118500D01*
X0294320Y0118502D01*
X0299056Y0108819D02*
X0298962Y0108700D01*
X0298864Y0108584D01*
X0298764Y0108470D01*
X0298660Y0108359D01*
X0298554Y0108251D01*
X0298446Y0108145D01*
X0298334Y0108043D01*
X0298220Y0107943D01*
X0298104Y0107845D01*
X0297985Y0107751D01*
X0297864Y0107660D01*
X0297740Y0107572D01*
X0297614Y0107487D01*
X0297487Y0107406D01*
X0297357Y0107327D01*
X0297225Y0107252D01*
X0297092Y0107181D01*
X0296956Y0107112D01*
X0296819Y0107047D01*
X0296681Y0106986D01*
X0296540Y0106928D01*
X0296399Y0106874D01*
X0296256Y0106823D01*
X0296112Y0106776D01*
X0295967Y0106732D01*
X0295820Y0106693D01*
X0295673Y0106657D01*
X0295525Y0106624D01*
X0295376Y0106596D01*
X0295226Y0106571D01*
X0295076Y0106550D01*
X0294926Y0106533D01*
X0294774Y0106519D01*
X0294623Y0106510D01*
X0294472Y0106504D01*
X0294320Y0106502D01*
X0299202Y0115989D02*
X0299111Y0116114D01*
X0299017Y0116236D01*
X0298919Y0116355D01*
X0298819Y0116472D01*
X0298715Y0116586D01*
X0298609Y0116698D01*
X0298500Y0116806D01*
X0298388Y0116912D01*
X0298273Y0117015D01*
X0298156Y0117115D01*
X0298036Y0117213D01*
X0297914Y0117306D01*
X0297790Y0117397D01*
X0297663Y0117485D01*
X0297534Y0117569D01*
X0297402Y0117650D01*
X0297269Y0117727D01*
X0297134Y0117801D01*
X0296997Y0117872D01*
X0296858Y0117939D01*
X0296718Y0118002D01*
X0296575Y0118062D01*
X0296432Y0118118D01*
X0296287Y0118170D01*
X0296141Y0118219D01*
X0295993Y0118264D01*
X0295845Y0118305D01*
X0295695Y0118342D01*
X0295545Y0118376D01*
X0295393Y0118405D01*
X0295241Y0118431D01*
X0295089Y0118453D01*
X0294936Y0118470D01*
X0294782Y0118484D01*
X0294628Y0118494D01*
X0294474Y0118500D01*
X0294320Y0118502D01*
X0289520Y0151102D02*
X0289612Y0151221D01*
X0289706Y0151338D01*
X0289804Y0151452D01*
X0289904Y0151564D01*
X0290008Y0151674D01*
X0290113Y0151780D01*
X0290222Y0151885D01*
X0290333Y0151986D01*
X0290447Y0152084D01*
X0290563Y0152180D01*
X0290681Y0152273D01*
X0290802Y0152362D01*
X0290925Y0152449D01*
X0291050Y0152532D01*
X0291177Y0152613D01*
X0291306Y0152690D01*
X0291437Y0152764D01*
X0291570Y0152835D01*
X0291704Y0152902D01*
X0291840Y0152966D01*
X0291978Y0153026D01*
X0292117Y0153083D01*
X0292258Y0153136D01*
X0292400Y0153186D01*
X0292543Y0153233D01*
X0292687Y0153275D01*
X0292832Y0153315D01*
X0292978Y0153350D01*
X0293125Y0153382D01*
X0293273Y0153410D01*
X0293421Y0153434D01*
X0293570Y0153455D01*
X0293720Y0153472D01*
X0293869Y0153485D01*
X0294019Y0153494D01*
X0294170Y0153500D01*
X0294320Y0153502D01*
X0289584Y0143819D02*
X0289678Y0143700D01*
X0289776Y0143584D01*
X0289876Y0143470D01*
X0289980Y0143359D01*
X0290086Y0143251D01*
X0290194Y0143145D01*
X0290306Y0143043D01*
X0290420Y0142943D01*
X0290536Y0142845D01*
X0290655Y0142751D01*
X0290776Y0142660D01*
X0290900Y0142572D01*
X0291026Y0142487D01*
X0291153Y0142406D01*
X0291283Y0142327D01*
X0291415Y0142252D01*
X0291548Y0142181D01*
X0291684Y0142112D01*
X0291821Y0142047D01*
X0291959Y0141986D01*
X0292100Y0141928D01*
X0292241Y0141874D01*
X0292384Y0141823D01*
X0292528Y0141776D01*
X0292673Y0141732D01*
X0292820Y0141693D01*
X0292967Y0141657D01*
X0293115Y0141624D01*
X0293264Y0141596D01*
X0293414Y0141571D01*
X0293564Y0141550D01*
X0293714Y0141533D01*
X0293866Y0141519D01*
X0294017Y0141510D01*
X0294168Y0141504D01*
X0294320Y0141502D01*
X0299202Y0150989D02*
X0299111Y0151114D01*
X0299017Y0151236D01*
X0298919Y0151355D01*
X0298819Y0151472D01*
X0298715Y0151586D01*
X0298609Y0151698D01*
X0298500Y0151806D01*
X0298388Y0151912D01*
X0298273Y0152015D01*
X0298156Y0152115D01*
X0298036Y0152213D01*
X0297914Y0152306D01*
X0297790Y0152397D01*
X0297663Y0152485D01*
X0297534Y0152569D01*
X0297402Y0152650D01*
X0297269Y0152727D01*
X0297134Y0152801D01*
X0296997Y0152872D01*
X0296858Y0152939D01*
X0296718Y0153002D01*
X0296575Y0153062D01*
X0296432Y0153118D01*
X0296287Y0153170D01*
X0296141Y0153219D01*
X0295993Y0153264D01*
X0295845Y0153305D01*
X0295695Y0153342D01*
X0295545Y0153376D01*
X0295393Y0153405D01*
X0295241Y0153431D01*
X0295089Y0153453D01*
X0294936Y0153470D01*
X0294782Y0153484D01*
X0294628Y0153494D01*
X0294474Y0153500D01*
X0294320Y0153502D01*
X0299056Y0143819D02*
X0298962Y0143700D01*
X0298864Y0143584D01*
X0298764Y0143470D01*
X0298660Y0143359D01*
X0298554Y0143251D01*
X0298446Y0143145D01*
X0298334Y0143043D01*
X0298220Y0142943D01*
X0298104Y0142845D01*
X0297985Y0142751D01*
X0297864Y0142660D01*
X0297740Y0142572D01*
X0297614Y0142487D01*
X0297487Y0142406D01*
X0297357Y0142327D01*
X0297225Y0142252D01*
X0297092Y0142181D01*
X0296956Y0142112D01*
X0296819Y0142047D01*
X0296681Y0141986D01*
X0296540Y0141928D01*
X0296399Y0141874D01*
X0296256Y0141823D01*
X0296112Y0141776D01*
X0295967Y0141732D01*
X0295820Y0141693D01*
X0295673Y0141657D01*
X0295525Y0141624D01*
X0295376Y0141596D01*
X0295226Y0141571D01*
X0295076Y0141550D01*
X0294926Y0141533D01*
X0294774Y0141519D01*
X0294623Y0141510D01*
X0294472Y0141504D01*
X0294320Y0141502D01*
X0300820Y0182502D02*
X0300822Y0182565D01*
X0300828Y0182627D01*
X0300838Y0182689D01*
X0300851Y0182751D01*
X0300869Y0182811D01*
X0300890Y0182870D01*
X0300915Y0182928D01*
X0300944Y0182984D01*
X0300976Y0183038D01*
X0301011Y0183090D01*
X0301049Y0183139D01*
X0301091Y0183187D01*
X0301135Y0183231D01*
X0301183Y0183273D01*
X0301232Y0183311D01*
X0301284Y0183346D01*
X0301338Y0183378D01*
X0301394Y0183407D01*
X0301452Y0183432D01*
X0301511Y0183453D01*
X0301571Y0183471D01*
X0301633Y0183484D01*
X0301695Y0183494D01*
X0301757Y0183500D01*
X0301820Y0183502D01*
X0301883Y0183500D01*
X0301945Y0183494D01*
X0302007Y0183484D01*
X0302069Y0183471D01*
X0302129Y0183453D01*
X0302188Y0183432D01*
X0302246Y0183407D01*
X0302302Y0183378D01*
X0302356Y0183346D01*
X0302408Y0183311D01*
X0302457Y0183273D01*
X0302505Y0183231D01*
X0302549Y0183187D01*
X0302591Y0183139D01*
X0302629Y0183090D01*
X0302664Y0183038D01*
X0302696Y0182984D01*
X0302725Y0182928D01*
X0302750Y0182870D01*
X0302771Y0182811D01*
X0302789Y0182751D01*
X0302802Y0182689D01*
X0302812Y0182627D01*
X0302818Y0182565D01*
X0302820Y0182502D01*
X0302818Y0182439D01*
X0302812Y0182377D01*
X0302802Y0182315D01*
X0302789Y0182253D01*
X0302771Y0182193D01*
X0302750Y0182134D01*
X0302725Y0182076D01*
X0302696Y0182020D01*
X0302664Y0181966D01*
X0302629Y0181914D01*
X0302591Y0181865D01*
X0302549Y0181817D01*
X0302505Y0181773D01*
X0302457Y0181731D01*
X0302408Y0181693D01*
X0302356Y0181658D01*
X0302302Y0181626D01*
X0302246Y0181597D01*
X0302188Y0181572D01*
X0302129Y0181551D01*
X0302069Y0181533D01*
X0302007Y0181520D01*
X0301945Y0181510D01*
X0301883Y0181504D01*
X0301820Y0181502D01*
X0301757Y0181504D01*
X0301695Y0181510D01*
X0301633Y0181520D01*
X0301571Y0181533D01*
X0301511Y0181551D01*
X0301452Y0181572D01*
X0301394Y0181597D01*
X0301338Y0181626D01*
X0301284Y0181658D01*
X0301232Y0181693D01*
X0301183Y0181731D01*
X0301135Y0181773D01*
X0301091Y0181817D01*
X0301049Y0181865D01*
X0301011Y0181914D01*
X0300976Y0181966D01*
X0300944Y0182020D01*
X0300915Y0182076D01*
X0300890Y0182134D01*
X0300869Y0182193D01*
X0300851Y0182253D01*
X0300838Y0182315D01*
X0300828Y0182377D01*
X0300822Y0182439D01*
X0300820Y0182502D01*
X0294820Y0182502D02*
X0294822Y0182674D01*
X0294828Y0182845D01*
X0294839Y0183017D01*
X0294854Y0183188D01*
X0294873Y0183359D01*
X0294896Y0183529D01*
X0294923Y0183699D01*
X0294955Y0183868D01*
X0294990Y0184036D01*
X0295030Y0184203D01*
X0295074Y0184369D01*
X0295121Y0184534D01*
X0295173Y0184698D01*
X0295229Y0184860D01*
X0295289Y0185021D01*
X0295353Y0185181D01*
X0295421Y0185339D01*
X0295492Y0185495D01*
X0295567Y0185649D01*
X0295647Y0185802D01*
X0295729Y0185952D01*
X0295816Y0186101D01*
X0295906Y0186247D01*
X0296000Y0186391D01*
X0296097Y0186533D01*
X0296198Y0186672D01*
X0296302Y0186809D01*
X0296409Y0186943D01*
X0296520Y0187074D01*
X0296633Y0187203D01*
X0296750Y0187329D01*
X0296870Y0187452D01*
X0296993Y0187572D01*
X0297119Y0187689D01*
X0297248Y0187802D01*
X0297379Y0187913D01*
X0297513Y0188020D01*
X0297650Y0188124D01*
X0297789Y0188225D01*
X0297931Y0188322D01*
X0298075Y0188416D01*
X0298221Y0188506D01*
X0298370Y0188593D01*
X0298520Y0188675D01*
X0298673Y0188755D01*
X0298827Y0188830D01*
X0298983Y0188901D01*
X0299141Y0188969D01*
X0299301Y0189033D01*
X0299462Y0189093D01*
X0299624Y0189149D01*
X0299788Y0189201D01*
X0299953Y0189248D01*
X0300119Y0189292D01*
X0300286Y0189332D01*
X0300454Y0189367D01*
X0300623Y0189399D01*
X0300793Y0189426D01*
X0300963Y0189449D01*
X0301134Y0189468D01*
X0301305Y0189483D01*
X0301477Y0189494D01*
X0301648Y0189500D01*
X0301820Y0189502D01*
X0301992Y0189500D01*
X0302163Y0189494D01*
X0302335Y0189483D01*
X0302506Y0189468D01*
X0302677Y0189449D01*
X0302847Y0189426D01*
X0303017Y0189399D01*
X0303186Y0189367D01*
X0303354Y0189332D01*
X0303521Y0189292D01*
X0303687Y0189248D01*
X0303852Y0189201D01*
X0304016Y0189149D01*
X0304178Y0189093D01*
X0304339Y0189033D01*
X0304499Y0188969D01*
X0304657Y0188901D01*
X0304813Y0188830D01*
X0304967Y0188755D01*
X0305120Y0188675D01*
X0305270Y0188593D01*
X0305419Y0188506D01*
X0305565Y0188416D01*
X0305709Y0188322D01*
X0305851Y0188225D01*
X0305990Y0188124D01*
X0306127Y0188020D01*
X0306261Y0187913D01*
X0306392Y0187802D01*
X0306521Y0187689D01*
X0306647Y0187572D01*
X0306770Y0187452D01*
X0306890Y0187329D01*
X0307007Y0187203D01*
X0307120Y0187074D01*
X0307231Y0186943D01*
X0307338Y0186809D01*
X0307442Y0186672D01*
X0307543Y0186533D01*
X0307640Y0186391D01*
X0307734Y0186247D01*
X0307824Y0186101D01*
X0307911Y0185952D01*
X0307993Y0185802D01*
X0308073Y0185649D01*
X0308148Y0185495D01*
X0308219Y0185339D01*
X0308287Y0185181D01*
X0308351Y0185021D01*
X0308411Y0184860D01*
X0308467Y0184698D01*
X0308519Y0184534D01*
X0308566Y0184369D01*
X0308610Y0184203D01*
X0308650Y0184036D01*
X0308685Y0183868D01*
X0308717Y0183699D01*
X0308744Y0183529D01*
X0308767Y0183359D01*
X0308786Y0183188D01*
X0308801Y0183017D01*
X0308812Y0182845D01*
X0308818Y0182674D01*
X0308820Y0182502D01*
X0308818Y0182330D01*
X0308812Y0182159D01*
X0308801Y0181987D01*
X0308786Y0181816D01*
X0308767Y0181645D01*
X0308744Y0181475D01*
X0308717Y0181305D01*
X0308685Y0181136D01*
X0308650Y0180968D01*
X0308610Y0180801D01*
X0308566Y0180635D01*
X0308519Y0180470D01*
X0308467Y0180306D01*
X0308411Y0180144D01*
X0308351Y0179983D01*
X0308287Y0179823D01*
X0308219Y0179665D01*
X0308148Y0179509D01*
X0308073Y0179355D01*
X0307993Y0179202D01*
X0307911Y0179052D01*
X0307824Y0178903D01*
X0307734Y0178757D01*
X0307640Y0178613D01*
X0307543Y0178471D01*
X0307442Y0178332D01*
X0307338Y0178195D01*
X0307231Y0178061D01*
X0307120Y0177930D01*
X0307007Y0177801D01*
X0306890Y0177675D01*
X0306770Y0177552D01*
X0306647Y0177432D01*
X0306521Y0177315D01*
X0306392Y0177202D01*
X0306261Y0177091D01*
X0306127Y0176984D01*
X0305990Y0176880D01*
X0305851Y0176779D01*
X0305709Y0176682D01*
X0305565Y0176588D01*
X0305419Y0176498D01*
X0305270Y0176411D01*
X0305120Y0176329D01*
X0304967Y0176249D01*
X0304813Y0176174D01*
X0304657Y0176103D01*
X0304499Y0176035D01*
X0304339Y0175971D01*
X0304178Y0175911D01*
X0304016Y0175855D01*
X0303852Y0175803D01*
X0303687Y0175756D01*
X0303521Y0175712D01*
X0303354Y0175672D01*
X0303186Y0175637D01*
X0303017Y0175605D01*
X0302847Y0175578D01*
X0302677Y0175555D01*
X0302506Y0175536D01*
X0302335Y0175521D01*
X0302163Y0175510D01*
X0301992Y0175504D01*
X0301820Y0175502D01*
X0301648Y0175504D01*
X0301477Y0175510D01*
X0301305Y0175521D01*
X0301134Y0175536D01*
X0300963Y0175555D01*
X0300793Y0175578D01*
X0300623Y0175605D01*
X0300454Y0175637D01*
X0300286Y0175672D01*
X0300119Y0175712D01*
X0299953Y0175756D01*
X0299788Y0175803D01*
X0299624Y0175855D01*
X0299462Y0175911D01*
X0299301Y0175971D01*
X0299141Y0176035D01*
X0298983Y0176103D01*
X0298827Y0176174D01*
X0298673Y0176249D01*
X0298520Y0176329D01*
X0298370Y0176411D01*
X0298221Y0176498D01*
X0298075Y0176588D01*
X0297931Y0176682D01*
X0297789Y0176779D01*
X0297650Y0176880D01*
X0297513Y0176984D01*
X0297379Y0177091D01*
X0297248Y0177202D01*
X0297119Y0177315D01*
X0296993Y0177432D01*
X0296870Y0177552D01*
X0296750Y0177675D01*
X0296633Y0177801D01*
X0296520Y0177930D01*
X0296409Y0178061D01*
X0296302Y0178195D01*
X0296198Y0178332D01*
X0296097Y0178471D01*
X0296000Y0178613D01*
X0295906Y0178757D01*
X0295816Y0178903D01*
X0295729Y0179052D01*
X0295647Y0179202D01*
X0295567Y0179355D01*
X0295492Y0179509D01*
X0295421Y0179665D01*
X0295353Y0179823D01*
X0295289Y0179983D01*
X0295229Y0180144D01*
X0295173Y0180306D01*
X0295121Y0180470D01*
X0295074Y0180635D01*
X0295030Y0180801D01*
X0294990Y0180968D01*
X0294955Y0181136D01*
X0294923Y0181305D01*
X0294896Y0181475D01*
X0294873Y0181645D01*
X0294854Y0181816D01*
X0294839Y0181987D01*
X0294828Y0182159D01*
X0294822Y0182330D01*
X0294820Y0182502D01*
X0328320Y0205502D02*
X0350320Y0205502D01*
X0350320Y0059502D01*
X0341820Y0059502D01*
X0341818Y0059600D01*
X0341812Y0059698D01*
X0341803Y0059796D01*
X0341789Y0059893D01*
X0341772Y0059990D01*
X0341751Y0060086D01*
X0341726Y0060181D01*
X0341698Y0060275D01*
X0341665Y0060367D01*
X0341630Y0060459D01*
X0341590Y0060549D01*
X0341548Y0060637D01*
X0341501Y0060724D01*
X0341452Y0060808D01*
X0341399Y0060891D01*
X0341343Y0060971D01*
X0341283Y0061050D01*
X0341221Y0061126D01*
X0341156Y0061199D01*
X0341088Y0061270D01*
X0341017Y0061338D01*
X0340944Y0061403D01*
X0340868Y0061465D01*
X0340789Y0061525D01*
X0340709Y0061581D01*
X0340626Y0061634D01*
X0340542Y0061683D01*
X0340455Y0061730D01*
X0340367Y0061772D01*
X0340277Y0061812D01*
X0340185Y0061847D01*
X0340093Y0061880D01*
X0339999Y0061908D01*
X0339904Y0061933D01*
X0339808Y0061954D01*
X0339711Y0061971D01*
X0339614Y0061985D01*
X0339516Y0061994D01*
X0339418Y0062000D01*
X0339320Y0062002D01*
X0339222Y0062000D01*
X0339124Y0061994D01*
X0339026Y0061985D01*
X0338929Y0061971D01*
X0338832Y0061954D01*
X0338736Y0061933D01*
X0338641Y0061908D01*
X0338547Y0061880D01*
X0338455Y0061847D01*
X0338363Y0061812D01*
X0338273Y0061772D01*
X0338185Y0061730D01*
X0338098Y0061683D01*
X0338014Y0061634D01*
X0337931Y0061581D01*
X0337851Y0061525D01*
X0337772Y0061465D01*
X0337696Y0061403D01*
X0337623Y0061338D01*
X0337552Y0061270D01*
X0337484Y0061199D01*
X0337419Y0061126D01*
X0337357Y0061050D01*
X0337297Y0060971D01*
X0337241Y0060891D01*
X0337188Y0060808D01*
X0337139Y0060724D01*
X0337092Y0060637D01*
X0337050Y0060549D01*
X0337010Y0060459D01*
X0336975Y0060367D01*
X0336942Y0060275D01*
X0336914Y0060181D01*
X0336889Y0060086D01*
X0336868Y0059990D01*
X0336851Y0059893D01*
X0336837Y0059796D01*
X0336828Y0059698D01*
X0336822Y0059600D01*
X0336820Y0059502D01*
X0328320Y0059502D01*
X0328320Y0205502D01*
X0334320Y0210002D02*
X0339320Y0210002D01*
X0341820Y0212502D01*
X0344320Y0210002D01*
X0349320Y0210002D01*
X0351820Y0212502D01*
X0354320Y0210002D01*
X0359320Y0210002D01*
X0361820Y0212502D01*
X0364320Y0210002D01*
X0369320Y0210002D01*
X0371820Y0212502D01*
X0371820Y0227502D01*
X0369320Y0230002D01*
X0364320Y0230002D01*
X0361820Y0227502D01*
X0359320Y0230002D01*
X0354320Y0230002D01*
X0351820Y0227502D01*
X0349320Y0230002D01*
X0344320Y0230002D01*
X0341820Y0227502D01*
X0339320Y0230002D01*
X0334320Y0230002D01*
X0331820Y0227502D01*
X0331820Y0212502D01*
X0334320Y0210002D01*
X0364320Y0203502D02*
X0364320Y0186502D01*
X0364322Y0186442D01*
X0364327Y0186381D01*
X0364336Y0186322D01*
X0364349Y0186263D01*
X0364365Y0186204D01*
X0364385Y0186147D01*
X0364408Y0186092D01*
X0364435Y0186037D01*
X0364464Y0185985D01*
X0364497Y0185934D01*
X0364533Y0185885D01*
X0364571Y0185839D01*
X0364613Y0185795D01*
X0364657Y0185753D01*
X0364703Y0185715D01*
X0364752Y0185679D01*
X0364803Y0185646D01*
X0364855Y0185617D01*
X0364910Y0185590D01*
X0364965Y0185567D01*
X0365022Y0185547D01*
X0365081Y0185531D01*
X0365140Y0185518D01*
X0365199Y0185509D01*
X0365260Y0185504D01*
X0365320Y0185502D01*
X0373320Y0185502D01*
X0373380Y0185504D01*
X0373441Y0185509D01*
X0373500Y0185518D01*
X0373559Y0185531D01*
X0373618Y0185547D01*
X0373675Y0185567D01*
X0373730Y0185590D01*
X0373785Y0185617D01*
X0373837Y0185646D01*
X0373888Y0185679D01*
X0373937Y0185715D01*
X0373983Y0185753D01*
X0374027Y0185795D01*
X0374069Y0185839D01*
X0374107Y0185885D01*
X0374143Y0185934D01*
X0374176Y0185985D01*
X0374205Y0186037D01*
X0374232Y0186092D01*
X0374255Y0186147D01*
X0374275Y0186204D01*
X0374291Y0186263D01*
X0374304Y0186322D01*
X0374313Y0186381D01*
X0374318Y0186442D01*
X0374320Y0186502D01*
X0374320Y0203502D01*
X0374318Y0203562D01*
X0374313Y0203623D01*
X0374304Y0203682D01*
X0374291Y0203741D01*
X0374275Y0203800D01*
X0374255Y0203857D01*
X0374232Y0203912D01*
X0374205Y0203967D01*
X0374176Y0204019D01*
X0374143Y0204070D01*
X0374107Y0204119D01*
X0374069Y0204165D01*
X0374027Y0204209D01*
X0373983Y0204251D01*
X0373937Y0204289D01*
X0373888Y0204325D01*
X0373837Y0204358D01*
X0373785Y0204387D01*
X0373730Y0204414D01*
X0373675Y0204437D01*
X0373618Y0204457D01*
X0373559Y0204473D01*
X0373500Y0204486D01*
X0373441Y0204495D01*
X0373380Y0204500D01*
X0373320Y0204502D01*
X0365320Y0204502D01*
X0365260Y0204500D01*
X0365199Y0204495D01*
X0365140Y0204486D01*
X0365081Y0204473D01*
X0365022Y0204457D01*
X0364965Y0204437D01*
X0364910Y0204414D01*
X0364855Y0204387D01*
X0364803Y0204358D01*
X0364752Y0204325D01*
X0364703Y0204289D01*
X0364657Y0204251D01*
X0364613Y0204209D01*
X0364571Y0204165D01*
X0364533Y0204119D01*
X0364497Y0204070D01*
X0364464Y0204019D01*
X0364435Y0203967D01*
X0364408Y0203912D01*
X0364385Y0203857D01*
X0364365Y0203800D01*
X0364349Y0203741D01*
X0364336Y0203682D01*
X0364327Y0203623D01*
X0364322Y0203562D01*
X0364320Y0203502D01*
X0369320Y0196502D02*
X0369320Y0196002D01*
X0369320Y0194002D02*
X0369320Y0193502D01*
X0363320Y0180002D02*
X0380320Y0180002D01*
X0380380Y0180000D01*
X0380441Y0179995D01*
X0380500Y0179986D01*
X0380559Y0179973D01*
X0380618Y0179957D01*
X0380675Y0179937D01*
X0380730Y0179914D01*
X0380785Y0179887D01*
X0380837Y0179858D01*
X0380888Y0179825D01*
X0380937Y0179789D01*
X0380983Y0179751D01*
X0381027Y0179709D01*
X0381069Y0179665D01*
X0381107Y0179619D01*
X0381143Y0179570D01*
X0381176Y0179519D01*
X0381205Y0179467D01*
X0381232Y0179412D01*
X0381255Y0179357D01*
X0381275Y0179300D01*
X0381291Y0179241D01*
X0381304Y0179182D01*
X0381313Y0179123D01*
X0381318Y0179062D01*
X0381320Y0179002D01*
X0381320Y0171002D01*
X0381318Y0170942D01*
X0381313Y0170881D01*
X0381304Y0170822D01*
X0381291Y0170763D01*
X0381275Y0170704D01*
X0381255Y0170647D01*
X0381232Y0170592D01*
X0381205Y0170537D01*
X0381176Y0170485D01*
X0381143Y0170434D01*
X0381107Y0170385D01*
X0381069Y0170339D01*
X0381027Y0170295D01*
X0380983Y0170253D01*
X0380937Y0170215D01*
X0380888Y0170179D01*
X0380837Y0170146D01*
X0380785Y0170117D01*
X0380730Y0170090D01*
X0380675Y0170067D01*
X0380618Y0170047D01*
X0380559Y0170031D01*
X0380500Y0170018D01*
X0380441Y0170009D01*
X0380380Y0170004D01*
X0380320Y0170002D01*
X0363320Y0170002D01*
X0363260Y0170004D01*
X0363199Y0170009D01*
X0363140Y0170018D01*
X0363081Y0170031D01*
X0363022Y0170047D01*
X0362965Y0170067D01*
X0362910Y0170090D01*
X0362855Y0170117D01*
X0362803Y0170146D01*
X0362752Y0170179D01*
X0362703Y0170215D01*
X0362657Y0170253D01*
X0362613Y0170295D01*
X0362571Y0170339D01*
X0362533Y0170385D01*
X0362497Y0170434D01*
X0362464Y0170485D01*
X0362435Y0170537D01*
X0362408Y0170592D01*
X0362385Y0170647D01*
X0362365Y0170704D01*
X0362349Y0170763D01*
X0362336Y0170822D01*
X0362327Y0170881D01*
X0362322Y0170942D01*
X0362320Y0171002D01*
X0362320Y0179002D01*
X0362322Y0179062D01*
X0362327Y0179123D01*
X0362336Y0179182D01*
X0362349Y0179241D01*
X0362365Y0179300D01*
X0362385Y0179357D01*
X0362408Y0179412D01*
X0362435Y0179467D01*
X0362464Y0179519D01*
X0362497Y0179570D01*
X0362533Y0179619D01*
X0362571Y0179665D01*
X0362613Y0179709D01*
X0362657Y0179751D01*
X0362703Y0179789D01*
X0362752Y0179825D01*
X0362803Y0179858D01*
X0362855Y0179887D01*
X0362910Y0179914D01*
X0362965Y0179937D01*
X0363022Y0179957D01*
X0363081Y0179973D01*
X0363140Y0179986D01*
X0363199Y0179995D01*
X0363260Y0180000D01*
X0363320Y0180002D01*
X0370320Y0175002D02*
X0370820Y0175002D01*
X0372820Y0175002D02*
X0373320Y0175002D01*
X0378320Y0157002D02*
X0378318Y0157162D01*
X0378312Y0157321D01*
X0378302Y0157480D01*
X0378289Y0157639D01*
X0378271Y0157798D01*
X0378250Y0157956D01*
X0378224Y0158113D01*
X0378195Y0158270D01*
X0378162Y0158426D01*
X0378125Y0158581D01*
X0378085Y0158736D01*
X0378040Y0158889D01*
X0377992Y0159041D01*
X0377940Y0159192D01*
X0377884Y0159341D01*
X0377825Y0159489D01*
X0377762Y0159636D01*
X0377696Y0159781D01*
X0377626Y0159924D01*
X0377552Y0160066D01*
X0377476Y0160206D01*
X0377395Y0160344D01*
X0377312Y0160479D01*
X0377225Y0160613D01*
X0377134Y0160745D01*
X0377041Y0160874D01*
X0376944Y0161001D01*
X0376845Y0161126D01*
X0376742Y0161248D01*
X0376636Y0161367D01*
X0376528Y0161484D01*
X0376416Y0161598D01*
X0376302Y0161710D01*
X0376185Y0161818D01*
X0376066Y0161924D01*
X0375944Y0162027D01*
X0375819Y0162126D01*
X0375692Y0162223D01*
X0375563Y0162316D01*
X0375431Y0162407D01*
X0375297Y0162494D01*
X0375162Y0162577D01*
X0375024Y0162658D01*
X0374884Y0162734D01*
X0374742Y0162808D01*
X0374599Y0162878D01*
X0374454Y0162944D01*
X0374307Y0163007D01*
X0374159Y0163066D01*
X0374010Y0163122D01*
X0373859Y0163174D01*
X0373707Y0163222D01*
X0373554Y0163267D01*
X0373399Y0163307D01*
X0373244Y0163344D01*
X0373088Y0163377D01*
X0372931Y0163406D01*
X0372774Y0163432D01*
X0372616Y0163453D01*
X0372457Y0163471D01*
X0372298Y0163484D01*
X0372139Y0163494D01*
X0371980Y0163500D01*
X0371820Y0163502D01*
X0371660Y0163500D01*
X0371501Y0163494D01*
X0371342Y0163484D01*
X0371183Y0163471D01*
X0371024Y0163453D01*
X0370866Y0163432D01*
X0370709Y0163406D01*
X0370552Y0163377D01*
X0370396Y0163344D01*
X0370241Y0163307D01*
X0370086Y0163267D01*
X0369933Y0163222D01*
X0369781Y0163174D01*
X0369630Y0163122D01*
X0369481Y0163066D01*
X0369333Y0163007D01*
X0369186Y0162944D01*
X0369041Y0162878D01*
X0368898Y0162808D01*
X0368756Y0162734D01*
X0368616Y0162658D01*
X0368478Y0162577D01*
X0368343Y0162494D01*
X0368209Y0162407D01*
X0368077Y0162316D01*
X0367948Y0162223D01*
X0367821Y0162126D01*
X0367696Y0162027D01*
X0367574Y0161924D01*
X0367455Y0161818D01*
X0367338Y0161710D01*
X0367224Y0161598D01*
X0367112Y0161484D01*
X0367004Y0161367D01*
X0366898Y0161248D01*
X0366795Y0161126D01*
X0366696Y0161001D01*
X0366599Y0160874D01*
X0366506Y0160745D01*
X0366415Y0160613D01*
X0366328Y0160479D01*
X0366245Y0160344D01*
X0366164Y0160206D01*
X0366088Y0160066D01*
X0366014Y0159924D01*
X0365944Y0159781D01*
X0365878Y0159636D01*
X0365815Y0159489D01*
X0365756Y0159341D01*
X0365700Y0159192D01*
X0365648Y0159041D01*
X0365600Y0158889D01*
X0365555Y0158736D01*
X0365515Y0158581D01*
X0365478Y0158426D01*
X0365445Y0158270D01*
X0365416Y0158113D01*
X0365390Y0157956D01*
X0365369Y0157798D01*
X0365351Y0157639D01*
X0365338Y0157480D01*
X0365328Y0157321D01*
X0365322Y0157162D01*
X0365320Y0157002D01*
X0365320Y0133002D01*
X0365322Y0132842D01*
X0365328Y0132683D01*
X0365338Y0132524D01*
X0365351Y0132365D01*
X0365369Y0132206D01*
X0365390Y0132048D01*
X0365416Y0131891D01*
X0365445Y0131734D01*
X0365478Y0131578D01*
X0365515Y0131423D01*
X0365555Y0131268D01*
X0365600Y0131115D01*
X0365648Y0130963D01*
X0365700Y0130812D01*
X0365756Y0130663D01*
X0365815Y0130515D01*
X0365878Y0130368D01*
X0365944Y0130223D01*
X0366014Y0130080D01*
X0366088Y0129938D01*
X0366164Y0129798D01*
X0366245Y0129660D01*
X0366328Y0129525D01*
X0366415Y0129391D01*
X0366506Y0129259D01*
X0366599Y0129130D01*
X0366696Y0129003D01*
X0366795Y0128878D01*
X0366898Y0128756D01*
X0367004Y0128637D01*
X0367112Y0128520D01*
X0367224Y0128406D01*
X0367338Y0128294D01*
X0367455Y0128186D01*
X0367574Y0128080D01*
X0367696Y0127977D01*
X0367821Y0127878D01*
X0367948Y0127781D01*
X0368077Y0127688D01*
X0368209Y0127597D01*
X0368343Y0127510D01*
X0368478Y0127427D01*
X0368616Y0127346D01*
X0368756Y0127270D01*
X0368898Y0127196D01*
X0369041Y0127126D01*
X0369186Y0127060D01*
X0369333Y0126997D01*
X0369481Y0126938D01*
X0369630Y0126882D01*
X0369781Y0126830D01*
X0369933Y0126782D01*
X0370086Y0126737D01*
X0370241Y0126697D01*
X0370396Y0126660D01*
X0370552Y0126627D01*
X0370709Y0126598D01*
X0370866Y0126572D01*
X0371024Y0126551D01*
X0371183Y0126533D01*
X0371342Y0126520D01*
X0371501Y0126510D01*
X0371660Y0126504D01*
X0371820Y0126502D01*
X0371980Y0126504D01*
X0372139Y0126510D01*
X0372298Y0126520D01*
X0372457Y0126533D01*
X0372616Y0126551D01*
X0372774Y0126572D01*
X0372931Y0126598D01*
X0373088Y0126627D01*
X0373244Y0126660D01*
X0373399Y0126697D01*
X0373554Y0126737D01*
X0373707Y0126782D01*
X0373859Y0126830D01*
X0374010Y0126882D01*
X0374159Y0126938D01*
X0374307Y0126997D01*
X0374454Y0127060D01*
X0374599Y0127126D01*
X0374742Y0127196D01*
X0374884Y0127270D01*
X0375024Y0127346D01*
X0375162Y0127427D01*
X0375297Y0127510D01*
X0375431Y0127597D01*
X0375563Y0127688D01*
X0375692Y0127781D01*
X0375819Y0127878D01*
X0375944Y0127977D01*
X0376066Y0128080D01*
X0376185Y0128186D01*
X0376302Y0128294D01*
X0376416Y0128406D01*
X0376528Y0128520D01*
X0376636Y0128637D01*
X0376742Y0128756D01*
X0376845Y0128878D01*
X0376944Y0129003D01*
X0377041Y0129130D01*
X0377134Y0129259D01*
X0377225Y0129391D01*
X0377312Y0129525D01*
X0377395Y0129660D01*
X0377476Y0129798D01*
X0377552Y0129938D01*
X0377626Y0130080D01*
X0377696Y0130223D01*
X0377762Y0130368D01*
X0377825Y0130515D01*
X0377884Y0130663D01*
X0377940Y0130812D01*
X0377992Y0130963D01*
X0378040Y0131115D01*
X0378085Y0131268D01*
X0378125Y0131423D01*
X0378162Y0131578D01*
X0378195Y0131734D01*
X0378224Y0131891D01*
X0378250Y0132048D01*
X0378271Y0132206D01*
X0378289Y0132365D01*
X0378302Y0132524D01*
X0378312Y0132683D01*
X0378318Y0132842D01*
X0378320Y0133002D01*
X0378320Y0157002D01*
X0371820Y0150002D02*
X0371820Y0147502D01*
X0368820Y0147502D01*
X0368820Y0146002D02*
X0374820Y0146002D01*
X0374820Y0144002D01*
X0368820Y0144002D01*
X0368820Y0146002D01*
X0371820Y0147502D02*
X0374820Y0147502D01*
X0374820Y0142502D02*
X0371820Y0142502D01*
X0371820Y0140002D01*
X0371820Y0142502D02*
X0368820Y0142502D01*
X0363320Y0120002D02*
X0380320Y0120002D01*
X0380380Y0120000D01*
X0380441Y0119995D01*
X0380500Y0119986D01*
X0380559Y0119973D01*
X0380618Y0119957D01*
X0380675Y0119937D01*
X0380730Y0119914D01*
X0380785Y0119887D01*
X0380837Y0119858D01*
X0380888Y0119825D01*
X0380937Y0119789D01*
X0380983Y0119751D01*
X0381027Y0119709D01*
X0381069Y0119665D01*
X0381107Y0119619D01*
X0381143Y0119570D01*
X0381176Y0119519D01*
X0381205Y0119467D01*
X0381232Y0119412D01*
X0381255Y0119357D01*
X0381275Y0119300D01*
X0381291Y0119241D01*
X0381304Y0119182D01*
X0381313Y0119123D01*
X0381318Y0119062D01*
X0381320Y0119002D01*
X0381320Y0111002D01*
X0381318Y0110942D01*
X0381313Y0110881D01*
X0381304Y0110822D01*
X0381291Y0110763D01*
X0381275Y0110704D01*
X0381255Y0110647D01*
X0381232Y0110592D01*
X0381205Y0110537D01*
X0381176Y0110485D01*
X0381143Y0110434D01*
X0381107Y0110385D01*
X0381069Y0110339D01*
X0381027Y0110295D01*
X0380983Y0110253D01*
X0380937Y0110215D01*
X0380888Y0110179D01*
X0380837Y0110146D01*
X0380785Y0110117D01*
X0380730Y0110090D01*
X0380675Y0110067D01*
X0380618Y0110047D01*
X0380559Y0110031D01*
X0380500Y0110018D01*
X0380441Y0110009D01*
X0380380Y0110004D01*
X0380320Y0110002D01*
X0363320Y0110002D01*
X0363260Y0110004D01*
X0363199Y0110009D01*
X0363140Y0110018D01*
X0363081Y0110031D01*
X0363022Y0110047D01*
X0362965Y0110067D01*
X0362910Y0110090D01*
X0362855Y0110117D01*
X0362803Y0110146D01*
X0362752Y0110179D01*
X0362703Y0110215D01*
X0362657Y0110253D01*
X0362613Y0110295D01*
X0362571Y0110339D01*
X0362533Y0110385D01*
X0362497Y0110434D01*
X0362464Y0110485D01*
X0362435Y0110537D01*
X0362408Y0110592D01*
X0362385Y0110647D01*
X0362365Y0110704D01*
X0362349Y0110763D01*
X0362336Y0110822D01*
X0362327Y0110881D01*
X0362322Y0110942D01*
X0362320Y0111002D01*
X0362320Y0119002D01*
X0362322Y0119062D01*
X0362327Y0119123D01*
X0362336Y0119182D01*
X0362349Y0119241D01*
X0362365Y0119300D01*
X0362385Y0119357D01*
X0362408Y0119412D01*
X0362435Y0119467D01*
X0362464Y0119519D01*
X0362497Y0119570D01*
X0362533Y0119619D01*
X0362571Y0119665D01*
X0362613Y0119709D01*
X0362657Y0119751D01*
X0362703Y0119789D01*
X0362752Y0119825D01*
X0362803Y0119858D01*
X0362855Y0119887D01*
X0362910Y0119914D01*
X0362965Y0119937D01*
X0363022Y0119957D01*
X0363081Y0119973D01*
X0363140Y0119986D01*
X0363199Y0119995D01*
X0363260Y0120000D01*
X0363320Y0120002D01*
X0370320Y0115002D02*
X0370820Y0115002D01*
X0372820Y0115002D02*
X0373320Y0115002D01*
X0370820Y0102002D02*
X0362820Y0102002D01*
X0362760Y0102000D01*
X0362699Y0101995D01*
X0362640Y0101986D01*
X0362581Y0101973D01*
X0362522Y0101957D01*
X0362465Y0101937D01*
X0362410Y0101914D01*
X0362355Y0101887D01*
X0362303Y0101858D01*
X0362252Y0101825D01*
X0362203Y0101789D01*
X0362157Y0101751D01*
X0362113Y0101709D01*
X0362071Y0101665D01*
X0362033Y0101619D01*
X0361997Y0101570D01*
X0361964Y0101519D01*
X0361935Y0101467D01*
X0361908Y0101412D01*
X0361885Y0101357D01*
X0361865Y0101300D01*
X0361849Y0101241D01*
X0361836Y0101182D01*
X0361827Y0101123D01*
X0361822Y0101062D01*
X0361820Y0101002D01*
X0361820Y0084002D01*
X0361822Y0083942D01*
X0361827Y0083881D01*
X0361836Y0083822D01*
X0361849Y0083763D01*
X0361865Y0083704D01*
X0361885Y0083647D01*
X0361908Y0083592D01*
X0361935Y0083537D01*
X0361964Y0083485D01*
X0361997Y0083434D01*
X0362033Y0083385D01*
X0362071Y0083339D01*
X0362113Y0083295D01*
X0362157Y0083253D01*
X0362203Y0083215D01*
X0362252Y0083179D01*
X0362303Y0083146D01*
X0362355Y0083117D01*
X0362410Y0083090D01*
X0362465Y0083067D01*
X0362522Y0083047D01*
X0362581Y0083031D01*
X0362640Y0083018D01*
X0362699Y0083009D01*
X0362760Y0083004D01*
X0362820Y0083002D01*
X0370820Y0083002D01*
X0370880Y0083004D01*
X0370941Y0083009D01*
X0371000Y0083018D01*
X0371059Y0083031D01*
X0371118Y0083047D01*
X0371175Y0083067D01*
X0371230Y0083090D01*
X0371285Y0083117D01*
X0371337Y0083146D01*
X0371388Y0083179D01*
X0371437Y0083215D01*
X0371483Y0083253D01*
X0371527Y0083295D01*
X0371569Y0083339D01*
X0371607Y0083385D01*
X0371643Y0083434D01*
X0371676Y0083485D01*
X0371705Y0083537D01*
X0371732Y0083592D01*
X0371755Y0083647D01*
X0371775Y0083704D01*
X0371791Y0083763D01*
X0371804Y0083822D01*
X0371813Y0083881D01*
X0371818Y0083942D01*
X0371820Y0084002D01*
X0371820Y0101002D01*
X0371818Y0101062D01*
X0371813Y0101123D01*
X0371804Y0101182D01*
X0371791Y0101241D01*
X0371775Y0101300D01*
X0371755Y0101357D01*
X0371732Y0101412D01*
X0371705Y0101467D01*
X0371676Y0101519D01*
X0371643Y0101570D01*
X0371607Y0101619D01*
X0371569Y0101665D01*
X0371527Y0101709D01*
X0371483Y0101751D01*
X0371437Y0101789D01*
X0371388Y0101825D01*
X0371337Y0101858D01*
X0371285Y0101887D01*
X0371230Y0101914D01*
X0371175Y0101937D01*
X0371118Y0101957D01*
X0371059Y0101973D01*
X0371000Y0101986D01*
X0370941Y0101995D01*
X0370880Y0102000D01*
X0370820Y0102002D01*
X0366820Y0094002D02*
X0366820Y0093502D01*
X0366820Y0091502D02*
X0366820Y0091002D01*
X0399614Y0089911D02*
X0406020Y0089911D01*
X0403885Y0092046D01*
X0406020Y0094182D01*
X0399614Y0094182D01*
X0399614Y0096357D02*
X0399614Y0099560D01*
X0400682Y0100627D01*
X0402817Y0100627D01*
X0403885Y0099560D01*
X0403885Y0096357D01*
X0406020Y0096357D02*
X0399614Y0096357D01*
X0403885Y0098492D02*
X0406020Y0100627D01*
X0402817Y0087736D02*
X0400682Y0087736D01*
X0399614Y0086669D01*
X0399614Y0083466D01*
X0406020Y0083466D01*
X0403885Y0083466D02*
X0403885Y0086669D01*
X0402817Y0087736D01*
X0407087Y0081291D02*
X0407087Y0077020D01*
X0406020Y0074845D02*
X0399614Y0074845D01*
X0399614Y0070575D02*
X0406020Y0070575D01*
X0403885Y0072710D01*
X0406020Y0074845D01*
X0404952Y0068400D02*
X0406020Y0067332D01*
X0406020Y0065197D01*
X0404952Y0064129D01*
X0402817Y0065197D02*
X0401749Y0064129D01*
X0400682Y0064129D01*
X0399614Y0065197D01*
X0399614Y0067332D01*
X0400682Y0068400D01*
X0402817Y0067332D02*
X0403885Y0068400D01*
X0404952Y0068400D01*
X0402817Y0067332D02*
X0402817Y0065197D01*
X0316820Y0064002D02*
X0316820Y0081002D01*
X0316818Y0081062D01*
X0316813Y0081123D01*
X0316804Y0081182D01*
X0316791Y0081241D01*
X0316775Y0081300D01*
X0316755Y0081357D01*
X0316732Y0081412D01*
X0316705Y0081467D01*
X0316676Y0081519D01*
X0316643Y0081570D01*
X0316607Y0081619D01*
X0316569Y0081665D01*
X0316527Y0081709D01*
X0316483Y0081751D01*
X0316437Y0081789D01*
X0316388Y0081825D01*
X0316337Y0081858D01*
X0316285Y0081887D01*
X0316230Y0081914D01*
X0316175Y0081937D01*
X0316118Y0081957D01*
X0316059Y0081973D01*
X0316000Y0081986D01*
X0315941Y0081995D01*
X0315880Y0082000D01*
X0315820Y0082002D01*
X0307820Y0082002D01*
X0307760Y0082000D01*
X0307699Y0081995D01*
X0307640Y0081986D01*
X0307581Y0081973D01*
X0307522Y0081957D01*
X0307465Y0081937D01*
X0307410Y0081914D01*
X0307355Y0081887D01*
X0307303Y0081858D01*
X0307252Y0081825D01*
X0307203Y0081789D01*
X0307157Y0081751D01*
X0307113Y0081709D01*
X0307071Y0081665D01*
X0307033Y0081619D01*
X0306997Y0081570D01*
X0306964Y0081519D01*
X0306935Y0081467D01*
X0306908Y0081412D01*
X0306885Y0081357D01*
X0306865Y0081300D01*
X0306849Y0081241D01*
X0306836Y0081182D01*
X0306827Y0081123D01*
X0306822Y0081062D01*
X0306820Y0081002D01*
X0306820Y0064002D01*
X0306822Y0063942D01*
X0306827Y0063881D01*
X0306836Y0063822D01*
X0306849Y0063763D01*
X0306865Y0063704D01*
X0306885Y0063647D01*
X0306908Y0063592D01*
X0306935Y0063537D01*
X0306964Y0063485D01*
X0306997Y0063434D01*
X0307033Y0063385D01*
X0307071Y0063339D01*
X0307113Y0063295D01*
X0307157Y0063253D01*
X0307203Y0063215D01*
X0307252Y0063179D01*
X0307303Y0063146D01*
X0307355Y0063117D01*
X0307410Y0063090D01*
X0307465Y0063067D01*
X0307522Y0063047D01*
X0307581Y0063031D01*
X0307640Y0063018D01*
X0307699Y0063009D01*
X0307760Y0063004D01*
X0307820Y0063002D01*
X0315820Y0063002D01*
X0315880Y0063004D01*
X0315941Y0063009D01*
X0316000Y0063018D01*
X0316059Y0063031D01*
X0316118Y0063047D01*
X0316175Y0063067D01*
X0316230Y0063090D01*
X0316285Y0063117D01*
X0316337Y0063146D01*
X0316388Y0063179D01*
X0316437Y0063215D01*
X0316483Y0063253D01*
X0316527Y0063295D01*
X0316569Y0063339D01*
X0316607Y0063385D01*
X0316643Y0063434D01*
X0316676Y0063485D01*
X0316705Y0063537D01*
X0316732Y0063592D01*
X0316755Y0063647D01*
X0316775Y0063704D01*
X0316791Y0063763D01*
X0316804Y0063822D01*
X0316813Y0063881D01*
X0316818Y0063942D01*
X0316820Y0064002D01*
X0311820Y0071002D02*
X0311820Y0071502D01*
X0311820Y0073502D02*
X0311820Y0074002D01*
D20*
X0159280Y0100317D03*
X0108099Y0100317D03*
D21*
X0105835Y0098250D03*
X0157017Y0098250D03*
D22*
X0332482Y0056558D02*
X0334583Y0056558D01*
X0333533Y0056558D02*
X0333533Y0050252D01*
X0334583Y0050252D02*
X0332482Y0050252D01*
X0336779Y0051303D02*
X0336779Y0055507D01*
X0337830Y0056558D01*
X0339931Y0056558D01*
X0340982Y0055507D01*
X0343224Y0055507D02*
X0344275Y0056558D01*
X0346377Y0056558D01*
X0347428Y0055507D01*
X0347428Y0054456D01*
X0346377Y0053405D01*
X0347428Y0052354D01*
X0347428Y0051303D01*
X0346377Y0050252D01*
X0344275Y0050252D01*
X0343224Y0051303D01*
X0340982Y0051303D02*
X0339931Y0050252D01*
X0337830Y0050252D01*
X0336779Y0051303D01*
X0345326Y0053405D02*
X0346377Y0053405D01*
D23*
X0366820Y0072002D02*
X0366820Y0073002D01*
X0311820Y0092002D02*
X0311820Y0093002D01*
X0294820Y0097502D02*
X0293820Y0097502D01*
X0293820Y0087502D02*
X0294820Y0087502D01*
X0294820Y0077502D02*
X0293820Y0077502D01*
X0311820Y0112002D02*
X0311820Y0113002D01*
D24*
X0384320Y0115002D02*
X0386820Y0112502D01*
X0391820Y0112502D01*
X0394320Y0115002D01*
X0394320Y0120002D01*
X0391820Y0122502D01*
X0394320Y0125002D01*
X0394320Y0130002D01*
X0391820Y0132502D01*
X0394320Y0135002D01*
X0394320Y0140002D01*
X0391820Y0142502D01*
X0394320Y0145002D01*
X0394320Y0150002D01*
X0391820Y0152502D01*
X0394320Y0155002D01*
X0394320Y0160002D01*
X0391820Y0162502D01*
X0394320Y0165002D01*
X0394320Y0170002D01*
X0391820Y0172502D01*
X0386820Y0172502D01*
X0384320Y0170002D01*
X0384320Y0165002D01*
X0386820Y0162502D01*
X0384320Y0160002D01*
X0384320Y0155002D01*
X0386820Y0152502D01*
X0384320Y0150002D01*
X0384320Y0145002D01*
X0386820Y0142502D01*
X0384320Y0140002D01*
X0384320Y0135002D01*
X0386820Y0132502D01*
X0384320Y0130002D01*
X0384320Y0125002D01*
X0386820Y0122502D01*
X0384320Y0120002D01*
X0384320Y0115002D01*
X0390320Y0184550D02*
X0390320Y0186130D01*
X0395820Y0186756D02*
X0395820Y0203248D01*
X0390320Y0203875D02*
X0390320Y0205455D01*
X0390320Y0196130D02*
X0390320Y0193875D01*
X0326820Y0222502D02*
X0324320Y0220002D01*
X0319320Y0220002D01*
X0316820Y0222502D01*
X0314320Y0220002D01*
X0309320Y0220002D01*
X0306820Y0222502D01*
X0306820Y0227502D01*
X0309320Y0230002D01*
X0314320Y0230002D01*
X0316820Y0227502D01*
X0319320Y0230002D01*
X0324320Y0230002D01*
X0326820Y0227502D01*
X0326820Y0222502D01*
X0311454Y0037620D02*
X0297450Y0037620D01*
X0297450Y0001400D01*
X0318442Y0001400D01*
X0318442Y0005219D01*
X0324265Y0005219D01*
X0324265Y0001400D01*
X0334406Y0001400D01*
X0349233Y0001400D01*
X0381190Y0001400D01*
X0381190Y0037620D01*
X0367237Y0037620D01*
X0349233Y0029215D02*
X0349233Y0001400D01*
X0356820Y0001912D02*
X0361839Y0012050D01*
X0366859Y0001912D01*
X0356820Y0001912D01*
X0356985Y0002246D02*
X0366693Y0002246D01*
X0366298Y0003045D02*
X0357381Y0003045D01*
X0357776Y0003843D02*
X0365903Y0003843D01*
X0365507Y0004642D02*
X0358171Y0004642D01*
X0358567Y0005440D02*
X0365112Y0005440D01*
X0364717Y0006239D02*
X0358962Y0006239D01*
X0359358Y0007037D02*
X0364321Y0007037D01*
X0363926Y0007836D02*
X0359753Y0007836D01*
X0360148Y0008634D02*
X0363530Y0008634D01*
X0363135Y0009433D02*
X0360544Y0009433D01*
X0360939Y0010231D02*
X0362740Y0010231D01*
X0362344Y0011030D02*
X0361334Y0011030D01*
X0361730Y0011828D02*
X0361949Y0011828D01*
X0349233Y0029215D02*
X0334406Y0029215D01*
X0334406Y0001400D01*
X0324265Y0001400D02*
X0318442Y0001400D01*
D25*
X0378955Y0191763D02*
X0379643Y0191975D01*
X0379643Y0191974D02*
X0379719Y0191739D01*
X0379802Y0191505D01*
X0379890Y0191273D01*
X0379984Y0191044D01*
X0380084Y0190817D01*
X0380189Y0190593D01*
X0380299Y0190371D01*
X0380415Y0190152D01*
X0380537Y0189935D01*
X0380663Y0189722D01*
X0380795Y0189512D01*
X0380931Y0189305D01*
X0381073Y0189102D01*
X0381220Y0188902D01*
X0381371Y0188706D01*
X0381528Y0188514D01*
X0381689Y0188325D01*
X0381854Y0188141D01*
X0382024Y0187960D01*
X0382198Y0187784D01*
X0382377Y0187612D01*
X0382559Y0187445D01*
X0382746Y0187282D01*
X0382937Y0187123D01*
X0383131Y0186970D01*
X0383330Y0186821D01*
X0383531Y0186677D01*
X0383737Y0186538D01*
X0383945Y0186404D01*
X0384157Y0186275D01*
X0384372Y0186151D01*
X0384590Y0186033D01*
X0384810Y0185920D01*
X0385034Y0185813D01*
X0385259Y0185711D01*
X0385488Y0185614D01*
X0385718Y0185523D01*
X0385951Y0185438D01*
X0386186Y0185359D01*
X0386423Y0185285D01*
X0386661Y0185217D01*
X0386901Y0185155D01*
X0387142Y0185099D01*
X0387385Y0185048D01*
X0387629Y0185004D01*
X0387874Y0184966D01*
X0388120Y0184933D01*
X0388366Y0184907D01*
X0388613Y0184887D01*
X0388860Y0184872D01*
X0389108Y0184864D01*
X0389356Y0184862D01*
X0389604Y0184866D01*
X0389852Y0184876D01*
X0390099Y0184892D01*
X0390346Y0184914D01*
X0390592Y0184942D01*
X0390838Y0184976D01*
X0391082Y0185016D01*
X0391326Y0185062D01*
X0391568Y0185114D01*
X0391809Y0185172D01*
X0392049Y0185236D01*
X0392286Y0185306D01*
X0392523Y0185381D01*
X0392757Y0185462D01*
X0392989Y0185549D01*
X0393219Y0185642D01*
X0393447Y0185740D01*
X0393672Y0185843D01*
X0393894Y0185952D01*
X0394114Y0186067D01*
X0394331Y0186187D01*
X0394545Y0186312D01*
X0394756Y0186442D01*
X0394963Y0186578D01*
X0395168Y0186718D01*
X0395368Y0186863D01*
X0395566Y0187014D01*
X0396011Y0186449D01*
X0396011Y0186448D01*
X0395800Y0186287D01*
X0395585Y0186131D01*
X0395366Y0185981D01*
X0395144Y0185836D01*
X0394918Y0185696D01*
X0394689Y0185562D01*
X0394457Y0185434D01*
X0394221Y0185311D01*
X0393983Y0185194D01*
X0393741Y0185083D01*
X0393498Y0184978D01*
X0393251Y0184879D01*
X0393003Y0184785D01*
X0392752Y0184698D01*
X0392499Y0184618D01*
X0392244Y0184543D01*
X0391987Y0184475D01*
X0391729Y0184413D01*
X0391470Y0184357D01*
X0391209Y0184307D01*
X0390947Y0184265D01*
X0390684Y0184228D01*
X0390420Y0184198D01*
X0390155Y0184174D01*
X0389890Y0184157D01*
X0389625Y0184146D01*
X0389360Y0184142D01*
X0389094Y0184144D01*
X0388829Y0184153D01*
X0388563Y0184168D01*
X0388299Y0184190D01*
X0388035Y0184218D01*
X0387772Y0184253D01*
X0387509Y0184294D01*
X0387248Y0184342D01*
X0386988Y0184395D01*
X0386729Y0184456D01*
X0386472Y0184522D01*
X0386217Y0184595D01*
X0385963Y0184674D01*
X0385712Y0184759D01*
X0385462Y0184850D01*
X0385215Y0184948D01*
X0384971Y0185051D01*
X0384729Y0185160D01*
X0384490Y0185275D01*
X0384253Y0185396D01*
X0384020Y0185523D01*
X0383790Y0185656D01*
X0383563Y0185794D01*
X0383339Y0185937D01*
X0383120Y0186086D01*
X0382903Y0186240D01*
X0382691Y0186400D01*
X0382483Y0186564D01*
X0382279Y0186734D01*
X0382079Y0186909D01*
X0381883Y0187088D01*
X0381692Y0187272D01*
X0381505Y0187461D01*
X0381323Y0187655D01*
X0381146Y0187852D01*
X0380973Y0188054D01*
X0380806Y0188260D01*
X0380644Y0188471D01*
X0380486Y0188685D01*
X0380335Y0188903D01*
X0380188Y0189124D01*
X0380047Y0189349D01*
X0379912Y0189577D01*
X0379782Y0189809D01*
X0379658Y0190044D01*
X0379540Y0190282D01*
X0379427Y0190522D01*
X0379320Y0190765D01*
X0379220Y0191011D01*
X0379125Y0191259D01*
X0379037Y0191510D01*
X0378955Y0191762D01*
X0379026Y0191784D01*
X0379108Y0191533D01*
X0379196Y0191285D01*
X0379290Y0191038D01*
X0379390Y0190794D01*
X0379495Y0190553D01*
X0379607Y0190314D01*
X0379725Y0190078D01*
X0379848Y0189845D01*
X0379977Y0189615D01*
X0380111Y0189388D01*
X0380251Y0189164D01*
X0380397Y0188945D01*
X0380548Y0188728D01*
X0380704Y0188516D01*
X0380865Y0188307D01*
X0381031Y0188102D01*
X0381202Y0187902D01*
X0381378Y0187705D01*
X0381559Y0187513D01*
X0381744Y0187326D01*
X0381934Y0187143D01*
X0382129Y0186965D01*
X0382327Y0186791D01*
X0382530Y0186623D01*
X0382737Y0186459D01*
X0382948Y0186301D01*
X0383162Y0186148D01*
X0383381Y0186000D01*
X0383603Y0185857D01*
X0383828Y0185720D01*
X0384057Y0185589D01*
X0384288Y0185463D01*
X0384523Y0185343D01*
X0384761Y0185228D01*
X0385001Y0185120D01*
X0385244Y0185017D01*
X0385489Y0184920D01*
X0385737Y0184830D01*
X0385986Y0184745D01*
X0386238Y0184667D01*
X0386492Y0184594D01*
X0386747Y0184528D01*
X0387004Y0184469D01*
X0387262Y0184415D01*
X0387522Y0184368D01*
X0387782Y0184327D01*
X0388044Y0184293D01*
X0388306Y0184265D01*
X0388569Y0184243D01*
X0388832Y0184228D01*
X0389095Y0184219D01*
X0389359Y0184217D01*
X0389623Y0184221D01*
X0389886Y0184232D01*
X0390149Y0184249D01*
X0390412Y0184272D01*
X0390674Y0184302D01*
X0390935Y0184339D01*
X0391195Y0184381D01*
X0391455Y0184430D01*
X0391712Y0184486D01*
X0391969Y0184547D01*
X0392224Y0184615D01*
X0392477Y0184689D01*
X0392728Y0184770D01*
X0392977Y0184856D01*
X0393224Y0184948D01*
X0393469Y0185047D01*
X0393711Y0185151D01*
X0393950Y0185262D01*
X0394187Y0185378D01*
X0394421Y0185500D01*
X0394652Y0185627D01*
X0394879Y0185760D01*
X0395104Y0185899D01*
X0395324Y0186043D01*
X0395542Y0186192D01*
X0395755Y0186347D01*
X0395965Y0186507D01*
X0395918Y0186566D01*
X0395710Y0186407D01*
X0395498Y0186254D01*
X0395282Y0186105D01*
X0395063Y0185962D01*
X0394840Y0185824D01*
X0394614Y0185692D01*
X0394385Y0185565D01*
X0394153Y0185444D01*
X0393918Y0185329D01*
X0393680Y0185220D01*
X0393440Y0185116D01*
X0393197Y0185018D01*
X0392951Y0184926D01*
X0392704Y0184841D01*
X0392455Y0184761D01*
X0392203Y0184687D01*
X0391950Y0184620D01*
X0391696Y0184559D01*
X0391440Y0184504D01*
X0391182Y0184455D01*
X0390924Y0184413D01*
X0390665Y0184377D01*
X0390404Y0184347D01*
X0390144Y0184324D01*
X0389882Y0184307D01*
X0389621Y0184296D01*
X0389359Y0184292D01*
X0389097Y0184294D01*
X0388835Y0184303D01*
X0388574Y0184318D01*
X0388313Y0184339D01*
X0388052Y0184367D01*
X0387793Y0184401D01*
X0387534Y0184442D01*
X0387276Y0184489D01*
X0387020Y0184542D01*
X0386765Y0184601D01*
X0386512Y0184667D01*
X0386260Y0184739D01*
X0386010Y0184816D01*
X0385762Y0184900D01*
X0385516Y0184990D01*
X0385272Y0185086D01*
X0385031Y0185188D01*
X0384792Y0185296D01*
X0384556Y0185410D01*
X0384323Y0185529D01*
X0384093Y0185654D01*
X0383866Y0185785D01*
X0383642Y0185921D01*
X0383422Y0186062D01*
X0383205Y0186209D01*
X0382992Y0186361D01*
X0382783Y0186518D01*
X0382577Y0186681D01*
X0382376Y0186848D01*
X0382179Y0187020D01*
X0381986Y0187197D01*
X0381797Y0187379D01*
X0381613Y0187565D01*
X0381433Y0187756D01*
X0381259Y0187951D01*
X0381089Y0188150D01*
X0380924Y0188353D01*
X0380764Y0188561D01*
X0380609Y0188772D01*
X0380459Y0188986D01*
X0380315Y0189205D01*
X0380176Y0189427D01*
X0380042Y0189652D01*
X0379914Y0189880D01*
X0379792Y0190112D01*
X0379675Y0190346D01*
X0379564Y0190584D01*
X0379459Y0190823D01*
X0379360Y0191066D01*
X0379266Y0191310D01*
X0379179Y0191557D01*
X0379098Y0191806D01*
X0379170Y0191828D01*
X0379250Y0191581D01*
X0379337Y0191336D01*
X0379429Y0191093D01*
X0379528Y0190852D01*
X0379632Y0190614D01*
X0379742Y0190379D01*
X0379858Y0190146D01*
X0379980Y0189916D01*
X0380107Y0189689D01*
X0380240Y0189466D01*
X0380378Y0189245D01*
X0380521Y0189028D01*
X0380670Y0188815D01*
X0380824Y0188606D01*
X0380983Y0188400D01*
X0381146Y0188198D01*
X0381315Y0188000D01*
X0381489Y0187806D01*
X0381667Y0187617D01*
X0381850Y0187432D01*
X0382037Y0187252D01*
X0382229Y0187076D01*
X0382425Y0186905D01*
X0382625Y0186739D01*
X0382829Y0186578D01*
X0383037Y0186422D01*
X0383248Y0186271D01*
X0383464Y0186125D01*
X0383682Y0185984D01*
X0383904Y0185849D01*
X0384130Y0185719D01*
X0384358Y0185595D01*
X0384590Y0185477D01*
X0384824Y0185364D01*
X0385061Y0185257D01*
X0385301Y0185156D01*
X0385542Y0185061D01*
X0385787Y0184971D01*
X0386033Y0184888D01*
X0386281Y0184810D01*
X0386531Y0184739D01*
X0386783Y0184674D01*
X0387036Y0184615D01*
X0387291Y0184562D01*
X0387547Y0184516D01*
X0387803Y0184476D01*
X0388061Y0184442D01*
X0388320Y0184414D01*
X0388579Y0184393D01*
X0388839Y0184378D01*
X0389098Y0184369D01*
X0389358Y0184367D01*
X0389618Y0184371D01*
X0389878Y0184382D01*
X0390138Y0184398D01*
X0390397Y0184422D01*
X0390655Y0184451D01*
X0390913Y0184487D01*
X0391169Y0184529D01*
X0391425Y0184577D01*
X0391679Y0184632D01*
X0391932Y0184693D01*
X0392183Y0184760D01*
X0392432Y0184833D01*
X0392680Y0184912D01*
X0392926Y0184997D01*
X0393169Y0185088D01*
X0393411Y0185185D01*
X0393649Y0185288D01*
X0393885Y0185397D01*
X0394119Y0185511D01*
X0394350Y0185631D01*
X0394577Y0185757D01*
X0394802Y0185889D01*
X0395023Y0186025D01*
X0395240Y0186167D01*
X0395455Y0186315D01*
X0395665Y0186467D01*
X0395872Y0186625D01*
X0395826Y0186684D01*
X0395620Y0186527D01*
X0395411Y0186376D01*
X0395198Y0186229D01*
X0394982Y0186088D01*
X0394763Y0185953D01*
X0394540Y0185822D01*
X0394314Y0185697D01*
X0394085Y0185578D01*
X0393853Y0185464D01*
X0393619Y0185356D01*
X0393382Y0185254D01*
X0393142Y0185158D01*
X0392900Y0185067D01*
X0392656Y0184983D01*
X0392410Y0184904D01*
X0392163Y0184832D01*
X0391913Y0184765D01*
X0391662Y0184705D01*
X0391410Y0184651D01*
X0391156Y0184603D01*
X0390901Y0184561D01*
X0390645Y0184526D01*
X0390389Y0184496D01*
X0390132Y0184473D01*
X0389874Y0184457D01*
X0389616Y0184446D01*
X0389358Y0184442D01*
X0389100Y0184444D01*
X0388842Y0184453D01*
X0388584Y0184468D01*
X0388327Y0184489D01*
X0388070Y0184516D01*
X0387814Y0184550D01*
X0387559Y0184590D01*
X0387305Y0184636D01*
X0387052Y0184688D01*
X0386801Y0184747D01*
X0386551Y0184812D01*
X0386303Y0184882D01*
X0386056Y0184959D01*
X0385812Y0185042D01*
X0385569Y0185131D01*
X0385329Y0185225D01*
X0385091Y0185326D01*
X0384856Y0185432D01*
X0384623Y0185544D01*
X0384393Y0185662D01*
X0384166Y0185785D01*
X0383943Y0185914D01*
X0383722Y0186048D01*
X0383505Y0186187D01*
X0383291Y0186332D01*
X0383081Y0186482D01*
X0382875Y0186637D01*
X0382672Y0186797D01*
X0382473Y0186962D01*
X0382279Y0187132D01*
X0382089Y0187306D01*
X0381903Y0187486D01*
X0381721Y0187669D01*
X0381544Y0187857D01*
X0381372Y0188049D01*
X0381204Y0188246D01*
X0381041Y0188446D01*
X0380884Y0188650D01*
X0380731Y0188859D01*
X0380583Y0189070D01*
X0380441Y0189286D01*
X0380304Y0189505D01*
X0380172Y0189727D01*
X0380046Y0189952D01*
X0379925Y0190180D01*
X0379810Y0190411D01*
X0379701Y0190645D01*
X0379597Y0190881D01*
X0379499Y0191120D01*
X0379407Y0191362D01*
X0379321Y0191605D01*
X0379241Y0191850D01*
X0379313Y0191873D01*
X0379392Y0191629D01*
X0379478Y0191387D01*
X0379569Y0191148D01*
X0379666Y0190910D01*
X0379769Y0190676D01*
X0379878Y0190444D01*
X0379992Y0190214D01*
X0380112Y0189987D01*
X0380237Y0189764D01*
X0380368Y0189543D01*
X0380504Y0189326D01*
X0380645Y0189112D01*
X0380792Y0188902D01*
X0380944Y0188695D01*
X0381100Y0188493D01*
X0381262Y0188294D01*
X0381428Y0188099D01*
X0381599Y0187908D01*
X0381775Y0187721D01*
X0381955Y0187539D01*
X0382140Y0187361D01*
X0382329Y0187188D01*
X0382522Y0187019D01*
X0382719Y0186855D01*
X0382920Y0186697D01*
X0383125Y0186543D01*
X0383334Y0186394D01*
X0383546Y0186250D01*
X0383762Y0186111D01*
X0383981Y0185978D01*
X0384203Y0185850D01*
X0384428Y0185728D01*
X0384657Y0185611D01*
X0384888Y0185500D01*
X0385121Y0185394D01*
X0385357Y0185295D01*
X0385596Y0185201D01*
X0385836Y0185113D01*
X0386079Y0185030D01*
X0386324Y0184954D01*
X0386570Y0184884D01*
X0386819Y0184820D01*
X0387068Y0184762D01*
X0387319Y0184710D01*
X0387572Y0184664D01*
X0387825Y0184624D01*
X0388079Y0184591D01*
X0388334Y0184563D01*
X0388589Y0184542D01*
X0388845Y0184528D01*
X0389101Y0184519D01*
X0389358Y0184517D01*
X0389614Y0184521D01*
X0389870Y0184531D01*
X0390126Y0184548D01*
X0390381Y0184571D01*
X0390636Y0184600D01*
X0390890Y0184635D01*
X0391143Y0184677D01*
X0391395Y0184724D01*
X0391645Y0184778D01*
X0391895Y0184838D01*
X0392142Y0184904D01*
X0392388Y0184976D01*
X0392632Y0185054D01*
X0392875Y0185138D01*
X0393115Y0185228D01*
X0393352Y0185323D01*
X0393588Y0185425D01*
X0393821Y0185532D01*
X0394051Y0185645D01*
X0394278Y0185763D01*
X0394503Y0185887D01*
X0394724Y0186017D01*
X0394942Y0186152D01*
X0395157Y0186292D01*
X0395368Y0186437D01*
X0395575Y0186587D01*
X0395779Y0186743D01*
X0395733Y0186802D01*
X0395530Y0186647D01*
X0395324Y0186498D01*
X0395115Y0186354D01*
X0394901Y0186215D01*
X0394685Y0186081D01*
X0394465Y0185952D01*
X0394243Y0185829D01*
X0394017Y0185712D01*
X0393788Y0185600D01*
X0393557Y0185493D01*
X0393323Y0185393D01*
X0393087Y0185298D01*
X0392849Y0185208D01*
X0392609Y0185125D01*
X0392366Y0185048D01*
X0392122Y0184976D01*
X0391876Y0184911D01*
X0391628Y0184851D01*
X0391380Y0184798D01*
X0391130Y0184750D01*
X0390878Y0184709D01*
X0390626Y0184674D01*
X0390374Y0184645D01*
X0390120Y0184623D01*
X0389866Y0184606D01*
X0389612Y0184596D01*
X0389357Y0184592D01*
X0389103Y0184594D01*
X0388849Y0184603D01*
X0388594Y0184617D01*
X0388341Y0184638D01*
X0388088Y0184665D01*
X0387835Y0184698D01*
X0387584Y0184738D01*
X0387334Y0184783D01*
X0387084Y0184835D01*
X0386837Y0184893D01*
X0386590Y0184956D01*
X0386345Y0185026D01*
X0386102Y0185102D01*
X0385861Y0185183D01*
X0385622Y0185271D01*
X0385386Y0185364D01*
X0385151Y0185463D01*
X0384919Y0185568D01*
X0384690Y0185678D01*
X0384463Y0185794D01*
X0384240Y0185916D01*
X0384019Y0186043D01*
X0383802Y0186175D01*
X0383588Y0186312D01*
X0383377Y0186455D01*
X0383170Y0186603D01*
X0382966Y0186756D01*
X0382767Y0186914D01*
X0382571Y0187076D01*
X0382379Y0187244D01*
X0382192Y0187416D01*
X0382008Y0187592D01*
X0381829Y0187773D01*
X0381655Y0187958D01*
X0381485Y0188148D01*
X0381320Y0188341D01*
X0381159Y0188539D01*
X0381004Y0188740D01*
X0380853Y0188946D01*
X0380708Y0189154D01*
X0380567Y0189367D01*
X0380432Y0189582D01*
X0380302Y0189801D01*
X0380178Y0190023D01*
X0380059Y0190248D01*
X0379945Y0190476D01*
X0379838Y0190706D01*
X0379735Y0190940D01*
X0379639Y0191175D01*
X0379548Y0191413D01*
X0379463Y0191653D01*
X0379385Y0191895D01*
X0379456Y0191917D01*
X0379535Y0191677D01*
X0379619Y0191438D01*
X0379709Y0191202D01*
X0379805Y0190969D01*
X0379906Y0190737D01*
X0380013Y0190508D01*
X0380126Y0190282D01*
X0380244Y0190059D01*
X0380367Y0189838D01*
X0380496Y0189621D01*
X0380630Y0189407D01*
X0380770Y0189196D01*
X0380914Y0188989D01*
X0381064Y0188785D01*
X0381218Y0188585D01*
X0381377Y0188389D01*
X0381541Y0188197D01*
X0381710Y0188009D01*
X0381883Y0187825D01*
X0382061Y0187645D01*
X0382243Y0187470D01*
X0382429Y0187299D01*
X0382620Y0187133D01*
X0382814Y0186972D01*
X0383012Y0186815D01*
X0383214Y0186663D01*
X0383420Y0186517D01*
X0383629Y0186375D01*
X0383842Y0186238D01*
X0384057Y0186107D01*
X0384276Y0185981D01*
X0384498Y0185861D01*
X0384723Y0185745D01*
X0384951Y0185636D01*
X0385181Y0185532D01*
X0385414Y0185434D01*
X0385649Y0185341D01*
X0385886Y0185254D01*
X0386126Y0185173D01*
X0386367Y0185098D01*
X0386610Y0185029D01*
X0386854Y0184965D01*
X0387100Y0184908D01*
X0387348Y0184857D01*
X0387596Y0184812D01*
X0387846Y0184773D01*
X0388097Y0184740D01*
X0388348Y0184713D01*
X0388600Y0184692D01*
X0388852Y0184678D01*
X0389104Y0184669D01*
X0389357Y0184667D01*
X0389610Y0184671D01*
X0389862Y0184681D01*
X0390114Y0184698D01*
X0390366Y0184720D01*
X0390617Y0184749D01*
X0390867Y0184783D01*
X0391116Y0184824D01*
X0391365Y0184871D01*
X0391612Y0184924D01*
X0391857Y0184983D01*
X0392102Y0185048D01*
X0392344Y0185119D01*
X0392585Y0185196D01*
X0392823Y0185279D01*
X0393060Y0185367D01*
X0393294Y0185462D01*
X0393526Y0185562D01*
X0393756Y0185667D01*
X0393983Y0185779D01*
X0394207Y0185895D01*
X0394428Y0186018D01*
X0394646Y0186145D01*
X0394861Y0186278D01*
X0395073Y0186416D01*
X0395281Y0186559D01*
X0395485Y0186707D01*
X0395686Y0186861D01*
X0395640Y0186919D01*
X0395440Y0186767D01*
X0395237Y0186620D01*
X0395031Y0186478D01*
X0394821Y0186341D01*
X0394607Y0186209D01*
X0394391Y0186083D01*
X0394171Y0185961D01*
X0393949Y0185845D01*
X0393724Y0185735D01*
X0393496Y0185630D01*
X0393265Y0185531D01*
X0393033Y0185437D01*
X0392798Y0185349D01*
X0392561Y0185267D01*
X0392322Y0185191D01*
X0392081Y0185121D01*
X0391839Y0185056D01*
X0391595Y0184997D01*
X0391350Y0184945D01*
X0391103Y0184898D01*
X0390856Y0184858D01*
X0390607Y0184823D01*
X0390358Y0184795D01*
X0390108Y0184772D01*
X0389858Y0184756D01*
X0389607Y0184746D01*
X0389357Y0184742D01*
X0389106Y0184744D01*
X0388855Y0184753D01*
X0388605Y0184767D01*
X0388355Y0184788D01*
X0388105Y0184814D01*
X0387857Y0184847D01*
X0387609Y0184886D01*
X0387362Y0184931D01*
X0387117Y0184981D01*
X0386872Y0185038D01*
X0386629Y0185101D01*
X0386388Y0185170D01*
X0386149Y0185244D01*
X0385911Y0185325D01*
X0385676Y0185411D01*
X0385442Y0185503D01*
X0385211Y0185601D01*
X0384983Y0185704D01*
X0384757Y0185813D01*
X0384533Y0185927D01*
X0384313Y0186047D01*
X0384096Y0186172D01*
X0383881Y0186302D01*
X0383670Y0186438D01*
X0383463Y0186578D01*
X0383259Y0186724D01*
X0383058Y0186875D01*
X0382861Y0187030D01*
X0382668Y0187190D01*
X0382479Y0187355D01*
X0382294Y0187525D01*
X0382114Y0187699D01*
X0381937Y0187877D01*
X0381765Y0188060D01*
X0381598Y0188246D01*
X0381435Y0188437D01*
X0381277Y0188632D01*
X0381124Y0188830D01*
X0380975Y0189033D01*
X0380832Y0189238D01*
X0380694Y0189447D01*
X0380560Y0189660D01*
X0380432Y0189876D01*
X0380310Y0190094D01*
X0380193Y0190316D01*
X0380081Y0190541D01*
X0379974Y0190768D01*
X0379874Y0190998D01*
X0379779Y0191230D01*
X0379689Y0191464D01*
X0379606Y0191701D01*
X0379528Y0191939D01*
X0379600Y0191961D01*
X0379677Y0191724D01*
X0379760Y0191490D01*
X0379849Y0191257D01*
X0379943Y0191027D01*
X0380043Y0190799D01*
X0380148Y0190573D01*
X0380259Y0190350D01*
X0380376Y0190130D01*
X0380498Y0189913D01*
X0380625Y0189699D01*
X0380757Y0189488D01*
X0380894Y0189280D01*
X0381036Y0189076D01*
X0381184Y0188875D01*
X0381336Y0188678D01*
X0381493Y0188485D01*
X0381655Y0188296D01*
X0381821Y0188110D01*
X0381991Y0187929D01*
X0382167Y0187752D01*
X0382346Y0187579D01*
X0382529Y0187411D01*
X0382717Y0187247D01*
X0382909Y0187088D01*
X0383104Y0186934D01*
X0383303Y0186784D01*
X0383506Y0186640D01*
X0383712Y0186500D01*
X0383921Y0186366D01*
X0384134Y0186236D01*
X0384350Y0186112D01*
X0384569Y0185993D01*
X0384790Y0185880D01*
X0385014Y0185772D01*
X0385241Y0185669D01*
X0385471Y0185572D01*
X0385702Y0185481D01*
X0385936Y0185396D01*
X0386172Y0185316D01*
X0386410Y0185242D01*
X0386649Y0185173D01*
X0386890Y0185111D01*
X0387133Y0185055D01*
X0387376Y0185004D01*
X0387621Y0184960D01*
X0387867Y0184921D01*
X0388114Y0184889D01*
X0388362Y0184862D01*
X0388610Y0184842D01*
X0388858Y0184827D01*
X0389107Y0184819D01*
X0389356Y0184817D01*
X0389605Y0184821D01*
X0389854Y0184831D01*
X0390102Y0184847D01*
X0390350Y0184869D01*
X0390598Y0184897D01*
X0390844Y0184932D01*
X0391090Y0184972D01*
X0391335Y0185018D01*
X0391578Y0185070D01*
X0391820Y0185129D01*
X0392061Y0185193D01*
X0392300Y0185263D01*
X0392537Y0185338D01*
X0392772Y0185420D01*
X0393005Y0185507D01*
X0393236Y0185600D01*
X0393465Y0185699D01*
X0393691Y0185803D01*
X0393915Y0185912D01*
X0394135Y0186027D01*
X0394353Y0186148D01*
X0394568Y0186273D01*
X0394780Y0186404D01*
X0394989Y0186540D01*
X0395194Y0186681D01*
X0395395Y0186827D01*
X0395593Y0186978D01*
X0396011Y0203555D02*
X0395565Y0202990D01*
X0395566Y0202990D02*
X0395369Y0203140D01*
X0395168Y0203286D01*
X0394964Y0203426D01*
X0394756Y0203562D01*
X0394545Y0203692D01*
X0394331Y0203817D01*
X0394114Y0203937D01*
X0393894Y0204052D01*
X0393672Y0204161D01*
X0393447Y0204264D01*
X0393219Y0204362D01*
X0392989Y0204455D01*
X0392757Y0204542D01*
X0392523Y0204623D01*
X0392287Y0204698D01*
X0392049Y0204768D01*
X0391809Y0204832D01*
X0391568Y0204890D01*
X0391326Y0204942D01*
X0391082Y0204988D01*
X0390838Y0205028D01*
X0390592Y0205062D01*
X0390346Y0205090D01*
X0390099Y0205112D01*
X0389852Y0205128D01*
X0389604Y0205138D01*
X0389356Y0205142D01*
X0389108Y0205140D01*
X0388861Y0205132D01*
X0388613Y0205117D01*
X0388366Y0205097D01*
X0388120Y0205071D01*
X0387874Y0205038D01*
X0387629Y0205000D01*
X0387385Y0204956D01*
X0387142Y0204905D01*
X0386901Y0204849D01*
X0386661Y0204787D01*
X0386423Y0204719D01*
X0386186Y0204646D01*
X0385951Y0204566D01*
X0385718Y0204481D01*
X0385488Y0204390D01*
X0385260Y0204294D01*
X0385034Y0204191D01*
X0384810Y0204084D01*
X0384590Y0203971D01*
X0384372Y0203853D01*
X0384157Y0203729D01*
X0383945Y0203600D01*
X0383737Y0203466D01*
X0383531Y0203327D01*
X0383330Y0203183D01*
X0383132Y0203035D01*
X0382937Y0202881D01*
X0382746Y0202723D01*
X0382560Y0202560D01*
X0382377Y0202392D01*
X0382198Y0202220D01*
X0382024Y0202044D01*
X0381854Y0201863D01*
X0381689Y0201679D01*
X0381528Y0201490D01*
X0381371Y0201298D01*
X0381220Y0201102D01*
X0381073Y0200902D01*
X0380931Y0200699D01*
X0380795Y0200492D01*
X0380663Y0200282D01*
X0380537Y0200069D01*
X0380415Y0199853D01*
X0380300Y0199633D01*
X0380189Y0199412D01*
X0380084Y0199187D01*
X0379984Y0198960D01*
X0379890Y0198731D01*
X0379802Y0198499D01*
X0379719Y0198265D01*
X0379643Y0198030D01*
X0378955Y0198242D01*
X0379037Y0198495D01*
X0379125Y0198745D01*
X0379220Y0198993D01*
X0379321Y0199239D01*
X0379427Y0199482D01*
X0379540Y0199723D01*
X0379658Y0199960D01*
X0379782Y0200195D01*
X0379912Y0200427D01*
X0380047Y0200655D01*
X0380188Y0200880D01*
X0380335Y0201102D01*
X0380487Y0201319D01*
X0380644Y0201533D01*
X0380806Y0201744D01*
X0380973Y0201950D01*
X0381146Y0202152D01*
X0381323Y0202350D01*
X0381505Y0202543D01*
X0381692Y0202732D01*
X0381883Y0202916D01*
X0382079Y0203095D01*
X0382279Y0203270D01*
X0382483Y0203440D01*
X0382691Y0203604D01*
X0382904Y0203764D01*
X0383120Y0203918D01*
X0383340Y0204067D01*
X0383563Y0204210D01*
X0383790Y0204348D01*
X0384020Y0204481D01*
X0384253Y0204608D01*
X0384490Y0204729D01*
X0384729Y0204844D01*
X0384971Y0204953D01*
X0385216Y0205057D01*
X0385463Y0205154D01*
X0385712Y0205245D01*
X0385963Y0205330D01*
X0386217Y0205409D01*
X0386472Y0205482D01*
X0386729Y0205548D01*
X0386988Y0205609D01*
X0387248Y0205663D01*
X0387509Y0205710D01*
X0387772Y0205751D01*
X0388035Y0205786D01*
X0388299Y0205814D01*
X0388564Y0205836D01*
X0388829Y0205851D01*
X0389094Y0205860D01*
X0389360Y0205862D01*
X0389625Y0205858D01*
X0389891Y0205847D01*
X0390155Y0205830D01*
X0390420Y0205806D01*
X0390684Y0205776D01*
X0390947Y0205739D01*
X0391209Y0205696D01*
X0391470Y0205647D01*
X0391729Y0205591D01*
X0391988Y0205529D01*
X0392244Y0205461D01*
X0392499Y0205386D01*
X0392752Y0205305D01*
X0393003Y0205218D01*
X0393251Y0205125D01*
X0393498Y0205026D01*
X0393742Y0204921D01*
X0393983Y0204810D01*
X0394221Y0204693D01*
X0394457Y0204570D01*
X0394689Y0204442D01*
X0394918Y0204308D01*
X0395144Y0204168D01*
X0395367Y0204023D01*
X0395585Y0203872D01*
X0395800Y0203717D01*
X0396011Y0203556D01*
X0395965Y0203497D01*
X0395755Y0203657D01*
X0395542Y0203811D01*
X0395325Y0203961D01*
X0395104Y0204105D01*
X0394879Y0204244D01*
X0394652Y0204377D01*
X0394421Y0204504D01*
X0394187Y0204626D01*
X0393950Y0204742D01*
X0393711Y0204853D01*
X0393469Y0204957D01*
X0393224Y0205056D01*
X0392977Y0205148D01*
X0392728Y0205234D01*
X0392477Y0205315D01*
X0392224Y0205389D01*
X0391969Y0205457D01*
X0391713Y0205518D01*
X0391455Y0205574D01*
X0391196Y0205623D01*
X0390935Y0205665D01*
X0390674Y0205702D01*
X0390412Y0205732D01*
X0390150Y0205755D01*
X0389886Y0205772D01*
X0389623Y0205783D01*
X0389359Y0205787D01*
X0389096Y0205785D01*
X0388832Y0205776D01*
X0388569Y0205761D01*
X0388306Y0205739D01*
X0388044Y0205711D01*
X0387782Y0205677D01*
X0387522Y0205636D01*
X0387262Y0205589D01*
X0387004Y0205535D01*
X0386747Y0205476D01*
X0386492Y0205410D01*
X0386238Y0205337D01*
X0385987Y0205259D01*
X0385737Y0205174D01*
X0385489Y0205084D01*
X0385244Y0204987D01*
X0385001Y0204884D01*
X0384761Y0204776D01*
X0384523Y0204661D01*
X0384288Y0204541D01*
X0384057Y0204415D01*
X0383828Y0204284D01*
X0383603Y0204147D01*
X0383381Y0204004D01*
X0383163Y0203857D01*
X0382948Y0203703D01*
X0382737Y0203545D01*
X0382530Y0203381D01*
X0382327Y0203213D01*
X0382129Y0203040D01*
X0381934Y0202861D01*
X0381744Y0202678D01*
X0381559Y0202491D01*
X0381378Y0202299D01*
X0381202Y0202103D01*
X0381031Y0201902D01*
X0380865Y0201697D01*
X0380704Y0201489D01*
X0380548Y0201276D01*
X0380397Y0201060D01*
X0380251Y0200840D01*
X0380111Y0200616D01*
X0379977Y0200389D01*
X0379848Y0200159D01*
X0379725Y0199926D01*
X0379607Y0199690D01*
X0379496Y0199451D01*
X0379390Y0199210D01*
X0379290Y0198966D01*
X0379196Y0198719D01*
X0379108Y0198471D01*
X0379026Y0198220D01*
X0379098Y0198198D01*
X0379179Y0198447D01*
X0379266Y0198694D01*
X0379360Y0198938D01*
X0379459Y0199181D01*
X0379564Y0199421D01*
X0379675Y0199658D01*
X0379792Y0199892D01*
X0379914Y0200124D01*
X0380042Y0200352D01*
X0380176Y0200577D01*
X0380315Y0200799D01*
X0380459Y0201018D01*
X0380609Y0201232D01*
X0380764Y0201444D01*
X0380924Y0201651D01*
X0381089Y0201854D01*
X0381259Y0202053D01*
X0381434Y0202248D01*
X0381613Y0202439D01*
X0381797Y0202625D01*
X0381986Y0202807D01*
X0382179Y0202984D01*
X0382376Y0203156D01*
X0382578Y0203323D01*
X0382783Y0203486D01*
X0382992Y0203643D01*
X0383205Y0203795D01*
X0383422Y0203942D01*
X0383643Y0204083D01*
X0383866Y0204219D01*
X0384093Y0204350D01*
X0384323Y0204475D01*
X0384556Y0204594D01*
X0384792Y0204708D01*
X0385031Y0204816D01*
X0385272Y0204918D01*
X0385516Y0205014D01*
X0385762Y0205104D01*
X0386010Y0205188D01*
X0386260Y0205266D01*
X0386512Y0205337D01*
X0386765Y0205403D01*
X0387020Y0205462D01*
X0387277Y0205515D01*
X0387534Y0205562D01*
X0387793Y0205603D01*
X0388053Y0205637D01*
X0388313Y0205665D01*
X0388574Y0205686D01*
X0388835Y0205701D01*
X0389097Y0205710D01*
X0389359Y0205712D01*
X0389621Y0205708D01*
X0389882Y0205697D01*
X0390144Y0205680D01*
X0390405Y0205657D01*
X0390665Y0205627D01*
X0390924Y0205591D01*
X0391182Y0205549D01*
X0391440Y0205500D01*
X0391696Y0205445D01*
X0391950Y0205384D01*
X0392203Y0205317D01*
X0392455Y0205243D01*
X0392704Y0205163D01*
X0392952Y0205077D01*
X0393197Y0204986D01*
X0393440Y0204888D01*
X0393680Y0204784D01*
X0393918Y0204675D01*
X0394153Y0204559D01*
X0394385Y0204438D01*
X0394615Y0204312D01*
X0394841Y0204180D01*
X0395063Y0204042D01*
X0395283Y0203899D01*
X0395498Y0203750D01*
X0395710Y0203597D01*
X0395919Y0203438D01*
X0395872Y0203379D01*
X0395665Y0203537D01*
X0395455Y0203689D01*
X0395241Y0203837D01*
X0395023Y0203979D01*
X0394802Y0204115D01*
X0394577Y0204247D01*
X0394350Y0204372D01*
X0394119Y0204493D01*
X0393886Y0204607D01*
X0393649Y0204716D01*
X0393411Y0204819D01*
X0393170Y0204916D01*
X0392926Y0205007D01*
X0392680Y0205092D01*
X0392433Y0205171D01*
X0392183Y0205244D01*
X0391932Y0205311D01*
X0391679Y0205372D01*
X0391425Y0205427D01*
X0391169Y0205475D01*
X0390913Y0205517D01*
X0390655Y0205553D01*
X0390397Y0205582D01*
X0390138Y0205606D01*
X0389878Y0205622D01*
X0389619Y0205633D01*
X0389359Y0205637D01*
X0389099Y0205635D01*
X0388839Y0205626D01*
X0388579Y0205611D01*
X0388320Y0205590D01*
X0388061Y0205562D01*
X0387804Y0205528D01*
X0387547Y0205488D01*
X0387291Y0205442D01*
X0387036Y0205389D01*
X0386783Y0205330D01*
X0386531Y0205265D01*
X0386281Y0205194D01*
X0386033Y0205116D01*
X0385787Y0205033D01*
X0385543Y0204944D01*
X0385301Y0204848D01*
X0385061Y0204747D01*
X0384824Y0204640D01*
X0384590Y0204527D01*
X0384358Y0204409D01*
X0384130Y0204285D01*
X0383905Y0204155D01*
X0383682Y0204020D01*
X0383464Y0203879D01*
X0383248Y0203733D01*
X0383037Y0203582D01*
X0382829Y0203426D01*
X0382625Y0203265D01*
X0382425Y0203099D01*
X0382229Y0202928D01*
X0382037Y0202752D01*
X0381850Y0202572D01*
X0381667Y0202387D01*
X0381489Y0202198D01*
X0381315Y0202004D01*
X0381147Y0201806D01*
X0380983Y0201604D01*
X0380824Y0201399D01*
X0380670Y0201189D01*
X0380521Y0200976D01*
X0380378Y0200759D01*
X0380240Y0200538D01*
X0380107Y0200315D01*
X0379980Y0200088D01*
X0379858Y0199858D01*
X0379743Y0199625D01*
X0379632Y0199390D01*
X0379528Y0199152D01*
X0379429Y0198911D01*
X0379337Y0198668D01*
X0379250Y0198423D01*
X0379170Y0198176D01*
X0379241Y0198154D01*
X0379321Y0198399D01*
X0379407Y0198642D01*
X0379499Y0198884D01*
X0379597Y0199123D01*
X0379701Y0199359D01*
X0379810Y0199593D01*
X0379925Y0199824D01*
X0380046Y0200052D01*
X0380172Y0200278D01*
X0380304Y0200500D01*
X0380441Y0200718D01*
X0380583Y0200934D01*
X0380731Y0201145D01*
X0380884Y0201354D01*
X0381042Y0201558D01*
X0381204Y0201758D01*
X0381372Y0201955D01*
X0381544Y0202147D01*
X0381721Y0202335D01*
X0381903Y0202519D01*
X0382089Y0202698D01*
X0382279Y0202872D01*
X0382474Y0203042D01*
X0382672Y0203207D01*
X0382875Y0203367D01*
X0383081Y0203522D01*
X0383291Y0203672D01*
X0383505Y0203817D01*
X0383722Y0203956D01*
X0383943Y0204090D01*
X0384167Y0204219D01*
X0384393Y0204342D01*
X0384623Y0204460D01*
X0384856Y0204572D01*
X0385091Y0204678D01*
X0385329Y0204779D01*
X0385569Y0204873D01*
X0385812Y0204962D01*
X0386056Y0205045D01*
X0386303Y0205122D01*
X0386551Y0205192D01*
X0386801Y0205257D01*
X0387052Y0205316D01*
X0387305Y0205368D01*
X0387559Y0205414D01*
X0387814Y0205454D01*
X0388070Y0205488D01*
X0388327Y0205515D01*
X0388584Y0205536D01*
X0388842Y0205551D01*
X0389100Y0205560D01*
X0389358Y0205562D01*
X0389616Y0205558D01*
X0389874Y0205547D01*
X0390132Y0205531D01*
X0390389Y0205508D01*
X0390646Y0205478D01*
X0390901Y0205443D01*
X0391156Y0205401D01*
X0391410Y0205353D01*
X0391662Y0205299D01*
X0391913Y0205239D01*
X0392163Y0205172D01*
X0392411Y0205100D01*
X0392656Y0205021D01*
X0392900Y0204937D01*
X0393142Y0204846D01*
X0393382Y0204750D01*
X0393619Y0204647D01*
X0393853Y0204539D01*
X0394085Y0204426D01*
X0394314Y0204306D01*
X0394540Y0204182D01*
X0394763Y0204051D01*
X0394982Y0203915D01*
X0395199Y0203774D01*
X0395411Y0203628D01*
X0395620Y0203477D01*
X0395826Y0203320D01*
X0395779Y0203261D01*
X0395575Y0203417D01*
X0395368Y0203567D01*
X0395157Y0203712D01*
X0394942Y0203852D01*
X0394724Y0203987D01*
X0394503Y0204117D01*
X0394278Y0204240D01*
X0394051Y0204359D01*
X0393821Y0204472D01*
X0393588Y0204579D01*
X0393353Y0204680D01*
X0393115Y0204776D01*
X0392875Y0204866D01*
X0392633Y0204950D01*
X0392388Y0205028D01*
X0392142Y0205100D01*
X0391895Y0205166D01*
X0391645Y0205226D01*
X0391395Y0205280D01*
X0391143Y0205327D01*
X0390890Y0205369D01*
X0390636Y0205404D01*
X0390381Y0205433D01*
X0390126Y0205456D01*
X0389870Y0205473D01*
X0389614Y0205483D01*
X0389358Y0205487D01*
X0389102Y0205485D01*
X0388845Y0205476D01*
X0388589Y0205462D01*
X0388334Y0205441D01*
X0388079Y0205413D01*
X0387825Y0205380D01*
X0387572Y0205340D01*
X0387319Y0205294D01*
X0387068Y0205242D01*
X0386819Y0205184D01*
X0386571Y0205120D01*
X0386324Y0205050D01*
X0386079Y0204974D01*
X0385837Y0204891D01*
X0385596Y0204803D01*
X0385357Y0204709D01*
X0385121Y0204610D01*
X0384888Y0204504D01*
X0384657Y0204393D01*
X0384429Y0204276D01*
X0384203Y0204154D01*
X0383981Y0204026D01*
X0383762Y0203893D01*
X0383546Y0203754D01*
X0383334Y0203610D01*
X0383125Y0203462D01*
X0382921Y0203308D01*
X0382719Y0203149D01*
X0382522Y0202985D01*
X0382329Y0202816D01*
X0382140Y0202643D01*
X0381956Y0202465D01*
X0381775Y0202283D01*
X0381600Y0202096D01*
X0381428Y0201906D01*
X0381262Y0201711D01*
X0381100Y0201512D01*
X0380944Y0201309D01*
X0380792Y0201102D01*
X0380646Y0200892D01*
X0380504Y0200678D01*
X0380368Y0200461D01*
X0380237Y0200240D01*
X0380112Y0200017D01*
X0379992Y0199790D01*
X0379878Y0199561D01*
X0379769Y0199328D01*
X0379666Y0199094D01*
X0379569Y0198856D01*
X0379478Y0198617D01*
X0379392Y0198375D01*
X0379313Y0198131D01*
X0379385Y0198109D01*
X0379464Y0198351D01*
X0379548Y0198591D01*
X0379639Y0198829D01*
X0379735Y0199065D01*
X0379838Y0199298D01*
X0379945Y0199528D01*
X0380059Y0199756D01*
X0380178Y0199981D01*
X0380302Y0200203D01*
X0380432Y0200422D01*
X0380567Y0200637D01*
X0380708Y0200850D01*
X0380853Y0201059D01*
X0381004Y0201264D01*
X0381159Y0201465D01*
X0381320Y0201663D01*
X0381485Y0201856D01*
X0381655Y0202046D01*
X0381829Y0202231D01*
X0382008Y0202412D01*
X0382192Y0202588D01*
X0382379Y0202760D01*
X0382571Y0202928D01*
X0382767Y0203090D01*
X0382966Y0203248D01*
X0383170Y0203401D01*
X0383377Y0203549D01*
X0383588Y0203692D01*
X0383802Y0203829D01*
X0384019Y0203961D01*
X0384240Y0204088D01*
X0384464Y0204210D01*
X0384690Y0204326D01*
X0384919Y0204436D01*
X0385151Y0204541D01*
X0385386Y0204640D01*
X0385623Y0204733D01*
X0385862Y0204821D01*
X0386103Y0204902D01*
X0386346Y0204978D01*
X0386590Y0205048D01*
X0386837Y0205111D01*
X0387085Y0205169D01*
X0387334Y0205221D01*
X0387584Y0205266D01*
X0387836Y0205306D01*
X0388088Y0205339D01*
X0388341Y0205366D01*
X0388595Y0205387D01*
X0388849Y0205401D01*
X0389103Y0205410D01*
X0389358Y0205412D01*
X0389612Y0205408D01*
X0389866Y0205398D01*
X0390120Y0205381D01*
X0390374Y0205359D01*
X0390627Y0205330D01*
X0390879Y0205295D01*
X0391130Y0205253D01*
X0391380Y0205206D01*
X0391629Y0205153D01*
X0391876Y0205093D01*
X0392122Y0205028D01*
X0392366Y0204956D01*
X0392609Y0204879D01*
X0392849Y0204796D01*
X0393088Y0204706D01*
X0393324Y0204611D01*
X0393557Y0204511D01*
X0393788Y0204404D01*
X0394017Y0204292D01*
X0394243Y0204175D01*
X0394465Y0204051D01*
X0394685Y0203923D01*
X0394902Y0203789D01*
X0395115Y0203650D01*
X0395324Y0203506D01*
X0395530Y0203357D01*
X0395733Y0203202D01*
X0395686Y0203143D01*
X0395486Y0203296D01*
X0395281Y0203445D01*
X0395073Y0203588D01*
X0394861Y0203726D01*
X0394646Y0203859D01*
X0394428Y0203986D01*
X0394207Y0204109D01*
X0393983Y0204225D01*
X0393756Y0204337D01*
X0393527Y0204442D01*
X0393295Y0204542D01*
X0393060Y0204636D01*
X0392824Y0204725D01*
X0392585Y0204808D01*
X0392344Y0204885D01*
X0392102Y0204956D01*
X0391858Y0205021D01*
X0391612Y0205080D01*
X0391365Y0205133D01*
X0391117Y0205180D01*
X0390867Y0205221D01*
X0390617Y0205255D01*
X0390366Y0205284D01*
X0390114Y0205306D01*
X0389862Y0205323D01*
X0389610Y0205333D01*
X0389357Y0205337D01*
X0389105Y0205335D01*
X0388852Y0205326D01*
X0388600Y0205312D01*
X0388348Y0205291D01*
X0388097Y0205264D01*
X0387846Y0205231D01*
X0387597Y0205192D01*
X0387348Y0205147D01*
X0387101Y0205096D01*
X0386855Y0205039D01*
X0386610Y0204975D01*
X0386367Y0204906D01*
X0386126Y0204831D01*
X0385886Y0204750D01*
X0385649Y0204663D01*
X0385414Y0204571D01*
X0385181Y0204472D01*
X0384951Y0204368D01*
X0384723Y0204259D01*
X0384499Y0204143D01*
X0384277Y0204023D01*
X0384058Y0203897D01*
X0383842Y0203766D01*
X0383629Y0203629D01*
X0383420Y0203487D01*
X0383214Y0203341D01*
X0383012Y0203189D01*
X0382814Y0203032D01*
X0382620Y0202871D01*
X0382429Y0202705D01*
X0382243Y0202534D01*
X0382061Y0202359D01*
X0381883Y0202179D01*
X0381710Y0201995D01*
X0381542Y0201807D01*
X0381378Y0201615D01*
X0381218Y0201419D01*
X0381064Y0201219D01*
X0380914Y0201015D01*
X0380770Y0200808D01*
X0380630Y0200597D01*
X0380496Y0200383D01*
X0380367Y0200166D01*
X0380244Y0199945D01*
X0380126Y0199722D01*
X0380013Y0199496D01*
X0379906Y0199267D01*
X0379805Y0199036D01*
X0379709Y0198802D01*
X0379619Y0198566D01*
X0379535Y0198327D01*
X0379456Y0198087D01*
X0379528Y0198065D01*
X0379606Y0198304D01*
X0379689Y0198540D01*
X0379779Y0198774D01*
X0379874Y0199007D01*
X0379974Y0199236D01*
X0380081Y0199463D01*
X0380193Y0199688D01*
X0380310Y0199910D01*
X0380432Y0200128D01*
X0380560Y0200344D01*
X0380694Y0200557D01*
X0380832Y0200766D01*
X0380975Y0200972D01*
X0381124Y0201174D01*
X0381277Y0201372D01*
X0381435Y0201567D01*
X0381598Y0201758D01*
X0381766Y0201944D01*
X0381938Y0202127D01*
X0382114Y0202305D01*
X0382295Y0202479D01*
X0382479Y0202649D01*
X0382668Y0202814D01*
X0382861Y0202974D01*
X0383058Y0203130D01*
X0383259Y0203280D01*
X0383463Y0203426D01*
X0383670Y0203566D01*
X0383882Y0203702D01*
X0384096Y0203832D01*
X0384313Y0203957D01*
X0384534Y0204077D01*
X0384757Y0204191D01*
X0384983Y0204300D01*
X0385211Y0204403D01*
X0385442Y0204501D01*
X0385676Y0204593D01*
X0385911Y0204679D01*
X0386149Y0204760D01*
X0386388Y0204834D01*
X0386630Y0204903D01*
X0386872Y0204966D01*
X0387117Y0205023D01*
X0387362Y0205073D01*
X0387609Y0205118D01*
X0387857Y0205157D01*
X0388106Y0205190D01*
X0388355Y0205217D01*
X0388605Y0205237D01*
X0388855Y0205251D01*
X0389106Y0205260D01*
X0389357Y0205262D01*
X0389608Y0205258D01*
X0389858Y0205248D01*
X0390108Y0205232D01*
X0390358Y0205209D01*
X0390607Y0205181D01*
X0390856Y0205146D01*
X0391103Y0205106D01*
X0391350Y0205059D01*
X0391595Y0205007D01*
X0391839Y0204948D01*
X0392081Y0204883D01*
X0392322Y0204813D01*
X0392561Y0204737D01*
X0392798Y0204655D01*
X0393033Y0204567D01*
X0393266Y0204473D01*
X0393496Y0204374D01*
X0393724Y0204269D01*
X0393949Y0204158D01*
X0394171Y0204043D01*
X0394391Y0203921D01*
X0394607Y0203795D01*
X0394821Y0203663D01*
X0395031Y0203526D01*
X0395237Y0203384D01*
X0395441Y0203236D01*
X0395640Y0203084D01*
X0395594Y0203025D01*
X0395396Y0203176D01*
X0395194Y0203323D01*
X0394989Y0203464D01*
X0394780Y0203600D01*
X0394569Y0203731D01*
X0394354Y0203856D01*
X0394136Y0203977D01*
X0393915Y0204092D01*
X0393691Y0204201D01*
X0393465Y0204305D01*
X0393237Y0204404D01*
X0393006Y0204497D01*
X0392772Y0204584D01*
X0392537Y0204666D01*
X0392300Y0204741D01*
X0392061Y0204811D01*
X0391820Y0204875D01*
X0391578Y0204933D01*
X0391335Y0204986D01*
X0391090Y0205032D01*
X0390845Y0205072D01*
X0390598Y0205107D01*
X0390351Y0205135D01*
X0390103Y0205157D01*
X0389854Y0205173D01*
X0389605Y0205183D01*
X0389356Y0205187D01*
X0389107Y0205185D01*
X0388859Y0205177D01*
X0388610Y0205162D01*
X0388362Y0205142D01*
X0388114Y0205115D01*
X0387868Y0205083D01*
X0387622Y0205044D01*
X0387377Y0205000D01*
X0387133Y0204949D01*
X0386890Y0204893D01*
X0386649Y0204831D01*
X0386410Y0204762D01*
X0386172Y0204688D01*
X0385936Y0204608D01*
X0385702Y0204523D01*
X0385471Y0204432D01*
X0385242Y0204335D01*
X0385015Y0204232D01*
X0384790Y0204124D01*
X0384569Y0204011D01*
X0384350Y0203892D01*
X0384134Y0203768D01*
X0383921Y0203638D01*
X0383712Y0203504D01*
X0383506Y0203364D01*
X0383303Y0203220D01*
X0383104Y0203070D01*
X0382909Y0202916D01*
X0382717Y0202757D01*
X0382530Y0202593D01*
X0382346Y0202425D01*
X0382167Y0202252D01*
X0381992Y0202075D01*
X0381821Y0201894D01*
X0381655Y0201708D01*
X0381493Y0201519D01*
X0381336Y0201326D01*
X0381184Y0201129D01*
X0381037Y0200928D01*
X0380894Y0200724D01*
X0380757Y0200516D01*
X0380625Y0200305D01*
X0380498Y0200091D01*
X0380376Y0199874D01*
X0380259Y0199654D01*
X0380148Y0199431D01*
X0380043Y0199206D01*
X0379943Y0198977D01*
X0379849Y0198747D01*
X0379760Y0198514D01*
X0379677Y0198280D01*
X0379600Y0198043D01*
D26*
X0385318Y0207602D02*
X0385318Y0208069D01*
X0385318Y0207836D02*
X0386720Y0207836D01*
X0386720Y0208069D02*
X0386720Y0207602D01*
X0386486Y0208585D02*
X0386720Y0208818D01*
X0386720Y0209285D01*
X0386486Y0209519D01*
X0386019Y0210058D02*
X0386019Y0210992D01*
X0385318Y0210758D02*
X0386019Y0210058D01*
X0385552Y0209519D02*
X0385318Y0209285D01*
X0385318Y0208818D01*
X0385552Y0208585D01*
X0386486Y0208585D01*
X0386720Y0210758D02*
X0385318Y0210758D01*
X0313820Y0187002D02*
X0312820Y0187002D01*
X0312820Y0177502D01*
X0313820Y0177502D01*
X0290820Y0177502D02*
X0290820Y0187502D01*
X0289820Y0187502D01*
X0289820Y0177502D02*
X0290820Y0177502D01*
M02*
